<svg width="230" height="143" viewBox="0 0 230 143" fill="none" xmlns="http://www.w3.org/2000/svg">
<mask id="mask0" mask-type="alpha" maskUnits="userSpaceOnUse" x="0" y="0" width="230" height="143">
<path d="M214.964 0.235291H15.9182C7.6141 0.235291 0.882324 6.94425 0.882324 15.2202V127.964C0.882324 136.239 7.6141 142.948 15.9182 142.948H214.964C223.268 142.948 230 136.239 230 127.964V15.2202C230 6.94425 223.268 0.235291 214.964 0.235291Z" fill="white"/>
</mask>
<g mask="url(#mask0)">
<path d="M234.365 0.235291H17.2808C8.22417 0.235291 0.882324 7.54806 0.882324 16.5688V139.459C0.882324 148.48 8.22417 155.793 17.2808 155.793H234.365C243.422 155.793 250.764 148.48 250.764 139.459V16.5688C250.764 7.54806 243.422 0.235291 234.365 0.235291Z" fill="url(#paint0_linear)"/>
<path style="mix-blend-mode:soft-light" opacity="0.5" fill-rule="evenodd" clip-rule="evenodd" d="M-7.14453 148.924C14.1893 86.2842 42.0954 44.4726 76.5736 23.4894C111.052 2.5062 162.029 -6.08168 229.506 -2.27423V148.924H-7.14453Z" fill="url(#paint1_linear)"/>
<path style="mix-blend-mode:soft-light" opacity="0.5" fill-rule="evenodd" clip-rule="evenodd" d="M45.2739 148.743C66.6078 86.103 94.5138 44.2914 128.992 23.3082C163.47 2.32501 214.448 -6.26286 281.924 -2.45541V148.743H45.2739Z" fill="url(#paint2_linear)"/>
<path style="mix-blend-mode:multiply" opacity="0.5" fill-rule="evenodd" clip-rule="evenodd" d="M-2.5752 148.743C-0.90481 107.854 33.1185 94.6669 99.4948 109.181C165.871 123.696 211 82.5249 234.882 -14.3316L240.902 148.743H-2.5752Z" fill="url(#paint3_linear)"/>
<path fill-rule="evenodd" clip-rule="evenodd" d="M197.348 18.0822L196.748 21.6355C194.948 20.6198 190.851 20.3795 190.851 22.2498C190.851 22.9929 191.778 23.504 192.896 24.12C194.59 25.0543 196.722 26.2298 196.722 28.8221C196.722 32.964 192.391 34.4864 189.521 34.4864C186.65 34.4864 184.772 33.5517 184.772 33.5517L185.398 29.8374C187.12 31.2531 192.339 31.6549 192.339 29.4103C192.339 28.4672 191.311 27.9109 190.12 27.2659C188.476 26.3758 186.52 25.3165 186.52 22.8379C186.52 18.2955 191.478 17.3608 193.565 17.3608C195.496 17.3608 197.348 18.0822 197.348 18.0822ZM207.522 34.2014H211.384L208.017 17.6565H204.635C203.073 17.6565 202.693 18.8894 202.693 18.8894L196.42 34.2014H200.804L201.681 31.7439H207.029L207.522 34.2014ZM202.893 28.349L205.103 22.1577L206.347 28.349H202.893ZM170.425 29.0363L174.435 17.6569H178.962L172.27 34.2019H167.887L164.233 19.8285C161.86 18.369 159.833 17.9371 159.833 17.9371L159.91 17.6569H166.54C168.364 17.6569 168.536 19.147 168.536 19.147L169.951 26.5868L169.95 26.5859L170.425 29.0363ZM177.974 34.2014H182.181L184.81 17.6569H180.603L177.974 34.2014Z" fill="white"/>
<rect x="24" y="16" width="31" height="20" rx="8" fill="#D2B056"/>
<rect x="27.5" y="20.5" width="10" height="4" rx="2" fill="#D2B056" stroke="#AB8C3A"/>
<rect x="41.5" y="20.5" width="11" height="4" rx="2" fill="#D2B056" stroke="#AB8C3A"/>
<rect x="27.5" y="26.5" width="10" height="5" rx="2.5" fill="#D2B056" stroke="#AB8C3A"/>
<rect x="41.5" y="26.5" width="11" height="5" rx="2.5" fill="#D2B056" stroke="#AB8C3A"/>
<path d="M26.0186 73.2687C25.7486 73.2687 25.4996 73.2057 25.2716 73.0797C25.0436 72.9477 24.8636 72.7677 24.7316 72.5397C24.6056 72.3117 24.5426 72.0567 24.5426 71.7747C24.5426 71.4927 24.6056 71.2407 24.7316 71.0187C24.8636 70.7907 25.0406 70.6137 25.2626 70.4877C25.4906 70.3617 25.7426 70.2987 26.0186 70.2987C26.2946 70.2987 26.5466 70.3617 26.7746 70.4877C27.0026 70.6137 27.1826 70.7907 27.3146 71.0187C27.4466 71.2407 27.5126 71.4927 27.5126 71.7747C27.5126 72.0567 27.4466 72.3117 27.3146 72.5397C27.1826 72.7677 27.0026 72.9477 26.7746 73.0797C26.5466 73.2057 26.2946 73.2687 26.0186 73.2687ZM32.7503 73.2687C32.4803 73.2687 32.2313 73.2057 32.0033 73.0797C31.7753 72.9477 31.5953 72.7677 31.4633 72.5397C31.3373 72.3117 31.2743 72.0567 31.2743 71.7747C31.2743 71.4927 31.3373 71.2407 31.4633 71.0187C31.5953 70.7907 31.7723 70.6137 31.9943 70.4877C32.2223 70.3617 32.4743 70.2987 32.7503 70.2987C33.0263 70.2987 33.2783 70.3617 33.5063 70.4877C33.7343 70.6137 33.9143 70.7907 34.0463 71.0187C34.1783 71.2407 34.2443 71.4927 34.2443 71.7747C34.2443 72.0567 34.1783 72.3117 34.0463 72.5397C33.9143 72.7677 33.7343 72.9477 33.5063 73.0797C33.2783 73.2057 33.0263 73.2687 32.7503 73.2687ZM39.4819 73.2687C39.2119 73.2687 38.9629 73.2057 38.7349 73.0797C38.5069 72.9477 38.3269 72.7677 38.1949 72.5397C38.0689 72.3117 38.0059 72.0567 38.0059 71.7747C38.0059 71.4927 38.0689 71.2407 38.1949 71.0187C38.3269 70.7907 38.5039 70.6137 38.7259 70.4877C38.9539 70.3617 39.2059 70.2987 39.4819 70.2987C39.7579 70.2987 40.0099 70.3617 40.2379 70.4877C40.4659 70.6137 40.6459 70.7907 40.7779 71.0187C40.9099 71.2407 40.9759 71.4927 40.9759 71.7747C40.9759 72.0567 40.9099 72.3117 40.7779 72.5397C40.6459 72.7677 40.4659 72.9477 40.2379 73.0797C40.0099 73.2057 39.7579 73.2687 39.4819 73.2687ZM46.2136 73.2687C45.9436 73.2687 45.6946 73.2057 45.4666 73.0797C45.2386 72.9477 45.0586 72.7677 44.9266 72.5397C44.8006 72.3117 44.7376 72.0567 44.7376 71.7747C44.7376 71.4927 44.8006 71.2407 44.9266 71.0187C45.0586 70.7907 45.2356 70.6137 45.4576 70.4877C45.6856 70.3617 45.9376 70.2987 46.2136 70.2987C46.4896 70.2987 46.7416 70.3617 46.9696 70.4877C47.1976 70.6137 47.3776 70.7907 47.5096 71.0187C47.6416 71.2407 47.7076 71.4927 47.7076 71.7747C47.7076 72.0567 47.6416 72.3117 47.5096 72.5397C47.3776 72.7677 47.1976 72.9477 46.9696 73.0797C46.7416 73.2057 46.4896 73.2687 46.2136 73.2687Z" fill="white"/>
<path d="M30.5456 104.932V111.232H29.8076L26.0276 106.534V111.232H25.1276V104.932H25.8656L29.6456 109.63V104.932H30.5456ZM35.4463 111.304C34.8103 111.304 34.2373 111.166 33.7273 110.89C33.2173 110.608 32.8153 110.221 32.5213 109.729C32.2333 109.237 32.0893 108.688 32.0893 108.082C32.0893 107.476 32.2333 106.927 32.5213 106.435C32.8153 105.943 33.2173 105.559 33.7273 105.283C34.2373 105.001 34.8103 104.86 35.4463 104.86C36.0763 104.86 36.6463 105.001 37.1563 105.283C37.6663 105.559 38.0653 105.943 38.3533 106.435C38.6413 106.921 38.7853 107.47 38.7853 108.082C38.7853 108.694 38.6413 109.246 38.3533 109.738C38.0653 110.224 37.6663 110.608 37.1563 110.89C36.6463 111.166 36.0763 111.304 35.4463 111.304ZM35.4463 110.503C35.9083 110.503 36.3223 110.398 36.6883 110.188C37.0603 109.978 37.3513 109.69 37.5613 109.324C37.7773 108.952 37.8853 108.538 37.8853 108.082C37.8853 107.626 37.7773 107.215 37.5613 106.849C37.3513 106.477 37.0603 106.186 36.6883 105.976C36.3223 105.766 35.9083 105.661 35.4463 105.661C34.9843 105.661 34.5643 105.766 34.1863 105.976C33.8143 106.186 33.5203 106.477 33.3043 106.849C33.0943 107.215 32.9893 107.626 32.9893 108.082C32.9893 108.538 33.0943 108.952 33.3043 109.324C33.5203 109.69 33.8143 109.978 34.1863 110.188C34.5643 110.398 34.9843 110.503 35.4463 110.503ZM46.1729 111.232L46.1639 106.642L43.8869 110.467H43.4729L41.1959 106.669V111.232H40.3319V104.932H41.0699L43.6979 109.36L46.2899 104.932H47.0279L47.0369 111.232H46.1729ZM53.6706 110.449V111.232H49.0986V104.932H53.5446V105.715H49.9986V107.65H53.1576V108.415H49.9986V110.449H53.6706ZM60.7039 111.304C60.0739 111.304 59.5039 111.166 58.9939 110.89C58.4899 110.608 58.0939 110.224 57.8059 109.738C57.5179 109.246 57.3739 108.694 57.3739 108.082C57.3739 107.47 57.5179 106.921 57.8059 106.435C58.0939 105.943 58.4929 105.559 59.0029 105.283C59.5129 105.001 60.0829 104.86 60.7129 104.86C61.2049 104.86 61.6549 104.944 62.0629 105.112C62.4709 105.274 62.8189 105.517 63.1069 105.841L62.5219 106.408C62.0479 105.91 61.4569 105.661 60.7489 105.661C60.2809 105.661 59.8579 105.766 59.4799 105.976C59.1019 106.186 58.8049 106.477 58.5889 106.849C58.3789 107.215 58.2739 107.626 58.2739 108.082C58.2739 108.538 58.3789 108.952 58.5889 109.324C58.8049 109.69 59.1019 109.978 59.4799 110.188C59.8579 110.398 60.2809 110.503 60.7489 110.503C61.4509 110.503 62.0419 110.251 62.5219 109.747L63.1069 110.314C62.8189 110.638 62.4679 110.884 62.0539 111.052C61.6459 111.22 61.1959 111.304 60.7039 111.304ZM67.274 111.304C66.638 111.304 66.065 111.166 65.555 110.89C65.045 110.608 64.643 110.221 64.349 109.729C64.061 109.237 63.917 108.688 63.917 108.082C63.917 107.476 64.061 106.927 64.349 106.435C64.643 105.943 65.045 105.559 65.555 105.283C66.065 105.001 66.638 104.86 67.274 104.86C67.904 104.86 68.474 105.001 68.984 105.283C69.494 105.559 69.893 105.943 70.181 106.435C70.469 106.921 70.613 107.47 70.613 108.082C70.613 108.694 70.469 109.246 70.181 109.738C69.893 110.224 69.494 110.608 68.984 110.89C68.474 111.166 67.904 111.304 67.274 111.304ZM67.274 110.503C67.736 110.503 68.15 110.398 68.516 110.188C68.888 109.978 69.179 109.69 69.389 109.324C69.605 108.952 69.713 108.538 69.713 108.082C69.713 107.626 69.605 107.215 69.389 106.849C69.179 106.477 68.888 106.186 68.516 105.976C68.15 105.766 67.736 105.661 67.274 105.661C66.812 105.661 66.392 105.766 66.014 105.976C65.642 106.186 65.348 106.477 65.132 106.849C64.922 107.215 64.817 107.626 64.817 108.082C64.817 108.538 64.922 108.952 65.132 109.324C65.348 109.69 65.642 109.978 66.014 110.188C66.392 110.398 66.812 110.503 67.274 110.503ZM78.0006 111.232L77.9916 106.642L75.7146 110.467H75.3006L73.0236 106.669V111.232H72.1596V104.932H72.8976L75.5256 109.36L78.1176 104.932H78.8556L78.8646 111.232H78.0006ZM83.3833 104.932C84.1993 104.932 84.8413 105.127 85.3093 105.517C85.7773 105.907 86.0113 106.444 86.0113 107.128C86.0113 107.812 85.7773 108.349 85.3093 108.739C84.8413 109.129 84.1993 109.324 83.3833 109.324H81.8263V111.232H80.9263V104.932H83.3833ZM83.3563 108.541C83.9263 108.541 84.3613 108.421 84.6613 108.181C84.9613 107.935 85.1113 107.584 85.1113 107.128C85.1113 106.672 84.9613 106.324 84.6613 106.084C84.3613 105.838 83.9263 105.715 83.3563 105.715H81.8263V108.541H83.3563ZM87.5045 104.932H88.4045V110.449H91.8155V111.232H87.5045V104.932ZM97.5913 110.449V111.232H93.0193V104.932H97.4653V105.715H93.9193V107.65H97.0783V108.415H93.9193V110.449H97.5913ZM100.471 105.715H98.3106V104.932H103.522V105.715H101.362V111.232H100.471V105.715ZM107.429 111.304C106.793 111.304 106.22 111.166 105.71 110.89C105.2 110.608 104.798 110.221 104.504 109.729C104.216 109.237 104.072 108.688 104.072 108.082C104.072 107.476 104.216 106.927 104.504 106.435C104.798 105.943 105.2 105.559 105.71 105.283C106.22 105.001 106.793 104.86 107.429 104.86C108.059 104.86 108.629 105.001 109.139 105.283C109.649 105.559 110.048 105.943 110.336 106.435C110.624 106.921 110.768 107.47 110.768 108.082C110.768 108.694 110.624 109.246 110.336 109.738C110.048 110.224 109.649 110.608 109.139 110.89C108.629 111.166 108.059 111.304 107.429 111.304ZM107.429 110.503C107.891 110.503 108.305 110.398 108.671 110.188C109.043 109.978 109.334 109.69 109.544 109.324C109.76 108.952 109.868 108.538 109.868 108.082C109.868 107.626 109.76 107.215 109.544 106.849C109.334 106.477 109.043 106.186 108.671 105.976C108.305 105.766 107.891 105.661 107.429 105.661C106.967 105.661 106.547 105.766 106.169 105.976C105.797 106.186 105.503 106.477 105.287 106.849C105.077 107.215 104.972 107.626 104.972 108.082C104.972 108.538 105.077 108.952 105.287 109.324C105.503 109.69 105.797 109.978 106.169 110.188C106.547 110.398 106.967 110.503 107.429 110.503Z" fill="white"/>
<path d="M63.8809 73.2687C63.6109 73.2687 63.3619 73.2057 63.1339 73.0797C62.9059 72.9477 62.7259 72.7677 62.5939 72.5397C62.4679 72.3117 62.4049 72.0567 62.4049 71.7747C62.4049 71.4927 62.4679 71.2407 62.5939 71.0187C62.7259 70.7907 62.9029 70.6137 63.1249 70.4877C63.3529 70.3617 63.6049 70.2987 63.8809 70.2987C64.1569 70.2987 64.4089 70.3617 64.6369 70.4877C64.8649 70.6137 65.0449 70.7907 65.1769 71.0187C65.3089 71.2407 65.3749 71.4927 65.3749 71.7747C65.3749 72.0567 65.3089 72.3117 65.1769 72.5397C65.0449 72.7677 64.8649 72.9477 64.6369 73.0797C64.4089 73.2057 64.1569 73.2687 63.8809 73.2687ZM70.6126 73.2687C70.3426 73.2687 70.0936 73.2057 69.8656 73.0797C69.6376 72.9477 69.4576 72.7677 69.3256 72.5397C69.1996 72.3117 69.1366 72.0567 69.1366 71.7747C69.1366 71.4927 69.1996 71.2407 69.3256 71.0187C69.4576 70.7907 69.6346 70.6137 69.8566 70.4877C70.0846 70.3617 70.3366 70.2987 70.6126 70.2987C70.8886 70.2987 71.1406 70.3617 71.3686 70.4877C71.5966 70.6137 71.7766 70.7907 71.9086 71.0187C72.0406 71.2407 72.1066 71.4927 72.1066 71.7747C72.1066 72.0567 72.0406 72.3117 71.9086 72.5397C71.7766 72.7677 71.5966 72.9477 71.3686 73.0797C71.1406 73.2057 70.8886 73.2687 70.6126 73.2687ZM77.3442 73.2687C77.0742 73.2687 76.8252 73.2057 76.5972 73.0797C76.3692 72.9477 76.1892 72.7677 76.0572 72.5397C75.9312 72.3117 75.8682 72.0567 75.8682 71.7747C75.8682 71.4927 75.9312 71.2407 76.0572 71.0187C76.1892 70.7907 76.3662 70.6137 76.5882 70.4877C76.8162 70.3617 77.0682 70.2987 77.3442 70.2987C77.6202 70.2987 77.8722 70.3617 78.1002 70.4877C78.3282 70.6137 78.5082 70.7907 78.6402 71.0187C78.7722 71.2407 78.8382 71.4927 78.8382 71.7747C78.8382 72.0567 78.7722 72.3117 78.6402 72.5397C78.5082 72.7677 78.3282 72.9477 78.1002 73.0797C77.8722 73.2057 77.6202 73.2687 77.3442 73.2687ZM84.0759 73.2687C83.8059 73.2687 83.5569 73.2057 83.3289 73.0797C83.1009 72.9477 82.9209 72.7677 82.7889 72.5397C82.6629 72.3117 82.5999 72.0567 82.5999 71.7747C82.5999 71.4927 82.6629 71.2407 82.7889 71.0187C82.9209 70.7907 83.0979 70.6137 83.3199 70.4877C83.5479 70.3617 83.7999 70.2987 84.0759 70.2987C84.3519 70.2987 84.6039 70.3617 84.8319 70.4877C85.0599 70.6137 85.2399 70.7907 85.3719 71.0187C85.5039 71.2407 85.5699 71.4927 85.5699 71.7747C85.5699 72.0567 85.5039 72.3117 85.3719 72.5397C85.2399 72.7677 85.0599 72.9477 84.8319 73.0797C84.6039 73.2057 84.3519 73.2687 84.0759 73.2687Z" fill="white"/>
<path d="M100.773 73.2687C100.503 73.2687 100.254 73.2057 100.026 73.0797C99.7975 72.9477 99.6175 72.7677 99.4855 72.5397C99.3595 72.3117 99.2965 72.0567 99.2965 71.7747C99.2965 71.4927 99.3595 71.2407 99.4855 71.0187C99.6175 70.7907 99.7945 70.6137 100.017 70.4877C100.245 70.3617 100.497 70.2987 100.773 70.2987C101.049 70.2987 101.301 70.3617 101.529 70.4877C101.757 70.6137 101.937 70.7907 102.069 71.0187C102.201 71.2407 102.267 71.4927 102.267 71.7747C102.267 72.0567 102.201 72.3117 102.069 72.5397C101.937 72.7677 101.757 72.9477 101.529 73.0797C101.301 73.2057 101.049 73.2687 100.773 73.2687ZM107.504 73.2687C107.234 73.2687 106.985 73.2057 106.757 73.0797C106.529 72.9477 106.349 72.7677 106.217 72.5397C106.091 72.3117 106.028 72.0567 106.028 71.7747C106.028 71.4927 106.091 71.2407 106.217 71.0187C106.349 70.7907 106.526 70.6137 106.748 70.4877C106.976 70.3617 107.228 70.2987 107.504 70.2987C107.78 70.2987 108.032 70.3617 108.26 70.4877C108.488 70.6137 108.668 70.7907 108.8 71.0187C108.932 71.2407 108.998 71.4927 108.998 71.7747C108.998 72.0567 108.932 72.3117 108.8 72.5397C108.668 72.7677 108.488 72.9477 108.26 73.0797C108.032 73.2057 107.78 73.2687 107.504 73.2687ZM114.236 73.2687C113.966 73.2687 113.717 73.2057 113.489 73.0797C113.261 72.9477 113.081 72.7677 112.949 72.5397C112.823 72.3117 112.76 72.0567 112.76 71.7747C112.76 71.4927 112.823 71.2407 112.949 71.0187C113.081 70.7907 113.258 70.6137 113.48 70.4877C113.708 70.3617 113.96 70.2987 114.236 70.2987C114.512 70.2987 114.764 70.3617 114.992 70.4877C115.22 70.6137 115.4 70.7907 115.532 71.0187C115.664 71.2407 115.73 71.4927 115.73 71.7747C115.73 72.0567 115.664 72.3117 115.532 72.5397C115.4 72.7677 115.22 72.9477 114.992 73.0797C114.764 73.2057 114.512 73.2687 114.236 73.2687ZM120.967 73.2687C120.697 73.2687 120.448 73.2057 120.22 73.0797C119.992 72.9477 119.812 72.7677 119.68 72.5397C119.554 72.3117 119.491 72.0567 119.491 71.7747C119.491 71.4927 119.554 71.2407 119.68 71.0187C119.812 70.7907 119.989 70.6137 120.211 70.4877C120.439 70.3617 120.691 70.2987 120.967 70.2987C121.243 70.2987 121.495 70.3617 121.723 70.4877C121.951 70.6137 122.131 70.7907 122.263 71.0187C122.395 71.2407 122.461 71.4927 122.461 71.7747C122.461 72.0567 122.395 72.3117 122.263 72.5397C122.131 72.7677 121.951 72.9477 121.723 73.0797C121.495 73.2057 121.243 73.2687 120.967 73.2687Z" fill="white"/>
<path d="M138.636 73.2687C138.366 73.2687 138.117 73.2057 137.889 73.0797C137.661 72.9477 137.481 72.7677 137.349 72.5397C137.223 72.3117 137.16 72.0567 137.16 71.7747C137.16 71.4927 137.223 71.2407 137.349 71.0187C137.481 70.7907 137.658 70.6137 137.88 70.4877C138.108 70.3617 138.36 70.2987 138.636 70.2987C138.912 70.2987 139.164 70.3617 139.392 70.4877C139.62 70.6137 139.8 70.7907 139.932 71.0187C140.064 71.2407 140.13 71.4927 140.13 71.7747C140.13 72.0567 140.064 72.3117 139.932 72.5397C139.8 72.7677 139.62 72.9477 139.392 73.0797C139.164 73.2057 138.912 73.2687 138.636 73.2687ZM145.367 73.2687C145.097 73.2687 144.848 73.2057 144.62 73.0797C144.392 72.9477 144.212 72.7677 144.08 72.5397C143.954 72.3117 143.891 72.0567 143.891 71.7747C143.891 71.4927 143.954 71.2407 144.08 71.0187C144.212 70.7907 144.389 70.6137 144.611 70.4877C144.839 70.3617 145.091 70.2987 145.367 70.2987C145.643 70.2987 145.895 70.3617 146.123 70.4877C146.351 70.6137 146.531 70.7907 146.663 71.0187C146.795 71.2407 146.861 71.4927 146.861 71.7747C146.861 72.0567 146.795 72.3117 146.663 72.5397C146.531 72.7677 146.351 72.9477 146.123 73.0797C145.895 73.2057 145.643 73.2687 145.367 73.2687ZM152.099 73.2687C151.829 73.2687 151.58 73.2057 151.352 73.0797C151.124 72.9477 150.944 72.7677 150.812 72.5397C150.686 72.3117 150.623 72.0567 150.623 71.7747C150.623 71.4927 150.686 71.2407 150.812 71.0187C150.944 70.7907 151.121 70.6137 151.343 70.4877C151.571 70.3617 151.823 70.2987 152.099 70.2987C152.375 70.2987 152.627 70.3617 152.855 70.4877C153.083 70.6137 153.263 70.7907 153.395 71.0187C153.527 71.2407 153.593 71.4927 153.593 71.7747C153.593 72.0567 153.527 72.3117 153.395 72.5397C153.263 72.7677 153.083 72.9477 152.855 73.0797C152.627 73.2057 152.375 73.2687 152.099 73.2687ZM158.831 73.2687C158.561 73.2687 158.312 73.2057 158.084 73.0797C157.856 72.9477 157.676 72.7677 157.544 72.5397C157.418 72.3117 157.355 72.0567 157.355 71.7747C157.355 71.4927 157.418 71.2407 157.544 71.0187C157.676 70.7907 157.853 70.6137 158.075 70.4877C158.303 70.3617 158.555 70.2987 158.831 70.2987C159.107 70.2987 159.359 70.3617 159.587 70.4877C159.815 70.6137 159.995 70.7907 160.127 71.0187C160.259 71.2407 160.325 71.4927 160.325 71.7747C160.325 72.0567 160.259 72.3117 160.127 72.5397C159.995 72.7677 159.815 72.9477 159.587 73.0797C159.359 73.2057 159.107 73.2687 158.831 73.2687Z" fill="white"/>
</g>
<defs>
<linearGradient id="paint0_linear" x1="250.764" y1="155.793" x2="147.409" y2="-49.4832" gradientUnits="userSpaceOnUse">
<stop stop-color="#3B6472"/>
<stop offset="1" stop-color="#46B7BE"/>
</linearGradient>
<linearGradient id="paint1_linear" x1="235.859" y1="41.6938" x2="116.825" y2="194.468" gradientUnits="userSpaceOnUse">
<stop stop-color="#EEEEEE"/>
<stop offset="1" stop-color="#D8D8D8" stop-opacity="0"/>
</linearGradient>
<linearGradient id="paint2_linear" x1="288.278" y1="41.5126" x2="169.243" y2="194.287" gradientUnits="userSpaceOnUse">
<stop stop-color="#EEEEEE"/>
<stop offset="1" stop-color="#D8D8D8" stop-opacity="0"/>
</linearGradient>
<linearGradient id="paint3_linear" x1="247.438" y1="33.757" x2="118.601" y2="192.409" gradientUnits="userSpaceOnUse">
<stop stop-color="#EEEEEE"/>
<stop offset="1" stop-color="#D8D8D8" stop-opacity="0"/>
</linearGradient>
</defs>
</svg>
