<svg width="353" height="69" viewBox="0 0 353 69" fill="none" xmlns="http://www.w3.org/2000/svg">
<path d="M6.656 49.248L5.94416 49.9505L5.95359 49.9598L6.656 49.248ZM1.256 2.736V1.736H0.256001V2.736H1.256ZM10.4 2.736H11.4V1.736H10.4V2.736ZM13.496 43.848L12.7511 44.5153L12.7582 44.523L13.496 43.848ZM31.784 43.776L31.0468 43.1002L31.0392 43.1088L31.784 43.776ZM34.952 2.736V1.736H33.952V2.736H34.952ZM44.096 2.736H45.096V1.736H44.096V2.736ZM38.624 49.176L37.9169 48.4689V48.4689L38.624 49.176ZM22.712 53.648C15.818 53.648 10.758 51.891 7.35841 48.5362L5.95359 49.9598C9.85004 53.805 15.494 55.648 22.712 55.648V53.648ZM7.36777 48.5456C4.0118 45.1449 2.256 40.1078 2.256 33.264H0.256001C0.256001 40.4362 2.1002 46.0551 5.94423 49.9504L7.36777 48.5456ZM2.256 33.264V2.736H0.256001V33.264H2.256ZM1.256 3.736H10.4V1.736H1.256V3.736ZM9.4 2.736V33.768H11.4V2.736H9.4ZM9.4 33.768C9.4 38.3259 10.4645 41.9627 12.7512 44.5152L14.2408 43.1808C12.3995 41.1253 11.4 38.0421 11.4 33.768H9.4ZM12.7582 44.523C15.0691 47.0489 18.4497 48.232 22.712 48.232V46.232C18.8144 46.232 16.0509 45.1591 14.2338 43.173L12.7582 44.523ZM22.712 48.232C26.8932 48.232 30.2239 47.0162 32.5288 44.4432L31.0392 43.1088C29.2161 45.1438 26.4988 46.232 22.712 46.232V48.232ZM32.5212 44.4517C34.8593 41.901 35.952 38.2865 35.952 33.768H33.952C33.952 37.9855 32.9327 41.043 31.0468 43.1003L32.5212 44.4517ZM35.952 33.768V2.736H33.952V33.768H35.952ZM34.952 3.736H44.096V1.736H34.952V3.736ZM43.096 2.736V33.264H45.096V2.736H43.096ZM43.096 33.264C43.096 40.054 41.3193 45.0665 37.9169 48.4689L39.3311 49.8831C43.2247 45.9895 45.096 40.394 45.096 33.264H43.096ZM37.9169 48.4689C34.5145 51.8713 29.502 53.648 22.712 53.648V55.648C29.842 55.648 35.4375 53.7767 39.3311 49.8831L37.9169 48.4689ZM88.0329 54V55H89.0329V54H88.0329ZM79.0329 54H78.0329V55H79.0329V54ZM77.3769 25.848L76.6041 26.4827L76.6098 26.4897L76.6156 26.4965L77.3769 25.848ZM65.6409 26.496L66.3579 27.1931L66.3673 27.1832L65.6409 26.496ZM63.1209 54V55H64.1209V54H63.1209ZM54.1929 54H53.1929V55H54.1929V54ZM54.1929 1.008V0.00799561H53.1929V1.008H54.1929ZM63.1209 1.008H64.1209V0.00799561H63.1209V1.008ZM63.1209 22.896H62.1209V26.3402L63.9654 23.4315L63.1209 22.896ZM68.0889 18.36L68.5443 19.2502L68.5525 19.2461L68.5605 19.2418L68.0889 18.36ZM75.0009 17.704C79.1517 17.704 82.0936 18.8901 84.0205 21.1044C85.9706 23.3454 87.0329 26.8107 87.0329 31.68H89.0329C89.0329 26.5653 87.9232 22.5426 85.5293 19.7916C83.1122 17.0139 79.538 15.704 75.0009 15.704V17.704ZM87.0329 31.68V54H89.0329V31.68H87.0329ZM88.0329 53H79.0329V55H88.0329V53ZM80.0329 54V32.112H78.0329V54H80.0329ZM80.0329 32.112C80.0329 29.1453 79.4719 26.7653 78.1381 25.1995L76.6156 26.4965C77.4899 27.5227 78.0329 29.3187 78.0329 32.112H80.0329ZM78.1496 25.2133C76.7983 23.5682 74.7642 22.832 72.2649 22.832V24.832C74.3736 24.832 75.7475 25.4398 76.6041 26.4827L78.1496 25.2133ZM72.2649 22.832C69.2901 22.832 66.8068 23.8083 64.9144 25.8088L66.3673 27.1832C67.835 25.6317 69.7676 24.832 72.2649 24.832V22.832ZM64.9239 25.7989C63.0279 27.7491 62.1209 30.3218 62.1209 33.408H64.1209C64.1209 30.7342 64.8939 28.6989 66.3579 27.1931L64.9239 25.7989ZM62.1209 33.408V54H64.1209V33.408H62.1209ZM63.1209 53H54.1929V55H63.1209V53ZM55.1929 54V1.008H53.1929V54H55.1929ZM54.1929 2.008H63.1209V0.00799561H54.1929V2.008ZM62.1209 1.008V22.896H64.1209V1.008H62.1209ZM63.9654 23.4315C65.1182 21.6136 66.6402 20.2244 68.5443 19.2502L67.6334 17.4697C65.4095 18.6076 63.6195 20.2424 62.2764 22.3605L63.9654 23.4315ZM68.5605 19.2418C70.467 18.222 72.6068 17.704 75.0009 17.704V15.704C72.307 15.704 69.8387 16.29 67.6172 17.4782L68.5605 19.2418ZM130.696 17.64H131.696V16.64H130.696V17.64ZM130.696 54V55H131.696V54H130.696ZM121.912 54H120.912V55H121.912V54ZM121.912 48.384H122.912V44.6184L121.043 47.8879L121.912 48.384ZM117.304 52.992L116.822 52.1158L117.304 52.992ZM97.3597 17.64V16.64H96.3597V17.64H97.3597ZM106.288 17.64H107.288V16.64H106.288V17.64ZM107.872 45.504L107.108 46.1499L107.115 46.1583L107.123 46.1666L107.872 45.504ZM121.624 17.64V16.64H120.624V17.64H121.624ZM129.696 17.64V54H131.696V17.64H129.696ZM130.696 53H121.912V55H130.696V53ZM122.912 54V48.384H120.912V54H122.912ZM121.043 47.8879C119.977 49.754 118.571 51.1539 116.822 52.1158L117.786 53.8682C119.877 52.7181 121.542 51.046 122.78 48.8801L121.043 47.8879ZM116.822 52.1158C115.069 53.0799 113.031 53.576 110.68 53.576V55.576C113.32 55.576 115.698 55.0161 117.786 53.8682L116.822 52.1158ZM110.68 53.576C106.426 53.576 103.41 52.3858 101.437 50.1674C99.444 47.9267 98.3597 44.4648 98.3597 39.6H96.3597C96.3597 44.7192 97.4954 48.7453 99.9425 51.4966C102.409 54.2702 106.053 55.576 110.68 55.576V53.576ZM98.3597 39.6V17.64H96.3597V39.6H98.3597ZM97.3597 18.64H106.288V16.64H97.3597V18.64ZM105.288 17.64V39.672H107.288V17.64H105.288ZM105.288 39.672C105.288 42.4124 105.83 44.6393 107.108 46.1499L108.635 44.8581C107.801 43.8727 107.288 42.2116 107.288 39.672H105.288ZM107.123 46.1666C108.477 47.6976 110.475 48.376 112.912 48.376V46.376C110.836 46.376 109.474 45.8064 108.621 44.8414L107.123 46.1666ZM112.912 48.376C115.793 48.376 118.187 47.4216 119.985 45.4597L118.511 44.1083C117.141 45.6024 115.311 46.376 112.912 46.376V48.376ZM119.985 45.4597C121.774 43.5074 122.624 40.9422 122.624 37.872H120.624C120.624 40.5618 119.889 42.6046 118.511 44.1083L119.985 45.4597ZM122.624 37.872V17.64H120.624V37.872H122.624ZM121.624 18.64H130.696V16.64H121.624V18.64ZM173.586 17.64H174.586V16.64H173.586V17.64ZM173.586 54V55H174.586V54H173.586ZM164.802 54H163.802V55H164.802V54ZM164.802 48.384H165.802V44.6184L163.934 47.8879L164.802 48.384ZM160.194 52.992L159.712 52.1158L160.194 52.992ZM140.25 17.64V16.64H139.25V17.64H140.25ZM149.178 17.64H150.178V16.64H149.178V17.64ZM150.762 45.504L149.999 46.1499L150.006 46.1583L150.013 46.1666L150.762 45.504ZM164.514 17.64V16.64H163.514V17.64H164.514ZM172.586 17.64V54H174.586V17.64H172.586ZM173.586 53H164.802V55H173.586V53ZM165.802 54V48.384H163.802V54H165.802ZM163.934 47.8879C162.868 49.754 161.461 51.1539 159.712 52.1158L160.676 53.8682C162.767 52.7181 164.433 51.046 165.671 48.8801L163.934 47.8879ZM159.712 52.1158C157.96 53.0799 155.922 53.576 153.57 53.576V55.576C156.211 55.576 158.589 55.0161 160.676 53.8682L159.712 52.1158ZM153.57 53.576C149.317 53.576 146.301 52.3858 144.328 50.1674C142.335 47.9267 141.25 44.4648 141.25 39.6H139.25C139.25 44.7192 140.386 48.7453 142.833 51.4966C145.3 54.2702 148.944 55.576 153.57 55.576V53.576ZM141.25 39.6V17.64H139.25V39.6H141.25ZM140.25 18.64H149.178V16.64H140.25V18.64ZM148.178 17.64V39.672H150.178V17.64H148.178ZM148.178 39.672C148.178 42.4124 148.721 44.6393 149.999 46.1499L151.526 44.8581C150.692 43.8727 150.178 42.2116 150.178 39.672H148.178ZM150.013 46.1666C151.368 47.6976 153.366 48.376 155.802 48.376V46.376C153.727 46.376 152.365 45.8064 151.511 44.8414L150.013 46.1666ZM155.802 48.376C158.683 48.376 161.077 47.4216 162.875 45.4597L161.401 44.1083C160.031 45.6024 158.201 46.376 155.802 46.376V48.376ZM162.875 45.4597C164.665 43.5074 165.514 40.9422 165.514 37.872H163.514C163.514 40.5618 162.78 42.6046 161.401 44.1083L162.875 45.4597ZM165.514 37.872V17.64H163.514V37.872H165.514ZM164.514 18.64H173.586V16.64H164.514V18.64ZM216.477 17.64H217.477V16.64H216.477V17.64ZM216.477 54V55H217.477V54H216.477ZM207.693 54H206.693V55H207.693V54ZM207.693 48.384H208.693V44.6184L206.825 47.8879L207.693 48.384ZM203.085 52.992L202.603 52.1158L203.085 52.992ZM183.141 17.64V16.64H182.141V17.64H183.141ZM192.069 17.64H193.069V16.64H192.069V17.64ZM193.653 45.504L192.89 46.1499L192.897 46.1583L192.904 46.1666L193.653 45.504ZM207.405 17.64V16.64H206.405V17.64H207.405ZM215.477 17.64V54H217.477V17.64H215.477ZM216.477 53H207.693V55H216.477V53ZM208.693 54V48.384H206.693V54H208.693ZM206.825 47.8879C205.758 49.754 204.352 51.1539 202.603 52.1158L203.567 53.8682C205.658 52.7181 207.324 51.046 208.561 48.8801L206.825 47.8879ZM202.603 52.1158C200.85 53.0799 198.812 53.576 196.461 53.576V55.576C199.102 55.576 201.48 55.0161 203.567 53.8682L202.603 52.1158ZM196.461 53.576C192.207 53.576 189.191 52.3858 187.218 50.1674C185.225 47.9267 184.141 44.4648 184.141 39.6H182.141C182.141 44.7192 183.277 48.7453 185.724 51.4966C188.191 54.2702 191.834 55.576 196.461 55.576V53.576ZM184.141 39.6V17.64H182.141V39.6H184.141ZM183.141 18.64H192.069V16.64H183.141V18.64ZM191.069 17.64V39.672H193.069V17.64H191.069ZM191.069 39.672C191.069 42.4124 191.611 44.6393 192.89 46.1499L194.416 44.8581C193.583 43.8727 193.069 42.2116 193.069 39.672H191.069ZM192.904 46.1666C194.258 47.6976 196.257 48.376 198.693 48.376V46.376C196.617 46.376 195.256 45.8064 194.402 44.8414L192.904 46.1666ZM198.693 48.376C201.574 48.376 203.968 47.4216 205.766 45.4597L204.292 44.1083C202.922 45.6024 201.092 46.376 198.693 46.376V48.376ZM205.766 45.4597C207.556 43.5074 208.405 40.9422 208.405 37.872H206.405C206.405 40.5618 205.67 42.6046 204.292 44.1083L205.766 45.4597ZM208.405 37.872V17.64H206.405V37.872H208.405ZM207.405 18.64H216.477V16.64H207.405V18.64ZM226.248 1.008V0.00799561H225.248V1.008H226.248ZM235.176 1.008H236.176V0.00799561H235.176V1.008ZM235.176 54V55H236.176V54H235.176ZM226.248 54H225.248V55H226.248V54ZM226.248 2.008H235.176V0.00799561H226.248V2.008ZM234.176 1.008V54H236.176V1.008H234.176ZM235.176 53H226.248V55H235.176V53ZM227.248 54V1.008H225.248V54H227.248ZM245.021 1.008V0.00799561H244.021V1.008H245.021ZM253.949 1.008H254.949V0.00799561H253.949V1.008ZM253.949 54V55H254.949V54H253.949ZM245.021 54H244.021V55H245.021V54ZM245.021 2.008H253.949V0.00799561H245.021V2.008ZM252.949 1.008V54H254.949V1.008H252.949ZM253.949 53H245.021V55H253.949V53ZM246.021 54V1.008H244.021V54H246.021ZM263.794 1.008V0.00799561H262.794V1.008H263.794ZM272.722 1.008H273.722V0.00799561H272.722V1.008ZM272.722 54V55H273.722V54H272.722ZM263.794 54H262.794V55H263.794V54ZM263.794 2.008H272.722V0.00799561H263.794V2.008ZM271.722 1.008V54H273.722V1.008H271.722ZM272.722 53H263.794V55H272.722V53ZM264.794 54V1.008H262.794V54H264.794ZM281.056 2.664L281.062 1.66402L279.972 1.65698L280.059 2.7439L281.056 2.664ZM292.216 2.736L293.213 2.81407L293.297 1.74295L292.222 1.73602L292.216 2.736ZM289.408 38.592V39.592H290.333L290.405 38.6701L289.408 38.592ZM283.936 38.592L282.939 38.6719L283.013 39.592H283.936V38.592ZM291.712 43.92H292.712V42.92H291.712V43.92ZM291.712 54V55H292.712V54H291.712ZM281.632 54H280.632V55H281.632V54ZM281.632 43.92V42.92H280.632V43.92H281.632ZM281.049 3.66397L292.209 3.73598L292.222 1.73602L281.062 1.66402L281.049 3.66397ZM291.219 2.65792L288.411 38.5139L290.405 38.6701L293.213 2.81407L291.219 2.65792ZM289.408 37.592H283.936V39.592H289.408V37.592ZM284.933 38.5121L282.053 2.58409L280.059 2.7439L282.939 38.6719L284.933 38.5121ZM290.712 43.92V54H292.712V43.92H290.712ZM291.712 53H281.632V55H291.712V53ZM282.632 54V43.92H280.632V54H282.632ZM281.632 44.92H291.712V42.92H281.632V44.92ZM329.54 18.432H330.54V17.432H329.54V18.432ZM329.54 28.44V29.44H330.54V28.44H329.54ZM319.46 28.44H318.46V29.44H319.46V28.44ZM319.46 18.432V17.432H318.46V18.432H319.46ZM329.54 43.92H330.54V42.92H329.54V43.92ZM329.54 54V55H330.54V54H329.54ZM319.46 54H318.46V55H319.46V54ZM319.46 43.92V42.92H318.46V43.92H319.46ZM328.54 18.432V28.44H330.54V18.432H328.54ZM329.54 27.44H319.46V29.44H329.54V27.44ZM320.46 28.44V18.432H318.46V28.44H320.46ZM319.46 19.432H329.54V17.432H319.46V19.432ZM328.54 43.92V54H330.54V43.92H328.54ZM329.54 53H319.46V55H329.54V53ZM320.46 54V43.92H318.46V54H320.46ZM319.46 44.92H329.54V42.92H319.46V44.92ZM335.658 67.104L334.727 66.7386L334.191 68.104H335.658V67.104ZM340.986 49.968L341.966 50.1678L341.967 50.1659L340.986 49.968ZM340.986 19.728L340.006 19.9278L340.986 19.728ZM335.586 2.736V1.736H334.101L334.66 3.11219L335.586 2.736ZM342.786 2.736L343.652 2.23496L343.363 1.736H342.786V2.736ZM349.626 18.72L348.66 18.9793L348.663 18.99L349.626 18.72ZM349.698 50.904L350.663 51.1679L350.663 51.1656L349.698 50.904ZM342.858 67.104V68.104H343.447L343.733 67.589L342.858 67.104ZM336.589 67.4694C339.147 60.9543 340.943 55.185 341.966 50.1678L340.006 49.7682C339.013 54.639 337.258 60.2937 334.727 66.7386L336.589 67.4694ZM341.967 50.1659C342.988 45.1088 343.498 40.0025 343.498 34.848H341.498C341.498 39.8695 341.001 44.8432 340.006 49.7701L341.967 50.1659ZM343.498 34.848C343.498 29.6461 342.988 24.5391 341.966 19.5282L340.006 19.9278C341.001 24.8049 341.498 29.7779 341.498 34.848H343.498ZM341.966 19.5282C340.942 14.5066 339.12 8.78174 336.513 2.35981L334.66 3.11219C337.236 9.45826 339.014 15.0614 340.006 19.9278L341.966 19.5282ZM335.586 3.736H342.786V1.736H335.586V3.736ZM341.921 3.23704C345.053 8.64628 347.295 13.8934 348.661 18.9793L350.592 18.4607C349.174 13.1786 346.856 7.76972 343.652 2.23496L341.921 3.23704ZM348.663 18.99C350.078 24.0336 350.786 29.3184 350.786 34.848H352.786C352.786 29.1456 352.055 23.6784 350.589 18.45L348.663 18.99ZM350.786 34.848C350.786 40.3317 350.101 45.5956 348.733 50.6424L350.663 51.1656C352.08 45.9404 352.786 40.5002 352.786 34.848H350.786ZM348.734 50.6401C347.367 55.6354 345.122 60.961 341.984 66.619L343.733 67.589C346.931 61.823 349.245 56.3486 350.663 51.1679L348.734 50.6401ZM342.858 66.104H335.658V68.104H342.858V66.104Z" fill="#58C4CB"/>
</svg>
