<svg width="446" height="405" viewBox="0 0 446 405" fill="none" xmlns="http://www.w3.org/2000/svg">
<g clip-path="url(#clip0)">
<path d="M443.41 250.525H191.871C191.184 250.524 190.526 250.251 190.04 249.765C189.555 249.279 189.281 248.62 189.281 247.933V2.59163C189.281 1.90452 189.555 1.24578 190.04 0.759921C190.526 0.27406 191.184 0.000764119 191.871 0H443.41C444.097 0.000751266 444.755 0.274033 445.241 0.759897C445.726 1.24576 445.999 1.90452 446 2.59163V247.933C445.999 248.62 445.726 249.279 445.241 249.765C444.755 250.251 444.097 250.524 443.41 250.525Z" fill="#F0F0F0"/>
<path d="M416.069 22.4614H219.212C218.526 22.4625 217.867 22.7358 217.382 23.2216C216.896 23.7074 216.623 24.366 216.622 25.0531V177.672C216.623 178.359 216.896 179.017 217.382 179.503C217.867 179.989 218.526 180.262 219.212 180.263H416.069C416.755 180.262 417.414 179.989 417.899 179.503C418.385 179.017 418.658 178.359 418.659 177.672V25.0531C418.658 24.366 418.385 23.7074 417.899 23.2216C417.414 22.7358 416.755 22.4625 416.069 22.4614Z" fill="white"/>
<path d="M404.844 210.21H230.436C230.055 210.21 229.689 210.058 229.419 209.788C229.15 209.518 228.998 209.152 228.997 208.77V200.708C228.998 200.326 229.15 199.96 229.419 199.69C229.689 199.42 230.055 199.268 230.436 199.268H404.844C405.226 199.268 405.592 199.42 405.861 199.69C406.131 199.96 406.283 200.326 406.283 200.708V208.77C406.283 209.152 406.131 209.518 405.861 209.788C405.592 210.058 405.226 210.21 404.844 210.21Z" fill="white"/>
<path d="M344.406 229.792H230.436C230.055 229.791 229.689 229.639 229.419 229.369C229.15 229.099 228.998 228.734 228.997 228.352V220.289C228.998 219.907 229.15 219.541 229.419 219.271C229.689 219.001 230.055 218.85 230.436 218.849H344.406C344.788 218.85 345.153 219.001 345.423 219.271C345.693 219.541 345.845 219.907 345.845 220.289V228.352C345.845 228.734 345.693 229.099 345.423 229.369C345.153 229.639 344.788 229.791 344.406 229.792Z" fill="white"/>
<path d="M366.095 180.263C367.206 176.261 368.069 172.811 368.512 170.369C368.649 169.616 368.663 168.846 368.553 168.088C366.895 156.288 336.952 146.313 333.113 145.08L332.186 134.806L294.495 130.746L289.724 143.888L276.197 148.962C275.707 149.143 275.242 149.383 274.81 149.676C273.675 150.443 272.803 151.539 272.31 152.817C271.817 154.094 271.727 155.493 272.053 156.823L277.815 180.263H366.095V180.263Z" fill="#58C4CB"/>
<path d="M287.962 180.263H258.716C259.764 173.732 260.702 167.956 261.312 164.281C263.545 150.909 273.284 149.768 274.81 149.676C274.931 149.665 275.006 149.665 275.011 149.665H281.165L287.962 180.263Z" fill="#58C4CB"/>
<path d="M366.095 180.263H373.186C372.559 174.498 370.567 170.616 368.553 168.088C367.208 166.311 365.473 164.866 363.482 163.867L362.946 163.636L356.713 180.263H366.095Z" fill="#58C4CB"/>
<path d="M311.868 124.242C326.856 124.242 339.006 112.086 339.006 97.0897C339.006 82.0937 326.856 69.937 311.868 69.937C296.88 69.937 284.73 82.0937 284.73 97.0897C284.73 112.086 296.88 124.242 311.868 124.242Z" fill="#A0616A"/>
<path d="M293.653 83.8611C296.463 87.1876 301.216 88.1258 305.602 88.5073C314.509 89.2891 327.459 88.0213 336.163 86.0109C336.788 92.0349 335.092 98.5306 338.637 103.487C340.299 97.4872 341.266 91.3159 341.518 85.095C341.625 82.427 341.583 79.667 340.5 77.2179C339.417 74.7688 337.053 72.6896 334.332 72.6682C336.354 71.1339 338.722 70.1213 341.228 69.7197L332.611 65.3871L334.824 63.114L319.224 62.1588L323.742 59.2871C316.939 58.3524 310.057 58.1359 303.208 58.6411C300.029 58.8752 296.705 59.3229 294.13 61.1662C291.554 63.0095 290.066 66.6719 291.665 69.3775C289.663 69.7064 287.779 70.5413 286.189 71.8029C284.6 73.0646 283.359 74.7114 282.584 76.5871C281.436 79.5 281.541 82.7353 281.895 85.8394C282.482 90.8036 283.635 95.6843 285.331 100.386" fill="#2F2E41"/>
<path d="M254.555 405H3.01651C2.32977 404.999 1.67137 404.726 1.18578 404.24C0.70018 403.754 0.427031 403.096 0.42627 402.408V157.067C0.427031 156.38 0.70018 155.721 1.18578 155.235C1.67137 154.749 2.32977 154.476 3.01651 154.475H254.555C255.242 154.476 255.9 154.749 256.386 155.235C256.872 155.721 257.145 156.38 257.146 157.067V402.408C257.145 403.096 256.872 403.754 256.386 404.24C255.9 404.726 255.242 404.999 254.555 405Z" fill="#E4E4E4"/>
<path d="M227.214 176.937H30.3579C29.6712 176.938 29.013 177.211 28.5274 177.697C28.0419 178.183 27.7687 178.841 27.7676 179.528V332.147C27.7687 332.834 28.0419 333.492 28.5274 333.978C29.013 334.464 29.6712 334.737 30.3579 334.738H227.214C227.901 334.737 228.559 334.464 229.045 333.978C229.53 333.492 229.803 332.834 229.805 332.147V179.528C229.803 178.841 229.53 178.183 229.045 177.697C228.559 177.211 227.901 176.938 227.214 176.937Z" fill="white"/>
<path d="M215.99 364.686H41.5819C41.2004 364.685 40.8347 364.533 40.5649 364.263C40.2951 363.993 40.1434 363.628 40.1429 363.246V355.183C40.1434 354.801 40.2951 354.435 40.5649 354.165C40.8347 353.895 41.2004 353.744 41.5819 353.743H215.99C216.371 353.744 216.737 353.895 217.007 354.165C217.277 354.435 217.428 354.801 217.429 355.183V363.246C217.428 363.628 217.277 363.993 217.007 364.263C216.737 364.533 216.371 364.685 215.99 364.686Z" fill="white"/>
<path d="M155.551 384.267H41.5819C41.2004 384.266 40.8347 384.114 40.5649 383.845C40.2951 383.575 40.1434 383.209 40.1429 382.827V374.764C40.1434 374.382 40.2951 374.016 40.5649 373.746C40.8347 373.476 41.2004 373.325 41.5819 373.324H155.551C155.933 373.325 156.299 373.476 156.569 373.746C156.838 374.016 156.99 374.382 156.991 374.764V382.827C156.99 383.209 156.838 383.575 156.569 383.845C156.299 384.114 155.933 384.266 155.551 384.267Z" fill="white"/>
<path d="M148.155 334.739H108.536L111.006 297.661L125.298 300.961L139.199 295.611L139.567 295.472L139.59 295.461C139.595 295.472 139.599 295.484 139.602 295.496C139.82 296.377 144.183 313.856 148.155 334.739Z" fill="#58C4CB"/>
<path d="M172.031 303.714L168.33 334.738H134.94L139.199 295.611L139.239 295.23L139.567 295.472L139.601 295.495L147.838 301.508L172.031 303.714Z" fill="#2F2E41"/>
<path d="M114.396 334.738H84.4934L84.0618 310.314L106.067 303.011L111.006 297.661C111.006 297.661 112.566 313.758 114.396 334.738Z" fill="#2F2E41"/>
<path d="M186.427 334.739H161.647L163.236 312.514L172.031 303.714C172.031 303.714 178.99 318.319 186.427 334.739Z" fill="#2F2E41"/>
<path d="M91.5446 334.738H78.4725C78.5302 327.62 78.5647 322.702 78.5647 321.314C78.4991 319.168 78.9671 317.04 79.9265 315.12C80.886 313.2 82.3069 311.548 84.0618 310.313L90.664 312.513L91.5446 334.738Z" fill="#2F2E41"/>
<path d="M89.5052 259.495C89.5253 253.463 91.1098 247.541 94.1036 242.306C97.0974 237.072 101.398 232.704 106.585 229.631C117.604 223.123 130.899 223.241 143.059 229.953C151.723 234.737 158.772 246.773 158.772 256.783V285.993H89.5052V259.495Z" fill="#2F2E41"/>
<path d="M134.768 282.206C146.892 275.574 151.347 260.365 144.72 248.234C138.092 236.103 122.891 231.645 110.767 238.276C98.6425 244.907 94.1867 260.117 100.814 272.248C107.442 284.379 122.643 288.837 134.768 282.206Z" fill="#FFB8B8"/>
<path d="M96.6769 260.478C96.4874 260.259 96.0435 259.746 99.1295 235.987L99.2275 235.599H99.5065C115.149 227.899 131.019 227.705 146.68 235.02C147.163 235.249 147.577 235.599 147.883 236.037C148.189 236.474 148.377 236.984 148.427 237.515C150.255 259.837 149.813 260.324 149.624 260.532C149.338 260.847 148.988 261.098 148.599 261.271C148.21 261.443 147.789 261.532 147.363 261.533H140.424L140.278 261.27C139.087 259.055 137.78 256.904 136.363 254.827C135.711 256.895 135.177 258.998 134.764 261.127L134.679 261.533H98.9865C98.5485 261.533 98.1155 261.439 97.717 261.257C97.3185 261.075 96.9638 260.809 96.6769 260.478Z" fill="#2F2E41"/>
</g>
<defs>
<clipPath id="clip0">
<rect width="446" height="405" fill="white"/>
</clipPath>
</defs>
</svg>
