<svg width="474" height="385" viewBox="0 0 474 385" fill="none" xmlns="http://www.w3.org/2000/svg">
<path d="M9.16 290.064H3.592C3.63467 290.928 3.848 291.568 4.232 291.984C4.62667 292.389 5.208 292.592 5.976 292.592C6.86133 292.592 7.68267 292.304 8.44 291.728L9.016 293.104C8.632 293.413 8.15733 293.664 7.592 293.856C7.03733 294.037 6.472 294.128 5.896 294.128C4.57333 294.128 3.53333 293.755 2.776 293.008C2.01867 292.261 1.64 291.237 1.64 289.936C1.64 289.115 1.80533 288.384 2.136 287.744C2.46667 287.104 2.93067 286.608 3.528 286.256C4.12533 285.893 4.80267 285.712 5.56 285.712C6.66933 285.712 7.544 286.075 8.184 286.8C8.83467 287.515 9.16 288.501 9.16 289.76V290.064ZM5.608 287.152C5.07467 287.152 4.63733 287.312 4.296 287.632C3.96533 287.941 3.752 288.395 3.656 288.992H7.416C7.352 288.384 7.16533 287.925 6.856 287.616C6.55733 287.307 6.14133 287.152 5.608 287.152ZM13.8136 294.128C12.3523 294.128 11.1896 293.787 10.3256 293.104L10.8856 291.696C11.7496 292.336 12.7363 292.656 13.8456 292.656C14.3256 292.656 14.6936 292.576 14.9496 292.416C15.2163 292.256 15.3496 292.032 15.3496 291.744C15.3496 291.499 15.259 291.307 15.0776 291.168C14.8963 291.019 14.587 290.891 14.1496 290.784L12.8056 290.48C11.3336 290.16 10.5976 289.408 10.5976 288.224C10.5976 287.733 10.7363 287.301 11.0136 286.928C11.291 286.544 11.6803 286.245 12.1816 286.032C12.683 285.819 13.2643 285.712 13.9256 285.712C14.5016 285.712 15.0563 285.803 15.5896 285.984C16.123 286.155 16.5923 286.405 16.9976 286.736L16.4056 288.096C15.595 287.499 14.763 287.2 13.9096 287.2C13.451 287.2 13.0936 287.285 12.8376 287.456C12.5816 287.627 12.4536 287.861 12.4536 288.16C12.4536 288.395 12.5283 288.581 12.6776 288.72C12.8376 288.859 13.1043 288.976 13.4776 289.072L14.8536 289.376C15.6536 289.557 16.235 289.84 16.5976 290.224C16.971 290.597 17.1576 291.088 17.1576 291.696C17.1576 292.443 16.859 293.035 16.2616 293.472C15.6643 293.909 14.8483 294.128 13.8136 294.128ZM22.5333 294.128C21.6906 294.128 20.9599 293.957 20.3413 293.616C19.7226 293.275 19.2479 292.795 18.9173 292.176C18.5866 291.547 18.4213 290.811 18.4213 289.968C18.4213 289.125 18.5919 288.384 18.9333 287.744C19.2853 287.104 19.7759 286.608 20.4053 286.256C21.0453 285.893 21.7813 285.712 22.6133 285.712C23.1893 285.712 23.7439 285.803 24.2773 285.984C24.8213 286.165 25.2533 286.416 25.5733 286.736L25.0133 288.144C24.6719 287.867 24.3093 287.659 23.9253 287.52C23.5413 287.371 23.1626 287.296 22.7893 287.296C22.0639 287.296 21.4986 287.525 21.0933 287.984C20.6879 288.432 20.4853 289.083 20.4853 289.936C20.4853 290.789 20.6826 291.44 21.0773 291.888C21.4826 292.336 22.0533 292.56 22.7893 292.56C23.1626 292.56 23.5413 292.485 23.9253 292.336C24.3093 292.187 24.6719 291.973 25.0133 291.696L25.5733 293.104C25.2319 293.424 24.7893 293.675 24.2453 293.856C23.7013 294.037 23.1306 294.128 22.5333 294.128ZM30.5801 294.128C29.7588 294.128 29.0335 293.957 28.4041 293.616C27.7855 293.275 27.3055 292.789 26.9641 292.16C26.6335 291.52 26.4681 290.773 26.4681 289.92C26.4681 289.067 26.6335 288.325 26.9641 287.696C27.3055 287.056 27.7855 286.565 28.4041 286.224C29.0335 285.883 29.7588 285.712 30.5801 285.712C31.3908 285.712 32.1055 285.883 32.7241 286.224C33.3428 286.565 33.8175 287.056 34.1481 287.696C34.4895 288.325 34.6601 289.067 34.6601 289.92C34.6601 290.773 34.4895 291.52 34.1481 292.16C33.8175 292.789 33.3428 293.275 32.7241 293.616C32.1055 293.957 31.3908 294.128 30.5801 294.128ZM30.5641 292.56C31.2468 292.56 31.7641 292.341 32.1161 291.904C32.4788 291.456 32.6601 290.795 32.6601 289.92C32.6601 289.056 32.4788 288.4 32.1161 287.952C31.7535 287.493 31.2415 287.264 30.5801 287.264C29.9081 287.264 29.3908 287.493 29.0281 287.952C28.6655 288.4 28.4841 289.056 28.4841 289.92C28.4841 290.795 28.6601 291.456 29.0121 291.904C29.3748 292.341 29.8921 292.56 30.5641 292.56ZM36.3849 282.224H38.3689V294H36.3849V282.224ZM45.1808 285.712C47.1114 285.712 48.0768 286.821 48.0768 289.04V294H46.0768V289.136C46.0768 288.496 45.9541 288.032 45.7088 287.744C45.4634 287.445 45.0848 287.296 44.5728 287.296C43.9648 287.296 43.4741 287.493 43.1008 287.888C42.7274 288.272 42.5408 288.784 42.5408 289.424V294H40.5568V282.224H42.5408V287.088C42.8181 286.651 43.1861 286.315 43.6448 286.08C44.1034 285.835 44.6154 285.712 45.1808 285.712ZM57.9254 285.92V294H55.9574V292.704C55.712 293.152 55.36 293.504 54.9014 293.76C54.4427 294.005 53.92 294.128 53.3334 294.128C52.6294 294.128 52.0054 293.957 51.4614 293.616C50.9174 293.275 50.496 292.789 50.1974 292.16C49.8987 291.531 49.7494 290.8 49.7494 289.968C49.7494 289.136 49.8987 288.4 50.1974 287.76C50.5067 287.109 50.9334 286.608 51.4774 286.256C52.0214 285.893 52.64 285.712 53.3334 285.712C53.92 285.712 54.4427 285.84 54.9014 286.096C55.36 286.341 55.712 286.688 55.9574 287.136V285.92H57.9254ZM53.8774 292.56C54.5387 292.56 55.0507 292.331 55.4134 291.872C55.776 291.413 55.9574 290.768 55.9574 289.936C55.9574 289.083 55.776 288.427 55.4134 287.968C55.0507 287.509 54.5334 287.28 53.8614 287.28C53.2 287.28 52.6827 287.52 52.3094 288C51.9467 288.469 51.7654 289.125 51.7654 289.968C51.7654 290.8 51.9467 291.44 52.3094 291.888C52.6827 292.336 53.2054 292.56 53.8774 292.56ZM72.2222 285.92V294H70.2543V292.704C70.0089 293.152 69.6569 293.504 69.1983 293.76C68.7396 294.005 68.2169 294.128 67.6302 294.128C66.9263 294.128 66.3023 293.957 65.7582 293.616C65.2143 293.275 64.7929 292.789 64.4943 292.16C64.1956 291.531 64.0463 290.8 64.0463 289.968C64.0463 289.136 64.1956 288.4 64.4943 287.76C64.8036 287.109 65.2303 286.608 65.7743 286.256C66.3183 285.893 66.9369 285.712 67.6302 285.712C68.2169 285.712 68.7396 285.84 69.1983 286.096C69.6569 286.341 70.0089 286.688 70.2543 287.136V285.92H72.2222ZM68.1743 292.56C68.8356 292.56 69.3476 292.331 69.7103 291.872C70.0729 291.413 70.2543 290.768 70.2543 289.936C70.2543 289.083 70.0729 288.427 69.7103 287.968C69.3476 287.509 68.8303 287.28 68.1583 287.28C67.4969 287.28 66.9796 287.52 66.6063 288C66.2436 288.469 66.0623 289.125 66.0623 289.968C66.0623 290.8 66.2436 291.44 66.6063 291.888C66.9796 292.336 67.5023 292.56 68.1743 292.56ZM86.5191 285.92V294H84.5511V292.704C84.3058 293.152 83.9538 293.504 83.4951 293.76C83.0365 294.005 82.5138 294.128 81.9271 294.128C81.2231 294.128 80.5991 293.957 80.0551 293.616C79.5111 293.275 79.0898 292.789 78.7911 292.16C78.4925 291.531 78.3431 290.8 78.3431 289.968C78.3431 289.136 78.4925 288.4 78.7911 287.76C79.1005 287.109 79.5271 286.608 80.0711 286.256C80.6151 285.893 81.2338 285.712 81.9271 285.712C82.5138 285.712 83.0365 285.84 83.4951 286.096C83.9538 286.341 84.3058 286.688 84.5511 287.136V285.92H86.5191ZM82.4711 292.56C83.1325 292.56 83.6445 292.331 84.0071 291.872C84.3698 291.413 84.5511 290.768 84.5511 289.936C84.5511 289.083 84.3698 288.427 84.0071 287.968C83.6445 287.509 83.1271 287.28 82.4551 287.28C81.7938 287.28 81.2765 287.52 80.9031 288C80.5405 288.469 80.3591 289.125 80.3591 289.968C80.3591 290.8 80.5405 291.44 80.9031 291.888C81.2765 292.336 81.7991 292.56 82.4711 292.56ZM91.6574 294.128C90.196 294.128 89.0334 293.787 88.1694 293.104L88.7294 291.696C89.5934 292.336 90.58 292.656 91.6894 292.656C92.1694 292.656 92.5374 292.576 92.7934 292.416C93.06 292.256 93.1934 292.032 93.1934 291.744C93.1934 291.499 93.1027 291.307 92.9214 291.168C92.74 291.019 92.4307 290.891 91.9934 290.784L90.6494 290.48C89.1774 290.16 88.4414 289.408 88.4414 288.224C88.4414 287.733 88.58 287.301 88.8574 286.928C89.1347 286.544 89.524 286.245 90.0254 286.032C90.5267 285.819 91.108 285.712 91.7694 285.712C92.3454 285.712 92.9 285.803 93.4334 285.984C93.9667 286.155 94.436 286.405 94.8414 286.736L94.2494 288.096C93.4387 287.499 92.6067 287.2 91.7534 287.2C91.2947 287.2 90.9374 287.285 90.6814 287.456C90.4254 287.627 90.2974 287.861 90.2974 288.16C90.2974 288.395 90.372 288.581 90.5214 288.72C90.6814 288.859 90.948 288.976 91.3214 289.072L92.6974 289.376C93.4974 289.557 94.0787 289.84 94.4414 290.224C94.8147 290.597 95.0014 291.088 95.0014 291.696C95.0014 292.443 94.7027 293.035 94.1054 293.472C93.508 293.909 92.692 294.128 91.6574 294.128ZM99.673 294.128C98.2117 294.128 97.049 293.787 96.185 293.104L96.745 291.696C97.609 292.336 98.5957 292.656 99.705 292.656C100.185 292.656 100.553 292.576 100.809 292.416C101.076 292.256 101.209 292.032 101.209 291.744C101.209 291.499 101.118 291.307 100.937 291.168C100.756 291.019 100.446 290.891 100.009 290.784L98.665 290.48C97.193 290.16 96.457 289.408 96.457 288.224C96.457 287.733 96.5957 287.301 96.873 286.928C97.1503 286.544 97.5397 286.245 98.041 286.032C98.5423 285.819 99.1237 285.712 99.785 285.712C100.361 285.712 100.916 285.803 101.449 285.984C101.982 286.155 102.452 286.405 102.857 286.736L102.265 288.096C101.454 287.499 100.622 287.2 99.769 287.2C99.3103 287.2 98.953 287.285 98.697 287.456C98.441 287.627 98.313 287.861 98.313 288.16C98.313 288.395 98.3877 288.581 98.537 288.72C98.697 288.859 98.9637 288.976 99.337 289.072L100.713 289.376C101.513 289.557 102.094 289.84 102.457 290.224C102.83 290.597 103.017 291.088 103.017 291.696C103.017 292.443 102.718 293.035 102.121 293.472C101.524 293.909 100.708 294.128 99.673 294.128ZM104.729 285.92H106.713V294H104.729V285.92ZM106.825 282.256V284.224H104.601V282.256H106.825ZM113.525 285.712C115.455 285.712 116.421 286.821 116.421 289.04V294H114.421V289.136C114.421 288.496 114.298 288.032 114.053 287.744C113.807 287.445 113.429 287.296 112.917 287.296C112.309 287.296 111.818 287.493 111.445 287.888C111.071 288.272 110.885 288.784 110.885 289.424V294H108.901V288.208C108.901 287.355 108.858 286.592 108.773 285.92H110.645L110.789 287.248C111.066 286.757 111.439 286.379 111.909 286.112C112.389 285.845 112.927 285.712 113.525 285.712ZM126.269 285.92V294H124.301V292.704C124.056 293.152 123.704 293.504 123.245 293.76C122.786 294.005 122.264 294.128 121.677 294.128C120.973 294.128 120.349 293.957 119.805 293.616C119.261 293.275 118.84 292.789 118.541 292.16C118.242 291.531 118.093 290.8 118.093 289.968C118.093 289.136 118.242 288.4 118.541 287.76C118.85 287.109 119.277 286.608 119.821 286.256C120.365 285.893 120.984 285.712 121.677 285.712C122.264 285.712 122.786 285.84 123.245 286.096C123.704 286.341 124.056 286.688 124.301 287.136V285.92H126.269ZM122.221 292.56C122.882 292.56 123.394 292.331 123.757 291.872C124.12 291.413 124.301 290.768 124.301 289.936C124.301 289.083 124.12 288.427 123.757 287.968C123.394 287.509 122.877 287.28 122.205 287.28C121.544 287.28 121.026 287.52 120.653 288C120.29 288.469 120.109 289.125 120.109 289.968C120.109 290.8 120.29 291.44 120.653 291.888C121.026 292.336 121.549 292.56 122.221 292.56ZM130.991 287.424V291.04C130.991 291.989 131.434 292.464 132.319 292.464C132.565 292.464 132.831 292.421 133.119 292.336V293.92C132.767 294.048 132.341 294.112 131.839 294.112C130.922 294.112 130.218 293.856 129.727 293.344C129.237 292.832 128.991 292.096 128.991 291.136V287.424H127.439V285.92H128.991V283.952L130.991 283.28V285.92H133.135V287.424H130.991ZM141.87 285.92V294H139.918V292.752C139.662 293.2 139.321 293.541 138.894 293.776C138.467 294.011 137.977 294.128 137.422 294.128C135.449 294.128 134.462 293.019 134.462 290.8V285.92H136.446V290.816C136.446 291.403 136.563 291.835 136.798 292.112C137.043 292.389 137.417 292.528 137.918 292.528C138.505 292.528 138.974 292.336 139.326 291.952C139.678 291.568 139.854 291.056 139.854 290.416V285.92H141.87ZM148.393 285.728C148.702 285.728 148.969 285.771 149.193 285.856L149.177 287.68C148.836 287.541 148.484 287.472 148.121 287.472C147.438 287.472 146.916 287.669 146.553 288.064C146.201 288.459 146.025 288.981 146.025 289.632V294H144.041V288.208C144.041 287.355 143.998 286.592 143.913 285.92H145.785L145.945 287.344C146.148 286.821 146.468 286.421 146.905 286.144C147.342 285.867 147.838 285.728 148.393 285.728ZM157.878 285.92V294H155.911V292.704C155.665 293.152 155.313 293.504 154.855 293.76C154.396 294.005 153.873 294.128 153.286 294.128C152.583 294.128 151.959 293.957 151.414 293.616C150.871 293.275 150.449 292.789 150.151 292.16C149.852 291.531 149.703 290.8 149.703 289.968C149.703 289.136 149.852 288.4 150.151 287.76C150.46 287.109 150.887 286.608 151.431 286.256C151.975 285.893 152.593 285.712 153.286 285.712C153.873 285.712 154.396 285.84 154.855 286.096C155.313 286.341 155.665 286.688 155.911 287.136V285.92H157.878ZM153.831 292.56C154.492 292.56 155.004 292.331 155.367 291.872C155.729 291.413 155.911 290.768 155.911 289.936C155.911 289.083 155.729 288.427 155.367 287.968C155.004 287.509 154.487 287.28 153.815 287.28C153.153 287.28 152.636 287.52 152.263 288C151.9 288.469 151.719 289.125 151.719 289.968C151.719 290.8 151.9 291.44 152.263 291.888C152.636 292.336 153.159 292.56 153.831 292.56ZM172.319 285.92C172.223 286.56 172.175 287.323 172.175 288.208V297.456H170.175V292.768C169.93 293.205 169.578 293.541 169.119 293.776C168.671 294.011 168.159 294.128 167.583 294.128C166.879 294.128 166.255 293.957 165.711 293.616C165.167 293.275 164.746 292.789 164.447 292.16C164.149 291.531 163.999 290.8 163.999 289.968C163.999 289.136 164.149 288.4 164.447 287.76C164.757 287.109 165.183 286.608 165.727 286.256C166.271 285.893 166.89 285.712 167.583 285.712C168.202 285.712 168.751 285.851 169.231 286.128C169.711 286.405 170.063 286.795 170.287 287.296L170.431 285.92H172.319ZM168.127 292.56C168.789 292.56 169.301 292.331 169.663 291.872C170.026 291.413 170.207 290.768 170.207 289.936C170.207 289.083 170.026 288.427 169.663 287.968C169.301 287.509 168.783 287.28 168.111 287.28C167.45 287.28 166.933 287.52 166.559 288C166.197 288.469 166.015 289.125 166.015 289.968C166.015 290.8 166.197 291.44 166.559 291.888C166.933 292.336 167.455 292.56 168.127 292.56ZM181.714 285.92V294H179.762V292.752C179.506 293.2 179.164 293.541 178.738 293.776C178.311 294.011 177.82 294.128 177.266 294.128C175.292 294.128 174.306 293.019 174.306 290.8V285.92H176.29V290.816C176.29 291.403 176.407 291.835 176.642 292.112C176.887 292.389 177.26 292.528 177.762 292.528C178.348 292.528 178.818 292.336 179.17 291.952C179.522 291.568 179.698 291.056 179.698 290.416V285.92H181.714ZM190.957 290.064H185.389C185.432 290.928 185.645 291.568 186.029 291.984C186.424 292.389 187.005 292.592 187.773 292.592C188.658 292.592 189.48 292.304 190.237 291.728L190.813 293.104C190.429 293.413 189.954 293.664 189.389 293.856C188.834 294.037 188.269 294.128 187.693 294.128C186.37 294.128 185.33 293.755 184.573 293.008C183.816 292.261 183.437 291.237 183.437 289.936C183.437 289.115 183.602 288.384 183.933 287.744C184.264 287.104 184.728 286.608 185.325 286.256C185.922 285.893 186.6 285.712 187.357 285.712C188.466 285.712 189.341 286.075 189.981 286.8C190.632 287.515 190.957 288.501 190.957 289.76V290.064ZM187.405 287.152C186.872 287.152 186.434 287.312 186.093 287.632C185.762 287.941 185.549 288.395 185.453 288.992H189.213C189.149 288.384 188.962 287.925 188.653 287.616C188.354 287.307 187.938 287.152 187.405 287.152ZM206.577 285.712C207.494 285.712 208.177 285.989 208.625 286.544C209.073 287.088 209.297 287.92 209.297 289.04V294H207.297V289.104C207.297 288.464 207.19 288.005 206.977 287.728C206.774 287.44 206.433 287.296 205.953 287.296C205.398 287.296 204.961 287.493 204.641 287.888C204.332 288.272 204.177 288.805 204.177 289.488V294H202.177V289.104C202.177 288.475 202.065 288.016 201.841 287.728C201.628 287.44 201.286 287.296 200.817 287.296C200.262 287.296 199.825 287.493 199.505 287.888C199.185 288.272 199.025 288.805 199.025 289.488V294H197.041V288.208C197.041 287.355 196.998 286.592 196.913 285.92H198.785L198.929 287.2C199.164 286.72 199.5 286.352 199.937 286.096C200.385 285.84 200.897 285.712 201.473 285.712C202.71 285.712 203.516 286.224 203.889 287.248C204.145 286.768 204.508 286.395 204.977 286.128C205.457 285.851 205.99 285.712 206.577 285.712ZM219.16 285.92V294H217.192V292.704C216.946 293.152 216.594 293.504 216.136 293.76C215.677 294.005 215.154 294.128 214.568 294.128C213.864 294.128 213.24 293.957 212.696 293.616C212.152 293.275 211.73 292.789 211.432 292.16C211.133 291.531 210.984 290.8 210.984 289.968C210.984 289.136 211.133 288.4 211.432 287.76C211.741 287.109 212.168 286.608 212.712 286.256C213.256 285.893 213.874 285.712 214.568 285.712C215.154 285.712 215.677 285.84 216.136 286.096C216.594 286.341 216.946 286.688 217.192 287.136V285.92H219.16ZM215.112 292.56C215.773 292.56 216.285 292.331 216.648 291.872C217.01 291.413 217.192 290.768 217.192 289.936C217.192 289.083 217.01 288.427 216.648 287.968C216.285 287.509 215.768 287.28 215.096 287.28C214.434 287.28 213.917 287.52 213.544 288C213.181 288.469 213 289.125 213 289.968C213 290.8 213.181 291.44 213.544 291.888C213.917 292.336 214.44 292.56 215.112 292.56ZM221.338 285.92H223.322V294H221.338V285.92ZM223.434 282.256V284.224H221.21V282.256H223.434ZM228.47 294.128C227.009 294.128 225.846 293.787 224.982 293.104L225.542 291.696C226.406 292.336 227.393 292.656 228.502 292.656C228.982 292.656 229.35 292.576 229.606 292.416C229.873 292.256 230.006 292.032 230.006 291.744C230.006 291.499 229.915 291.307 229.734 291.168C229.553 291.019 229.243 290.891 228.806 290.784L227.462 290.48C225.99 290.16 225.254 289.408 225.254 288.224C225.254 287.733 225.393 287.301 225.67 286.928C225.947 286.544 226.337 286.245 226.838 286.032C227.339 285.819 227.921 285.712 228.582 285.712C229.158 285.712 229.713 285.803 230.246 285.984C230.779 286.155 231.249 286.405 231.654 286.736L231.062 288.096C230.251 287.499 229.419 287.2 228.566 287.2C228.107 287.2 227.75 287.285 227.494 287.456C227.238 287.627 227.11 287.861 227.11 288.16C227.11 288.395 227.185 288.581 227.334 288.72C227.494 288.859 227.761 288.976 228.134 289.072L229.51 289.376C230.31 289.557 230.891 289.84 231.254 290.224C231.627 290.597 231.814 291.088 231.814 291.696C231.814 292.443 231.515 293.035 230.918 293.472C230.321 293.909 229.505 294.128 228.47 294.128ZM240.876 294.128C239.415 294.128 238.252 293.787 237.388 293.104L237.948 291.696C238.812 292.336 239.799 292.656 240.908 292.656C241.388 292.656 241.756 292.576 242.012 292.416C242.279 292.256 242.412 292.032 242.412 291.744C242.412 291.499 242.321 291.307 242.14 291.168C241.959 291.019 241.649 290.891 241.212 290.784L239.868 290.48C238.396 290.16 237.66 289.408 237.66 288.224C237.66 287.733 237.799 287.301 238.076 286.928C238.353 286.544 238.743 286.245 239.244 286.032C239.745 285.819 240.327 285.712 240.988 285.712C241.564 285.712 242.119 285.803 242.652 285.984C243.185 286.155 243.655 286.405 244.06 286.736L243.468 288.096C242.657 287.499 241.825 287.2 240.972 287.2C240.513 287.2 240.156 287.285 239.9 287.456C239.644 287.627 239.516 287.861 239.516 288.16C239.516 288.395 239.591 288.581 239.74 288.72C239.9 288.859 240.167 288.976 240.54 289.072L241.916 289.376C242.716 289.557 243.297 289.84 243.66 290.224C244.033 290.597 244.22 291.088 244.22 291.696C244.22 292.443 243.921 293.035 243.324 293.472C242.727 293.909 241.911 294.128 240.876 294.128ZM253.004 290.064H247.436C247.478 290.928 247.692 291.568 248.076 291.984C248.47 292.389 249.052 292.592 249.82 292.592C250.705 292.592 251.526 292.304 252.284 291.728L252.86 293.104C252.476 293.413 252.001 293.664 251.436 293.856C250.881 294.037 250.316 294.128 249.74 294.128C248.417 294.128 247.377 293.755 246.62 293.008C245.862 292.261 245.484 291.237 245.484 289.936C245.484 289.115 245.649 288.384 245.98 287.744C246.31 287.104 246.774 286.608 247.372 286.256C247.969 285.893 248.646 285.712 249.404 285.712C250.513 285.712 251.388 286.075 252.028 286.8C252.678 287.515 253.004 288.501 253.004 289.76V290.064ZM249.452 287.152C248.918 287.152 248.481 287.312 248.14 287.632C247.809 287.941 247.596 288.395 247.5 288.992H251.26C251.196 288.384 251.009 287.925 250.7 287.616C250.401 287.307 249.985 287.152 249.452 287.152ZM9.816 304.92V313H7.848V311.704C7.60267 312.152 7.25067 312.504 6.792 312.76C6.33333 313.005 5.81067 313.128 5.224 313.128C4.52 313.128 3.896 312.957 3.352 312.616C2.808 312.275 2.38667 311.789 2.088 311.16C1.78933 310.531 1.64 309.8 1.64 308.968C1.64 308.136 1.78933 307.4 2.088 306.76C2.39733 306.109 2.824 305.608 3.368 305.256C3.912 304.893 4.53067 304.712 5.224 304.712C5.81067 304.712 6.33333 304.84 6.792 305.096C7.25067 305.341 7.60267 305.688 7.848 306.136V304.92H9.816ZM5.768 311.56C6.42933 311.56 6.94133 311.331 7.304 310.872C7.66667 310.413 7.848 309.768 7.848 308.936C7.848 308.083 7.66667 307.427 7.304 306.968C6.94133 306.509 6.424 306.28 5.752 306.28C5.09067 306.28 4.57333 306.52 4.2 307C3.83733 307.469 3.656 308.125 3.656 308.968C3.656 309.8 3.83733 310.44 4.2 310.888C4.57333 311.336 5.096 311.56 5.768 311.56ZM19.7222 301.224V313H17.7543V311.704C17.5089 312.152 17.1569 312.504 16.6983 312.76C16.2396 313.005 15.7169 313.128 15.1302 313.128C14.4369 313.128 13.8183 312.952 13.2743 312.6C12.7303 312.248 12.3036 311.752 11.9943 311.112C11.6956 310.461 11.5463 309.72 11.5463 308.888C11.5463 308.056 11.6956 307.325 11.9943 306.696C12.2929 306.067 12.7143 305.581 13.2582 305.24C13.8023 304.888 14.4263 304.712 15.1302 304.712C15.7063 304.712 16.2183 304.835 16.6663 305.08C17.1249 305.315 17.4769 305.651 17.7223 306.088V301.224H19.7222ZM15.6583 311.56C16.3196 311.56 16.8316 311.331 17.1943 310.872C17.5676 310.413 17.7543 309.763 17.7543 308.92C17.7543 308.077 17.5729 307.427 17.2103 306.968C16.8476 306.509 16.3356 306.28 15.6743 306.28C15.0023 306.28 14.4796 306.509 14.1063 306.968C13.7436 307.416 13.5623 308.056 13.5623 308.888C13.5623 309.731 13.7436 310.387 14.1063 310.856C14.4796 311.325 14.9969 311.56 15.6583 311.56ZM28.9725 309.064H23.4045C23.4472 309.928 23.6605 310.568 24.0445 310.984C24.4392 311.389 25.0205 311.592 25.7885 311.592C26.6738 311.592 27.4952 311.304 28.2525 310.728L28.8285 312.104C28.4445 312.413 27.9698 312.664 27.4045 312.856C26.8498 313.037 26.2845 313.128 25.7085 313.128C24.3858 313.128 23.3458 312.755 22.5885 312.008C21.8312 311.261 21.4525 310.237 21.4525 308.936C21.4525 308.115 21.6178 307.384 21.9485 306.744C22.2792 306.104 22.7432 305.608 23.3405 305.256C23.9378 304.893 24.6152 304.712 25.3725 304.712C26.4818 304.712 27.3565 305.075 27.9965 305.8C28.6472 306.515 28.9725 307.501 28.9725 308.76V309.064ZM25.4205 306.152C24.8872 306.152 24.4498 306.312 24.1085 306.632C23.7778 306.941 23.5645 307.395 23.4685 307.992H27.2285C27.1645 307.384 26.9778 306.925 26.6685 306.616C26.3698 306.307 25.9538 306.152 25.4205 306.152ZM38.5381 304.92C38.4421 305.56 38.3941 306.323 38.3941 307.208V316.456H36.3941V311.768C36.1488 312.205 35.7968 312.541 35.3381 312.776C34.8901 313.011 34.3781 313.128 33.8021 313.128C33.0981 313.128 32.4741 312.957 31.9301 312.616C31.3861 312.275 30.9648 311.789 30.6661 311.16C30.3675 310.531 30.2181 309.8 30.2181 308.968C30.2181 308.136 30.3675 307.4 30.6661 306.76C30.9755 306.109 31.4021 305.608 31.9461 305.256C32.4901 304.893 33.1088 304.712 33.8021 304.712C34.4208 304.712 34.9701 304.851 35.4501 305.128C35.9301 305.405 36.2821 305.795 36.5061 306.296L36.6501 304.92H38.5381ZM34.3461 311.56C35.0075 311.56 35.5195 311.331 35.8821 310.872C36.2448 310.413 36.4261 309.768 36.4261 308.936C36.4261 308.083 36.2448 307.427 35.8821 306.968C35.5195 306.509 35.0021 306.28 34.3301 306.28C33.6688 306.28 33.1515 306.52 32.7781 307C32.4155 307.469 32.2341 308.125 32.2341 308.968C32.2341 309.8 32.4155 310.44 32.7781 310.888C33.1515 311.336 33.6741 311.56 34.3461 311.56ZM47.9324 304.92V313H45.9804V311.752C45.7244 312.2 45.383 312.541 44.9564 312.776C44.5297 313.011 44.039 313.128 43.4844 313.128C41.511 313.128 40.5244 312.019 40.5244 309.8V304.92H42.5084V309.816C42.5084 310.403 42.6257 310.835 42.8604 311.112C43.1057 311.389 43.479 311.528 43.9804 311.528C44.567 311.528 45.0364 311.336 45.3884 310.952C45.7404 310.568 45.9164 310.056 45.9164 309.416V304.92H47.9324ZM57.8316 304.92V313H55.8636V311.704C55.6183 312.152 55.2663 312.504 54.8076 312.76C54.349 313.005 53.8263 313.128 53.2396 313.128C52.5356 313.128 51.9116 312.957 51.3676 312.616C50.8236 312.275 50.4023 311.789 50.1036 311.16C49.805 310.531 49.6556 309.8 49.6556 308.968C49.6556 308.136 49.805 307.4 50.1036 306.76C50.413 306.109 50.8396 305.608 51.3836 305.256C51.9276 304.893 52.5463 304.712 53.2396 304.712C53.8263 304.712 54.349 304.84 54.8076 305.096C55.2663 305.341 55.6183 305.688 55.8636 306.136V304.92H57.8316ZM53.7836 311.56C54.445 311.56 54.957 311.331 55.3196 310.872C55.6823 310.413 55.8636 309.768 55.8636 308.936C55.8636 308.083 55.6823 307.427 55.3196 306.968C54.957 306.509 54.4396 306.28 53.7676 306.28C53.1063 306.28 52.589 306.52 52.2156 307C51.853 307.469 51.6716 308.125 51.6716 308.968C51.6716 309.8 51.853 310.44 52.2156 310.888C52.589 311.336 53.1116 311.56 53.7836 311.56ZM72.1285 304.92V313H70.1605V311.704C69.9152 312.152 69.5632 312.504 69.1045 312.76C68.6458 313.005 68.1232 313.128 67.5365 313.128C66.8325 313.128 66.2085 312.957 65.6645 312.616C65.1205 312.275 64.6992 311.789 64.4005 311.16C64.1018 310.531 63.9525 309.8 63.9525 308.968C63.9525 308.136 64.1018 307.4 64.4005 306.76C64.7098 306.109 65.1365 305.608 65.6805 305.256C66.2245 304.893 66.8432 304.712 67.5365 304.712C68.1232 304.712 68.6458 304.84 69.1045 305.096C69.5632 305.341 69.9152 305.688 70.1605 306.136V304.92H72.1285ZM68.0805 311.56C68.7418 311.56 69.2538 311.331 69.6165 310.872C69.9792 310.413 70.1605 309.768 70.1605 308.936C70.1605 308.083 69.9792 307.427 69.6165 306.968C69.2538 306.509 68.7365 306.28 68.0645 306.28C67.4032 306.28 66.8858 306.52 66.5125 307C66.1498 307.469 65.9685 308.125 65.9685 308.968C65.9685 309.8 66.1498 310.44 66.5125 310.888C66.8858 311.336 67.4085 311.56 68.0805 311.56ZM77.9708 313.128C77.1494 313.128 76.4241 312.957 75.7948 312.616C75.1761 312.275 74.6961 311.789 74.3548 311.16C74.0241 310.52 73.8588 309.773 73.8588 308.92C73.8588 308.067 74.0241 307.325 74.3548 306.696C74.6961 306.056 75.1761 305.565 75.7948 305.224C76.4241 304.883 77.1494 304.712 77.9708 304.712C78.7814 304.712 79.4961 304.883 80.1148 305.224C80.7334 305.565 81.2081 306.056 81.5388 306.696C81.8801 307.325 82.0508 308.067 82.0508 308.92C82.0508 309.773 81.8801 310.52 81.5388 311.16C81.2081 311.789 80.7334 312.275 80.1148 312.616C79.4961 312.957 78.7814 313.128 77.9708 313.128ZM77.9548 311.56C78.6374 311.56 79.1548 311.341 79.5068 310.904C79.8694 310.456 80.0508 309.795 80.0508 308.92C80.0508 308.056 79.8694 307.4 79.5068 306.952C79.1441 306.493 78.6321 306.264 77.9708 306.264C77.2988 306.264 76.7814 306.493 76.4188 306.952C76.0561 307.4 75.8748 308.056 75.8748 308.92C75.8748 309.795 76.0508 310.456 76.4028 310.904C76.7654 311.341 77.2828 311.56 77.9548 311.56ZM91.1261 313.128C89.6648 313.128 88.5021 312.787 87.6381 312.104L88.1981 310.696C89.0621 311.336 90.0488 311.656 91.1581 311.656C91.6381 311.656 92.0061 311.576 92.2621 311.416C92.5288 311.256 92.6621 311.032 92.6621 310.744C92.6621 310.499 92.5715 310.307 92.3901 310.168C92.2088 310.019 91.8995 309.891 91.4621 309.784L90.1181 309.48C88.6461 309.16 87.9101 308.408 87.9101 307.224C87.9101 306.733 88.0488 306.301 88.3261 305.928C88.6035 305.544 88.9928 305.245 89.4941 305.032C89.9955 304.819 90.5768 304.712 91.2381 304.712C91.8141 304.712 92.3688 304.803 92.9021 304.984C93.4355 305.155 93.9048 305.405 94.3101 305.736L93.7181 307.096C92.9075 306.499 92.0755 306.2 91.2221 306.2C90.7635 306.2 90.4061 306.285 90.1501 306.456C89.8941 306.627 89.7661 306.861 89.7661 307.16C89.7661 307.395 89.8408 307.581 89.9901 307.72C90.1501 307.859 90.4168 307.976 90.7901 308.072L92.1661 308.376C92.9661 308.557 93.5475 308.84 93.9101 309.224C94.2835 309.597 94.4701 310.088 94.4701 310.696C94.4701 311.443 94.1715 312.035 93.5741 312.472C92.9768 312.909 92.1608 313.128 91.1261 313.128ZM103.254 309.064H97.6858C97.7284 309.928 97.9418 310.568 98.3258 310.984C98.7204 311.389 99.3018 311.592 100.07 311.592C100.955 311.592 101.776 311.304 102.534 310.728L103.11 312.104C102.726 312.413 102.251 312.664 101.686 312.856C101.131 313.037 100.566 313.128 99.9898 313.128C98.6671 313.128 97.6271 312.755 96.8698 312.008C96.1124 311.261 95.7338 310.237 95.7338 308.936C95.7338 308.115 95.8991 307.384 96.2298 306.744C96.5604 306.104 97.0244 305.608 97.6218 305.256C98.2191 304.893 98.8964 304.712 99.6538 304.712C100.763 304.712 101.638 305.075 102.278 305.8C102.928 306.515 103.254 307.501 103.254 308.76V309.064ZM99.7018 306.152C99.1684 306.152 98.7311 306.312 98.3898 306.632C98.0591 306.941 97.8458 307.395 97.7498 307.992H101.51C101.446 307.384 101.259 306.925 100.95 306.616C100.651 306.307 100.235 306.152 99.7018 306.152ZM112.307 304.92V313H110.355V311.752C110.099 312.2 109.758 312.541 109.331 312.776C108.905 313.011 108.414 313.128 107.859 313.128C105.886 313.128 104.899 312.019 104.899 309.8V304.92H106.883V309.816C106.883 310.403 107.001 310.835 107.235 311.112C107.481 311.389 107.854 311.528 108.355 311.528C108.942 311.528 109.411 311.336 109.763 310.952C110.115 310.568 110.291 310.056 110.291 309.416V304.92H112.307ZM126.597 301.224V313H124.629V311.704C124.384 312.152 124.032 312.504 123.573 312.76C123.115 313.005 122.592 313.128 122.005 313.128C121.312 313.128 120.693 312.952 120.149 312.6C119.605 312.248 119.179 311.752 118.869 311.112C118.571 310.461 118.421 309.72 118.421 308.888C118.421 308.056 118.571 307.325 118.869 306.696C119.168 306.067 119.589 305.581 120.133 305.24C120.677 304.888 121.301 304.712 122.005 304.712C122.581 304.712 123.093 304.835 123.541 305.08C124 305.315 124.352 305.651 124.597 306.088V301.224H126.597ZM122.533 311.56C123.195 311.56 123.707 311.331 124.069 310.872C124.443 310.413 124.629 309.763 124.629 308.92C124.629 308.077 124.448 307.427 124.085 306.968C123.723 306.509 123.211 306.28 122.549 306.28C121.877 306.28 121.355 306.509 120.981 306.968C120.619 307.416 120.437 308.056 120.437 308.888C120.437 309.731 120.619 310.387 120.981 310.856C121.355 311.325 121.872 311.56 122.533 311.56ZM128.776 304.92H130.76V313H128.776V304.92ZM130.872 301.256V303.224H128.648V301.256H130.872ZM140.675 304.92V313H138.707V311.704C138.462 312.152 138.11 312.504 137.651 312.76C137.193 313.005 136.67 313.128 136.083 313.128C135.379 313.128 134.755 312.957 134.211 312.616C133.667 312.275 133.246 311.789 132.947 311.16C132.649 310.531 132.499 309.8 132.499 308.968C132.499 308.136 132.649 307.4 132.947 306.76C133.257 306.109 133.683 305.608 134.227 305.256C134.771 304.893 135.39 304.712 136.083 304.712C136.67 304.712 137.193 304.84 137.651 305.096C138.11 305.341 138.462 305.688 138.707 306.136V304.92H140.675ZM136.627 311.56C137.289 311.56 137.801 311.331 138.163 310.872C138.526 310.413 138.707 309.768 138.707 308.936C138.707 308.083 138.526 307.427 138.163 306.968C137.801 306.509 137.283 306.28 136.611 306.28C135.95 306.28 135.433 306.52 135.059 307C134.697 307.469 134.515 308.125 134.515 308.968C134.515 309.8 134.697 310.44 135.059 310.888C135.433 311.336 135.955 311.56 136.627 311.56ZM142.87 307.88H147.686V309.48H142.87V307.88ZM157.832 304.92V313H155.864V311.704C155.618 312.152 155.266 312.504 154.808 312.76C154.349 313.005 153.826 313.128 153.24 313.128C152.536 313.128 151.912 312.957 151.368 312.616C150.824 312.275 150.402 311.789 150.104 311.16C149.805 310.531 149.656 309.8 149.656 308.968C149.656 308.136 149.805 307.4 150.104 306.76C150.413 306.109 150.84 305.608 151.384 305.256C151.928 304.893 152.546 304.712 153.24 304.712C153.826 304.712 154.349 304.84 154.808 305.096C155.266 305.341 155.618 305.688 155.864 306.136V304.92H157.832ZM153.784 311.56C154.445 311.56 154.957 311.331 155.32 310.872C155.682 310.413 155.864 309.768 155.864 308.936C155.864 308.083 155.682 307.427 155.32 306.968C154.957 306.509 154.44 306.28 153.768 306.28C153.106 306.28 152.589 306.52 152.216 307C151.853 307.469 151.672 308.125 151.672 308.968C151.672 309.8 151.853 310.44 152.216 310.888C152.589 311.336 153.112 311.56 153.784 311.56ZM160.026 307.88H164.842V309.48H160.026V307.88ZM174.988 301.224V313H173.02V311.704C172.775 312.152 172.423 312.504 171.964 312.76C171.505 313.005 170.983 313.128 170.396 313.128C169.703 313.128 169.084 312.952 168.54 312.6C167.996 312.248 167.569 311.752 167.26 311.112C166.961 310.461 166.812 309.72 166.812 308.888C166.812 308.056 166.961 307.325 167.26 306.696C167.559 306.067 167.98 305.581 168.524 305.24C169.068 304.888 169.692 304.712 170.396 304.712C170.972 304.712 171.484 304.835 171.932 305.08C172.391 305.315 172.743 305.651 172.988 306.088V301.224H174.988ZM170.924 311.56C171.585 311.56 172.097 311.331 172.46 310.872C172.833 310.413 173.02 309.763 173.02 308.92C173.02 308.077 172.839 307.427 172.476 306.968C172.113 306.509 171.601 306.28 170.94 306.28C170.268 306.28 169.745 306.509 169.372 306.968C169.009 307.416 168.828 308.056 168.828 308.888C168.828 309.731 169.009 310.387 169.372 310.856C169.745 311.325 170.263 311.56 170.924 311.56ZM177.166 304.92H179.15V313H177.166V304.92ZM179.262 301.256V303.224H177.038V301.256H179.262ZM189.066 304.92V313H187.098V311.704C186.853 312.152 186.501 312.504 186.042 312.76C185.583 313.005 185.061 313.128 184.474 313.128C183.77 313.128 183.146 312.957 182.602 312.616C182.058 312.275 181.637 311.789 181.338 311.16C181.039 310.531 180.89 309.8 180.89 308.968C180.89 308.136 181.039 307.4 181.338 306.76C181.647 306.109 182.074 305.608 182.618 305.256C183.162 304.893 183.781 304.712 184.474 304.712C185.061 304.712 185.583 304.84 186.042 305.096C186.501 305.341 186.853 305.688 187.098 306.136V304.92H189.066ZM185.018 311.56C185.679 311.56 186.191 311.331 186.554 310.872C186.917 310.413 187.098 309.768 187.098 308.936C187.098 308.083 186.917 307.427 186.554 306.968C186.191 306.509 185.674 306.28 185.002 306.28C184.341 306.28 183.823 306.52 183.45 307C183.087 307.469 182.906 308.125 182.906 308.968C182.906 309.8 183.087 310.44 183.45 310.888C183.823 311.336 184.346 311.56 185.018 311.56Z" fill="#58C4CB"/>
<path d="M53.416 195.576V196.576H54.416V195.576H53.416ZM34.024 195.576V194.576H33.024V195.576H34.024ZM34.024 214.968V215.968H35.024V214.968H34.024ZM25.576 214.968H24.576V215.968H25.576V214.968ZM25.576 195.576H26.576V194.576H25.576V195.576ZM6.184 195.576H5.184V196.576H6.184V195.576ZM6.184 187.032V186.032H5.184V187.032H6.184ZM25.576 187.032V188.032H26.576V187.032H25.576ZM25.576 167.64V166.64H24.576V167.64H25.576ZM34.024 167.64H35.024V166.64H34.024V167.64ZM34.024 187.032H33.024V188.032H34.024V187.032ZM53.416 187.032H54.416V186.032H53.416V187.032ZM53.416 194.576H34.024V196.576H53.416V194.576ZM33.024 195.576V214.968H35.024V195.576H33.024ZM34.024 213.968H25.576V215.968H34.024V213.968ZM26.576 214.968V195.576H24.576V214.968H26.576ZM25.576 194.576H6.184V196.576H25.576V194.576ZM7.184 195.576V187.032H5.184V195.576H7.184ZM6.184 188.032H25.576V186.032H6.184V188.032ZM26.576 187.032V167.64H24.576V187.032H26.576ZM25.576 168.64H34.024V166.64H25.576V168.64ZM33.024 167.64V187.032H35.024V167.64H33.024ZM34.024 188.032H53.416V186.032H34.024V188.032ZM52.416 187.032V195.576H54.416V187.032H52.416ZM11.896 242.272V241.272H10.896V242.272H11.896ZM18.28 257.008H19.28V255.669L17.9959 256.049L18.28 257.008ZM18.28 261.76L18.6217 262.7L19.28 262.46V261.76H18.28ZM8.104 260.032L7.38201 260.724L8.104 260.032ZM5.896 242.272H6.896V241.272H5.896V242.272ZM1.24 242.272H0.24V243.272H1.24V242.272ZM1.24 237.76V236.76H0.24V237.76H1.24ZM5.896 237.76V238.76H6.896V237.76H5.896ZM5.896 231.856L5.5775 230.908L4.896 231.137V231.856H5.896ZM11.896 229.84H12.896V228.449L11.5775 228.892L11.896 229.84ZM11.896 237.76H10.896V238.76H11.896V237.76ZM18.328 237.76H19.328V236.76H18.328V237.76ZM18.328 242.272V243.272H19.328V242.272H18.328ZM10.896 242.272V253.12H12.896V242.272H10.896ZM10.896 253.12C10.896 254.681 11.2586 256.039 12.1607 257.006C13.075 257.986 14.3793 258.392 15.88 258.392V256.392C14.7247 256.392 14.037 256.086 13.6233 255.642C13.1974 255.185 12.896 254.407 12.896 253.12H10.896ZM15.88 258.392C16.7309 258.392 17.6277 258.244 18.5641 257.967L17.9959 256.049C17.2043 256.284 16.5011 256.392 15.88 256.392V258.392ZM17.28 257.008V261.76H19.28V257.008H17.28ZM17.9383 260.82C17.0219 261.153 15.8645 261.336 14.44 261.336V263.336C16.0235 263.336 17.4261 263.135 18.6217 262.7L17.9383 260.82ZM14.44 261.336C11.8765 261.336 10.0582 260.626 8.82599 259.34L7.38201 260.724C9.09383 262.51 11.4995 263.336 14.44 263.336V261.336ZM8.82599 259.34C7.58783 258.048 6.896 256.123 6.896 253.408H4.896C4.896 256.453 5.67617 258.944 7.38201 260.724L8.82599 259.34ZM6.896 253.408V242.272H4.896V253.408H6.896ZM5.896 241.272H1.24V243.272H5.896V241.272ZM2.24 242.272V237.76H0.24V242.272H2.24ZM1.24 238.76H5.896V236.76H1.24V238.76ZM6.896 237.76V231.856H4.896V237.76H6.896ZM6.2145 232.804L12.2145 230.788L11.5775 228.892L5.5775 230.908L6.2145 232.804ZM10.896 229.84V237.76H12.896V229.84H10.896ZM11.896 238.76H18.328V236.76H11.896V238.76ZM17.328 237.76V242.272H19.328V237.76H17.328ZM18.328 241.272H11.896V243.272H18.328V241.272ZM37.9075 237.568L38.9075 237.577L38.9136 236.881L38.2635 236.634L37.9075 237.568ZM37.8595 243.04L37.4831 243.966L38.8466 244.52L38.8595 243.049L37.8595 243.04ZM29.9875 244.192L29.2512 243.515L29.2461 243.521L29.2412 243.526L29.9875 244.192ZM28.4035 262V263H29.4035V262H28.4035ZM22.4515 262H21.4515V263H22.4515V262ZM22.0675 237.76V236.76H20.9325L21.0755 237.886L22.0675 237.76ZM27.6835 237.76L28.6772 237.648L28.5774 236.76H27.6835V237.76ZM28.1635 242.032L27.1698 242.144L29.0959 242.394L28.1635 242.032ZM31.0435 238.432L30.508 237.587V237.587L31.0435 238.432ZM35.5075 238.184C36.3475 238.184 37.0209 238.3 37.5515 238.502L38.2635 236.634C37.4501 236.324 36.5235 236.184 35.5075 236.184V238.184ZM36.9075 237.559L36.8595 243.031L38.8595 243.049L38.9075 237.577L36.9075 237.559ZM38.2359 242.114C37.0943 241.65 35.9106 241.416 34.6915 241.416V243.416C35.6484 243.416 36.5767 243.598 37.4831 243.966L38.2359 242.114ZM34.6915 241.416C32.4451 241.416 30.5774 242.072 29.2512 243.515L30.7238 244.869C31.5736 243.944 32.8419 243.416 34.6915 243.416V241.416ZM29.2412 243.526C27.9864 244.933 27.4035 246.758 27.4035 248.896H29.4035C29.4035 247.13 29.8766 245.819 30.7338 244.858L29.2412 243.526ZM27.4035 248.896V262H29.4035V248.896H27.4035ZM28.4035 261H22.4515V263H28.4035V261ZM23.4515 262V244.624H21.4515V262H23.4515ZM23.4515 244.624C23.4515 242.032 23.322 239.701 23.0595 237.634L21.0755 237.886C21.325 239.851 21.4515 242.096 21.4515 244.624H23.4515ZM22.0675 238.76H27.6835V236.76H22.0675V238.76ZM26.6898 237.872L27.1698 242.144L29.1572 241.92L28.6772 237.648L26.6898 237.872ZM29.0959 242.394C29.6333 241.007 30.4627 239.984 31.579 239.277L30.508 237.587C29.0003 238.544 27.9097 239.921 27.2311 241.67L29.0959 242.394ZM31.579 239.277C32.7194 238.553 34.0191 238.184 35.5075 238.184V236.184C33.6679 236.184 31.9916 236.647 30.508 237.587L31.579 239.277ZM63.9636 237.76H64.9636V236.76H63.9636V237.76ZM63.9636 262V263H64.9636V262H63.9636ZM58.0596 262H57.0596V263H58.0596V262ZM58.0596 258.112H59.0596L57.1825 257.632L58.0596 258.112ZM54.8916 261.28L55.3633 262.162L55.3712 262.158L55.379 262.153L54.8916 261.28ZM44.5716 260.848L44.0401 261.695L44.5716 260.848ZM40.7796 256.48L41.6831 256.051L40.7796 256.48ZM40.7796 243.28L39.8765 242.851L39.8734 242.857L40.7796 243.28ZM44.6196 238.768L45.1629 239.608L45.1743 239.6L44.6196 238.768ZM54.8916 238.288L54.4043 239.161L54.4121 239.166L54.42 239.17L54.8916 238.288ZM58.0596 241.408L57.1825 241.888L59.0596 241.408H58.0596ZM58.0596 237.76V236.76H57.0596V237.76H58.0596ZM56.4276 255.616L57.212 256.236L56.4276 255.616ZM56.4276 243.904L55.6432 244.524L56.4276 243.904ZM47.1156 244L46.3263 243.386L46.3243 243.389L47.1156 244ZM47.1156 255.664L46.3384 256.293L46.3429 256.299L46.3474 256.304L47.1156 255.664ZM62.9636 237.76V262H64.9636V237.76H62.9636ZM63.9636 261H58.0596V263H63.9636V261ZM59.0596 262V258.112H57.0596V262H59.0596ZM57.1825 257.632C56.5396 258.806 55.6209 259.728 54.4043 260.407L55.379 262.153C56.9144 261.296 58.1077 260.106 58.9367 258.592L57.1825 257.632ZM54.42 260.398C53.2068 261.047 51.8044 261.384 50.1876 261.384V263.384C52.0909 263.384 53.8245 262.985 55.3633 262.162L54.42 260.398ZM50.1876 261.384C48.2449 261.384 46.5607 260.915 45.1031 260.001L44.0401 261.695C45.8466 262.829 47.9063 263.384 50.1876 263.384V261.384ZM45.1031 260.001C43.646 259.087 42.5046 257.782 41.6831 256.051L39.8762 256.909C40.8466 258.954 42.2332 260.561 44.0401 261.695L45.1031 260.001ZM41.6831 256.051C40.8618 254.321 40.4356 252.28 40.4356 249.904H38.4356C38.4356 252.52 38.9054 254.863 39.8762 256.909L41.6831 256.051ZM40.4356 249.904C40.4356 247.528 40.8616 245.469 41.6858 243.703L39.8734 242.857C38.9056 244.931 38.4356 247.288 38.4356 249.904H40.4356ZM41.6828 243.709C42.5403 241.906 43.7036 240.552 45.1629 239.608L44.0764 237.928C42.2717 239.096 40.8749 240.75 39.8765 242.851L41.6828 243.709ZM45.1743 239.6C46.6319 238.628 48.2925 238.136 50.1876 238.136V236.136C47.9228 236.136 45.8713 236.732 44.0649 237.936L45.1743 239.6ZM50.1876 238.136C51.7973 238.136 53.194 238.486 54.4043 239.161L55.379 237.415C53.8372 236.554 52.0979 236.136 50.1876 236.136V238.136ZM54.42 239.17C55.628 239.816 56.5416 240.718 57.1825 241.888L58.9367 240.928C58.1056 239.41 56.9072 238.232 55.3633 237.406L54.42 239.17ZM59.0596 241.408V237.76H57.0596V241.408H59.0596ZM58.0596 238.76H63.9636V236.76H58.0596V238.76ZM51.8196 258.68C54.064 258.68 55.9079 257.886 57.212 256.236L55.6432 254.996C54.7714 256.098 53.5433 256.68 51.8196 256.68V258.68ZM57.212 256.236C58.4881 254.622 59.0596 252.436 59.0596 249.808H57.0596C57.0596 252.172 56.5432 253.858 55.6432 254.996L57.212 256.236ZM59.0596 249.808C59.0596 247.123 58.4911 244.901 57.212 243.284L55.6432 244.524C56.5402 245.659 57.0596 247.373 57.0596 249.808H59.0596ZM57.212 243.284C55.9046 241.63 54.0419 240.84 51.7716 240.84V242.84C53.5333 242.84 54.7747 243.426 55.6432 244.524L57.212 243.284ZM51.7716 240.84C49.5101 240.84 47.654 241.679 46.3263 243.386L47.905 244.614C48.8172 243.441 50.0651 242.84 51.7716 242.84V240.84ZM46.3243 243.389C45.0544 245.032 44.4836 247.245 44.4836 249.904H46.4836C46.4836 247.507 47.0008 245.784 47.9069 244.611L46.3243 243.389ZM44.4836 249.904C44.4836 252.53 45.0544 254.707 46.3384 256.293L47.8929 255.035C47.0009 253.933 46.4836 252.27 46.4836 249.904H44.4836ZM46.3474 256.304C47.6875 257.912 49.5574 258.68 51.8196 258.68V256.68C50.0499 256.68 48.7837 256.104 47.8838 255.024L46.3474 256.304ZM93.0584 262V263H94.0584V262H93.0584ZM87.0584 262H86.0584V263H87.0584V262ZM85.9544 243.232L85.1816 243.867L85.1873 243.874L85.1931 243.88L85.9544 243.232ZM78.1304 243.664L78.8474 244.361L78.8568 244.351L78.1304 243.664ZM76.4504 262V263H77.4504V262H76.4504ZM70.4984 262H69.4984V263H70.4984V262ZM70.1144 237.76V236.76H68.9794L69.1223 237.886L70.1144 237.76ZM75.7304 237.76L76.7245 237.652L76.6278 236.76H75.7304V237.76ZM76.1624 241.744L75.1682 241.852L75.5033 244.942L77.0329 242.236L76.1624 241.744ZM79.5224 238.336L79.0367 237.462L79.0284 237.467L79.5224 238.336ZM84.3704 238.136C87.0732 238.136 88.9291 238.906 90.132 240.288C91.3581 241.697 92.0584 243.915 92.0584 247.12H94.0584C94.0584 243.669 93.3107 240.895 91.6407 238.976C89.9477 237.03 87.4595 236.136 84.3704 236.136V238.136ZM92.0584 247.12V262H94.0584V247.12H92.0584ZM93.0584 261H87.0584V263H93.0584V261ZM88.0584 262V247.408H86.0584V262H88.0584ZM88.0584 247.408C88.0584 245.401 87.6814 243.717 86.7156 242.584L85.1931 243.88C85.6994 244.475 86.0584 245.575 86.0584 247.408H88.0584ZM86.7271 242.597C85.7438 241.4 84.2777 240.888 82.5464 240.888V242.888C83.887 242.888 84.693 243.272 85.1816 243.867L86.7271 242.597ZM82.5464 240.888C80.4836 240.888 78.7363 241.568 77.4039 242.977L78.8568 244.351C79.7645 243.392 80.9611 242.888 82.5464 242.888V240.888ZM77.4134 242.967C76.0774 244.341 75.4504 246.146 75.4504 248.272H77.4504C77.4504 246.558 77.9434 245.291 78.8474 244.361L77.4134 242.967ZM75.4504 248.272V262H77.4504V248.272H75.4504ZM76.4504 261H70.4984V263H76.4504V261ZM71.4984 262V244.624H69.4984V262H71.4984ZM71.4984 244.624C71.4984 242.032 71.3689 239.701 71.1064 237.634L69.1223 237.886C69.3719 239.851 69.4984 242.096 69.4984 244.624H71.4984ZM70.1144 238.76H75.7304V236.76H70.1144V238.76ZM74.7362 237.868L75.1682 241.852L77.1565 241.636L76.7245 237.652L74.7362 237.868ZM77.0329 242.236C77.78 240.914 78.7728 239.912 80.0164 239.205L79.0284 237.467C77.4559 238.36 76.2088 239.63 75.2918 241.252L77.0329 242.236ZM80.008 239.21C81.2866 238.5 82.733 238.136 84.3704 238.136V236.136C82.4238 236.136 80.6381 236.572 79.0367 237.462L80.008 239.21ZM123.036 237.76L124.025 237.908L124.197 236.76H123.036V237.76ZM122.604 272.368V273.368H123.604V272.368H122.604ZM116.604 272.368H115.604V273.368H116.604V272.368ZM116.604 258.304H117.604V254.477L115.732 257.815L116.604 258.304ZM113.436 261.328L112.981 260.438L112.972 260.442L113.436 261.328ZM103.212 260.848L102.681 261.695L103.212 260.848ZM99.4202 256.48L100.324 256.051L99.4202 256.48ZM99.4202 243.28L98.5171 242.851L98.5141 242.857L99.4202 243.28ZM103.26 238.768L103.804 239.608L103.815 239.6L103.26 238.768ZM113.772 238.384L113.272 239.25L113.772 238.384ZM116.94 241.888L116.027 242.296L117.547 245.697L117.935 241.992L116.94 241.888ZM117.372 237.76V236.76H116.471L116.378 237.656L117.372 237.76ZM115.068 255.616L115.853 256.236L115.068 255.616ZM115.068 243.904L114.284 244.524L115.068 243.904ZM105.756 244L104.967 243.386L104.965 243.389L105.756 244ZM105.756 255.664L104.979 256.293L104.983 256.299L104.988 256.304L105.756 255.664ZM122.047 237.612C121.75 239.595 121.604 241.935 121.604 244.624H123.604C123.604 242.001 123.747 239.765 124.025 237.908L122.047 237.612ZM121.604 244.624V272.368H123.604V244.624H121.604ZM122.604 271.368H116.604V273.368H122.604V271.368ZM117.604 272.368V258.304H115.604V272.368H117.604ZM115.732 257.815C115.095 258.95 114.187 259.821 112.981 260.438L113.892 262.218C115.438 261.427 116.641 260.282 117.476 258.793L115.732 257.815ZM112.972 260.442C111.79 261.061 110.417 261.384 108.828 261.384V263.384C110.695 263.384 112.394 263.003 113.9 262.214L112.972 260.442ZM108.828 261.384C106.886 261.384 105.201 260.915 103.744 260.001L102.681 261.695C104.487 262.829 106.547 263.384 108.828 263.384V261.384ZM103.744 260.001C102.287 259.087 101.145 257.782 100.324 256.051L98.5168 256.909C99.4873 258.954 100.874 260.561 102.681 261.695L103.744 260.001ZM100.324 256.051C99.5024 254.321 99.0762 252.28 99.0762 249.904H97.0762C97.0762 252.52 97.5461 254.863 98.5168 256.909L100.324 256.051ZM99.0762 249.904C99.0762 247.528 99.5023 245.469 100.326 243.703L98.5141 242.857C97.5462 244.931 97.0762 247.288 97.0762 249.904H99.0762ZM100.323 243.709C101.181 241.906 102.344 240.552 103.804 239.608L102.717 237.928C100.912 239.096 99.5155 240.75 98.5171 242.851L100.323 243.709ZM103.815 239.6C105.273 238.628 106.933 238.136 108.828 238.136V236.136C106.563 236.136 104.512 236.732 102.706 237.936L103.815 239.6ZM108.828 238.136C110.529 238.136 112.001 238.516 113.272 239.25L114.273 237.518C112.663 236.588 110.839 236.136 108.828 236.136V238.136ZM113.272 239.25C114.531 239.978 115.442 240.986 116.027 242.296L117.853 241.48C117.094 239.782 115.893 238.454 114.273 237.518L113.272 239.25ZM117.935 241.992L118.367 237.864L116.378 237.656L115.946 241.784L117.935 241.992ZM117.372 238.76H123.036V236.76H117.372V238.76ZM110.46 258.68C112.705 258.68 114.549 257.886 115.853 256.236L114.284 254.996C113.412 256.098 112.184 256.68 110.46 256.68V258.68ZM115.853 256.236C117.129 254.622 117.7 252.436 117.7 249.808H115.7C115.7 252.172 115.184 253.858 114.284 254.996L115.853 256.236ZM117.7 249.808C117.7 247.123 117.132 244.901 115.853 243.284L114.284 244.524C115.181 245.659 115.7 247.373 115.7 249.808H117.7ZM115.853 243.284C114.545 241.63 112.683 240.84 110.412 240.84V242.84C112.174 242.84 113.415 243.426 114.284 244.524L115.853 243.284ZM110.412 240.84C108.151 240.84 106.295 241.679 104.967 243.386L106.546 244.614C107.458 243.441 108.706 242.84 110.412 242.84V240.84ZM104.965 243.389C103.695 245.032 103.124 247.245 103.124 249.904H105.124C105.124 247.507 105.641 245.784 106.548 244.611L104.965 243.389ZM103.124 249.904C103.124 252.53 103.695 254.707 104.979 256.293L106.533 255.035C105.642 253.933 105.124 252.27 105.124 249.904H103.124ZM104.988 256.304C106.328 257.912 108.198 258.68 110.46 258.68V256.68C108.691 256.68 107.424 256.104 106.524 255.024L104.988 256.304ZM151.219 237.76H152.219V236.76H151.219V237.76ZM151.219 262V263H152.219V262H151.219ZM145.363 262H144.363V263H145.363V262ZM145.363 258.256H146.363V254.49L144.495 257.76L145.363 258.256ZM142.291 261.328L141.809 260.452L142.291 261.328ZM128.995 237.76V236.76H127.995V237.76H128.995ZM134.947 237.76H135.947V236.76H134.947V237.76ZM136.003 256.336L135.24 256.982L135.247 256.99L135.254 256.999L136.003 256.336ZM145.171 237.76V236.76H144.171V237.76H145.171ZM150.219 237.76V262H152.219V237.76H150.219ZM151.219 261H145.363V263H151.219V261ZM146.363 262V258.256H144.363V262H146.363ZM144.495 257.76C143.812 258.954 142.918 259.842 141.809 260.452L142.773 262.204C144.224 261.406 145.378 260.246 146.231 258.752L144.495 257.76ZM141.809 260.452C140.696 261.064 139.394 261.384 137.875 261.384V263.384C139.684 263.384 141.326 263 142.773 262.204L141.809 260.452ZM137.875 261.384C135.101 261.384 133.195 260.61 131.962 259.223C130.709 257.815 129.995 255.601 129.995 252.4H127.995C127.995 255.855 128.761 258.633 130.468 260.553C132.195 262.494 134.729 263.384 137.875 263.384V261.384ZM129.995 252.4V237.76H127.995V252.4H129.995ZM128.995 238.76H134.947V236.76H128.995V238.76ZM133.947 237.76V252.448H135.947V237.76H133.947ZM133.947 252.448C133.947 254.308 134.313 255.887 135.24 256.982L136.766 255.69C136.285 255.121 135.947 254.108 135.947 252.448H133.947ZM135.254 256.999C136.24 258.114 137.679 258.584 139.363 258.584V256.584C138.039 256.584 137.238 256.222 136.752 255.673L135.254 256.999ZM139.363 258.584C141.364 258.584 143.054 257.918 144.324 256.532L142.85 255.18C142.008 256.098 140.882 256.584 139.363 256.584V258.584ZM144.324 256.532C145.586 255.155 146.171 253.358 146.171 251.248H144.171C144.171 252.978 143.7 254.253 142.85 255.18L144.324 256.532ZM146.171 251.248V237.76H144.171V251.248H146.171ZM145.171 238.76H151.219V236.76H145.171V238.76ZM157.733 237.76V236.76H156.733V237.76H157.733ZM163.685 237.76H164.685V236.76H163.685V237.76ZM163.685 262V263H164.685V262H163.685ZM157.733 262H156.733V263H157.733V262ZM164.021 226.768H165.021V225.768H164.021V226.768ZM164.021 232.672V233.672H165.021V232.672H164.021ZM157.349 232.672H156.349V233.672H157.349V232.672ZM157.349 226.768V225.768H156.349V226.768H157.349ZM157.733 238.76H163.685V236.76H157.733V238.76ZM162.685 237.76V262H164.685V237.76H162.685ZM163.685 261H157.733V263H163.685V261ZM158.733 262V237.76H156.733V262H158.733ZM163.021 226.768V232.672H165.021V226.768H163.021ZM164.021 231.672H157.349V233.672H164.021V231.672ZM158.349 232.672V226.768H156.349V232.672H158.349ZM157.349 227.768H164.021V225.768H157.349V227.768ZM170.248 226.672V225.672H169.248V226.672H170.248ZM176.2 226.672H177.2V225.672H176.2V226.672ZM176.2 262V263H177.2V262H176.2ZM170.248 262H169.248V263H170.248V262ZM170.248 227.672H176.2V225.672H170.248V227.672ZM175.2 226.672V262H177.2V226.672H175.2ZM176.2 261H170.248V263H176.2V261ZM171.248 262V226.672H169.248V262H171.248ZM182.764 237.76V236.76H181.764V237.76H182.764ZM188.716 237.76H189.716V236.76H188.716V237.76ZM188.716 262V263H189.716V262H188.716ZM182.764 262H181.764V263H182.764V262ZM189.052 226.768H190.052V225.768H189.052V226.768ZM189.052 232.672V233.672H190.052V232.672H189.052ZM182.38 232.672H181.38V233.672H182.38V232.672ZM182.38 226.768V225.768H181.38V226.768H182.38ZM182.764 238.76H188.716V236.76H182.764V238.76ZM187.716 237.76V262H189.716V237.76H187.716ZM188.716 261H182.764V263H188.716V261ZM183.764 262V237.76H181.764V262H183.764ZM188.052 226.768V232.672H190.052V226.768H188.052ZM189.052 231.672H182.38V233.672H189.052V231.672ZM183.38 232.672V226.768H181.38V232.672H183.38ZM182.38 227.768H189.052V225.768H182.38V227.768ZM218.464 226.672H219.464V225.672H218.464V226.672ZM218.464 262V263H219.464V262H218.464ZM212.56 262H211.56V263H212.56V262ZM212.56 258.112H213.56L211.683 257.632L212.56 258.112ZM209.392 261.28L209.863 262.162L209.871 262.158L209.879 262.153L209.392 261.28ZM199.12 260.8L198.576 261.64L199.12 260.8ZM195.28 256.336L194.371 256.753L194.375 256.762L194.379 256.771L195.28 256.336ZM195.28 243.088L194.376 242.659L195.28 243.088ZM199.072 238.72L199.603 239.567L199.615 239.56L199.072 238.72ZM209.296 238.24L208.815 239.117L208.828 239.124L208.84 239.13L209.296 238.24ZM212.464 241.264L211.591 241.753L213.464 245.091V241.264H212.464ZM212.464 226.672V225.672H211.464V226.672H212.464ZM210.88 255.616L210.104 254.985L210.1 254.99L210.095 254.996L210.88 255.616ZM210.928 243.904L210.143 244.524L210.928 243.904ZM201.616 243.904L200.84 243.273L200.838 243.275L201.616 243.904ZM201.616 255.568L200.824 256.18L200.833 256.191L201.616 255.568ZM217.464 226.672V262H219.464V226.672H217.464ZM218.464 261H212.56V263H218.464V261ZM213.56 262V258.112H211.56V262H213.56ZM211.683 257.632C211.04 258.806 210.121 259.728 208.904 260.407L209.879 262.153C211.414 261.296 212.608 260.106 213.437 258.592L211.683 257.632ZM208.92 260.398C207.707 261.047 206.304 261.384 204.688 261.384V263.384C206.591 263.384 208.324 262.985 209.863 262.162L208.92 260.398ZM204.688 261.384C202.786 261.384 201.122 260.904 199.663 259.96L198.576 261.64C200.382 262.808 202.429 263.384 204.688 263.384V261.384ZM199.663 259.96C198.199 259.013 197.036 257.672 196.18 255.901L194.379 256.771C195.379 258.84 196.776 260.475 198.576 261.64L199.663 259.96ZM196.188 255.919C195.362 254.117 194.936 252.039 194.936 249.664H192.936C192.936 252.281 193.406 254.651 194.371 256.753L196.188 255.919ZM194.936 249.664C194.936 247.288 195.362 245.247 196.183 243.517L194.376 242.659C193.405 244.705 192.936 247.048 192.936 249.664H194.936ZM196.183 243.517C197.005 241.786 198.146 240.481 199.603 239.567L198.54 237.873C196.733 239.007 195.347 240.614 194.376 242.659L196.183 243.517ZM199.615 239.56C201.071 238.617 202.751 238.136 204.688 238.136V236.136C202.4 236.136 200.336 236.711 198.528 237.88L199.615 239.56ZM204.688 238.136C206.27 238.136 207.637 238.472 208.815 239.117L209.776 237.363C208.267 236.536 206.562 236.136 204.688 236.136V238.136ZM208.84 239.13C210.046 239.747 210.955 240.618 211.591 241.753L213.336 240.775C212.501 239.286 211.297 238.141 209.751 237.35L208.84 239.13ZM213.464 241.264V226.672H211.464V241.264H213.464ZM212.464 227.672H218.464V225.672H212.464V227.672ZM206.272 258.68C208.516 258.68 210.36 257.886 211.664 256.236L210.095 254.996C209.223 256.098 207.995 256.68 206.272 256.68V258.68ZM211.655 256.247C212.971 254.631 213.56 252.422 213.56 249.76H211.56C211.56 252.154 211.028 253.849 210.104 254.985L211.655 256.247ZM213.56 249.76C213.56 247.103 212.99 244.899 211.712 243.284L210.143 244.524C211.042 245.66 211.56 247.361 211.56 249.76H213.56ZM211.712 243.284C210.408 241.634 208.564 240.84 206.32 240.84V242.84C208.043 242.84 209.271 243.422 210.143 244.524L211.712 243.284ZM206.32 240.84C204.049 240.84 202.177 241.63 200.84 243.273L202.391 244.535C203.294 243.426 204.558 242.84 206.32 242.84V240.84ZM200.838 243.275C199.554 244.861 198.984 247.038 198.984 249.664H200.984C200.984 247.298 201.501 245.635 202.393 244.533L200.838 243.275ZM198.984 249.664C198.984 252.323 199.554 254.536 200.824 256.179L202.407 254.957C201.501 253.784 200.984 252.061 200.984 249.664H198.984ZM200.833 256.191C202.164 257.864 204.019 258.68 206.272 258.68V256.68C204.557 256.68 203.307 256.088 202.398 254.945L200.833 256.191ZM248.182 237.76H249.182V236.76H248.182V237.76ZM248.182 262V263H249.182V262H248.182ZM242.278 262H241.278V263H242.278V262ZM242.278 258.112H243.278L241.401 257.632L242.278 258.112ZM239.11 261.28L239.582 262.162L239.59 262.158L239.598 262.153L239.11 261.28ZM228.79 260.848L228.259 261.695L228.79 260.848ZM224.998 256.48L225.902 256.051L224.998 256.48ZM224.998 243.28L224.095 242.851L224.092 242.857L224.998 243.28ZM228.838 238.768L229.382 239.608L229.393 239.6L228.838 238.768ZM239.11 238.288L238.623 239.161L238.631 239.166L238.639 239.17L239.11 238.288ZM242.278 241.408L241.401 241.888L243.278 241.408H242.278ZM242.278 237.76V236.76H241.278V237.76H242.278ZM240.646 255.616L241.431 256.236L240.646 255.616ZM240.646 243.904L239.862 244.524L240.646 243.904ZM231.334 244L230.545 243.386L230.543 243.389L231.334 244ZM231.334 255.664L230.557 256.293L230.562 256.299L230.566 256.304L231.334 255.664ZM247.182 237.76V262H249.182V237.76H247.182ZM248.182 261H242.278V263H248.182V261ZM243.278 262V258.112H241.278V262H243.278ZM241.401 257.632C240.758 258.806 239.84 259.728 238.623 260.407L239.598 262.153C241.133 261.296 242.326 260.106 243.155 258.592L241.401 257.632ZM238.639 260.398C237.426 261.047 236.023 261.384 234.406 261.384V263.384C236.31 263.384 238.043 262.985 239.582 262.162L238.639 260.398ZM234.406 261.384C232.464 261.384 230.779 260.915 229.322 260.001L228.259 261.695C230.065 262.829 232.125 263.384 234.406 263.384V261.384ZM229.322 260.001C227.865 259.087 226.723 257.782 225.902 256.051L224.095 256.909C225.065 258.954 226.452 260.561 228.259 261.695L229.322 260.001ZM225.902 256.051C225.081 254.321 224.654 252.28 224.654 249.904H222.654C222.654 252.52 223.124 254.863 224.095 256.909L225.902 256.051ZM224.654 249.904C224.654 247.528 225.08 245.469 225.905 243.703L224.092 242.857C223.124 244.931 222.654 247.288 222.654 249.904H224.654ZM225.902 243.709C226.759 241.906 227.922 240.552 229.382 239.608L228.295 237.928C226.49 239.096 225.094 240.75 224.095 242.851L225.902 243.709ZM229.393 239.6C230.851 238.628 232.511 238.136 234.406 238.136V236.136C232.142 236.136 230.09 236.732 228.284 237.936L229.393 239.6ZM234.406 238.136C236.016 238.136 237.413 238.486 238.623 239.161L239.598 237.415C238.056 236.554 236.317 236.136 234.406 236.136V238.136ZM238.639 239.17C239.847 239.816 240.76 240.718 241.401 241.888L243.155 240.928C242.324 239.41 241.126 238.232 239.582 237.406L238.639 239.17ZM243.278 241.408V237.76H241.278V241.408H243.278ZM242.278 238.76H248.182V236.76H242.278V238.76ZM236.038 258.68C238.283 258.68 240.127 257.886 241.431 256.236L239.862 254.996C238.99 256.098 237.762 256.68 236.038 256.68V258.68ZM241.431 256.236C242.707 254.622 243.278 252.436 243.278 249.808H241.278C241.278 252.172 240.762 253.858 239.862 254.996L241.431 256.236ZM243.278 249.808C243.278 247.123 242.71 244.901 241.431 243.284L239.862 244.524C240.759 245.659 241.278 247.373 241.278 249.808H243.278ZM241.431 243.284C240.123 241.63 238.261 240.84 235.99 240.84V242.84C237.752 242.84 238.993 243.426 239.862 244.524L241.431 243.284ZM235.99 240.84C233.729 240.84 231.873 241.679 230.545 243.386L232.124 244.614C233.036 243.441 234.284 242.84 235.99 242.84V240.84ZM230.543 243.389C229.273 245.032 228.702 247.245 228.702 249.904H230.702C230.702 247.507 231.22 245.784 232.126 244.611L230.543 243.389ZM228.702 249.904C228.702 252.53 229.273 254.707 230.557 256.293L232.112 255.035C231.22 253.933 230.702 252.27 230.702 249.904H228.702ZM230.566 256.304C231.906 257.912 233.776 258.68 236.038 258.68V256.68C234.269 256.68 233.002 256.104 232.103 255.024L230.566 256.304ZM277.901 226.672H278.901V225.672H277.901V226.672ZM277.901 262V263H278.901V262H277.901ZM271.997 262H270.997V263H271.997V262ZM271.997 258.112H272.997L271.12 257.632L271.997 258.112ZM268.829 261.28L269.301 262.162L269.309 262.158L269.316 262.153L268.829 261.28ZM258.557 260.8L258.014 261.64L258.557 260.8ZM254.717 256.336L253.808 256.753L253.812 256.762L253.817 256.771L254.717 256.336ZM254.717 243.088L253.814 242.659L254.717 243.088ZM258.509 238.72L259.041 239.567L259.052 239.56L258.509 238.72ZM268.733 238.24L268.253 239.117L268.265 239.124L268.278 239.13L268.733 238.24ZM271.901 241.264L271.029 241.753L272.901 245.091V241.264H271.901ZM271.901 226.672V225.672H270.901V226.672H271.901ZM270.317 255.616L269.542 254.985L269.537 254.99L269.533 254.996L270.317 255.616ZM270.365 243.904L269.581 244.524L270.365 243.904ZM261.053 243.904L260.278 243.273L260.276 243.275L261.053 243.904ZM261.053 255.568L260.262 256.18L260.271 256.191L261.053 255.568ZM276.901 226.672V262H278.901V226.672H276.901ZM277.901 261H271.997V263H277.901V261ZM272.997 262V258.112H270.997V262H272.997ZM271.12 257.632C270.477 258.806 269.558 259.728 268.342 260.407L269.316 262.153C270.852 261.296 272.045 260.106 272.874 258.592L271.12 257.632ZM268.357 260.398C267.144 261.047 265.742 261.384 264.125 261.384V263.384C266.028 263.384 267.762 262.985 269.301 262.162L268.357 260.398ZM264.125 261.384C262.224 261.384 260.559 260.904 259.1 259.96L258.014 261.64C259.819 262.808 261.866 263.384 264.125 263.384V261.384ZM259.1 259.96C257.637 259.013 256.474 257.672 255.617 255.901L253.817 256.771C254.817 258.84 256.213 260.475 258.014 261.64L259.1 259.96ZM255.626 255.919C254.799 254.117 254.373 252.039 254.373 249.664H252.373C252.373 252.281 252.843 254.651 253.808 256.753L255.626 255.919ZM254.373 249.664C254.373 247.288 254.799 245.247 255.621 243.517L253.814 242.659C252.843 244.705 252.373 247.048 252.373 249.664H254.373ZM255.621 243.517C256.442 241.786 257.584 240.481 259.041 239.567L257.978 237.873C256.171 239.007 254.784 240.614 253.814 242.659L255.621 243.517ZM259.052 239.56C260.509 238.617 262.189 238.136 264.125 238.136V236.136C261.838 236.136 259.774 236.711 257.966 237.88L259.052 239.56ZM264.125 238.136C265.707 238.136 267.074 238.472 268.253 239.117L269.213 237.363C267.704 236.536 265.999 236.136 264.125 236.136V238.136ZM268.278 239.13C269.483 239.747 270.392 240.618 271.029 241.753L272.773 240.775C271.938 239.286 270.735 238.141 269.189 237.35L268.278 239.13ZM272.901 241.264V226.672H270.901V241.264H272.901ZM271.901 227.672H277.901V225.672H271.901V227.672ZM265.709 258.68C267.953 258.68 269.797 257.886 271.102 256.236L269.533 254.996C268.661 256.098 267.433 256.68 265.709 256.68V258.68ZM271.093 256.247C272.409 254.631 272.997 252.422 272.997 249.76H270.997C270.997 252.154 270.466 253.849 269.542 254.985L271.093 256.247ZM272.997 249.76C272.997 247.103 272.427 244.899 271.15 243.284L269.581 244.524C270.479 245.66 270.997 247.361 270.997 249.76H272.997ZM271.15 243.284C269.845 241.634 268.001 240.84 265.757 240.84V242.84C267.481 242.84 268.709 243.422 269.581 244.524L271.15 243.284ZM265.757 240.84C263.486 240.84 261.615 241.63 260.278 243.273L261.829 244.535C262.731 243.426 263.996 242.84 265.757 242.84V240.84ZM260.276 243.275C258.992 244.861 258.421 247.038 258.421 249.664H260.421C260.421 247.298 260.938 245.635 261.83 244.533L260.276 243.275ZM258.421 249.664C258.421 252.323 258.992 254.536 260.262 256.179L261.844 254.957C260.938 253.784 260.421 252.061 260.421 249.664H258.421ZM260.271 256.191C261.601 257.864 263.456 258.68 265.709 258.68V256.68C263.994 256.68 262.745 256.088 261.836 254.945L260.271 256.191ZM305.652 250.192V251.192H306.652V250.192H305.652ZM288.948 250.192V249.192H287.897L287.949 250.241L288.948 250.192ZM290.868 255.952L290.133 256.63L290.142 256.64L290.151 256.65L290.868 255.952ZM303.492 255.184L304.414 254.798L303.915 253.606L302.887 254.388L303.492 255.184ZM305.22 259.312L305.847 260.091L306.433 259.619L306.142 258.926L305.22 259.312ZM300.948 261.568L301.259 262.519L301.269 262.515L300.948 261.568ZM286.5 259.024L287.202 258.312L286.5 259.024ZM284.58 243.232L283.691 242.773L284.58 243.232ZM288.756 238.768L289.264 239.63L289.275 239.623L288.756 238.768ZM302.724 240.4L301.974 241.062L301.979 241.067L301.984 241.073L302.724 240.4ZM291.06 242.896L291.743 243.626L291.744 243.626L291.06 242.896ZM289.14 246.976L288.153 246.817L287.966 247.976H289.14V246.976ZM300.42 246.976V247.976H301.531L301.414 246.871L300.42 246.976ZM298.74 242.848L298.02 243.543L298.027 243.549L298.033 243.555L298.74 242.848ZM305.652 249.192H288.948V251.192H305.652V249.192ZM287.949 250.241C288.083 252.949 288.757 255.14 290.133 256.63L291.603 255.274C290.675 254.268 290.069 252.619 289.947 250.143L287.949 250.241ZM290.151 256.65C291.583 258.12 293.625 258.776 296.1 258.776V256.776C293.966 256.776 292.521 256.216 291.584 255.254L290.151 256.65ZM296.1 258.776C298.991 258.776 301.665 257.83 304.097 255.98L302.887 254.388C300.775 255.994 298.52 256.776 296.1 256.776V258.776ZM302.569 255.57L304.297 259.698L306.142 258.926L304.414 254.798L302.569 255.57ZM304.593 258.533C303.549 259.374 302.234 260.075 300.626 260.621L301.269 262.515C303.054 261.909 304.587 261.106 305.847 260.091L304.593 258.533ZM300.637 260.618C299.072 261.129 297.481 261.384 295.86 261.384V263.384C297.695 263.384 299.496 263.095 301.259 262.518L300.637 260.618ZM295.86 261.384C292.087 261.384 289.244 260.325 287.202 258.312L285.798 259.736C288.3 262.203 291.697 263.384 295.86 263.384V261.384ZM287.202 258.312C285.162 256.3 284.092 253.508 284.092 249.808H282.092C282.092 253.916 283.294 257.268 285.798 259.736L287.202 258.312ZM284.092 249.808C284.092 247.481 284.559 245.45 285.468 243.691L283.691 242.773C282.616 244.854 282.092 247.207 282.092 249.808H284.092ZM285.468 243.691C286.377 241.932 287.64 240.586 289.264 239.63L288.248 237.906C286.287 239.062 284.766 240.692 283.691 242.773L285.468 243.691ZM289.275 239.623C290.897 238.638 292.747 238.136 294.852 238.136V236.136C292.413 236.136 290.198 236.722 288.237 237.913L289.275 239.623ZM294.852 238.136C297.94 238.136 300.273 239.133 301.974 241.062L303.474 239.738C301.335 237.315 298.42 236.136 294.852 236.136V238.136ZM301.984 241.073C303.723 242.983 304.652 245.676 304.652 249.28H306.652C306.652 245.332 305.629 242.105 303.463 239.727L301.984 241.073ZM304.652 249.28V250.192H306.652V249.28H304.652ZM294.996 240.456C293.18 240.456 291.611 241.008 290.376 242.166L291.744 243.626C292.556 242.864 293.612 242.456 294.996 242.456V240.456ZM290.377 242.166C289.176 243.289 288.464 244.88 288.153 246.817L290.127 247.135C290.392 245.488 290.96 244.359 291.743 243.626L290.377 242.166ZM289.14 247.976H300.42V245.976H289.14V247.976ZM301.414 246.871C301.208 244.909 300.591 243.285 299.447 242.141L298.033 243.555C298.745 244.267 299.248 245.395 299.425 247.081L301.414 246.871ZM299.459 242.153C298.332 240.985 296.798 240.456 294.996 240.456V242.456C296.394 242.456 297.356 242.855 298.02 243.543L299.459 242.153Z" fill="#58C4CB"/>
<path d="M186.995 41.6185H1V146.555H186.995V41.6185Z" fill="#F5F5F5"/>
<path d="M200.726 137.185H13.4829V31H200.726V137.185ZM14.7312 135.936H199.477V32.2492H14.7312V135.936Z" fill="#3F3D56"/>
<path opacity="0.32" d="M419.995 10.6185H234V115.555H419.995V10.6185Z" fill="#58C4CB"/>
<path d="M433.726 106.185H246.483V0H433.726V106.185ZM247.731 104.936H432.477V1.24924H247.731V104.936Z" fill="#3F3D56"/>
<path d="M419.012 228.196C419.071 226.982 419.402 225.796 419.982 224.721C420.562 223.646 421.376 222.708 422.368 221.973C423.36 221.238 424.505 220.724 425.722 220.467C426.94 220.21 428.2 220.217 429.414 220.487L440.681 205L452 209.383L435.774 231.035C435.174 232.995 433.858 234.672 432.075 235.749C430.292 236.825 428.167 237.227 426.1 236.877C424.034 236.527 422.172 235.45 420.865 233.85C419.559 232.25 418.9 230.238 419.012 228.196L419.012 228.196Z" fill="#A0616A"/>
<path d="M431 214.723L450.715 181.576L442.683 160.164L453.623 131L454.026 131.173C454.291 131.286 460.507 134.059 461.428 143.989L474 183.487L440.447 227L431 214.723Z" fill="#CFCCE0"/>
<path d="M324.466 93.0727C325.674 93.2256 326.834 93.6441 327.864 94.2986C328.894 94.9531 329.77 95.8278 330.429 96.861C331.088 97.8942 331.515 99.0609 331.68 100.279C331.844 101.497 331.742 102.736 331.381 103.91L346 116.206L340.767 127L320.364 109.342C318.451 108.599 316.875 107.173 315.934 105.334C314.994 103.496 314.753 101.373 315.259 99.3673C315.765 97.3619 316.981 95.6135 318.678 94.4533C320.375 93.2932 322.434 92.8019 324.466 93.0727Z" fill="#B48481"/>
<path d="M337.012 106L368.638 128.079L390.678 121.767L419 134.846L418.796 135.233C418.662 135.486 415.406 141.431 405.402 141.581L364.921 151L324 114.416L337.012 106Z" fill="#CFCCE0"/>
<path d="M394.998 375H383.48L378 333L395 333.001L394.998 375Z" fill="#B48481"/>
<path d="M372.95 372H397V385H363V381.846C363 379.235 364.048 376.73 365.914 374.884C367.78 373.037 370.311 372 372.95 372Z" fill="#242332"/>
<path d="M437.999 375H427.157L422 333L438 333.001L437.999 375Z" fill="#B48481"/>
<path d="M416.242 372H441V385H406V381.846C406 379.235 407.079 376.73 409 374.884C410.921 373.037 413.526 372 416.242 372Z" fill="#242332"/>
<path d="M442 222L441.108 284.222L440.217 366L420.594 364.222L410.784 251.333L398.297 364.222H378.04L376 250.445L383.135 225.555L442 222Z" fill="#2F2E41"/>
<path d="M380.98 225.561L378 225.431L391.841 148.874L386.174 125.735C385.879 124.531 386.035 123.26 386.611 122.164C387.187 121.068 388.144 120.221 389.3 119.786L399.497 115.947L403.099 106L431.522 109.075L432.221 116.849C435.3 117.841 460.664 126.321 458.914 135.985C457.186 145.523 446.988 175.531 446.47 177.052L444.684 220.087L444.464 220.197C444.2 220.33 424.609 230.002 403.326 230C395.831 230 388.123 228.8 380.98 225.561Z" fill="#CFCCE0"/>
<path d="M434.588 90.6405C440.012 80.7097 436.365 68.2583 426.442 62.8296C416.519 57.4008 404.077 61.0506 398.652 70.9815C393.228 80.9123 396.874 93.3637 406.798 98.7924C416.721 104.221 429.163 100.571 434.588 90.6405Z" fill="#B48481"/>
<path d="M432.985 100.851C429.074 105.019 421.81 102.781 421.301 97.0872C421.261 96.6451 421.264 96.2002 421.309 95.7587C421.572 93.2364 423.029 90.9465 422.68 88.2833C422.601 87.6205 422.354 86.9888 421.963 86.4482C418.846 82.2728 411.53 88.3157 408.589 84.5359C406.785 82.2181 408.905 78.569 407.521 75.9785C405.694 72.5596 400.284 74.2462 396.89 72.3738C393.115 70.2905 393.341 64.4956 395.826 60.9708C398.857 56.6722 404.171 54.3785 409.418 54.048C414.666 53.7174 419.877 55.1366 424.776 57.0467C430.343 59.2169 435.863 62.2162 439.288 67.113C443.454 73.0679 443.855 81.0738 441.771 88.037C440.504 92.2727 436.179 97.4472 432.985 100.851Z" fill="#2F2E41"/>
<path d="M409.5 107L410.5 100L420 98L423.5 108.5L409.5 107Z" fill="#B48481"/>
</svg>
