<svg width="378" height="504" viewBox="0 0 378 504" fill="none" xmlns="http://www.w3.org/2000/svg">
<rect x="154.511" y="293.387" width="18.3942" height="18.3942" rx="2" fill="#58C4CB"/>
<path d="M169.501 299.387L168.091 297.967L161.501 304.557L158.921 301.987L157.501 303.397L161.501 307.387L169.501 299.387Z" fill="white"/>
<path d="M250.593 277.752C250.495 277.752 250.434 277.749 250.413 277.748L238.747 277.749V276.027H250.455C250.726 276.037 256.256 276.193 261.352 270.003C268.946 260.777 275.182 237.937 261.766 181.524C243.727 105.669 258.773 38.6545 266.078 13.3634C266.438 12.1122 266.503 10.7943 266.267 9.5138C266.03 8.23335 265.5 7.02545 264.717 5.98553C263.934 4.94562 262.921 4.10218 261.757 3.52187C260.592 2.94156 259.309 2.64028 258.009 2.64183H83.7861C82.4616 2.64361 81.1561 2.95804 79.9756 3.55962C78.7952 4.16119 77.773 5.03296 76.9921 6.10415C73.8972 10.3666 69.6499 18.555 66.9921 33.3611L65.2993 33.0568C68.0146 17.929 72.4001 9.49961 75.6008 5.09173C76.5415 3.801 77.7729 2.75054 79.1951 2.02565C80.6173 1.30076 82.1902 0.921853 83.7861 0.919713H258.009C259.576 0.918203 261.122 1.2816 262.525 1.9812C263.928 2.6808 265.149 3.69743 266.092 4.95077C267.035 6.20411 267.674 7.65983 267.958 9.2029C268.243 10.746 268.165 12.3341 267.731 13.8419C260.463 39.0018 245.495 105.668 263.44 181.125C277.044 238.332 270.504 261.666 262.622 271.168C257.423 277.434 251.695 277.752 250.593 277.752Z" fill="#E6E6E6"/>
<path d="M219.323 309.022C219.225 309.022 219.164 309.019 219.143 309.018L207.477 309.019V307.297H219.185C219.457 307.306 224.986 307.463 230.082 301.273C237.676 292.047 243.912 269.207 230.496 212.794C212.457 136.939 227.502 69.9245 234.808 44.6335C235.168 43.3823 235.233 42.0643 234.997 40.7839C234.76 39.5034 234.23 38.2955 233.447 37.2556C232.664 36.2157 231.651 35.3723 230.487 34.792C229.322 34.2116 228.039 33.9104 226.739 33.9119H52.5162C51.1916 33.9137 49.8862 34.2281 48.7057 34.8297C47.5253 35.4313 46.5031 36.303 45.7222 37.3742C42.6273 41.6366 38.38 49.8251 35.7223 64.6312L34.0293 64.3268C36.7447 49.1991 41.1302 40.7697 44.331 36.3618C45.2716 35.0711 46.503 34.0206 47.9252 33.2957C49.3474 32.5708 50.9203 32.1919 52.5162 32.1898H226.739C228.306 32.1883 229.852 32.5517 231.255 33.2513C232.658 33.9509 233.879 34.9675 234.822 36.2209C235.765 37.4742 236.404 38.9299 236.688 40.473C236.973 42.0161 236.895 43.6042 236.461 45.112C229.193 70.2718 214.225 136.938 232.17 212.396C245.774 269.602 239.234 292.936 231.352 302.438C226.153 308.704 220.425 309.022 219.323 309.022Z" fill="#CCCCCC"/>
<path d="M188.022 340.292C187.924 340.292 187.863 340.289 187.841 340.288L16.0478 340.289C14.3938 340.291 12.7645 339.888 11.3026 339.115C9.84063 338.342 8.59053 337.222 7.6617 335.854C6.73287 334.485 6.15362 332.911 5.97462 331.267C5.79562 329.623 6.02234 327.961 6.63494 326.425C12.8682 310.856 21.2609 273.505 7.43727 198.265C-8.88599 109.421 5.72767 77.3129 12.7683 67.6319C13.7104 66.3411 14.9437 65.2907 16.368 64.5658C17.7924 63.8409 19.3677 63.462 20.966 63.4599H195.449C197.018 63.4583 198.567 63.8217 199.972 64.5213C201.377 65.2209 202.6 66.2376 203.544 67.4909C204.488 68.7443 205.128 70.2 205.413 71.743C205.698 73.2861 205.62 74.8743 205.185 76.382C197.906 101.542 182.916 168.208 200.888 243.666C214.512 300.872 207.963 324.206 200.069 333.708C194.862 339.975 189.126 340.292 188.022 340.292ZM20.966 65.182C19.6394 65.1837 18.3319 65.4982 17.1497 66.0998C15.9674 66.7013 14.9437 67.5731 14.1616 68.6443C7.2516 78.1458 -7.07125 109.766 9.1315 197.954C22.3372 269.83 15.9325 307.837 8.23412 327.065C7.71528 328.333 7.52054 329.711 7.66746 331.074C7.81438 332.436 8.29834 333.741 9.07567 334.87C9.84645 336.009 10.8852 336.942 12.1008 337.587C13.3164 338.232 14.6717 338.568 16.0477 338.567H187.883C188.155 338.58 193.694 338.734 198.797 332.543C206.402 323.317 212.648 300.477 199.212 244.064C181.145 168.209 196.214 101.195 203.53 75.9036C203.891 74.6523 203.955 73.3344 203.719 72.0539C203.482 70.7735 202.951 69.5656 202.167 68.5257C201.383 67.4858 200.368 66.6423 199.202 66.062C198.036 65.4817 196.751 65.1804 195.449 65.182H20.966Z" fill="#3F3D56"/>
<path d="M165.132 141.635H28.9261C27.1086 141.635 25.3654 140.908 24.0802 139.615C22.795 138.321 22.073 136.567 22.073 134.737C22.073 132.908 22.795 131.153 24.0802 129.86C25.3654 128.566 27.1086 127.839 28.9261 127.839H165.132C166.95 127.839 168.693 128.566 169.978 129.86C171.263 131.153 171.985 132.908 171.985 134.737C171.985 136.567 171.263 138.321 169.978 139.615C168.693 140.908 166.95 141.635 165.132 141.635Z" fill="#CFCCE0"/>
<path d="M165.132 170.146H28.9261C27.1086 170.146 25.3654 169.419 24.0802 168.126C22.795 166.832 22.073 165.078 22.073 163.248C22.073 161.419 22.795 159.664 24.0802 158.371C25.3654 157.077 27.1086 156.35 28.9261 156.35H165.132C166.95 156.35 168.693 157.077 169.978 158.371C171.263 159.664 171.985 161.419 171.985 163.248C171.985 165.078 171.263 166.832 169.978 168.126C168.693 169.419 166.95 170.146 165.132 170.146Z" fill="#CCCCCC"/>
<path d="M165.132 199.577H28.9261C27.1086 199.577 25.3654 198.85 24.0802 197.556C22.795 196.263 22.073 194.508 22.073 192.679C22.073 190.849 22.795 189.095 24.0802 187.801C25.3654 186.508 27.1086 185.781 28.9261 185.781H165.132C166.95 185.781 168.693 186.508 169.978 187.801C171.263 189.095 171.985 190.849 171.985 192.679C171.985 194.508 171.263 196.263 169.978 197.556C168.693 198.85 166.95 199.577 165.132 199.577Z" fill="#CCCCCC"/>
<path d="M176.127 229.007H39.0849C37.2562 229.007 35.5023 228.281 34.2092 226.987C32.9161 225.693 32.1897 223.939 32.1897 222.109C32.1897 220.28 32.9161 218.526 34.2092 217.232C35.5023 215.938 37.2562 215.212 39.0849 215.212H176.127C177.955 215.212 179.709 215.938 181.002 217.232C182.295 218.526 183.022 220.28 183.022 222.109C183.022 223.939 182.295 225.693 181.002 226.987C179.709 228.281 177.955 229.007 176.127 229.007Z" fill="#CCCCCC"/>
<path d="M176.127 258.438H39.0849C37.2562 258.438 35.5023 257.711 34.2092 256.418C32.9161 255.124 32.1897 253.37 32.1897 251.54C32.1897 249.711 32.9161 247.956 34.2092 246.663C35.5023 245.369 37.2562 244.642 39.0849 244.642H176.127C177.955 244.642 179.709 245.369 181.002 246.663C182.295 247.956 183.022 249.711 183.022 251.54C183.022 253.37 182.295 255.124 181.002 256.418C179.709 257.711 177.955 258.438 176.127 258.438Z" fill="#CCCCCC"/>
<path d="M144.883 304.423H99.7594C99.1572 304.423 98.5798 304.181 98.154 303.75C97.7282 303.319 97.489 302.734 97.489 302.124C97.489 301.514 97.7282 300.929 98.154 300.498C98.5798 300.067 99.1572 299.825 99.7594 299.825H144.883C145.485 299.825 146.062 300.067 146.488 300.498C146.914 300.929 147.153 301.514 147.153 302.124C147.153 302.734 146.914 303.319 146.488 303.75C146.062 304.181 145.485 304.423 144.883 304.423Z" fill="#CCCCCC"/>
<path d="M93.3756 112.204H28.9455C27.1228 112.204 25.3748 111.478 24.0859 110.184C22.7971 108.89 22.073 107.136 22.073 105.307C22.073 103.477 22.7971 101.723 24.0859 100.429C25.3748 99.1355 27.1228 98.4088 28.9455 98.4088H93.3756C95.1983 98.4088 96.9464 99.1355 98.2353 100.429C99.5241 101.723 100.248 103.477 100.248 105.307C100.248 107.136 99.5241 108.89 98.2353 110.184C96.9464 111.478 95.1983 112.204 93.3756 112.204Z" fill="#CFCCE0"/>
<path d="M173.671 306.514C173.348 306.244 173.112 305.884 172.993 305.48C172.873 305.076 172.876 304.646 173 304.243C173.124 303.84 173.364 303.483 173.69 303.217C174.015 302.951 174.412 302.787 174.83 302.747C179.472 302.297 184.157 302.779 188.611 304.165L233.985 318.229C234.572 318.411 235.118 318.708 235.591 319.102C236.065 319.495 236.456 319.979 236.743 320.524C237.03 321.07 237.207 321.667 237.264 322.281C237.321 322.895 237.258 323.515 237.076 324.104C236.895 324.694 236.6 325.242 236.207 325.717C235.815 326.192 235.333 326.584 234.79 326.872C234.246 327.16 233.651 327.338 233.039 327.396C232.427 327.453 231.81 327.389 231.223 327.207L185.849 313.142C181.392 311.766 177.252 309.512 173.671 306.514Z" fill="#3F3D56"/>
<path d="M361.462 365.296C360.224 364.773 359.115 363.983 358.213 362.981C357.311 361.98 356.638 360.791 356.241 359.499C355.844 358.207 355.733 356.843 355.917 355.503C356.1 354.163 356.572 352.88 357.301 351.744L349.489 310.586L369.399 309.022L370.601 349.28C372.414 350.64 373.669 352.622 374.129 354.852C374.588 357.082 374.219 359.404 373.093 361.378C371.966 363.352 370.16 364.841 368.017 365.564C365.873 366.286 363.541 366.191 361.462 365.296Z" fill="#B48481"/>
<path d="M348.29 343.683L327.754 248.993C326.91 245.104 327.662 241.043 329.843 237.702C332.025 234.362 335.457 232.016 339.385 231.181C343.314 230.346 347.416 231.09 350.79 233.25C354.164 235.409 356.534 238.808 357.377 242.697L377.914 337.385C378.13 338.385 377.936 339.429 377.375 340.288C376.815 341.146 375.933 341.75 374.923 341.966L352.917 346.644C352.417 346.75 351.9 346.758 351.397 346.667C350.894 346.576 350.413 346.387 349.984 346.112C349.554 345.837 349.183 345.481 348.893 345.064C348.602 344.647 348.397 344.178 348.29 343.683Z" fill="#CFCCE0"/>
<path d="M314.537 493.883H303.945L298.905 452.496L314.54 452.497L314.537 493.883Z" fill="#B48481"/>
<path d="M296.982 490.204H317.299V503.08H284.19C284.19 501.389 284.521 499.715 285.163 498.153C285.806 496.591 286.749 495.171 287.936 493.976C289.124 492.78 290.535 491.832 292.087 491.184C293.639 490.537 295.302 490.204 296.982 490.204Z" fill="#2F2E41"/>
<path d="M350.406 492.964H339.814L334.774 451.577L350.409 451.578L350.406 492.964Z" fill="#B48481"/>
<path d="M331.931 489.285H352.248V502.161H319.139C319.139 500.47 319.47 498.795 320.112 497.233C320.755 495.671 321.698 494.252 322.885 493.056C324.073 491.86 325.484 490.912 327.036 490.265C328.588 489.618 330.251 489.285 331.931 489.285Z" fill="#2F2E41"/>
<path d="M302.405 485.642C302.011 485.318 301.686 484.919 301.448 484.469C301.21 484.018 301.065 483.524 301.02 483.017L288.804 348.635C288.757 348.114 288.816 347.588 288.979 347.09C289.141 346.592 289.403 346.132 289.749 345.739C290.095 345.346 290.517 345.027 290.99 344.802C291.463 344.578 291.977 344.451 292.501 344.432L353.765 342.134C354.295 342.114 354.824 342.204 355.318 342.398C355.811 342.592 356.26 342.885 356.635 343.26C357.011 343.635 357.305 344.084 357.499 344.578C357.693 345.071 357.783 345.6 357.764 346.13L352.867 479.995C352.831 480.932 352.455 481.824 351.81 482.505C351.165 483.185 350.295 483.608 349.361 483.695L337.008 484.818C336.496 484.865 335.98 484.808 335.49 484.652C335 484.496 334.546 484.244 334.154 483.91C333.763 483.576 333.443 483.167 333.212 482.707C332.982 482.247 332.845 481.746 332.811 481.233L327.142 396.191C327.138 396.027 327.101 395.866 327.035 395.717C326.968 395.568 326.872 395.434 326.752 395.322C326.633 395.21 326.493 395.124 326.339 395.067C326.186 395.01 326.023 394.984 325.86 394.991H325.855C325.691 394.985 325.527 395.011 325.374 395.069C325.22 395.126 325.08 395.214 324.961 395.327C324.842 395.439 324.746 395.575 324.68 395.725C324.614 395.875 324.578 396.037 324.575 396.201L319.502 481.816C319.451 482.733 319.074 483.601 318.438 484.263C317.802 484.926 316.95 485.338 316.036 485.426L305.245 486.505C304.738 486.558 304.225 486.508 303.738 486.36C303.25 486.211 302.797 485.967 302.405 485.642H302.405Z" fill="#2F2E41"/>
<path d="M325.577 210.613C337.259 210.613 346.73 201.143 346.73 189.46C346.73 177.777 337.259 168.307 325.577 168.307C313.894 168.307 304.423 177.777 304.423 189.46C304.423 201.143 313.894 210.613 325.577 210.613Z" fill="#B48481"/>
<path d="M285.186 349.089C284.811 348.661 284.535 348.154 284.379 347.606C284.223 347.058 284.19 346.482 284.283 345.919C288.172 322.175 285.98 287.274 283.456 262.176C282.797 255.518 283.897 248.803 286.644 242.708C289.39 236.613 293.688 231.352 299.103 227.456L310.106 217.984C310.838 217.362 311.771 217.03 312.729 217.052L340.064 217.836C341.05 217.863 341.987 218.27 342.683 218.971L346.907 228.365L346.951 228.397C351.984 232.113 356.022 237.023 358.704 242.69C361.386 248.356 362.628 254.601 362.319 260.867L358.295 344.378C358.244 345.349 357.833 346.266 357.143 346.948C356.453 347.63 355.534 348.029 354.566 348.066L288.217 350.407C288.174 350.408 288.131 350.409 288.089 350.409C287.539 350.41 286.996 350.292 286.495 350.064C285.994 349.837 285.548 349.504 285.186 349.089Z" fill="#CFCCE0"/>
<path d="M205.098 314.454C205.065 313.08 205.327 311.715 205.865 310.456C206.404 309.197 207.205 308.073 208.214 307.165C209.223 306.257 210.414 305.586 211.703 305.2C212.993 304.814 214.349 304.721 215.678 304.929L249.784 280.511L259.358 298.461L223.359 316.33C222.869 318.589 221.586 320.587 219.753 321.943C217.92 323.3 215.665 323.921 213.414 323.69C211.163 323.459 209.073 322.391 207.54 320.689C206.008 318.987 205.139 316.768 205.098 314.454L205.098 314.454Z" fill="#B48481"/>
<path d="M233.717 318.174C233.21 318.098 232.723 317.923 232.284 317.659C231.845 317.395 231.463 317.048 231.161 316.637L217.806 298.591C217.195 297.762 216.939 296.726 217.096 295.711C217.253 294.695 217.81 293.783 218.644 293.174L297.718 235.607C300.966 233.242 305.028 232.254 309.01 232.86C310.982 233.16 312.875 233.843 314.581 234.868C316.287 235.894 317.773 237.243 318.953 238.838C320.133 240.433 320.986 242.243 321.461 244.165C321.936 246.087 322.025 248.082 321.722 250.038C321.42 251.994 320.732 253.871 319.698 255.564C318.664 257.256 317.304 258.729 315.695 259.9L236.621 317.467C235.954 317.955 235.147 318.219 234.318 318.219C234.117 318.219 233.916 318.204 233.717 318.174Z" fill="#CFCCE0"/>
<path d="M326.777 208.52C329.576 205.081 329.269 199.843 327.023 196.019C324.777 192.195 320.964 189.561 317.041 187.504C313.118 185.447 308.951 183.829 305.259 181.38C301.567 178.93 301.728 168.561 300.745 164.234L303.089 165.017C302.188 163.862 301.899 160.448 300.998 159.292C303.647 159.554 305.685 162.075 308.334 162.338L306.805 158.225C315.89 157.664 321.538 163.991 330.624 163.429C335.125 163.151 340.013 162.975 343.714 165.559C346.929 167.804 348.557 171.69 349.625 175.469C351.918 183.583 352.275 192.672 348.314 200.112C344.353 207.552 335.223 212.566 327.247 209.879L326.777 208.52Z" fill="#2F2E41"/>
</svg>
