<svg width="1400" height="758" viewBox="0 0 1400 758" fill="none" xmlns="http://www.w3.org/2000/svg">
<g clip-path="url(#clip0)">
<path opacity="0.1" d="M841.318 534.372C868.307 532.83 901.792 514.486 927.828 506.373C958.643 496.795 989.581 487.58 1020.64 478.728C1128.77 447.897 1238.05 421.627 1348.5 399.918C1358.8 397.886 1369.13 395.904 1379.47 393.97C1363.36 359.095 1338.41 329.064 1307.1 306.875C1307.9 299.24 1308.31 291.569 1308.32 283.893C1308.32 162.569 1211.56 64.2151 1092.17 64.2151C1055.41 64.176 1019.26 73.6836 987.264 91.8109C902.757 36.1053 792.458 2.39062 671.778 2.39062C500.297 2.39062 349.759 70.4685 264.457 172.983L665.355 240.853L911.232 282.461C630.929 290.844 349.759 299.177 70.2613 279.499C33.3662 315.273 10.0143 362.777 4.19622 413.892C-1.62183 465.007 10.4552 516.56 38.3634 559.741V559.741C38.3634 564.134 38.5466 568.491 38.8763 572.811C45.9959 574.854 52.8713 576.837 59.0384 578.134C158.046 599.093 257.688 616.634 357.965 630.756C284.07 676.414 194.079 682.876 108.839 702.211C150.116 736.354 206.169 757.281 267.938 757.281H1187.65C1287.24 757.281 1367.96 687.808 1367.96 602.095C1382.91 577.4 1392.87 550.004 1397.27 521.462C1212.99 539.292 1026.42 523.811 841.318 534.372Z" fill="#58C4CB"/>
<path opacity="0.1" d="M1398.53 484.956C1398.63 449.631 1390.25 414.8 1374.1 383.402C1357.94 352.004 1334.49 324.959 1305.72 304.549C1306.51 296.918 1306.92 289.251 1306.94 281.579C1306.94 160.255 1210.13 61.9379 1090.79 61.9379C1054.02 61.8985 1017.88 71.4016 985.873 89.5215C901.365 33.7913 791.054 0.0644531 670.374 0.0644531C474.078 0.0644531 305.112 89.3379 230.179 217.356C226.014 217.111 221.825 216.976 217.6 216.976C98.2395 216.976 1.44671 315.33 1.44671 436.654C1.36305 479.508 13.7186 521.461 37.0082 557.403C37.0082 666.562 139.822 755.052 266.595 755.052H1186.33C1285.91 755.052 1366.63 685.567 1366.63 599.855C1387.58 565.21 1398.61 525.462 1398.53 484.956Z" fill="#58C4CB" fill-opacity="0.5"/>
<path d="M1142.42 350.366C1140.67 349.022 1138.63 348.124 1136.46 347.747C1134.18 347.221 1131.84 346.89 1129.52 346.523L1099.46 342.179C1096.42 341.614 1093.33 341.45 1090.25 341.689C1088.7 341.816 1087.2 342.249 1085.83 342.964C1084.45 343.678 1083.23 344.659 1082.24 345.85C1081.34 346.958 1080.85 348.34 1080.85 349.766C1081.01 351.201 1081.48 352.585 1082.21 353.829C1082.5 354.41 1082.75 355.011 1082.96 355.628C1083.25 357.012 1083.6 358.38 1084.03 359.727C1084.17 360.019 1084.34 360.291 1084.55 360.535C1084.55 360.604 1084.55 360.674 1084.55 360.743C1084.22 362.432 1085.28 364.194 1084.8 365.822C1084.39 367.217 1083.03 368.061 1082.18 369.224C1081.61 370.049 1081.29 371.023 1081.27 372.026C1081.25 373.029 1081.52 374.017 1082.05 374.865C1082.97 376.285 1084.63 377.252 1085.11 378.879C1085.73 381.021 1084.05 383.089 1082.54 384.741C1079.78 387.782 1077.23 391.008 1074.9 394.397C1074.24 395.23 1073.82 396.222 1073.68 397.272C1073.54 399.402 1075.58 401.274 1075.23 403.391C1074.95 405.056 1073.32 406.071 1071.92 407.063C1066.73 410.489 1062.56 415.996 1062.15 422.225C1060.82 412.314 1056.72 402.982 1050.33 395.302C1048.58 393.197 1046.66 391.08 1045.94 388.412C1045.67 387.348 1045.63 386.21 1045.26 385.182C1044.04 381.939 1040.15 380.544 1038.46 377.558C1037.24 375.453 1037.24 372.748 1035.72 370.9C1034.21 369.052 1031.83 368.636 1030.52 366.85C1029.87 365.639 1029.31 364.379 1028.86 363.081C1028.31 362.022 1027.54 361.095 1026.6 360.364C1026.42 360.219 1026.23 360.085 1026.04 359.96C1026.24 359.778 1026.4 359.556 1026.51 359.307C1026.63 359.058 1026.68 358.789 1026.69 358.516C1026.69 357.084 1025.27 356.142 1024.04 355.432C1022.45 354.526 1020.9 353.547 1019.38 352.532C1021.03 351.761 1022.47 350.587 1023.55 349.117C1024.9 346.925 1025.46 344.332 1025.13 341.775C1025.05 339.711 1024.28 337.733 1022.95 336.158C1022.18 335.338 1021.21 334.75 1020.41 333.979C1018.32 331.936 1017.61 328.913 1016.74 326.123C1015.6 322.452 1013.8 318.597 1010.46 316.651C1008.84 315.709 1006.96 315.268 1005.39 314.277C1003.81 313.286 1002.49 311.413 1003.04 309.614C1003.41 308.391 1004.54 307.546 1005.31 306.506C1006.23 305.161 1006.58 303.507 1006.29 301.904C1006 300.3 1005.09 298.876 1003.76 297.94C1002.86 297.364 1001.75 296.863 1001.56 295.81C1000.86 295.626 1000.22 295.246 999.716 294.714C999.215 294.181 998.874 293.518 998.732 292.8C998.457 291.361 998.457 289.882 998.732 288.443C999.049 286.167 999.363 283.899 999.672 281.639C1000.21 281.863 1000.79 281.979 1001.37 281.979C1001.95 281.979 1002.53 281.863 1003.07 281.639C1004.12 283.358 1005.35 284.965 1006.73 286.436C1010.45 290.837 1013.35 295.874 1015.28 301.305C1015.98 303.263 1016.68 305.454 1018.49 306.494C1019.11 306.849 1019.82 307.032 1020.43 307.412C1021.19 307.938 1021.83 308.602 1022.34 309.37C1023.8 311.315 1025.27 313.249 1026.72 315.195L1026.79 315.488C1026.83 315.661 1026.9 315.826 1026.99 315.978C1027.26 316.283 1027.64 316.475 1028.04 316.516C1032.53 317.557 1037.58 318.511 1041.47 316.051C1044.99 313.849 1046.53 309.492 1049.51 306.579C1051.62 304.511 1054.61 302.908 1055.21 299.996C1054.5 299.775 1053.8 299.518 1053.11 299.225C1053.72 298.613 1054.33 297.903 1055.16 297.095C1056.37 295.911 1057.46 294.612 1058.41 293.216C1059.44 291.493 1060.26 289.653 1060.85 287.733C1063.21 281.011 1065.57 274.284 1067.94 267.554C1069.06 264.372 1070.18 261.166 1071.6 258.069C1073.07 254.716 1074.8 251.498 1076.4 248.206C1080.53 239.645 1083.71 230.658 1085.9 221.406C1086.29 220.143 1086.42 218.815 1086.28 217.502C1085.94 215.385 1084.34 213.72 1082.81 212.215C1081.28 210.55 1079.53 209.097 1077.61 207.895C1076.65 207.295 1075.57 206.893 1074.45 206.712C1073.33 206.532 1072.19 206.576 1071.09 206.843C1067.96 207.761 1066 210.967 1065.28 214.185C1064.55 217.404 1064.82 220.72 1064.52 223.975C1064.08 228.687 1062.47 233.239 1062.08 237.963C1061.87 240.692 1062.08 243.458 1061.75 246.187C1061.14 249.758 1059.9 253.191 1058.08 256.319C1054.12 263.78 1048.76 270.404 1042.29 275.826C1041.55 276.45 1040.78 277.05 1040.05 277.723C1040.05 277.197 1040.13 276.658 1040.2 276.132C1039.67 276.271 1039.15 276.455 1038.65 276.683C1038.71 276.065 1038.65 275.441 1038.47 274.847C1037.49 271.922 1033.15 271.176 1032.36 268.202C1032.23 267.467 1032.16 266.722 1032.16 265.975C1031.9 263.368 1030.13 261.166 1029.52 258.632C1028.96 256.295 1029.38 253.737 1028.3 251.571C1027.37 250.217 1026.28 248.984 1025.05 247.9C1023.58 246.22 1022.52 244.222 1021.96 242.063C1021.8 241.463 1021.65 240.839 1021.48 240.239C1021.67 238.881 1021.52 237.499 1021.04 236.213C1019.93 233.447 1017.06 231.673 1016.02 228.87C1015.22 226.692 1015.57 223.975 1014.05 222.287C1013.23 221.48 1012.24 220.88 1011.15 220.537C1005.56 218.355 999.697 216.967 993.725 216.413C990.379 216.107 986.691 215.935 984.297 213.573C981.5 210.832 981.366 205.9 978.093 203.783C975.211 201.911 971.132 203.294 968.898 205.925C968.562 206.312 968.252 206.721 967.969 207.149C967.562 205.509 967.475 203.805 967.713 202.131C967.713 201.715 967.799 201.287 967.835 200.908C973.349 199.102 978.042 195.388 981.073 190.432C981.073 190.432 981.073 190.432 981.073 190.506L981.22 190.885C981.574 191.778 982.136 192.635 982.966 192.733C983.518 192.726 984.052 192.532 984.48 192.182C985.217 191.669 985.896 191.078 986.507 190.42C986.817 190.077 987.11 189.722 987.387 189.355C987.949 188.591 988.432 187.771 988.828 186.908C989.434 185.609 989.846 184.227 990.049 182.808C990.269 181.388 990.293 179.932 990.537 178.513C990.766 177.414 991.063 176.331 991.429 175.27C991.551 174.915 991.673 174.56 991.783 174.205C991.893 173.85 992.052 173.373 992.174 172.981C992.938 170.464 993.349 167.853 993.395 165.223C993.395 164.782 993.395 164.342 993.395 163.901C993.351 162.184 992.965 160.494 992.26 158.928C991.556 157.363 990.546 155.954 989.292 154.784C987.191 153.058 984.407 152.336 982.868 149.999C981.867 148.433 981.647 146.413 981.061 144.578C980.427 142.381 979.192 140.406 977.496 138.877C975.799 137.347 973.709 136.325 971.462 135.926C968.757 135.628 966.04 136.377 963.866 138.018V138.018L963.695 138.153C962.484 139.08 961.457 140.225 960.667 141.531C959.053 141.085 957.576 140.244 956.368 139.083C955.147 137.945 954.207 136.513 952.973 135.412C951.82 134.354 950.406 133.626 948.876 133.303C947.347 132.98 945.759 133.074 944.278 133.576C942.753 134.188 941.395 135.154 940.314 136.394C939.234 137.634 938.462 139.114 938.062 140.711C937.391 143.232 937.513 146.132 936.108 148.237C935.021 149.877 933.238 150.684 931.993 152.177C931.219 153.123 930.69 154.245 930.454 155.445V155.445C930.306 156.116 930.236 156.801 930.246 157.488V157.488C930.246 157.794 930.246 158.1 930.32 158.394C930.32 158.394 930.32 158.492 930.32 158.541C930.363 158.876 930.432 159.208 930.527 159.532V159.532C930.875 160.773 931.497 161.919 932.347 162.885C933.153 163.811 934.16 164.539 935.29 165.015C935.752 165.195 936.226 165.346 936.707 165.467L938.16 165.798L938.673 165.92C936.919 169.22 935.945 172.879 935.827 176.616C935.708 180.352 936.448 184.066 937.989 187.471C937.989 187.813 937.903 188.156 937.867 188.499C937.668 193.317 937.88 198.144 938.502 202.927C938.673 204.824 938.77 206.916 937.61 208.421C937.082 209.014 936.488 209.543 935.84 210C936.499 209.143 937.171 208.299 937.855 207.455C936.133 205.717 933.409 205.497 930.967 205.668C926.24 206.022 921.651 207.426 917.534 209.78C914.798 211.358 911.989 213.451 908.863 213.084C907.019 212.876 905.2 211.86 903.404 212.35C902.395 212.763 901.453 213.324 900.608 214.014C899.94 214.494 899.134 214.743 898.312 214.724C896.395 212.362 893.427 210.759 891.131 208.838C888.518 206.507 886.127 203.938 883.987 201.164C880.03 196.38 876.086 191.582 872.203 186.749C868.93 182.686 865.571 178.292 864.997 173.091C864.939 172.575 864.91 172.057 864.912 171.537C864.992 169.066 865.302 166.608 865.84 164.195C865.985 163.612 865.985 163.003 865.84 162.42C865.474 161.196 864.069 160.744 862.86 160.474C863.019 159.532 863.129 158.565 863.19 157.648C863.874 147.123 863.129 136.427 865.352 126.123C866.194 122.158 867.574 118.144 870.42 115.269C874.877 110.753 882.339 109.664 885.758 104.316C888.616 99.8615 887.48 93.5591 883.89 89.6308C880.299 85.7025 874.767 84.0994 869.504 84.2952C868.027 84.2444 866.568 84.6364 865.315 85.4211C864.143 86.4636 863.267 87.7976 862.775 89.2882L857.536 102.052C856.017 105.375 854.736 108.802 853.701 112.307C852.236 117.667 851.906 123.321 850.746 128.73C850.746 132.891 848.072 138.08 846.606 141.91C844.97 146.218 843.199 150.476 841.721 154.87C841.355 155.971 840.073 159.238 839.279 162.212C838.979 162.387 838.7 162.597 838.448 162.836C837.811 163.655 837.231 164.518 836.714 165.418C835.603 166.887 833.796 167.67 832.574 169.09C831.353 170.509 831.097 173.116 832.794 173.826C833.139 173.942 833.495 174.02 833.857 174.058C834.079 174.077 834.3 174.114 834.516 174.168C836.348 174.682 837.069 176.995 836.8 178.904C836.531 180.813 835.579 182.576 835.42 184.485C835.09 187.862 837.069 191.007 838.974 193.846C840.946 196.924 843.125 199.864 845.495 202.645C847.217 204.579 849.158 206.317 850.893 208.177C857.499 214.981 862.75 222.935 868.686 230.327C870.821 233.116 873.248 235.668 875.927 237.939C877.676 239.31 879.508 240.573 881.41 241.72L891.62 248.206C892.777 249.056 894.088 249.675 895.479 250.029C895.933 250.091 896.393 250.091 896.847 250.029C896.908 250.335 896.956 250.629 897.03 250.935C897.824 254.141 899.57 257.054 899.765 260.321C899.961 263.589 899.668 266.929 899.9 270.234C900.119 273.281 900.791 276.352 900.962 279.351C901.304 285.127 899.887 290.83 898.52 296.483C896.456 304.756 895.21 313.2 891.192 320.702C890.069 322.77 888.75 324.875 888.75 327.237C888.75 327.518 888.75 327.812 888.823 328.093L886.991 329.133C886.454 329.439 885.917 329.745 885.428 330.063C883.108 331.581 880.629 333.257 879.676 335.876C878.907 337.993 879.261 340.416 878.333 342.472C878.289 342.565 878.24 342.654 878.186 342.742C877.21 344.651 875.268 346.07 874.828 348.163C874.498 349.766 875.133 351.467 874.828 353.058C874.828 353.058 874.828 353.058 874.828 353.119C874.55 353.918 874.33 354.736 874.169 355.567C874.156 355.838 874.18 356.11 874.242 356.374C874.475 357.302 874.986 358.135 875.707 358.761C876.147 359.184 876.626 359.565 877.136 359.899C877.657 360.241 878.195 360.56 878.748 360.853L879.066 361.025C879.53 361.269 879.994 361.502 880.47 361.722L880.788 361.857C881.337 362.101 881.899 362.322 882.461 362.518L882.851 362.64C883.291 362.787 883.743 362.921 884.195 363.032L884.5 363.129L884.781 363.191L886.002 363.448L886.454 363.533C886.991 363.623 887.541 363.696 888.103 363.754H888.591C889.006 363.754 889.409 363.815 889.812 363.827H890.386C890.814 363.827 891.229 363.827 891.608 363.827H892.047C892.621 363.827 893.195 363.741 893.769 363.668H893.952C894.465 363.594 894.978 363.509 895.491 363.399L895.882 363.313C896.358 363.203 896.834 363.093 897.311 362.946L897.567 362.872C898.141 362.701 898.715 362.518 899.277 362.297C901.221 361.497 903.106 360.56 904.919 359.495C906.14 358.822 907.361 358.137 908.582 357.512C909.488 357.055 910.417 356.647 911.367 356.289C913.676 355.3 916.189 354.88 918.694 355.065C919.93 355.234 921.154 355.483 922.358 355.811C922.358 355.946 922.358 356.081 922.358 356.215C923.351 362.089 924.332 367.963 925.301 373.837C926.899 372.684 928.59 371.665 930.356 370.79C930.026 371.677 929.809 372.602 929.709 373.544C929.636 374.272 929.636 375.006 929.709 375.734C929.819 376.897 930.063 378.182 929.367 379.1C928.94 379.663 928.146 379.981 927.914 380.617C927.744 381.268 927.703 381.945 927.792 382.612C927.742 383.372 927.421 384.09 926.887 384.633C926.354 385.177 925.644 385.51 924.885 385.573C925.235 386.558 925.243 387.633 924.909 388.623C924.574 389.613 923.916 390.462 923.041 391.031C922.53 391.278 922.054 391.59 921.625 391.961C921.207 392.502 920.926 393.136 920.807 393.809C919.193 399.87 915.873 405.337 911.245 409.559C909.508 410.926 907.923 412.477 906.518 414.185C905.65 415.507 904.933 416.923 904.381 418.407C901.125 426.386 897.819 434.369 894.465 442.356C892.609 446.823 890.802 451.363 890.215 456.172C888.75 469.364 877.026 480.55 879.225 493.644C879.669 496.915 880.985 500.005 883.035 502.589C885.477 505.539 889.141 507.227 892.804 508.598C902.22 512.269 912.148 514.276 922.04 516.296L937.574 519.49C940.622 520.192 943.715 520.683 946.83 520.958C950.58 521.215 954.426 520.86 958.078 521.815C960.337 522.402 962.498 523.491 964.831 523.614C966.834 523.724 969.301 523.296 970.485 524.935C971.67 526.575 970.754 528.741 971.877 530.198C973.685 532.51 978.093 530.198 980.059 532.376C980.597 533.212 981.008 534.124 981.281 535.08C981.579 535.672 981.995 536.196 982.502 536.622C982.621 537.313 982.67 538.014 982.648 538.715C982.394 541.557 981.803 544.358 980.89 547.061C979.424 552.029 977.963 557.002 976.506 561.979C975.949 563.736 975.541 565.537 975.285 567.363C975.193 568.25 975.193 569.144 975.285 570.031C975.541 572.736 977.092 575.526 979.669 576.407C981.668 576.936 983.793 576.673 985.604 575.673C987.351 574.759 988.989 573.65 990.489 572.368C993.192 570.318 995.568 567.867 997.535 565.099C1003.64 555.945 1001.66 543.561 1005.95 533.44C1008.79 526.685 1014.34 521.203 1016.18 514.081C1016.61 512.725 1016.66 511.277 1016.33 509.895C1015.56 507.448 1012.96 506.053 1010.53 505.172H1010.42C1008.42 504.459 1006.38 503.875 1004.31 503.422C1003.8 503.311 1003.27 503.226 1002.75 503.14C1001.59 502.193 1000.66 500.986 1000.05 499.616C999.955 498.887 999.762 498.175 999.477 497.499C999.282 497.207 999.021 496.966 998.716 496.796C998.41 496.625 998.068 496.531 997.718 496.52C996.497 496.397 994.86 496.838 993.529 496.74C990.806 496.544 988.999 493.864 986.556 492.628C984.114 491.392 981.464 491.698 978.863 491.882C977.932 492.009 976.986 491.951 976.078 491.71C974.994 491.21 974.002 490.527 973.147 489.691C971.644 488.519 969.89 487.713 968.023 487.337C966.156 486.961 964.227 487.026 962.389 487.525C961.22 487.998 959.983 488.279 958.725 488.357C956.344 488.222 954.658 486.093 952.9 484.478C948.088 480.06 941.237 478.897 935.4 475.997C934.507 475.664 933.761 475.022 933.299 474.186C932.628 472.522 934.142 470.857 935.51 469.719L945.548 461.361C956.539 452.207 970.278 445.317 975.382 431.893C975.914 430.093 976.74 428.393 977.825 426.863C978.22 426.396 978.676 425.984 979.18 425.639C981.401 424.197 984.092 423.671 986.691 424.171C989.857 424.881 992.859 426.194 995.532 428.038C999.904 430.689 1004.16 433.545 1008.29 436.604C1012.39 439.538 1016.29 442.743 1019.96 446.198C1026.37 452.317 1031.7 459.574 1037.68 466.17C1043.65 472.766 1050.47 478.922 1058.77 482.079C1067.06 485.237 1077.08 485.102 1084.2 479.803C1092.42 473.684 1095.06 462.744 1097.14 452.709C1101.72 448.279 1103.1 441.536 1105.33 435.576C1106.74 431.795 1108.53 428.234 1110.04 424.464C1111.85 420.034 1113.27 415.458 1114.69 410.893C1116.29 406.309 1117.38 401.56 1117.93 396.734C1118.52 389.11 1116.48 380.996 1118.62 373.837C1121.44 373.213 1124 371.622 1126.77 370.692C1130.9 369.334 1135.32 369.554 1139.7 369.579H1139.98C1141.48 369.739 1143 369.381 1144.27 368.563C1145.74 367.339 1145.97 365.247 1146.05 363.35C1146.22 358.663 1145.92 353.401 1142.42 350.366ZM965.478 141.616C964.469 141.867 963.423 141.941 962.389 141.837L965.478 141.616Z" fill="url(#paint0_linear)"/>
<path d="M970.289 219.031C968.81 220.29 967.077 221.213 965.209 221.736L956.55 224.844C951.849 226.533 946.939 228.234 941.981 227.622C939.209 227.28 927.327 225.53 925.532 223.364C922.796 220.01 932.383 215.079 935.655 212.252C936.397 211.717 937.085 211.111 937.707 210.441C938.928 208.948 938.77 206.855 938.599 204.97C937.978 200.196 937.765 195.377 937.964 190.567C938.059 189.42 938.222 188.28 938.452 187.152C939.673 181.523 944.9 183.579 949.028 185.072C953.996 186.689 958.801 188.775 963.377 191.301C964.771 192.021 965.982 193.051 966.918 194.311C968.726 197.053 968.005 200.651 967.712 204.102C967.456 206.782 967.468 209.352 969.141 211.297C969.983 212.041 970.755 212.86 971.449 213.745C971.84 214.635 971.938 215.628 971.73 216.578C971.521 217.528 971.016 218.387 970.289 219.031Z" fill="#BE6F72"/>
<path d="M850.684 130.836C851.905 125.415 852.174 119.822 853.639 114.45C854.674 110.957 855.955 107.542 857.474 104.231L862.859 91.6389C863.352 90.152 864.229 88.8221 865.4 87.784C866.655 87.0048 868.112 86.6133 869.588 86.6582C874.852 86.4624 880.384 88.1022 883.974 91.9816C887.565 95.8609 888.7 102.139 885.843 106.581C882.423 111.929 874.962 113.006 870.504 117.509C867.659 120.385 866.279 124.387 865.436 128.34C863.214 138.619 863.959 149.278 863.275 159.778C863.055 163.045 862.42 166.778 859.611 168.467C857.914 169.3 856.026 169.668 854.14 169.531L846.129 169.666C844.786 169.666 839.913 170.51 839.021 169.495C837.458 167.72 841.024 158.885 841.672 156.914C843.113 152.546 844.883 148.287 846.556 143.991C848.01 140.161 850.684 134.985 850.684 130.836Z" fill="#BE6F72"/>
<path d="M1016.1 515.293C1014.25 522.367 1008.71 527.874 1005.86 534.617C1001.58 544.713 1003.51 557.06 997.449 566.19C995.484 568.963 993.108 571.418 990.403 573.471C988.903 574.749 987.264 575.853 985.518 576.763C983.707 577.764 981.582 578.027 979.583 577.497C977.006 576.616 975.455 573.826 975.199 571.134C975.107 570.251 975.107 569.361 975.199 568.478C975.455 566.656 975.864 564.859 976.42 563.106C977.885 558.154 979.347 553.193 980.804 548.225C981.716 545.53 982.306 542.737 982.563 539.903C982.721 536.819 980.767 532.805 981.598 529.93C981.976 528.632 983.393 527.482 984.04 526.393C984.959 524.825 985.665 523.142 986.141 521.388C987.142 517.973 987.826 514.327 989.926 511.451C991.297 509.745 992.9 508.242 994.689 506.984C996.009 505.824 997.557 504.953 999.232 504.426C1000.86 504.14 1002.53 504.219 1004.12 504.659C1006.19 505.102 1008.23 505.683 1010.22 506.397H1010.33C1012.78 507.278 1015.36 508.636 1016.13 511.108C1016.51 512.48 1016.49 513.929 1016.1 515.293V515.293Z" fill="#3F3D56"/>
<path d="M1146.03 364.844C1145.96 366.74 1145.73 368.858 1144.26 370.045C1142.99 370.863 1141.47 371.221 1139.96 371.06H1139.63C1135.27 371.06 1130.84 370.816 1126.71 372.174C1123.58 373.214 1120.69 375.123 1117.42 375.503C1112.91 376.017 1108.68 373.545 1104.68 371.391C1100.92 369.361 1097.06 367.523 1093.12 365.884C1090.53 364.819 1085.24 364.134 1084 361.295C1083.57 359.951 1083.21 358.587 1082.92 357.207C1082.72 356.591 1082.47 355.989 1082.18 355.408C1081.44 354.168 1080.98 352.789 1080.81 351.358C1080.81 349.931 1081.3 348.55 1082.2 347.442C1083.2 346.26 1084.42 345.287 1085.79 344.579C1087.16 343.872 1088.66 343.443 1090.2 343.318C1093.28 343.078 1096.37 343.243 1099.41 343.807L1129.47 348.139C1131.79 348.47 1134.13 348.8 1136.41 349.363C1138.58 349.74 1140.62 350.639 1142.37 351.982C1145.92 354.968 1146.22 360.218 1146.03 364.844Z" fill="#3F3D56"/>
<path d="M1119.61 372.676C1115.94 380.422 1118.58 389.588 1117.92 398.155C1117.37 402.969 1116.28 407.706 1114.67 412.277C1113.26 416.829 1111.84 421.394 1110.03 425.812C1108.52 429.483 1106.72 433.154 1105.32 436.899C1103.08 442.871 1101.65 449.589 1097.12 454.032C1095.05 464.042 1092.41 474.982 1084.19 481.052C1077.05 486.339 1067.09 486.523 1058.75 483.329C1050.41 480.135 1043.63 474.016 1037.66 467.42C1031.69 460.824 1026.35 453.64 1019.94 447.497C1016.27 444.041 1012.36 440.84 1008.26 437.915C1004.12 434.904 999.867 432.073 995.495 429.422C992.818 427.586 989.818 426.278 986.653 425.567C984.054 425.067 981.364 425.594 979.143 427.035C978.638 427.381 978.182 427.792 977.787 428.259C976.7 429.784 975.875 431.48 975.345 433.277C970.216 446.665 956.453 453.542 945.462 462.671L935.424 471.005C934.056 472.143 932.542 473.808 933.213 475.46C933.675 476.295 934.42 476.938 935.314 477.271C941.151 480.159 948.002 481.322 952.814 485.727C954.572 487.342 956.257 489.472 958.639 489.594C959.896 489.52 961.133 489.243 962.302 488.774C964.14 488.276 966.068 488.211 967.934 488.585C969.801 488.959 971.556 489.761 973.061 490.928C973.916 491.764 974.907 492.447 975.992 492.947C976.9 493.188 977.846 493.246 978.776 493.119C981.378 492.935 984.138 492.703 986.47 493.865C988.803 495.028 990.72 497.769 993.443 497.965C994.774 498.063 996.362 497.622 997.632 497.744C997.982 497.756 998.324 497.85 998.629 498.021C998.935 498.191 999.196 498.432 999.39 498.723C999.675 499.396 999.868 500.104 999.964 500.828C1000.47 502.554 1002.15 503.606 1003.25 505.026C1004.93 507.204 1005.18 510.166 1005.01 512.919C1004.45 521.529 1000.63 529.597 994.31 535.461C992.517 537.298 990.23 538.573 987.728 539.132C986.475 539.395 985.171 539.256 984.001 538.736C982.83 538.215 981.853 537.339 981.207 536.232C980.934 535.279 980.523 534.372 979.985 533.54C978.019 531.373 973.611 533.674 971.803 531.361C970.68 529.917 971.486 527.604 970.411 526.111C969.337 524.618 966.748 524.888 964.757 524.802C962.424 524.679 960.263 523.578 958.004 523.003C954.34 522.048 950.506 522.403 946.756 522.146C943.641 521.871 940.548 521.38 937.5 520.678L921.966 517.496C912.074 515.477 902.146 513.433 892.73 509.823C889.128 508.452 885.501 506.764 882.961 503.827C880.913 501.246 879.597 498.16 879.151 494.893C876.94 481.836 888.664 470.675 890.141 457.519C890.666 452.722 892.584 448.194 894.391 443.74C897.705 435.777 901.01 427.811 904.307 419.84C904.841 418.356 905.537 416.936 906.383 415.606C907.789 413.902 909.373 412.355 911.109 410.992C915.737 406.784 919.057 401.328 920.672 395.279C920.791 394.606 921.072 393.972 921.49 393.431C921.922 393.068 922.398 392.76 922.906 392.513C923.779 391.944 924.435 391.098 924.769 390.11C925.104 389.122 925.097 388.051 924.75 387.067C925.508 387.005 926.219 386.671 926.752 386.128C927.286 385.584 927.607 384.867 927.657 384.106C927.568 383.443 927.609 382.77 927.779 382.123C928.072 381.487 928.805 381.169 929.232 380.606C929.928 379.688 929.684 378.403 929.574 377.253C929.501 376.525 929.501 375.791 929.574 375.062C929.841 372.471 930.998 370.053 932.847 368.221C935.766 365.346 939.918 366.092 943.948 365.407C947.968 364.537 951.894 363.279 955.671 361.65C966.268 357.466 977.425 354.88 988.778 353.977C1000.19 353.078 1011.65 354.906 1022.21 359.312C1023.75 359.936 1025.2 360.759 1026.53 361.76C1027.47 362.486 1028.24 363.409 1028.78 364.465C1029.24 365.76 1029.79 367.017 1030.45 368.221C1031.75 370.008 1034.22 370.583 1035.65 372.272C1037.08 373.961 1037.2 376.812 1038.38 378.905C1040.08 381.891 1044.01 383.274 1045.19 386.517C1045.55 387.545 1045.6 388.671 1045.87 389.735C1046.53 392.403 1048.51 394.508 1050.25 396.613C1056.66 404.286 1060.75 413.622 1062.07 423.536C1062.47 417.331 1066.63 411.836 1071.84 408.41C1073.25 407.492 1074.87 406.476 1075.15 404.812C1075.51 402.707 1073.47 400.835 1073.6 398.693C1073.75 397.647 1074.17 396.66 1074.82 395.83C1077.15 392.449 1079.71 389.231 1082.47 386.199C1083.97 384.546 1085.66 382.527 1085.03 380.349C1084.56 378.721 1082.9 377.767 1081.98 376.347C1081.45 375.501 1081.17 374.515 1081.19 373.514C1081.22 372.513 1081.53 371.54 1082.1 370.718C1082.96 369.555 1084.31 368.711 1084.73 367.328C1085.2 365.701 1084.14 363.938 1084.47 362.262C1084.92 360.919 1085.8 359.768 1086.99 358.994C1088.61 357.516 1090.45 356.302 1092.45 355.396C1095.67 354.173 1099.26 354.625 1102.68 355.103C1108.4 355.898 1114.81 357.122 1118.03 361.919C1120.09 364.917 1121.14 369.47 1119.61 372.676Z" fill="#65617D"/>
<path opacity="0.1" d="M1146.03 364.844C1145.96 366.74 1145.73 368.858 1144.26 370.045C1142.99 370.863 1141.47 371.221 1139.96 371.06H1139.63C1140.13 368.515 1143.22 367.059 1143.76 364.476C1143.85 363.683 1143.78 362.88 1143.55 362.115C1143.32 361.351 1142.93 360.643 1142.42 360.034C1139.8 356.498 1135.6 354.54 1131.43 353.108C1119.63 349.054 1106.99 348.106 1094.72 350.354C1091.38 350.899 1088.14 351.899 1085.07 353.328C1084.05 353.965 1083.08 354.66 1082.14 355.408C1081.41 354.168 1080.94 352.789 1080.77 351.358C1080.78 349.931 1081.27 348.55 1082.16 347.442C1083.16 346.26 1084.38 345.287 1085.75 344.579C1087.12 343.872 1088.62 343.443 1090.16 343.318C1093.24 343.078 1096.34 343.243 1099.37 343.807L1129.44 348.139C1131.76 348.47 1134.09 348.8 1136.37 349.363C1138.54 349.74 1140.59 350.639 1142.33 351.982C1145.92 354.968 1146.22 360.218 1146.03 364.844Z" fill="black"/>
<path opacity="0.1" d="M1016.1 515.294C1014.25 522.367 1008.71 527.874 1005.86 534.617C1001.58 544.713 1003.51 557.061 997.449 566.19C995.484 568.963 993.108 571.418 990.403 573.471C988.903 574.749 987.264 575.853 985.518 576.763C983.707 577.764 981.582 578.027 979.583 577.497C977.006 576.616 975.455 573.826 975.199 571.134C975.107 570.251 975.107 569.361 975.199 568.478L975.272 568.674C976.334 571.244 978.068 573.936 980.804 574.389C981.831 574.463 982.862 574.324 983.832 573.981C984.803 573.638 985.693 573.098 986.446 572.394C990.476 569.151 992.821 564.318 995.055 559.655C996.804 556.293 998.188 552.752 999.183 549.094C999.672 547.014 999.904 544.884 1000.4 542.804C1002.72 532.696 1010.63 524.447 1012.37 514.205C1012.51 513.5 1012.55 512.778 1012.47 512.063C1012.24 511.131 1011.89 510.234 1011.42 509.395C1011 508.448 1010.68 507.454 1010.49 506.434C1012.93 507.315 1015.52 508.673 1016.29 511.145C1016.61 512.52 1016.54 513.955 1016.1 515.294Z" fill="black"/>
<path opacity="0.1" d="M997.656 497.743C996.526 500.704 994.624 503.307 992.149 505.282C988.672 507.936 984.602 509.7 980.291 510.421C978.284 510.934 976.179 510.909 974.185 510.348C971.474 509.406 969.52 506.86 966.748 506.126C964.769 505.587 962.644 506.065 960.642 505.771C957.039 505.269 954.243 502.516 951.336 500.313C942.433 493.607 930.746 491.441 921.844 484.735C921.447 484.491 921.12 484.15 920.891 483.743C920.721 483.304 920.658 482.829 920.708 482.36C920.741 478.293 921.654 474.281 923.383 470.6C924.799 468.032 926.485 465.624 928.414 463.417C936.388 453.627 944.4 443.763 953.949 435.503C957.955 432.039 962.327 428.809 967.383 427.242C970.192 426.373 975.736 425.553 979.155 427.022C978.651 427.367 978.195 427.779 977.8 428.246C976.713 429.77 975.887 431.466 975.357 433.263C970.216 446.663 956.453 453.541 945.462 462.67L935.424 471.004C934.056 472.142 932.542 473.806 933.213 475.458C933.675 476.294 934.42 476.936 935.314 477.27C941.151 480.158 948.002 481.32 952.814 485.726C954.572 487.341 956.258 489.471 958.639 489.593C959.896 489.519 961.133 489.242 962.302 488.773C964.14 488.275 966.068 488.21 967.934 488.584C969.801 488.957 971.556 489.759 973.061 490.927C973.916 491.762 974.907 492.445 975.992 492.946C976.9 493.187 977.846 493.245 978.777 493.117C981.378 492.934 984.138 492.701 986.47 493.864C988.803 495.026 990.72 497.768 993.443 497.963C994.799 498.061 996.386 497.596 997.656 497.743Z" fill="black"/>
<path d="M885.342 331.654C883.022 333.147 880.555 334.836 879.603 337.43C878.821 339.547 879.188 341.97 878.247 344.026C877.307 346.082 875.194 347.514 874.73 349.717C874.4 351.32 875.048 353.009 874.73 354.612C874.454 355.445 874.229 356.296 874.058 357.157C873.936 358.981 875.499 360.461 877.026 361.477C880.276 363.595 883.976 364.92 887.83 365.345C891.684 365.77 895.583 365.284 899.215 363.925C902.476 362.701 905.419 360.706 908.545 359.14C911.594 357.38 915.081 356.531 918.596 356.692C920.611 356.913 922.54 357.647 924.555 357.916C925.551 358.113 926.579 358.065 927.551 357.775C928.523 357.485 929.411 356.962 930.136 356.252C930.759 355.391 931.176 354.399 931.358 353.351C933.055 346.633 932.286 339.511 930.674 332.755C929.062 326 926.619 319.502 924.897 312.784C923.676 307.803 922.736 302.7 920.696 297.988C918.657 293.277 915.225 288.896 910.426 287.097C910.048 286.911 909.618 286.855 909.205 286.938C908.897 287.067 908.625 287.268 908.411 287.525C904.615 291.557 901.754 296.379 900.034 301.647C898.116 307.509 897.591 313.726 895.833 319.612C895.075 322.06 894.098 325.339 892.169 327.212C890.239 329.084 887.528 330.247 885.342 331.654Z" fill="#3F3D56"/>
<path opacity="0.1" d="M931.394 353.316C931.189 354.367 930.751 355.359 930.112 356.217C929.388 356.929 928.5 357.453 927.527 357.741C926.554 358.029 925.525 358.073 924.531 357.869C922.528 357.624 920.599 356.877 918.584 356.645C915.069 356.482 911.581 357.331 908.533 359.093C905.407 360.659 902.427 362.605 899.191 363.865C894.457 365.664 889.285 365.959 884.378 364.71C881.771 364.053 879.294 362.961 877.05 361.479C875.512 360.475 873.961 359.031 874.083 357.159C874.254 356.301 874.478 355.455 874.755 354.626C875.072 353.023 874.437 351.334 874.755 349.731C875.219 347.528 877.344 346.059 878.272 344.028C879.2 341.997 878.846 339.561 879.615 337.444C880.568 334.838 883.047 333.161 885.367 331.656C887.687 330.15 890.447 329 892.303 327.177C892.543 326.893 892.76 326.59 892.951 326.271C894.289 324.202 895.272 321.923 895.857 319.528C897.652 313.63 898.141 307.425 900.046 301.551C901.774 296.287 904.638 291.47 908.435 287.441C908.639 287.179 908.909 286.976 909.217 286.854C909.629 286.77 910.058 286.821 910.438 287.001C915.225 288.812 918.657 293.193 920.709 297.904C922.76 302.616 923.627 307.694 924.91 312.687C926.619 319.406 929.074 325.929 930.686 332.671C932.298 339.414 933.092 346.586 931.394 353.316Z" fill="black"/>
<path opacity="0.1" d="M967.712 204.065C961.97 205.894 955.756 205.531 950.265 203.046C944.773 200.561 940.392 196.13 937.964 190.604C938.059 189.457 938.222 188.317 938.452 187.19C939.674 181.56 944.9 183.616 949.028 185.109C953.997 186.727 958.801 188.812 963.377 191.338C964.771 192.058 965.982 193.088 966.918 194.349C968.726 197.053 968.005 200.651 967.712 204.065Z" fill="black"/>
<path d="M960.337 203.991C973.826 203.991 984.761 193.034 984.761 179.516C984.761 165.999 973.826 155.041 960.337 155.041C946.848 155.041 935.913 165.999 935.913 179.516C935.913 193.034 946.848 203.991 960.337 203.991Z" fill="#BE6F72"/>
<path opacity="0.1" d="M1026.61 362.42C1026.61 364.452 1023.86 365.1 1021.82 364.99C1014.5 364.562 1007.33 362.543 1000.07 363.155C990.904 363.987 982.477 369.065 973.282 369.53C969.74 369.714 966.138 369.188 962.645 369.836C958.126 370.681 954.096 373.434 949.493 373.826C945.499 374.168 941.555 372.663 937.561 372.822C934.769 372.989 932.048 373.766 929.587 375.099C929.854 372.507 931.011 370.089 932.86 368.258C935.778 365.382 939.931 366.128 943.961 365.443C947.98 364.574 951.907 363.315 955.684 361.686C966.28 357.502 977.437 354.916 988.791 354.013C1000.19 353.104 1011.65 354.92 1022.22 359.312C1023.75 359.936 1025.2 360.759 1026.53 361.76C1026.59 361.973 1026.62 362.197 1026.61 362.42V362.42Z" fill="black"/>
<path d="M949.04 224.208L939.148 220.537L934.971 218.995C933.27 218.28 931.478 217.802 929.647 217.575C924.86 217.208 920.354 220.402 917.801 224.477C915.249 228.552 914.284 233.411 913.466 238.147C912.343 244.624 911.39 251.127 910.608 257.653C909.767 263.547 909.338 269.493 909.326 275.447C909.607 290.597 912.807 305.539 916.324 320.286C918.046 326.824 919.348 333.466 920.219 340.172C920.512 342.937 920.647 345.715 920.94 348.493C921.257 351.614 921.77 354.698 922.283 357.794L925.226 375.379C928.89 372.773 933.054 370.484 937.561 370.35C941.554 370.203 945.511 371.696 949.492 371.353C954.071 370.974 958.126 368.22 962.644 367.376C966.137 366.727 969.739 367.241 973.293 367.07C982.476 366.605 990.915 361.514 1000.07 360.694C1007.34 360.033 1014.56 362.089 1021.84 362.518C1023.86 362.64 1026.61 361.991 1026.61 359.948C1026.61 358.528 1025.19 357.586 1023.96 356.876C1018.15 353.368 1012.61 349.412 1007.41 345.042C1002.6 341.224 997.717 337.308 994.408 332.144C986.433 319.723 989.169 302.92 982.366 289.814C976.834 279.167 982.366 265.216 982.366 253.211C982.366 247.227 982.367 241.169 980.962 235.356C980.084 232.105 978.991 228.916 977.689 225.811L972.939 213.757C972.84 213.405 972.646 213.087 972.377 212.839C972.058 212.619 971.678 212.503 971.29 212.509C968.437 212.337 965.623 213.241 963.401 215.042C961.166 216.865 959.738 219.484 957.539 221.381C955.134 223.474 952.032 225.309 949.04 224.208Z" fill="#E3E8F4"/>
<path d="M965.002 217.257C965.783 213.904 966.626 210.417 968.861 207.798C971.096 205.179 975.174 203.796 978.056 205.668C981.329 207.798 981.464 212.717 984.26 215.458C986.703 217.808 990.366 217.992 993.688 218.298C999.66 218.842 1005.53 220.226 1011.11 222.409C1012.2 222.748 1013.2 223.344 1014.01 224.147C1015.54 225.885 1015.23 228.553 1015.99 230.719C1017.03 233.509 1019.9 235.283 1021.01 238.061C1022.23 241.145 1021.01 244.596 1019.98 247.766C1018.14 253.456 1016.98 259.367 1015.18 265.082C1013.39 270.797 1010.83 276.426 1006.63 280.734C1004.78 282.643 1002.02 284.405 999.574 283.267L998.634 290.059C998.359 291.494 998.359 292.968 998.634 294.403C998.776 295.121 999.117 295.785 999.618 296.317C1000.12 296.85 1000.76 297.23 1001.47 297.414C1001.65 298.466 1002.76 298.968 1003.67 299.543C1004.33 300 1004.9 300.586 1005.34 301.265C1005.78 301.945 1006.08 302.705 1006.23 303.502C1006.37 304.298 1006.36 305.116 1006.18 305.907C1006.01 306.698 1005.68 307.447 1005.22 308.109C1004.45 309.15 1003.31 309.97 1002.94 311.206C1002.4 312.992 1003.7 314.877 1005.29 315.856C1006.88 316.835 1008.75 317.288 1010.36 318.23C1013.7 320.164 1015.5 323.969 1016.65 327.665C1017.5 330.455 1018.21 333.478 1020.31 335.51C1021.12 336.28 1022.08 336.868 1022.85 337.676C1024.18 339.252 1024.95 341.229 1025.04 343.293C1025.37 345.851 1024.81 348.446 1023.45 350.635C1021.01 354.135 1016.45 355.175 1012.46 356.754C1005.97 359.422 1000.64 364.195 994.921 368.257C992.594 370.136 989.851 371.429 986.922 372.027C982.966 372.553 979.07 370.803 975.089 370.644C972.707 370.666 970.337 370.978 968.03 371.574L960.703 373.165C961.094 367.474 957.968 361.771 956.221 356.35C952.924 346.144 952.313 335.228 953.095 324.532C953.877 313.837 956.05 303.288 958.2 292.788C959.702 285.445 959.555 277.772 961.863 270.638C964.025 263.773 967.114 257.176 968.25 250.03C970.106 238.465 962.388 228.663 965.002 217.257Z" fill="#3F3D56"/>
<path d="M1020.55 239.884C1021.23 241.128 1021.7 242.47 1021.96 243.861C1022.52 246.017 1023.58 248.011 1025.05 249.686C1026.28 250.772 1027.37 252.005 1028.3 253.358C1029.42 255.487 1028.99 258.081 1029.52 260.407C1030.13 262.94 1031.9 265.143 1032.16 267.749C1032.16 268.496 1032.23 269.241 1032.36 269.976C1033.16 272.938 1037.5 273.648 1038.47 276.609C1039.12 278.531 1038 280.623 1038.21 282.642C1038.36 283.267 1038.4 283.914 1038.32 284.551C1038.05 285.273 1037.56 285.895 1036.93 286.338C1032.89 290.207 1030.09 295.197 1028.89 300.668C1027.72 306.11 1027.1 311.658 1027.05 317.226L1022.28 310.899C1021.77 310.131 1021.12 309.467 1020.37 308.941C1019.76 308.574 1019.05 308.39 1018.43 308.023C1016.62 306.995 1015.91 304.817 1015.22 302.859C1013.28 297.439 1010.39 292.414 1006.67 288.027C1004.73 285.738 1002.47 283.438 1002.04 280.464C1001.91 279.098 1001.99 277.721 1002.26 276.377C1003.48 268.361 1004.79 260.15 1008.68 253.04C1010.5 249.711 1012.86 246.7 1014.61 243.323C1015.78 241.083 1017.43 235.258 1020.55 239.884Z" fill="#3F3D56"/>
<path d="M900.082 247.583C900.105 248.613 899.843 249.63 899.325 250.52C898.858 251.062 898.25 251.464 897.569 251.68C896.887 251.896 896.159 251.918 895.466 251.744C894.076 251.394 892.765 250.779 891.607 249.933C888.204 247.779 884.801 245.621 881.398 243.459C879.498 242.311 877.667 241.053 875.915 239.69C873.236 237.424 870.808 234.876 868.673 232.09C862.738 224.748 857.487 216.781 850.88 210.062C849.085 208.227 847.216 206.465 845.482 204.543C843.112 201.766 840.933 198.83 838.961 195.757C837.056 192.93 835.077 189.797 835.407 186.419C835.603 184.51 836.519 182.748 836.787 180.851C837.056 178.954 836.335 176.642 834.504 176.128C834.287 176.073 834.066 176.036 833.844 176.017C833.482 175.979 833.126 175.901 832.782 175.785C831.084 175.075 831.341 172.444 832.562 171.061C833.783 169.678 835.59 168.907 836.702 167.39C837.219 166.489 837.798 165.627 838.436 164.808C839.254 164.105 840.23 163.614 841.281 163.376C848.325 161.296 855.777 161.014 862.958 162.556C864.179 162.825 865.571 163.315 865.937 164.502C866.084 165.08 866.084 165.686 865.937 166.264C865.399 168.677 865.088 171.135 865.009 173.607C865.007 174.122 865.036 174.637 865.095 175.149C865.669 180.337 869.027 184.731 872.3 188.781C876.183 193.603 880.128 198.388 884.084 203.16C886.224 205.926 888.616 208.487 891.229 210.809C893.671 212.84 896.834 214.48 898.739 217.087C900.29 219.192 899.789 222.068 899.96 224.601C900.528 232.25 900.569 239.929 900.082 247.583V247.583Z" fill="#3F3D56"/>
<path d="M1055.17 298.638C1056.38 297.463 1057.47 296.172 1058.42 294.783C1059.45 293.062 1060.27 291.226 1060.87 289.313L1067.95 269.182C1069.07 266 1070.2 262.806 1071.61 259.71C1073.08 256.369 1074.81 253.151 1076.41 249.92C1080.53 241.418 1083.71 232.493 1085.9 223.303C1086.29 222.04 1086.41 220.713 1086.28 219.399C1085.94 217.282 1084.34 215.63 1082.81 214.125C1081.28 212.463 1079.53 211.015 1077.61 209.817C1076.65 209.217 1075.57 208.815 1074.45 208.634C1073.33 208.454 1072.19 208.498 1071.09 208.765C1067.96 209.683 1065.99 212.889 1065.27 216.107C1064.55 219.326 1064.82 222.618 1064.52 225.897C1064.08 230.597 1062.47 235.137 1062.07 239.848C1061.87 242.577 1062.07 245.331 1061.74 248.048C1061.14 251.615 1059.9 255.044 1058.08 258.168C1054.11 265.61 1048.75 272.216 1042.29 277.626C1040.52 278.935 1038.93 280.47 1037.55 282.191C1036.4 283.912 1035.63 285.854 1035.27 287.893C1034.46 290.999 1034.81 294.294 1036.26 297.157C1038.25 300.559 1042.07 302.052 1045.72 302.811C1050.66 303.839 1051.79 302.15 1055.17 298.638Z" fill="#BE6F72"/>
<path d="M960.483 144.052C961.534 142.072 963.144 140.447 965.112 139.378C967.079 138.309 969.318 137.845 971.547 138.043C973.792 138.442 975.881 139.462 977.578 140.989C979.274 142.516 980.51 144.488 981.145 146.683C981.719 148.506 981.951 150.526 982.953 152.092C984.467 154.454 987.276 155.139 989.376 156.852C990.631 158.02 991.64 159.427 992.344 160.99C993.049 162.554 993.435 164.242 993.48 165.957C993.597 169.46 993.045 172.953 991.855 176.249C991.351 177.655 990.943 179.095 990.634 180.557C990.39 181.976 990.366 183.42 990.146 184.84C989.875 186.681 989.24 188.448 988.277 190.039C987.314 191.63 986.044 193.012 984.54 194.104C984.112 194.454 983.579 194.648 983.026 194.655C982.074 194.544 981.487 193.431 981.133 192.427C979.192 186.81 979.656 179.945 976.077 175.466C974.45 173.659 972.483 172.191 970.289 171.146C969.394 170.568 968.387 170.188 967.334 170.032C965.785 170.116 964.296 170.661 963.059 171.599C960.482 173.331 957.622 174.599 954.609 175.344C953.105 175.701 951.541 175.717 950.03 175.39C948.52 175.064 947.101 174.405 945.877 173.459C944.192 172.064 942.958 169.971 941.09 168.882C939.221 167.793 937.268 167.854 935.424 167.108C934.248 166.607 933.203 165.844 932.367 164.876C931.53 163.909 930.925 162.764 930.598 161.527C930.27 160.29 930.229 158.994 930.477 157.739C930.725 156.483 931.256 155.301 932.029 154.283C933.25 152.814 935.057 151.982 936.144 150.354C937.548 148.249 937.426 145.361 938.098 142.84C938.495 141.245 939.267 139.768 940.348 138.532C941.429 137.295 942.788 136.335 944.314 135.73C945.793 135.227 947.381 135.13 948.91 135.451C950.44 135.772 951.855 136.498 953.009 137.554C954.23 138.655 955.207 140.075 956.404 141.225C957.585 142.358 959.032 143.176 960.611 143.604C962.19 144.032 963.85 144.055 965.441 143.673" fill="#3F3D56"/>
<path opacity="0.1" d="M980.56 324.179C979.849 324.813 979.345 325.648 979.114 326.573C978.883 327.499 978.936 328.473 979.265 329.368C979.534 329.943 992.137 327.508 993.468 327.324C996.79 326.847 1002.61 327.079 1004.85 324.032C1008.83 318.635 996.496 319.834 994.237 320.03C989.939 320.397 983.833 320.985 980.56 324.179Z" fill="black"/>
<path d="M865.912 166.313C865.374 168.726 865.063 171.184 864.984 173.656C861.321 174.402 857.511 173.178 853.993 171.954L843.894 168.503C843.28 168.11 842.539 167.966 841.822 168.1C841.105 168.234 840.466 168.636 840.035 169.226C838.411 170.914 836.176 174.121 833.929 176.017C833.567 175.979 833.211 175.901 832.867 175.785C831.169 175.075 831.426 172.444 832.647 171.061C833.868 169.678 835.675 168.907 836.787 167.39C837.304 166.489 837.883 165.627 838.521 164.808C839.339 164.105 840.315 163.614 841.366 163.376C848.41 161.296 855.862 161.014 863.043 162.556C864.264 162.825 865.656 163.315 866.022 164.502C866.141 165.105 866.103 165.729 865.912 166.313Z" fill="#3F3D56"/>
<path opacity="0.1" d="M865.912 166.313C865.374 168.726 865.063 171.184 864.984 173.656C861.321 174.402 857.511 173.178 853.993 171.954L843.894 168.503C843.28 168.11 842.539 167.966 841.822 168.1C841.105 168.234 840.466 168.636 840.035 169.226C838.411 170.914 836.176 174.121 833.929 176.017C833.567 175.979 833.211 175.901 832.867 175.785C831.169 175.075 831.426 172.444 832.647 171.061C833.868 169.678 835.675 168.907 836.787 167.39C837.304 166.489 837.883 165.627 838.521 164.808C839.339 164.105 840.315 163.614 841.366 163.376C848.41 161.296 855.862 161.014 863.043 162.556C864.264 162.825 865.656 163.315 866.022 164.502C866.141 165.105 866.103 165.729 865.912 166.313Z" fill="black"/>
<path opacity="0.1" d="M958.297 398.643C960.056 399.231 961.961 400.087 962.559 401.849L948.418 398.252L941.09 396.379C939.796 396.049 935.155 395.669 934.3 394.654C933.079 393.161 937.414 394.189 938.196 394.299C940.565 394.654 942.934 395.021 945.291 395.449C949.736 396.245 954.011 397.554 958.297 398.643Z" fill="black"/>
<path opacity="0.1" d="M963.78 411.188C962.559 410.368 959.054 410.466 957.552 410.111C955.354 409.585 953.192 408.887 951.031 408.214C946.646 406.783 942.299 405.155 937.793 404.103C936.962 403.919 934.129 403.87 934.263 402.818C934.398 401.765 937.097 401.398 937.768 401.349C941.762 401.055 946.744 402.928 950.457 404.262C955.188 405.96 959.67 408.29 963.78 411.188V411.188Z" fill="black"/>
<path opacity="0.1" d="M954.817 387.458C950.335 386.234 946.268 383.444 941.652 382.905C940.449 382.951 939.266 382.589 938.294 381.877C937.751 381.343 937.374 380.663 937.207 379.919C940.297 379.76 943.887 381.07 946.696 382.306C948.242 382.97 949.729 383.764 951.141 384.68C952.167 385.304 953.705 387.103 954.817 387.458Z" fill="black"/>
<path d="M1040.25 277.883C1039.49 282.971 1040.59 288.162 1043.34 292.506C1046.09 296.85 1050.31 300.056 1055.22 301.538C1054.63 304.438 1051.63 306.042 1049.52 308.11C1046.54 311.01 1045 315.354 1041.49 317.557C1037.57 320.005 1032.52 319.05 1028.05 318.022C1027.65 317.977 1027.27 317.78 1027 317.472C1026.91 317.325 1026.84 317.163 1026.81 316.994C1025.33 311.573 1024.36 305.785 1025.88 300.351C1027.1 295.725 1030.03 291.785 1032.38 287.697C1034.72 283.61 1034.94 279.229 1040.25 277.883Z" fill="#3F3D56"/>
<path d="M931.064 207.712C926.337 208.057 921.747 209.458 917.631 211.812C914.895 213.378 912.086 215.483 908.96 215.104C907.116 214.896 905.296 213.88 903.501 214.369C902.49 214.778 901.547 215.339 900.705 216.034C900.278 216.375 899.77 216.599 899.23 216.684C898.691 216.77 898.139 216.715 897.627 216.523L896.406 233.46C895.942 239.897 895.49 246.469 897.029 252.747C897.823 255.953 899.569 258.865 899.764 262.121C899.96 265.376 899.667 268.717 899.899 272.009C900.119 275.056 900.79 278.054 900.961 281.101C901.303 286.853 899.886 292.555 898.519 298.148C896.455 306.396 895.209 314.828 891.192 322.293C890.068 324.361 888.749 326.466 888.749 328.816C888.749 329.109 888.749 329.391 888.822 329.672C887.601 330.345 886.465 330.982 885.427 331.642C883.107 333.148 880.628 334.824 879.676 337.431C878.906 339.548 879.26 341.971 878.332 344.015C877.404 346.058 875.279 347.515 874.815 349.717C874.485 351.321 875.121 353.009 874.815 354.612C874.539 355.442 874.314 356.288 874.143 357.146C874.021 358.981 875.572 360.462 877.111 361.466C879.355 362.948 881.832 364.04 884.438 364.696L891.729 335.693C898.376 323.377 903.906 310.488 908.252 297.181C909.495 292.832 911.092 288.591 913.027 284.503C914.409 282.19 915.633 279.786 916.69 277.307C917.802 274.224 917.911 270.883 918.449 267.627C919.087 263.828 920.047 260.09 921.319 256.455C922.637 252.526 924.164 248.61 924.433 244.486C924.836 238.588 922.699 232.359 924.97 226.901C925.934 224.858 927.189 222.966 928.695 221.284C931.845 217.416 934.715 213.366 937.866 209.499C936.23 207.749 933.506 207.565 931.064 207.712Z" fill="#3F3D56"/>
<path opacity="0.1" d="M965.477 140.025L963.95 140.136L963.779 140.258C964.351 140.235 964.92 140.157 965.477 140.025V140.025Z" fill="black"/>
<path opacity="0.1" d="M993.419 165.431C993.164 167.864 992.639 170.261 991.855 172.578C991.351 173.984 990.943 175.424 990.634 176.886C990.39 178.305 990.366 179.749 990.146 181.169C989.875 183.01 989.24 184.778 988.277 186.368C987.314 187.959 986.044 189.341 984.54 190.433C984.112 190.783 983.578 190.977 983.026 190.984C982.073 190.873 981.487 189.76 981.133 188.756C979.191 183.139 979.655 176.274 976.077 171.795C974.45 169.988 972.483 168.52 970.289 167.475C969.394 166.897 968.387 166.517 967.333 166.361C965.785 166.445 964.296 166.99 963.059 167.928C960.482 169.66 957.622 170.928 954.609 171.673C953.105 172.03 951.541 172.046 950.03 171.72C948.519 171.394 947.101 170.734 945.877 169.788C944.192 168.393 942.958 166.3 941.09 165.211C939.221 164.122 937.267 164.183 935.423 163.437C934.272 162.944 933.245 162.197 932.421 161.252C931.596 160.307 930.995 159.188 930.661 157.979C930.618 157.826 930.585 157.671 930.563 157.514C930.258 158.88 930.291 160.3 930.661 161.65C930.995 162.86 931.596 163.979 932.421 164.923C933.245 165.868 934.272 166.615 935.423 167.108C937.267 167.854 939.343 167.867 941.09 168.882C942.836 169.898 944.192 172.064 945.877 173.459C947.101 174.405 948.519 175.065 950.03 175.391C951.541 175.717 953.105 175.701 954.609 175.344C957.622 174.599 960.482 173.332 963.059 171.599C964.296 170.662 965.785 170.116 967.333 170.033C968.387 170.188 969.394 170.568 970.289 171.146C972.455 172.212 974.393 173.692 975.992 175.503C979.57 179.982 979.106 186.847 981.048 192.464C981.402 193.48 981.988 194.581 982.941 194.692C983.527 194.695 984.095 194.486 984.54 194.104C986.05 193.01 987.325 191.622 988.29 190.025C989.255 188.427 989.89 186.652 990.158 184.804C990.378 183.384 990.402 181.94 990.646 180.52C990.955 179.058 991.363 177.619 991.868 176.213C993.057 172.917 993.609 169.424 993.492 165.921C993.467 165.774 993.443 165.603 993.419 165.431Z" fill="black"/>
<path d="M916.154 263.625L915.323 274.798C915.201 276.315 912.307 312.441 890.96 354.661C872.642 390.872 836.995 438.035 769.694 464.542C764.443 466.623 758.993 468.564 753.342 470.367L747.041 450.542C762.861 445.553 778.1 438.874 792.494 430.619C826.798 410.77 853.469 382.44 872.068 345.984C881.936 326.574 888.969 305.844 892.951 284.429H816.381V263.625H916.154Z" fill="#58C4CB"/>
<path opacity="0.1" d="M761.451 464.556C828.739 438.049 864.398 390.897 882.704 354.686C904.051 312.466 906.958 276.365 907.067 274.823L907.898 263.65H916.446L915.616 274.823C915.506 276.341 912.599 312.466 891.253 354.686C872.935 390.897 837.288 438.049 769.999 464.556C764.748 466.636 759.293 468.582 753.635 470.393L752.805 467.786C755.752 466.734 758.634 465.657 761.451 464.556Z" fill="white"/>
<path d="M626.728 450.542L620.426 470.367C614.768 468.556 609.313 466.61 604.062 464.53C536.774 438.023 501.115 390.872 482.809 354.661C461.462 312.441 458.556 276.34 458.446 274.798L457.615 263.625H557.339V284.429H480.757C484.76 305.847 491.813 326.577 501.701 345.984C520.3 382.44 546.959 410.77 581.262 430.607C595.658 438.87 610.902 445.554 626.728 450.542V450.542Z" fill="#58C4CB"/>
<path opacity="0.1" d="M612.293 464.556C545.005 438.049 509.346 390.897 491.04 354.686C469.693 312.466 466.787 276.365 466.677 274.823L465.846 263.65H457.298L458.128 274.823C458.238 276.341 461.145 312.466 482.491 354.686C500.809 390.897 536.456 438.049 603.745 464.556C608.996 466.636 614.451 468.582 620.109 470.393L620.939 467.786C618 466.734 615.118 465.657 612.293 464.556Z" fill="white"/>
<path d="M802.081 642.185V754.368H571.676V642.185L579.003 632.395C653.668 605.839 668.798 536.587 671.815 509.187C672.264 505.4 672.52 501.594 672.584 497.781H701.075C701.138 501.594 701.395 505.4 701.844 509.187C704.909 536.587 720.04 605.864 794.656 632.395L802.081 642.185Z" fill="#58C4CB"/>
<path opacity="0.1" d="M802.081 642.184H571.676V656.257H802.081V642.184Z" fill="black"/>
<path opacity="0.1" d="M591.215 632.395C665.88 605.839 681.01 536.587 684.027 509.187C684.476 505.4 684.732 501.594 684.796 497.781H672.584C672.52 501.594 672.264 505.4 671.815 509.187C668.749 536.587 653.619 605.864 579.003 632.395L571.676 642.185V754.368H583.888V642.185L591.215 632.395Z" fill="white"/>
<path opacity="0.1" d="M536.676 263.625H557.339V284.429H538.508C537.767 277.576 537.156 270.641 536.676 263.625Z" fill="black"/>
<path opacity="0.1" d="M626.728 450.544L620.427 470.369C614.769 468.558 609.314 466.612 604.063 464.532C595.424 453.961 587.791 442.604 581.263 430.609C595.659 438.873 610.902 445.556 626.728 450.544Z" fill="black"/>
<path opacity="0.1" d="M747.028 450.544C762.848 445.555 778.087 438.876 792.482 430.621C785.949 442.618 778.316 453.978 769.682 464.556C764.431 466.636 758.98 468.578 753.33 470.381L747.028 450.544Z" fill="black"/>
<path opacity="0.1" d="M837.069 263.625C836.588 270.641 835.978 277.576 835.237 284.429H816.418V263.625H837.069Z" fill="black"/>
<path opacity="0.1" d="M701.893 509.187C691.975 511.112 681.781 511.112 671.863 509.187C672.312 505.4 672.569 501.594 672.633 497.781H701.123C701.187 501.594 701.444 505.4 701.893 509.187V509.187Z" fill="black"/>
<path d="M539.118 229.164C539.643 383.432 605.588 508.182 686.884 508.182C768.18 508.182 834.112 383.432 834.65 229.164H539.118Z" fill="#58C4CB"/>
<path opacity="0.1" d="M565.374 229.164H539.118C539.643 383.432 605.588 508.182 686.884 508.182C691.283 508.174 695.674 507.801 700.012 507.068C624.859 494.488 565.875 375.037 565.374 229.164Z" fill="white"/>
<path d="M765.237 685.127H608.52V725.511H765.237V685.127Z" fill="#3F3D56"/>
<path opacity="0.1" d="M615.847 690.634H765.237V685.127H608.52V725.511H615.847V690.634Z" fill="white"/>
<path d="M455.54 378.108C452.719 377.166 436.11 363.998 434.852 358.038C433.595 352.078 443.633 296.556 443.633 296.556C443.633 296.556 442.705 296.556 441.191 296.373V295.479L443.254 222.543C443.254 222.543 451.717 173.593 435.732 176.444C419.746 179.295 429.772 222.543 429.772 222.543C429.772 222.543 427.953 244.498 426.67 251.081C425.449 257.433 419.856 283.303 423.666 291.343C423.806 291.629 423.961 291.907 424.13 292.175V292.175C424.13 292.175 424.765 319.771 417.865 323.54C411.283 327.126 408.548 345.176 408.316 346.792L407.961 346.645C405.996 345.413 404.271 343.833 402.869 341.982C402.723 341.799 402.613 341.603 402.478 341.407C406.971 336.342 409.393 329.765 409.259 322.989C409.126 316.213 406.447 309.737 401.758 304.854C399.577 302.584 397.019 300.712 394.199 299.322C394.116 296.984 393.564 294.686 392.574 292.567C389.399 285.763 371.814 276.866 359.321 276.658C353.557 276.487 348.831 278.127 347.109 282.642C346.23 284.931 346.498 287.537 346.132 289.911C345.399 294.806 342.261 298.637 338.231 301.684C336.603 299.864 334.844 298.166 332.967 296.605C328.888 293.473 320.755 283.144 320.755 283.144C320.755 283.144 295.366 256.796 293.486 249.576C291.605 242.356 266.241 198.998 260.599 206.549C254.957 214.099 280.028 247.006 280.028 247.006C280.028 247.006 284.791 258.962 288.454 263.001C292.118 267.039 320.206 307.913 320.206 307.913L321.549 310.703C315.614 313.836 310.192 317.825 308.275 324.042C305.466 333.196 311.608 342.399 315.858 350.965C324.138 367.681 325.323 388.999 314.637 404.272C305.063 417.758 288.454 424.17 272.908 429.775C280.416 435.683 289.743 438.786 299.286 438.55C295.696 448.976 282.971 452.427 272.127 454.361C277.818 459.843 285.963 461.838 293.779 463.049C297.607 463.702 301.485 464.009 305.368 463.967H306.321L307.273 463.894C308.597 463.806 309.914 463.638 311.218 463.392C316.86 462.242 322.343 459.158 325.225 454.165C327.667 449.894 328.522 444.069 332.955 441.927C334.109 441.405 335.353 441.11 336.619 441.058H336.484C337.315 441.058 338.17 441.058 339 441.058L357.477 441.242C358.246 441.242 359.04 441.242 359.834 441.242C365.048 441.119 370.617 440.214 373.267 435.894C374.357 433.796 374.931 431.467 374.94 429.102C375.331 423.24 374.94 417.207 375.099 411.296C376.674 422.053 378.323 438.819 374.403 445.011C371.218 449.703 367.358 453.897 362.948 457.457C361.839 458.39 360.824 459.431 359.919 460.565C359.321 460.993 358.967 461.226 358.967 461.226L358.588 462.364C357.196 464.479 356.188 466.824 355.608 469.29C355.395 469.924 355.316 470.595 355.376 471.261C355.804 472.13 352.323 475.715 353.337 477.22C344.642 487.439 342.993 502.919 342.993 502.919L327.118 527.077C318.96 548.554 306.748 550.756 306.748 550.756C306.748 550.756 278.062 531.47 277.28 530.528C276.499 529.585 265.532 524.874 265.532 524.874C264.239 522.601 262.265 520.795 259.89 519.71C256.129 518.143 255.812 512.367 255.812 512.367C255.347 498.722 247.349 497.682 247.349 497.682C240.901 497.131 235.979 498.281 232.193 500.386L231.045 500.472C225.501 500.925 218.833 501.427 211.506 501.916C191.124 503.262 186.276 516.491 186.276 516.491C186.276 516.491 183.773 519.318 187.058 522.377C190.343 525.437 211.372 522.377 212.263 522.304C210.661 522.478 209.04 522.366 207.476 521.973C210.786 521.851 215.341 521.729 219.224 521.729H220.165C219.92 523.792 219.802 525.868 219.81 527.945C219.81 531.861 230.618 534.37 230.618 534.37L263.53 563.74C263.53 563.74 284.217 573.004 297.381 586.331C310.546 599.658 322.184 588.155 322.184 588.155C336.118 584.704 376.21 536.132 376.247 536.083C376.247 537.503 377.089 584.74 378.689 594.224C378.753 594.706 378.872 595.178 379.043 595.632C380.924 599.707 378.408 610.843 377.321 615.542C376.628 619.475 376.362 623.472 376.528 627.462C376.528 627.462 361.495 684.979 362.74 690.033C363.986 695.087 354.595 718.571 354.595 718.571V738.151L356.231 738.065C356.018 738.381 355.823 738.708 355.645 739.044L355.535 739.252C355.535 739.252 365.561 741.443 372.302 740.819C379.043 740.195 390.62 746.02 390.62 746.02C390.62 746.02 394.54 747.88 406.606 748.663C418.671 749.446 418.671 743.328 418.671 743.328C417.292 734.994 398.228 732.204 397.642 732.118C396.104 731.151 394.663 730.099 393.478 729.193L393.234 728.997C393.314 728.814 393.383 728.626 393.441 728.434C395.481 720.113 384.197 716.503 384.197 716.503V714.471C391.524 710.702 392.977 684.832 392.977 684.832C392.977 684.832 403.968 652.843 405.507 647.507C407.046 642.171 405.507 634.18 405.507 634.18L406.606 627.278C406.606 627.278 408.963 622.579 408.963 621.637C409.268 619.248 410.185 616.98 411.625 615.053C413.347 613.009 409.744 608.151 409.744 608.151L412.883 600.001V591.055L420.21 558.601C420.21 558.601 427.892 520.799 425.229 508.426C422.567 496.054 428.368 489.764 428.368 489.764C427.845 490.039 427.307 490.285 426.756 490.498C427.489 488.8 428.121 487.059 428.649 485.285L445.135 487.329V487.573H451.082C451.082 487.573 449.202 464.322 449.202 454.948C449.202 445.574 455.54 411.933 455.54 411.933C455.54 411.933 458.361 379.05 455.54 378.108ZM382.353 350.965C382.353 351.883 382.267 352.837 382.206 353.816L381.877 354.318L381.266 353.804L380.521 354.967L380.301 355.077C378.689 354.245 377.859 349.484 376.699 350.512L376.54 350.647C376.283 350.353 376.027 350.267 375.758 350.512L375.514 350.72C375.514 350.365 375.514 349.998 375.514 349.631C377.748 350.207 380.046 350.499 382.353 350.5C382.365 350.659 382.353 350.818 382.353 350.965ZM437.185 459.243H437.539L436.953 460.785C437.026 460.271 437.099 459.77 437.185 459.243V459.243ZM376.992 736.756L374.745 736.193L375.966 735.985L377.102 736.732L377.236 736.829L376.992 736.756ZM399.95 733.464C399.205 733.072 398.448 732.62 397.716 732.155C397.96 732.289 398.925 732.791 399.95 733.464V733.464Z" fill="url(#paint1_linear)"/>
<path d="M445.293 436.127L430.504 474.749H434.094L420.185 485.861L445.293 488.993V436.127Z" fill="#F86D70"/>
<path opacity="0.1" d="M445.293 436.127L430.504 474.749L426.779 473.745L420.185 485.861L445.293 488.993V436.127Z" fill="black"/>
<path d="M422.103 460.835H445.293L453.805 390.652H422.103V460.835Z" fill="#F86D70"/>
<path opacity="0.1" d="M422.103 460.835H445.293L453.805 390.652H422.103V460.835Z" fill="black"/>
<path d="M376.808 407.272L381.815 406.427L393.319 404.469C393.319 404.469 427.867 396.662 434.999 396.025C439.319 395.454 443.532 394.25 447.504 392.452C449.372 391.644 450.557 391.032 450.557 391.032L438.113 368.258L418.805 353.916C418.805 353.916 406.593 351.309 401.428 344.187C400.275 342.654 399.524 340.856 399.245 338.958C398.965 337.059 399.166 335.121 399.828 333.32C402.979 323.53 381.009 342.681 381.009 342.681C381.009 342.681 381.217 347.271 381.009 353.12C381.009 354.271 380.899 355.47 380.814 356.694C380.814 357.501 380.704 358.309 380.618 359.141C380.081 364.954 378.982 370.938 376.808 374.512C371.496 383.249 376.808 407.272 376.808 407.272Z" fill="#FBBEBE"/>
<path opacity="0.1" d="M381.009 353.61H381.497C382.377 353.61 383.085 351.737 383.94 351.652C390.815 350.991 397.092 349.547 401.452 344.664C400.302 343.132 399.553 341.337 399.274 339.441C398.994 337.545 399.193 335.609 399.852 333.809C403.003 324.019 381.033 343.159 381.033 343.159C381.033 343.159 381.265 347.76 381.009 353.61Z" fill="black"/>
<path d="M354.265 325.854C354.263 329.377 354.954 332.866 356.299 336.122C357.644 339.377 359.615 342.335 362.101 344.826C364.587 347.317 367.539 349.293 370.788 350.64C374.036 351.988 377.518 352.681 381.033 352.679C381.913 352.679 382.78 352.679 383.647 352.557C388.805 352.05 393.705 350.053 397.753 346.809C401.8 343.566 404.821 339.214 406.448 334.283C408.076 329.352 408.24 324.054 406.921 319.032C405.601 314.009 402.855 309.479 399.016 305.99C395.177 302.501 390.41 300.203 385.293 299.377C380.177 298.551 374.931 299.23 370.192 301.334C365.453 303.437 361.426 306.874 358.599 311.226C355.771 315.579 354.266 320.661 354.265 325.854Z" fill="#FBBEBE"/>
<path d="M346.046 285.139C345.167 287.415 345.436 289.96 345.081 292.371C343.775 301.072 334.945 306.285 326.959 309.932C318.972 313.579 309.96 317.899 307.42 326.306C304.635 335.398 310.717 344.515 314.942 353.045C323.173 369.664 324.345 390.859 313.721 406.058C304.281 419.52 287.831 425.908 272.347 431.513C279.799 437.388 289.062 440.478 298.541 440.25C294.988 450.616 282.348 454.054 271.577 455.963C277.231 461.421 285.328 463.404 293.083 464.603C298.737 465.484 304.537 466.059 310.179 464.921C315.821 463.783 321.17 460.712 324.077 455.743C326.519 451.497 327.35 445.708 331.758 443.567C333.748 442.782 335.892 442.468 338.023 442.649L356.341 442.845C362.044 442.845 368.797 442.404 371.74 437.521C372.826 435.435 373.396 433.119 373.401 430.766C374.195 418.724 371.887 405.997 376.833 395.008C378.323 391.691 368.761 386.442 369.762 382.929C373.206 370.851 374.073 361.342 374.036 348.774C374.036 339.045 380.35 330.662 385.564 322.451C390.779 314.24 395.139 303.874 391.023 295.063C386.383 285.236 351.529 270.955 346.046 285.139Z" fill="#3F3D56"/>
<path d="M370.434 733.232L375.099 736.329L375.819 736.806L375.953 736.891L381.485 740.563L394.406 742.741L405.763 741.958C405.763 741.958 409.036 735.105 403.895 735.264C402.248 735.179 400.643 734.714 399.205 733.905L398.497 733.551C397.752 733.159 397.007 732.718 396.274 732.253C394.748 731.287 393.307 730.234 392.147 729.341C390.437 728.019 389.301 727.016 389.301 727.016L370.434 733.232Z" fill="#FBBEBE"/>
<path opacity="0.1" d="M375.159 736.329L375.88 736.807L376.014 736.892L381.546 740.563L394.466 742.742L405.824 741.958C405.824 741.958 409.096 735.106 403.955 735.265C402.308 735.18 400.704 734.715 399.266 733.906C400.169 734.616 400.927 735.387 401 736.036C401.207 737.786 392.598 740.931 392.598 740.931L380.459 737.712C380.459 737.712 378.395 737.125 375.574 736.39L375.306 736.317L375.159 736.329Z" fill="black"/>
<path d="M354.398 739.314C354.398 739.314 364.351 741.492 371.043 740.868C377.736 740.244 389.264 746.02 389.264 746.02C389.264 746.02 393.159 747.855 405.14 748.639C417.12 749.422 417.12 743.328 417.12 743.328C415.752 735.043 396.823 732.314 396.237 732.191C396.469 732.314 397.458 732.816 398.46 733.489C399.803 734.37 401.256 735.52 401.366 736.45C401.574 738.188 392.964 741.345 392.964 741.345L380.825 738.139C380.825 738.139 378.762 737.539 375.941 736.805H375.672C371.489 735.663 367.239 734.785 362.947 734.174C357.72 733.611 355.046 738.065 354.496 739.069C354.456 739.147 354.424 739.229 354.398 739.314V739.314Z" fill="#3F3D56"/>
<path d="M197.522 519.245L202.81 523.308C202.81 523.308 204.349 523.235 206.645 523.161H207.378C210.663 523.039 215.193 522.917 219.04 522.917C221.527 522.804 224.018 522.944 226.477 523.333C229.115 524.263 233.804 508.207 233.804 508.207L228.504 506.983L226.746 506.567L225.525 506.274L221.214 505.258L208.147 506.751L198.963 512.674L197.522 519.245Z" fill="#FBBEBE"/>
<path opacity="0.1" d="M197.522 519.245L202.81 523.308C202.81 523.308 204.349 523.235 206.645 523.161C205.591 522.754 204.723 521.975 204.202 520.971C200.783 511.462 217.746 507.399 217.746 507.399L225.647 507.057L227.186 506.983H228.407L226.648 506.567L225.427 506.274L221.116 505.258L208.049 506.751L198.866 512.674L197.522 519.245Z" fill="black"/>
<path d="M187.094 523.542C190.293 526.504 211.249 523.542 212.128 523.469C210.538 523.648 208.928 523.537 207.378 523.138C206.61 523.001 205.883 522.693 205.249 522.238C204.615 521.783 204.091 521.191 203.714 520.507C200.295 510.986 217.257 506.936 217.257 506.936L225.159 506.593L226.685 506.52L245.895 505.688L246.823 500.389C246.823 500.389 240.582 500.976 230.788 501.759C225.281 502.212 218.576 502.714 211.335 503.191C191.099 504.537 186.288 517.693 186.288 517.693C186.288 517.693 183.833 520.507 187.094 523.542Z" fill="#3F3D56"/>
<path d="M422.115 293.84C422.245 294.131 422.4 294.409 422.579 294.672L427.244 301.525L439.382 302.749L439.517 297.928L441.556 225.383C441.556 225.383 449.958 176.726 434.082 179.529C418.207 182.331 428.172 225.383 428.172 225.383C428.172 225.383 426.364 247.215 425.094 253.774C423.861 260.113 418.329 285.886 422.115 293.84Z" fill="#FBBEBE"/>
<path d="M394.87 474.028L398.326 479.951L406.056 493.204C406.056 493.204 420.076 498.356 423.666 494.428C425.632 492.286 427.757 484.809 429.247 478.519C430.468 473.428 431.286 469.133 431.286 469.133L394.87 474.028Z" fill="#FBBEBE"/>
<path opacity="0.1" d="M394.87 474.027L398.326 479.95C398.543 479.763 398.739 479.554 398.912 479.326C402.82 474.333 420.027 478.261 429.247 478.58C430.468 473.489 431.286 469.193 431.286 469.193L394.87 474.027Z" fill="black"/>
<path opacity="0.1" d="M219.04 522.894C221.527 522.782 224.018 522.921 226.477 523.31C229.115 524.24 233.804 508.184 233.804 508.184L226.746 506.52L245.955 505.688L246.884 500.389C246.884 500.389 240.643 500.976 230.849 501.759C228.825 502.927 227.02 504.438 225.512 506.226L225.219 506.593C221.128 511.623 219.614 518.109 219.04 522.894Z" fill="black"/>
<path opacity="0.1" d="M370.434 733.232L375.819 736.806C383.855 735.35 391.194 733.061 392.061 729.463C392.065 729.406 392.065 729.349 392.061 729.292C390.351 727.97 389.216 726.967 389.216 726.967L370.434 733.232Z" fill="black"/>
<path opacity="0.1" d="M354.509 739.106C361.605 738.752 368.675 737.992 375.684 736.83C371.498 735.679 367.244 734.792 362.947 734.174C357.733 733.611 355.058 738.066 354.509 739.106Z" fill="black"/>
<path d="M219.627 529.071C219.627 532.975 230.361 535.472 230.361 535.472L263.053 564.634C263.053 564.634 283.594 573.837 296.661 587.09C309.727 600.343 321.256 588.962 321.256 588.962C335.104 585.536 374.989 537.185 374.989 537.185C374.989 537.185 375.917 592.401 377.785 596.452C379.654 600.503 377.162 611.578 376.075 616.265C375.39 620.173 375.128 624.145 375.294 628.111C375.294 628.111 360.359 685.346 361.604 690.339C362.85 695.332 353.508 718.73 353.508 718.73V738.225C353.508 738.225 390.083 736.817 392.098 728.557C394.113 720.297 382.926 716.699 382.926 716.699V714.667C390.254 710.923 391.634 685.199 391.634 685.199C391.634 685.199 402.539 653.381 404.09 648.082C405.641 642.783 404.09 634.817 404.09 634.817L405.177 627.964C405.177 627.964 407.509 623.277 407.509 622.347C407.814 619.972 408.727 617.716 410.159 615.8C411.869 613.768 408.291 608.934 408.291 608.934L411.405 600.821V591.936L418.732 559.653C418.732 559.653 426.365 522.059 423.715 509.736C421.065 497.413 426.829 491.184 426.829 491.184C414.336 497.743 408.034 483.144 405.971 476.866C405.445 475.25 405.189 474.173 405.189 474.173C405.189 474.173 388.031 467.834 372.058 469.352C368.814 469.615 365.617 470.294 362.545 471.371C344.8 477.771 342.004 504.278 342.004 504.278L326.287 528.301C318.19 549.667 306.052 551.846 306.052 551.846C306.052 551.846 277.573 532.669 276.743 531.727C275.912 530.785 265.068 526.11 265.068 526.11C263.786 523.848 261.824 522.05 259.463 520.97C255.726 519.404 255.42 513.628 255.42 513.628C254.956 500.056 247.019 498.942 247.019 498.942C219.468 496.642 219.627 525.18 219.627 529.071Z" fill="#3F3D56"/>
<path d="M378.066 452.82H394.87V400.578H378.066V452.82Z" fill="#F86D70"/>
<path opacity="0.1" d="M378.066 452.82H394.87V400.578H378.066V452.82Z" fill="black"/>
<path opacity="0.1" d="M422.103 293.73C422.1 293.767 422.1 293.804 422.103 293.841C422.233 294.131 422.388 294.41 422.567 294.673L427.232 301.526L439.37 302.75L439.505 297.928C435.719 297.634 427.097 296.594 422.103 293.73Z" fill="black"/>
<path d="M422.578 294.672C422.578 294.672 423.201 322.109 416.35 325.853C409.499 329.598 406.837 349.105 406.837 349.105C406.837 349.105 427.597 362.787 432.226 368.807C436.854 374.828 447.479 389.171 445.293 392.597C443.107 396.024 450.593 411.627 450.593 411.627C450.593 411.627 436.891 439.7 440.005 450.31C443.119 460.92 443.424 488.981 443.424 488.981H449.347C449.347 488.981 447.479 465.901 447.479 456.539C447.479 447.177 453.695 413.805 453.695 413.805C453.695 413.805 456.503 381.057 453.695 380.127C450.886 379.197 434.399 366.091 433.154 360.155C431.908 354.22 441.873 298.967 441.873 298.967C441.873 298.967 429.112 298.417 422.578 294.672Z" fill="#F86D70"/>
<path opacity="0.1" d="M377.748 395.731C378.316 399.549 379.704 403.198 381.815 406.427L393.318 404.469C393.318 404.469 427.866 396.661 434.998 396.025C439.319 395.453 443.532 394.249 447.503 392.451C444.766 382.731 439.423 373.949 432.055 367.058L427.671 362.983C421.211 356.973 413.723 352.176 405.567 348.824C406.08 349.253 442.325 380.263 434.388 386.345C426.45 392.427 405.079 377.619 405.079 377.619L380.777 356.693L379.897 355.934L378.493 358.125C379.208 358.419 379.905 358.754 380.581 359.128C388.864 363.684 395.01 371.339 397.678 380.422C402.673 397.249 377.748 395.731 377.748 395.731Z" fill="black"/>
<path d="M370.274 473.71C370.274 473.71 393.306 486.498 398.899 479.327C400.121 477.748 402.697 477.063 405.909 476.879C405.384 475.264 405.128 474.187 405.128 474.187C405.128 474.187 387.97 467.848 371.996 469.366C370.946 472.009 370.274 473.71 370.274 473.71Z" fill="#444053"/>
<path d="M380.874 355.959L406.056 377.669C406.056 377.669 427.341 392.525 435.365 386.394C443.388 380.263 406.532 348.861 406.532 348.861C414.671 352.224 422.15 357.005 428.624 362.984L433.008 367.059C444.536 377.767 447.137 377.767 447.528 393.504C447.626 397.384 446.307 402.952 445.293 403.955C441.556 407.626 438.943 434.292 439.517 437.413C440.091 440.533 432.556 467.468 434.998 474.958C437.441 482.447 404.468 471.213 398.887 478.397C393.306 485.58 370.274 472.78 370.274 472.78C370.274 472.78 383.036 440.019 386.15 437.841C389.264 435.663 393.001 418.812 386.15 411.016C379.299 403.221 378.689 395.731 378.689 395.731C378.689 395.731 403.601 397.273 398.606 380.447C397.201 375.569 394.763 371.053 391.459 367.205C388.155 363.358 384.061 360.269 379.458 358.15L380.874 355.959Z" fill="#E8E8F0"/>
<path opacity="0.1" d="M414.482 411.176C414.482 411.176 404.823 429.422 392.33 434.158C391.927 434.305 391.536 434.439 391.108 434.562C378.066 438.539 415.459 416.83 414.482 411.176Z" fill="black"/>
<path d="M279.393 249.748C279.393 249.748 284.058 261.606 287.794 265.657C291.531 269.708 319.228 310.263 319.228 310.263L321.573 315.158L323.588 319.331L341.332 317.459L342.553 310.288L341.869 309.456C340.086 307.314 335.226 301.562 331.965 299.054C327.923 295.945 319.827 285.653 319.827 285.653C319.827 285.653 294.621 259.44 292.753 252.269C290.884 245.098 265.666 202.095 260.073 209.535C254.48 216.976 279.393 249.748 279.393 249.748Z" fill="#FBBEBE"/>
<path opacity="0.1" d="M330.878 442.649C328.748 442.465 326.604 442.775 324.613 443.555C320.217 445.697 319.387 451.485 316.944 455.732C314.087 460.7 308.64 463.772 303.035 464.91C301.92 465.126 300.795 465.282 299.664 465.375C303.234 465.723 306.835 465.566 310.362 464.91C315.967 463.772 321.414 460.7 324.271 455.732C326.714 451.485 327.544 445.697 331.941 443.555C333.095 443.034 334.339 442.744 335.604 442.698L330.878 442.649Z" fill="black"/>
<path opacity="0.1" d="M374.255 348.776C374.255 339.047 380.569 330.664 385.771 322.453C390.973 314.241 395.345 303.876 391.23 295.065C387.713 287.539 366.513 277.443 354.276 279.437C366.256 280.992 381.021 288.897 383.903 295.065C388.018 303.876 383.646 314.241 378.444 322.453C373.242 330.664 366.903 339.047 366.928 348.776C366.928 361.332 366.085 370.803 362.641 382.931C361.652 386.419 371.19 391.693 369.724 394.997C364.766 406.011 367.087 418.714 366.293 430.756C366.276 433.108 365.703 435.423 364.62 437.511C362.177 441.537 357.17 442.577 352.298 442.797H356.56C362.251 442.797 369.004 442.357 371.947 437.474C373.03 435.387 373.604 433.071 373.62 430.719C374.414 418.677 372.094 405.962 377.052 394.96C378.542 391.656 368.98 386.394 369.969 382.894C373.412 370.852 374.28 361.332 374.255 348.776Z" fill="black"/>
<path opacity="0.1" d="M321.573 315.134L323.588 319.307L341.332 317.435L342.554 310.264L341.87 309.432C339.977 310.362 325.799 317.203 321.573 315.134Z" fill="black"/>
<path opacity="0.1" d="M387.09 362.041C387.09 362.041 382.73 355.188 380.239 357.048C377.748 358.908 376.783 351.431 375.354 352.679C373.925 353.927 369.761 357.403 368.027 352.545C366.671 348.678 351.919 324.215 345.935 314.375C344.397 311.83 343.432 310.264 343.432 310.264C343.432 310.264 326.628 318.683 322.586 315.881V321.804L326.005 322.122L344.323 356.387C344.323 356.387 350.087 365.578 349.697 368.784C349.306 371.99 357.085 386.027 358.331 386.957C359.576 387.887 372.985 403.49 372.985 403.49C372.985 403.49 379.836 437.18 373.913 446.542C367.99 455.904 357.732 462.757 357.732 462.757C357.732 462.757 354.643 471.8 355.094 472.743C355.546 473.685 351.504 477.736 353.372 478.984C355.241 480.232 357.732 488.957 357.732 488.957C357.732 488.957 366.452 474.921 371.165 472.743C375.879 470.564 381.912 441.855 381.912 441.855C381.912 441.855 383.634 424.942 383.768 414.026C383.903 403.111 383.353 362.041 387.09 362.041Z" fill="black"/>
<path d="M386.151 362.041C386.151 362.041 381.803 355.188 379.312 357.048C376.821 358.908 375.844 351.431 374.427 352.679C373.01 353.927 368.846 357.403 367.1 352.545C365.732 348.678 350.98 324.215 345.008 314.375L342.505 310.264C342.505 310.264 325.701 318.683 321.646 315.881V321.804L325.078 322.122L343.396 356.387C343.396 356.387 349.172 365.578 348.769 368.784C348.366 371.99 356.097 386.027 357.403 386.957C358.71 387.887 372.058 403.49 372.058 403.49C372.058 403.49 378.909 437.18 372.998 446.542C369.876 451.244 366.078 455.459 361.726 459.049C358.072 462.07 355.499 466.203 354.399 470.821C354.187 471.451 354.112 472.118 354.179 472.779C354.631 473.709 350.589 477.772 352.458 479.021C354.326 480.269 356.842 489.031 356.842 489.031C356.842 489.031 365.561 474.994 370.275 472.816C374.989 470.638 381.034 441.928 381.034 441.928C381.034 441.928 382.743 425.016 382.89 414.1C383.036 403.184 382.487 362.041 386.151 362.041Z" fill="#F86D70"/>
<path opacity="0.1" d="M343.506 503.973C343.506 503.973 356.585 506.42 361.824 510.202C367.063 513.983 341.906 504.279 341.906 504.279L343.506 503.973Z" fill="black"/>
<path opacity="0.1" d="M374.951 537.186C374.951 537.186 388.592 548.579 386.15 558.871C383.707 569.163 377.406 595.057 377.406 595.057L374.951 537.186Z" fill="black"/>
<path opacity="0.1" d="M255.652 515.279C255.652 515.279 236.431 517.384 237.676 519.881C238.922 522.377 255.652 517.58 255.652 517.58V515.279Z" fill="black"/>
<path opacity="0.1" d="M403.247 610.025C403.247 610.025 404.469 611.579 397.337 610.025C390.205 608.471 395.468 603.674 395.468 603.674L403.247 610.025Z" fill="black"/>
<path opacity="0.1" d="M400.805 631.55C400.805 631.55 391.035 633.104 385.796 631.55C380.558 629.996 400.805 631.55 400.805 631.55Z" fill="black"/>
<path opacity="0.1" d="M380.703 715.768C380.703 715.768 378.994 713.896 370.433 717.323C361.872 720.749 358.453 720.908 355.962 719.77C353.471 718.632 380.703 715.768 380.703 715.768Z" fill="black"/>
<path opacity="0.1" d="M390.205 512.625L378.066 529.55C378.066 529.55 384.6 514.73 390.205 512.625Z" fill="black"/>
<path opacity="0.1" d="M366.611 357.049C366.611 357.049 366.086 362.666 358.258 364.856C350.43 367.047 348.94 368.821 348.94 368.821" fill="black"/>
<path opacity="0.1" d="M346.266 316.334C346.266 316.334 335.935 323.677 325.151 322.122Z" fill="black"/>
<path opacity="0.1" d="M354.13 473.551C354.13 473.551 357.146 475.448 364.388 467.15Z" fill="black"/>
<path opacity="0.1" d="M429.344 385.572C429.637 384.055 428.586 382.648 427.597 381.461L425.57 379.013C425.174 378.512 424.728 378.053 424.239 377.642C423.018 376.7 421.455 376.419 420.185 375.574" fill="black"/>
</g>
<defs>
<linearGradient id="paint0_linear" x1="988.828" y1="576.737" x2="988.828" y2="84.4176" gradientUnits="userSpaceOnUse">
<stop stop-color="#808080" stop-opacity="0.25"/>
<stop offset="0.54" stop-color="#808080" stop-opacity="0.12"/>
<stop offset="1" stop-color="#808080" stop-opacity="0.1"/>
</linearGradient>
<linearGradient id="paint1_linear" x1="48668.2" y1="306615" x2="108985" y2="306615" gradientUnits="userSpaceOnUse">
<stop stop-color="#808080" stop-opacity="0.25"/>
<stop offset="0.54" stop-color="#808080" stop-opacity="0.12"/>
<stop offset="1" stop-color="#808080" stop-opacity="0.1"/>
</linearGradient>
<clipPath id="clip0">
<rect width="1400" height="757.353" fill="white"/>
</clipPath>
</defs>
</svg>
