<svg width="230" height="143" fill="none" xmlns="http://www.w3.org/2000/svg"><mask id="a" maskUnits="userSpaceOnUse" x="0" y="0" width="230" height="143"><path d="M214.964.235H15.918C7.614.235.882 6.945.882 15.22v112.744c0 8.275 6.732 14.984 15.036 14.984h199.046c8.304 0 15.036-6.709 15.036-14.984V15.22C230 6.944 223.268.235 214.964.235z" fill="#fff"/></mask><g mask="url(#a)"><path d="M234.365.235H17.281C8.224.235.882 7.548.882 16.57v122.89c0 9.021 7.342 16.334 16.399 16.334h217.084c9.057 0 16.399-7.313 16.399-16.334V16.569c0-9.02-7.342-16.334-16.399-16.334z" fill="url(#paint0_linear)"/><path style="mix-blend-mode:soft-light" opacity=".5" fill-rule="evenodd" clip-rule="evenodd" d="M-7.145 148.924C14.19 86.284 42.095 44.473 76.574 23.489 111.052 2.506 162.029-6.08 229.506-2.274v151.198H-7.144z" fill="url(#paint1_linear)"/><path style="mix-blend-mode:soft-light" opacity=".5" fill-rule="evenodd" clip-rule="evenodd" d="M45.274 148.743c21.334-62.64 49.24-104.452 83.718-125.435C163.47 2.325 214.448-6.262 281.924-2.455v151.198H45.274z" fill="url(#paint2_linear)"/><path style="mix-blend-mode:multiply" opacity=".5" fill-rule="evenodd" clip-rule="evenodd" d="M-2.575 148.743c1.67-40.889 35.694-54.076 102.07-39.562C165.87 123.696 211 82.525 234.882-14.332l6.02 163.075H-2.575z" fill="url(#paint3_linear)"/><path fill-rule="evenodd" clip-rule="evenodd" d="M197.348 18.082l-.6 3.553c-1.8-1.015-5.897-1.256-5.897.615 0 .743.927 1.254 2.045 1.87 1.694.934 3.826 2.11 3.826 4.702 0 4.142-4.331 5.664-7.201 5.664-2.871 0-4.749-.934-4.749-.934l.626-3.715c1.722 1.416 6.941 1.818 6.941-.427 0-.943-1.028-1.5-2.219-2.144-1.644-.89-3.6-1.95-3.6-4.428 0-4.543 4.958-5.477 7.045-5.477 1.931 0 3.783.721 3.783.721zm10.174 16.12h3.862l-3.367-16.545h-3.382c-1.562 0-1.942 1.232-1.942 1.232l-6.273 15.312h4.384l.877-2.457h5.348l.493 2.457zm-4.629-5.853l2.21-6.191 1.244 6.191h-3.454zm-32.468.687l4.01-11.38h4.527l-6.692 16.546h-4.383l-3.654-14.373c-2.373-1.46-4.4-1.892-4.4-1.892l.077-.28h6.63c1.824 0 1.996 1.49 1.996 1.49l1.415 7.44-.001-.001.475 2.45zm7.549 5.165h4.207l2.629-16.544h-4.207L177.974 34.2z" fill="#fff"/><rect x="24" y="16" width="31" height="20" rx="8" fill="#D2B056"/><rect x="27.5" y="20.5" width="10" height="4" rx="2" fill="#D2B056" stroke="#AB8C3A"/><rect x="41.5" y="20.5" width="11" height="4" rx="2" fill="#D2B056" stroke="#AB8C3A"/><rect x="27.5" y="26.5" width="10" height="5" rx="2.5" fill="#D2B056" stroke="#AB8C3A"/><rect x="41.5" y="26.5" width="11" height="5" rx="2.5" fill="#D2B056" stroke="#AB8C3A"/><path d="M26.019 73.269c-.27 0-.52-.063-.747-.19a1.457 1.457 0 01-.54-.54 1.555 1.555 0 01-.19-.764c0-.282.064-.534.19-.756a1.41 1.41 0 01.53-.531c.229-.126.48-.19.757-.19.276 0 .528.064.756.19a1.45 1.45 0 01.738 1.287c0 .282-.066.537-.198.765a1.457 1.457 0 01-.54.54c-.228.126-.48.189-.756.189zm6.731 0c-.27 0-.519-.063-.747-.19a1.457 1.457 0 01-.54-.54 1.555 1.555 0 01-.189-.764c0-.282.063-.534.19-.756a1.41 1.41 0 01.53-.531c.228-.126.48-.19.756-.19s.528.064.756.19a1.45 1.45 0 01.738 1.287c0 .282-.066.537-.198.765a1.457 1.457 0 01-.54.54c-.228.126-.48.189-.756.189zm6.732 0c-.27 0-.52-.063-.747-.19a1.457 1.457 0 01-.54-.54 1.555 1.555 0 01-.19-.764c0-.282.064-.534.19-.756a1.41 1.41 0 01.53-.531c.229-.126.48-.19.757-.19.276 0 .528.064.756.19a1.45 1.45 0 01.738 1.287c0 .282-.066.537-.198.765a1.457 1.457 0 01-.54.54c-.228.126-.48.189-.756.189zm6.732 0c-.27 0-.52-.063-.747-.19a1.457 1.457 0 01-.54-.54 1.555 1.555 0 01-.19-.764c0-.282.064-.534.19-.756a1.41 1.41 0 01.53-.531c.229-.126.48-.19.757-.19.276 0 .528.064.756.19a1.45 1.45 0 01.738 1.287c0 .282-.066.537-.198.765a1.457 1.457 0 01-.54.54c-.228.126-.48.189-.756.189zM30.546 104.932v6.3h-.738l-3.78-4.698v4.698h-.9v-6.3h.738l3.78 4.698v-4.698h.9zm4.9 6.372a3.553 3.553 0 01-1.719-.414 3.159 3.159 0 01-1.206-1.161 3.2 3.2 0 01-.432-1.647 3.2 3.2 0 01.432-1.647 3.093 3.093 0 011.206-1.152 3.492 3.492 0 011.72-.423c.63 0 1.2.141 1.71.423.51.276.908.66 1.196 1.152.288.486.432 1.035.432 1.647 0 .612-.144 1.164-.432 1.656-.288.486-.687.87-1.197 1.152-.51.276-1.08.414-1.71.414zm0-.801a2.45 2.45 0 001.242-.315c.372-.21.663-.498.873-.864.216-.372.324-.786.324-1.242a2.38 2.38 0 00-.324-1.233 2.26 2.26 0 00-.873-.873 2.45 2.45 0 00-1.242-.315 2.55 2.55 0 00-1.26.315c-.372.21-.666.501-.882.873-.21.366-.315.777-.315 1.233 0 .456.105.87.315 1.242.216.366.51.654.882.864.378.21.798.315 1.26.315zm10.727.729l-.01-4.59-2.276 3.825h-.414l-2.277-3.798v4.563h-.864v-6.3h.738l2.628 4.428 2.592-4.428h.738l.009 6.3h-.864zm7.498-.783v.783h-4.572v-6.3h4.446v.783h-3.546v1.935h3.159v.765h-3.16v2.034h3.673zm7.033.855c-.63 0-1.2-.138-1.71-.414a3.13 3.13 0 01-1.188-1.152 3.217 3.217 0 01-.432-1.656c0-.612.144-1.161.432-1.647a3.03 3.03 0 011.197-1.152 3.474 3.474 0 011.71-.423c.492 0 .942.084 1.35.252a2.72 2.72 0 011.044.729l-.585.567c-.474-.498-1.065-.747-1.773-.747-.468 0-.891.105-1.27.315-.377.21-.674.501-.89.873-.21.366-.315.777-.315 1.233 0 .456.105.87.315 1.242.216.366.513.654.89.864.379.21.802.315 1.27.315.702 0 1.293-.252 1.773-.756l.585.567c-.288.324-.64.57-1.053.738a3.513 3.513 0 01-1.35.252zm6.57 0a3.553 3.553 0 01-1.719-.414 3.159 3.159 0 01-1.206-1.161 3.2 3.2 0 01-.432-1.647 3.2 3.2 0 01.432-1.647 3.093 3.093 0 011.206-1.152 3.492 3.492 0 011.719-.423c.63 0 1.2.141 1.71.423.51.276.909.66 1.197 1.152.288.486.432 1.035.432 1.647 0 .612-.144 1.164-.432 1.656-.288.486-.687.87-1.197 1.152-.51.276-1.08.414-1.71.414zm0-.801a2.45 2.45 0 001.242-.315c.372-.21.663-.498.873-.864.216-.372.324-.786.324-1.242a2.38 2.38 0 00-.324-1.233 2.26 2.26 0 00-.873-.873 2.45 2.45 0 00-1.242-.315 2.55 2.55 0 00-1.26.315c-.372.21-.666.501-.882.873-.21.366-.315.777-.315 1.233 0 .456.105.87.315 1.242.216.366.51.654.882.864.378.21.798.315 1.26.315zm10.727.729l-.01-4.59-2.276 3.825H75.3l-2.277-3.798v4.563h-.864v-6.3h.738l2.628 4.428 2.592-4.428h.738l.009 6.3H78zm5.382-6.3c.816 0 1.458.195 1.926.585.468.39.702.927.702 1.611 0 .684-.234 1.221-.702 1.611-.468.39-1.11.585-1.926.585h-1.557v1.908h-.9v-6.3h2.457zm-.027 3.609c.57 0 1.005-.12 1.305-.36.3-.246.45-.597.45-1.053 0-.456-.15-.804-.45-1.044-.3-.246-.735-.369-1.305-.369h-1.53v2.826h1.53zm4.148-3.609h.9v5.517h3.412v.783h-4.312v-6.3zm10.087 5.517v.783H93.02v-6.3h4.446v.783H93.92v1.935h3.16v.765h-3.16v2.034h3.672zm2.88-4.734h-2.16v-.783h5.211v.783h-2.16v5.517h-.891v-5.517zm6.958 5.589a3.553 3.553 0 01-1.719-.414 3.159 3.159 0 01-1.206-1.161 3.2 3.2 0 01-.432-1.647 3.2 3.2 0 01.432-1.647 3.093 3.093 0 011.206-1.152 3.492 3.492 0 011.719-.423c.63 0 1.2.141 1.71.423.51.276.909.66 1.197 1.152.288.486.432 1.035.432 1.647 0 .612-.144 1.164-.432 1.656-.288.486-.687.87-1.197 1.152-.51.276-1.08.414-1.71.414zm0-.801a2.45 2.45 0 001.242-.315c.372-.21.663-.498.873-.864.216-.372.324-.786.324-1.242a2.38 2.38 0 00-.324-1.233 2.26 2.26 0 00-.873-.873 2.45 2.45 0 00-1.242-.315 2.55 2.55 0 00-1.26.315c-.372.21-.666.501-.882.873-.21.366-.315.777-.315 1.233 0 .456.105.87.315 1.242.216.366.51.654.882.864.378.21.798.315 1.26.315zM63.88 73.269c-.27 0-.518-.063-.746-.19a1.457 1.457 0 01-.54-.54 1.555 1.555 0 01-.19-.764c0-.282.064-.534.19-.756a1.41 1.41 0 01.53-.531c.229-.126.48-.19.757-.19.276 0 .528.064.756.19a1.45 1.45 0 01.738 1.287c0 .282-.066.537-.198.765a1.457 1.457 0 01-.54.54c-.228.126-.48.189-.756.189zm6.733 0c-.27 0-.52-.063-.747-.19a1.457 1.457 0 01-.54-.54 1.555 1.555 0 01-.19-.764c0-.282.064-.534.19-.756a1.41 1.41 0 01.53-.531c.229-.126.48-.19.757-.19.276 0 .528.064.756.19a1.45 1.45 0 01.738 1.287c0 .282-.066.537-.198.765a1.457 1.457 0 01-.54.54c-.228.126-.48.189-.756.189zm6.731 0c-.27 0-.519-.063-.747-.19a1.457 1.457 0 01-.54-.54 1.555 1.555 0 01-.189-.764c0-.282.063-.534.19-.756a1.41 1.41 0 01.53-.531c.228-.126.48-.19.756-.19s.528.064.756.19a1.45 1.45 0 01.738 1.287c0 .282-.066.537-.198.765a1.457 1.457 0 01-.54.54c-.228.126-.48.189-.756.189zm6.732 0c-.27 0-.52-.063-.747-.19a1.457 1.457 0 01-.54-.54 1.555 1.555 0 01-.19-.764c0-.282.064-.534.19-.756a1.41 1.41 0 01.53-.531c.229-.126.48-.19.757-.19.276 0 .528.064.756.19a1.45 1.45 0 01.738 1.287c0 .282-.066.537-.198.765a1.457 1.457 0 01-.54.54c-.228.126-.48.189-.756.189zM100.773 73.269c-.27 0-.519-.063-.747-.19a1.455 1.455 0 01-.54-.54 1.555 1.555 0 01-.19-.764c0-.282.063-.534.19-.756.132-.228.308-.405.531-.531.228-.126.48-.19.756-.19s.528.064.756.19a1.45 1.45 0 01.738 1.287c0 .282-.066.537-.198.765a1.457 1.457 0 01-.54.54c-.228.126-.48.189-.756.189zm6.731 0c-.27 0-.519-.063-.747-.19a1.457 1.457 0 01-.54-.54 1.555 1.555 0 01-.189-.764c0-.282.063-.534.189-.756a1.41 1.41 0 01.531-.531c.228-.126.48-.19.756-.19s.528.064.756.19a1.45 1.45 0 01.738 1.287c0 .282-.066.537-.198.765a1.457 1.457 0 01-.54.54c-.228.126-.48.189-.756.189zm6.732 0c-.27 0-.519-.063-.747-.19a1.457 1.457 0 01-.54-.54 1.555 1.555 0 01-.189-.764c0-.282.063-.534.189-.756a1.41 1.41 0 01.531-.531c.228-.126.48-.19.756-.19s.528.064.756.19a1.45 1.45 0 01.738 1.287c0 .282-.066.537-.198.765a1.457 1.457 0 01-.54.54c-.228.126-.48.189-.756.189zm6.731 0c-.27 0-.519-.063-.747-.19a1.457 1.457 0 01-.54-.54 1.555 1.555 0 01-.189-.764c0-.282.063-.534.189-.756a1.41 1.41 0 01.531-.531c.228-.126.48-.19.756-.19s.528.064.756.19a1.45 1.45 0 01.738 1.287c0 .282-.066.537-.198.765a1.457 1.457 0 01-.54.54c-.228.126-.48.189-.756.189zM138.636 73.269c-.27 0-.519-.063-.747-.19a1.457 1.457 0 01-.54-.54 1.555 1.555 0 01-.189-.764c0-.282.063-.534.189-.756a1.41 1.41 0 01.531-.531c.228-.126.48-.19.756-.19s.528.064.756.19a1.45 1.45 0 01.738 1.287c0 .282-.066.537-.198.765a1.457 1.457 0 01-.54.54c-.228.126-.48.189-.756.189zm6.731 0c-.27 0-.519-.063-.747-.19a1.457 1.457 0 01-.54-.54 1.555 1.555 0 01-.189-.764c0-.282.063-.534.189-.756a1.41 1.41 0 01.531-.531c.228-.126.48-.19.756-.19s.528.064.756.19a1.45 1.45 0 01.738 1.287c0 .282-.066.537-.198.765a1.457 1.457 0 01-.54.54c-.228.126-.48.189-.756.189zm6.732 0c-.27 0-.519-.063-.747-.19a1.457 1.457 0 01-.54-.54 1.555 1.555 0 01-.189-.764c0-.282.063-.534.189-.756a1.41 1.41 0 01.531-.531c.228-.126.48-.19.756-.19s.528.064.756.19a1.45 1.45 0 01.738 1.287c0 .282-.066.537-.198.765a1.457 1.457 0 01-.54.54c-.228.126-.48.189-.756.189zm6.732 0c-.27 0-.519-.063-.747-.19a1.457 1.457 0 01-.54-.54 1.555 1.555 0 01-.189-.764c0-.282.063-.534.189-.756a1.41 1.41 0 01.531-.531c.228-.126.48-.19.756-.19s.528.064.756.19a1.45 1.45 0 01.738 1.287c0 .282-.066.537-.198.765a1.457 1.457 0 01-.54.54c-.228.126-.48.189-.756.189z" fill="#fff"/></g><defs><linearGradient id="paint0_linear" x1="250.764" y1="155.793" x2="147.409" y2="-49.483" gradientUnits="userSpaceOnUse"><stop stop-color="#3B6472"/><stop offset="1" stop-color="#46B7BE"/></linearGradient><linearGradient id="paint1_linear" x1="235.859" y1="41.694" x2="116.825" y2="194.468" gradientUnits="userSpaceOnUse"><stop stop-color="#EEE"/><stop offset="1" stop-color="#D8D8D8" stop-opacity="0"/></linearGradient><linearGradient id="paint2_linear" x1="288.278" y1="41.513" x2="169.243" y2="194.287" gradientUnits="userSpaceOnUse"><stop stop-color="#EEE"/><stop offset="1" stop-color="#D8D8D8" stop-opacity="0"/></linearGradient><linearGradient id="paint3_linear" x1="247.438" y1="33.757" x2="118.601" y2="192.409" gradientUnits="userSpaceOnUse"><stop stop-color="#EEE"/><stop offset="1" stop-color="#D8D8D8" stop-opacity="0"/></linearGradient></defs></svg>