<svg width="353" height="69" fill="none" xmlns="http://www.w3.org/2000/svg"><path d="M6.656 49.248l-.712.703.01.009.702-.712zm-5.4-46.512v-1h-1v1h1zm9.144 0h1v-1h-1v1zm3.096 41.112l-.745.667.007.008.738-.675zm18.288-.072l-.737-.676-.008.009.745.667zm3.168-41.04v-1h-1v1h1zm9.144 0h1v-1h-1v1zm-5.472 46.44l-.707-.707.707.707zm-15.912 4.472c-6.894 0-11.954-1.757-15.354-5.112L5.954 49.96c3.896 3.845 9.54 5.688 16.758 5.688v-2zM7.368 48.546c-3.356-3.401-5.112-8.438-5.112-15.282h-2c0 7.172 1.844 12.791 5.688 16.686l1.424-1.404zM2.256 33.264V2.736h-2v30.528h2zm-1-29.528H10.4v-2H1.256v2zm8.144-1v31.032h2V2.736h-2zm0 31.032c0 4.558 1.064 8.195 3.351 10.747l1.49-1.334C12.4 41.125 11.4 38.042 11.4 33.768h-2zm3.358 10.755c2.311 2.526 5.692 3.709 9.954 3.709v-2c-3.898 0-6.661-1.073-8.478-3.059l-1.476 1.35zm9.954 3.709c4.181 0 7.512-1.216 9.817-3.789l-1.49-1.334c-1.823 2.035-4.54 3.123-8.327 3.123v2zm9.81-3.78c2.337-2.551 3.43-6.166 3.43-10.684h-2c0 4.218-1.02 7.275-2.905 9.332l1.474 1.352zm3.43-10.684V2.736h-2v31.032h2zm-1-30.032h9.144v-2h-9.144v2zm8.144-1v30.528h2V2.736h-2zm0 30.528c0 6.79-1.777 11.802-5.18 15.205l1.415 1.414c3.894-3.894 5.765-9.489 5.765-16.619h-2zm-5.18 15.205c-3.401 3.402-8.414 5.179-15.204 5.179v2c7.13 0 12.726-1.871 16.62-5.765l-1.415-1.414zM88.034 54v1h1v-1h-1zm-9 0h-1v1h1v-1zm-1.656-28.152l-.773.635.006.007.006.007.76-.649zm-11.736.648l.717.697.01-.01-.727-.687zM63.12 54v1h1v-1h-1zm-8.928 0h-1v1h1v-1zm0-52.992v-1h-1v1h1zm8.928 0h1v-1h-1v1zm0 21.888h-1v3.444l1.844-2.909-.844-.535zm4.968-4.536l.455.89.008-.004.008-.004-.471-.882zM75 17.704c4.15 0 7.093 1.186 9.02 3.4 1.95 2.241 3.012 5.707 3.012 10.576h2c0-5.115-1.11-9.137-3.504-11.888-2.417-2.778-5.991-4.088-10.528-4.088v2zM87.033 31.68V54h2V31.68h-2zm1 21.32h-9v2h9v-2zm-8 1V32.112h-2V54h2zm0-21.888c0-2.967-.561-5.347-1.895-6.913l-1.522 1.297c.874 1.027 1.417 2.823 1.417 5.616h2zm-1.883-6.899c-1.352-1.645-3.386-2.381-5.885-2.381v2c2.109 0 3.483.608 4.34 1.65l1.545-1.269zm-5.885-2.381c-2.975 0-5.458.976-7.35 2.977l1.452 1.374c1.468-1.551 3.4-2.351 5.898-2.351v-2zm-7.341 2.967c-1.896 1.95-2.803 4.523-2.803 7.609h2c0-2.674.773-4.71 2.237-6.215L64.924 25.8zm-2.803 7.609V54h2V33.408h-2zm1 19.592h-8.928v2h8.928v-2zm-7.928 1V1.008h-2V54h2zm-1-51.992h8.928v-2h-8.928v2zm7.928-1v21.888h2V1.008h-2zm1.844 22.424a11.557 11.557 0 014.58-4.182l-.912-1.78a13.557 13.557 0 00-5.357 4.89l1.69 1.072zm4.596-4.19c1.906-1.02 4.046-1.538 6.44-1.538v-2c-2.694 0-5.162.586-7.384 1.774l.944 1.764zm62.135-1.602h1v-1h-1v1zm0 36.36v1h1v-1h-1zm-8.784 0h-1v1h1v-1zm0-5.616h1v-3.766l-1.869 3.27.869.496zm-4.608 4.608l-.482-.876.482.876zM97.36 17.64v-1h-1v1h1zm8.928 0h1v-1h-1v1zm1.584 27.864l-.764.646.007.008.008.009.749-.663zm13.752-27.864v-1h-1v1h1zm8.072 0V54h2V17.64h-2zm1 35.36h-8.784v2h8.784v-2zm-7.784 1v-5.616h-2V54h2zm-1.869-6.112c-1.066 1.866-2.472 3.266-4.221 4.228l.964 1.752c2.091-1.15 3.756-2.822 4.994-4.988l-1.737-.992zm-4.221 4.228c-1.753.964-3.791 1.46-6.142 1.46v2c2.64 0 5.018-.56 7.106-1.708l-.964-1.752zm-6.142 1.46c-4.254 0-7.27-1.19-9.243-3.409-1.993-2.24-3.077-5.702-3.077-10.567h-2c0 5.12 1.135 9.145 3.582 11.897 2.467 2.773 6.111 4.079 10.738 4.079v-2zM98.36 39.6V17.64h-2V39.6h2zm-1-20.96h8.928v-2H97.36v2zm7.928-1v22.032h2V17.64h-2zm0 22.032c0 2.74.542 4.967 1.82 6.478l1.527-1.292c-.834-.985-1.347-2.646-1.347-5.186h-2zm1.835 6.495c1.354 1.53 3.352 2.209 5.789 2.209v-2c-2.076 0-3.438-.57-4.291-1.535l-1.498 1.326zm5.789 2.209c2.881 0 5.275-.954 7.073-2.916l-1.474-1.352c-1.37 1.494-3.2 2.268-5.599 2.268v2zm7.073-2.916c1.789-1.953 2.639-4.518 2.639-7.588h-2c0 2.69-.735 4.733-2.113 6.236l1.474 1.352zm2.639-7.588V17.64h-2v20.232h2zm-1-19.232h9.072v-2h-9.072v2zm51.962-1h1v-1h-1v1zm0 36.36v1h1v-1h-1zm-8.784 0h-1v1h1v-1zm0-5.616h1v-3.766l-1.868 3.27.868.496zm-4.608 4.608l-.482-.876.482.876zM140.25 17.64v-1h-1v1h1zm8.928 0h1v-1h-1v1zm1.584 27.864l-.763.646.007.008.007.009.749-.663zm13.752-27.864v-1h-1v1h1zm8.072 0V54h2V17.64h-2zm1 35.36h-8.784v2h8.784v-2zm-7.784 1v-5.616h-2V54h2zm-1.868-6.112c-1.066 1.866-2.473 3.266-4.222 4.228l.964 1.752c2.091-1.15 3.757-2.822 4.995-4.988l-1.737-.992zm-4.222 4.228c-1.752.964-3.79 1.46-6.142 1.46v2c2.641 0 5.019-.56 7.106-1.708l-.964-1.752zm-6.142 1.46c-4.253 0-7.269-1.19-9.242-3.409-1.993-2.24-3.078-5.702-3.078-10.567h-2c0 5.12 1.136 9.145 3.583 11.897 2.467 2.773 6.111 4.079 10.737 4.079v-2zM141.25 39.6V17.64h-2V39.6h2zm-1-20.96h8.928v-2h-8.928v2zm7.928-1v22.032h2V17.64h-2zm0 22.032c0 2.74.543 4.967 1.821 6.478l1.527-1.292c-.834-.985-1.348-2.646-1.348-5.186h-2zm1.835 6.495c1.355 1.53 3.353 2.209 5.789 2.209v-2c-2.075 0-3.437-.57-4.291-1.535l-1.498 1.326zm5.789 2.209c2.881 0 5.275-.954 7.073-2.916l-1.474-1.352c-1.37 1.494-3.2 2.268-5.599 2.268v2zm7.073-2.916c1.79-1.953 2.639-4.518 2.639-7.588h-2c0 2.69-.734 4.733-2.113 6.236l1.474 1.352zm2.639-7.588V17.64h-2v20.232h2zm-1-19.232h9.072v-2h-9.072v2zm51.963-1h1v-1h-1v1zm0 36.36v1h1v-1h-1zm-8.784 0h-1v1h1v-1zm0-5.616h1v-3.766l-1.868 3.27.868.496zm-4.608 4.608l-.482-.876.482.876zM183.141 17.64v-1h-1v1h1zm8.928 0h1v-1h-1v1zm1.584 27.864l-.763.646.007.008.007.009.749-.663zm13.752-27.864v-1h-1v1h1zm8.072 0V54h2V17.64h-2zm1 35.36h-8.784v2h8.784v-2zm-7.784 1v-5.616h-2V54h2zm-1.868-6.112c-1.067 1.866-2.473 3.266-4.222 4.228l.964 1.752c2.091-1.15 3.757-2.822 4.994-4.988l-1.736-.992zm-4.222 4.228c-1.753.964-3.791 1.46-6.142 1.46v2c2.641 0 5.019-.56 7.106-1.708l-.964-1.752zm-6.142 1.46c-4.254 0-7.27-1.19-9.243-3.409-1.993-2.24-3.077-5.702-3.077-10.567h-2c0 5.12 1.136 9.145 3.583 11.897 2.467 2.773 6.11 4.079 10.737 4.079v-2zM184.141 39.6V17.64h-2V39.6h2zm-1-20.96h8.928v-2h-8.928v2zm7.928-1v22.032h2V17.64h-2zm0 22.032c0 2.74.542 4.967 1.821 6.478l1.526-1.292c-.833-.985-1.347-2.646-1.347-5.186h-2zm1.835 6.495c1.354 1.53 3.353 2.209 5.789 2.209v-2c-2.076 0-3.437-.57-4.291-1.535l-1.498 1.326zm5.789 2.209c2.881 0 5.275-.954 7.073-2.916l-1.474-1.352c-1.37 1.494-3.2 2.268-5.599 2.268v2zm7.073-2.916c1.79-1.953 2.639-4.518 2.639-7.588h-2c0 2.69-.735 4.733-2.113 6.236l1.474 1.352zm2.639-7.588V17.64h-2v20.232h2zm-1-19.232h9.072v-2h-9.072v2zm18.843-17.632v-1h-1v1h1zm8.928 0h1v-1h-1v1zm0 52.992v1h1v-1h-1zm-8.928 0h-1v1h1v-1zm0-51.992h8.928v-2h-8.928v2zm7.928-1V54h2V1.008h-2zm1 51.992h-8.928v2h8.928v-2zm-7.928 1V1.008h-2V54h2zm17.773-52.992v-1h-1v1h1zm8.928 0h1v-1h-1v1zm0 52.992v1h1v-1h-1zm-8.928 0h-1v1h1v-1zm0-51.992h8.928v-2h-8.928v2zm7.928-1V54h2V1.008h-2zm1 51.992h-8.928v2h8.928v-2zm-7.928 1V1.008h-2V54h2zm17.773-52.992v-1h-1v1h1zm8.928 0h1v-1h-1v1zm0 52.992v1h1v-1h-1zm-8.928 0h-1v1h1v-1zm0-51.992h8.928v-2h-8.928v2zm7.928-1V54h2V1.008h-2zm1 51.992h-8.928v2h8.928v-2zm-7.928 1V1.008h-2V54h2zm16.262-51.336l.006-1-1.09-.007.087 1.087.997-.08zm11.16.072l.997.078.084-1.071-1.075-.007-.006 1zm-2.808 35.856v1h.925l.072-.922-.997-.078zm-5.472 0l-.997.08.074.92h.923v-1zm7.776 5.328h1v-1h-1v1zm0 10.08v1h1v-1h-1zm-10.08 0h-1v1h1v-1zm0-10.08v-1h-1v1h1zm-.583-40.256l11.16.072.013-2-11.16-.072-.013 2zm10.17-1.006l-2.808 35.856 1.994.156 2.808-35.856-1.994-.156zm-1.811 34.934h-5.472v2h5.472v-2zm-4.475.92l-2.88-35.928-1.994.16 2.88 35.928 1.994-.16zm5.779 5.408V54h2V43.92h-2zm1 9.08h-10.08v2h10.08v-2zm-9.08 1V43.92h-2V54h2zm-1-9.08h10.08v-2h-10.08v2zm47.908-26.488h1v-1h-1v1zm0 10.008v1h1v-1h-1zm-10.08 0h-1v1h1v-1zm0-10.008v-1h-1v1h1zm10.08 25.488h1v-1h-1v1zm0 10.08v1h1v-1h-1zm-10.08 0h-1v1h1v-1zm0-10.08v-1h-1v1h1zm9.08-25.488V28.44h2V18.432h-2zm1 9.008h-10.08v2h10.08v-2zm-9.08 1V18.432h-2V28.44h2zm-1-9.008h10.08v-2h-10.08v2zm9.08 24.488V54h2V43.92h-2zm1 9.08h-10.08v2h10.08v-2zm-9.08 1V43.92h-2V54h2zm-1-9.08h10.08v-2h-10.08v2zm16.198 22.184l-.931-.365-.536 1.365h1.467v-1zm5.328-17.136l.98.2.001-.002-.981-.198zm0-30.24l-.98.2.98-.2zm-5.4-16.992v-1h-1.485l.559 1.376.926-.376zm7.2 0l.866-.501-.289-.499h-.577v1zm6.84 15.984l-.966.26.003.01.963-.27zm.072 32.184l.965.264v-.002l-.965-.262zm-6.84 16.2v1h.589l.286-.515-.875-.485zm-6.269.365c2.558-6.515 4.354-12.284 5.377-17.301l-1.96-.4c-.993 4.871-2.748 10.526-5.279 16.97l1.862.731zm5.378-17.303a77.213 77.213 0 001.531-15.318h-2c0 5.022-.497 9.995-1.492 14.922l1.961.396zm1.531-15.318c0-5.202-.51-10.309-1.532-15.32l-1.96.4a74.446 74.446 0 011.492 14.92h2zm-1.532-15.32c-1.024-5.021-2.846-10.746-5.453-17.168l-1.853.752c2.576 6.346 4.354 11.95 5.346 16.816l1.96-.4zm-6.38-15.792h7.2v-2h-7.2v2zm6.335-.499c3.132 5.41 5.374 10.656 6.74 15.742l1.931-.518c-1.418-5.282-3.736-10.691-6.94-16.226l-1.731 1.002zm6.742 15.753c1.415 5.044 2.123 10.328 2.123 15.858h2c0-5.702-.731-11.17-2.197-16.398l-1.926.54zm2.123 15.858c0 5.484-.685 10.748-2.053 15.794l1.93.524c1.417-5.226 2.123-10.666 2.123-16.318h-2zm-2.052 15.792c-1.367 4.995-3.612 10.321-6.75 15.979l1.749.97c3.198-5.766 5.512-11.24 6.93-16.421l-1.929-.528zm-5.876 15.464h-7.2v2h7.2v-2z" fill="#58C4CB"/></svg>