<svg width="446" height="405" fill="none" xmlns="http://www.w3.org/2000/svg"><g clip-path="url(#clip0)"><path d="M443.41 250.525H191.871a2.594 2.594 0 01-2.59-2.592V2.592A2.594 2.594 0 01191.871 0H443.41A2.593 2.593 0 01446 2.592v245.341a2.594 2.594 0 01-2.59 2.592z" fill="#F0F0F0"/><path d="M416.069 22.461H219.212a2.593 2.593 0 00-2.59 2.592v152.619a2.594 2.594 0 002.59 2.591h196.857a2.591 2.591 0 002.59-2.591V25.053a2.594 2.594 0 00-2.59-2.592zM404.844 210.21H230.436a1.44 1.44 0 01-1.439-1.44v-8.062a1.44 1.44 0 011.439-1.44h174.408a1.44 1.44 0 011.439 1.44v8.062a1.44 1.44 0 01-1.439 1.44zM344.406 229.792h-113.97a1.444 1.444 0 01-1.439-1.44v-8.063a1.443 1.443 0 011.439-1.44h113.97a1.442 1.442 0 011.439 1.44v8.063a1.443 1.443 0 01-1.439 1.44z" fill="#fff"/><path d="M366.095 180.263c1.111-4.002 1.974-7.452 2.417-9.894a7.069 7.069 0 00.041-2.281c-1.658-11.8-31.601-21.775-35.44-23.008l-.927-10.274-37.691-4.06-4.771 13.142-13.527 5.074c-.49.181-.955.421-1.387.714a6.7 6.7 0 00-2.757 7.147l5.762 23.44h88.28z" fill="#58C4CB"/><path d="M287.962 180.263h-29.246a3356.025 3356.025 0 012.596-15.982c2.233-13.372 11.972-14.513 13.498-14.605.121-.011.196-.011.201-.011h6.154l6.797 30.598zM366.095 180.263h7.091c-.627-5.765-2.619-9.647-4.633-12.175a14.539 14.539 0 00-5.071-4.221l-.536-.231-6.233 16.627h9.382z" fill="#58C4CB"/><path d="M311.868 124.242c14.988 0 27.138-12.156 27.138-27.152s-12.15-27.153-27.138-27.153c-14.988 0-27.138 12.157-27.138 27.153 0 14.996 12.15 27.152 27.138 27.152z" fill="#A0616A"/><path d="M293.653 83.861c2.81 3.327 7.563 4.265 11.949 4.646 8.907.782 21.857-.486 30.561-2.496.625 6.024-1.071 12.52 2.474 17.476a81.209 81.209 0 002.881-18.392c.107-2.668.065-5.428-1.018-7.877-1.083-2.45-3.447-4.528-6.168-4.55a15.453 15.453 0 016.896-2.948l-8.617-4.333 2.213-2.273-15.6-.955 4.518-2.872a97.927 97.927 0 00-20.534-.646c-3.179.234-6.503.682-9.078 2.525-2.576 1.844-4.064 5.506-2.465 8.212a11.917 11.917 0 00-9.081 7.21c-1.148 2.912-1.043 6.147-.689 9.251a65.559 65.559 0 003.436 14.547" fill="#2F2E41"/><path d="M254.555 405H3.017a2.593 2.593 0 01-2.59-2.592V157.067a2.596 2.596 0 012.59-2.592h251.538a2.594 2.594 0 012.591 2.592v245.341a2.594 2.594 0 01-2.591 2.592z" fill="#E4E4E4"/><path d="M227.214 176.937H30.358a2.592 2.592 0 00-2.59 2.591v152.619a2.596 2.596 0 002.59 2.591h196.856a2.594 2.594 0 002.591-2.591V179.528a2.594 2.594 0 00-2.591-2.591zM215.99 364.686H41.582a1.443 1.443 0 01-1.44-1.44v-8.063a1.443 1.443 0 011.44-1.44H215.99a1.443 1.443 0 011.439 1.44v8.063a1.442 1.442 0 01-1.439 1.44zM155.551 384.267H41.581a1.443 1.443 0 01-1.439-1.44v-8.063a1.443 1.443 0 011.44-1.44H155.55a1.444 1.444 0 011.44 1.44v8.063a1.448 1.448 0 01-.422 1.018c-.27.269-.636.421-1.018.422z" fill="#fff"/><path d="M148.155 334.739h-39.619l2.47-37.078 14.292 3.3 13.901-5.35.368-.139.023-.011a.206.206 0 01.012.035c.218.881 4.581 18.36 8.553 39.243z" fill="#58C4CB"/><path d="M172.031 303.714l-3.701 31.024h-33.39l4.259-39.127.04-.381.328.242.034.023 8.237 6.013 24.193 2.206zM114.396 334.738H84.493l-.431-24.424 22.005-7.303 4.939-5.35s1.56 16.097 3.39 37.077z" fill="#2F2E41"/><path d="M186.427 334.739h-24.78l1.589-22.225 8.795-8.8s6.959 14.605 14.396 31.025zM91.545 334.738H78.472c.058-7.118.093-12.036.093-13.424a12.97 12.97 0 015.497-11.001l6.602 2.2.88 22.225zM89.505 259.495a34.836 34.836 0 0117.08-29.864c11.019-6.508 24.314-6.39 36.474.322 8.664 4.784 15.713 16.82 15.713 26.83v29.21H89.505v-26.498z" fill="#2F2E41"/><path d="M134.768 282.206c12.124-6.632 16.579-21.841 9.952-33.972-6.628-12.131-21.829-16.589-33.953-9.958-12.124 6.631-16.58 21.841-9.953 33.972 6.628 12.131 21.829 16.589 33.954 9.958z" fill="#FFB8B8"/><path d="M96.677 260.478c-.19-.219-.634-.732 2.452-24.491l.099-.388h.279c15.642-7.7 31.512-7.894 47.173-.579a3.083 3.083 0 011.747 2.495c1.828 22.322 1.386 22.809 1.197 23.017a3.067 3.067 0 01-2.261 1.001h-6.939l-.146-.263a71.6 71.6 0 00-3.915-6.443 57.138 57.138 0 00-1.599 6.3l-.085.406H98.987a3.056 3.056 0 01-2.31-1.055z" fill="#2F2E41"/></g><defs><clipPath id="clip0"><path fill="#fff" d="M0 0h446v405H0z"/></clipPath></defs></svg>