<svg width="378" height="504" fill="none" xmlns="http://www.w3.org/2000/svg"><rect x="154.511" y="293.387" width="18.394" height="18.394" rx="2" fill="#58C4CB"/><path d="M169.501 299.387l-1.41-1.42-6.59 6.59-2.58-2.57-1.42 1.41 4 3.99 8-8z" fill="#fff"/><path d="M250.593 277.752c-.098 0-.159-.003-.18-.004l-11.666.001v-1.722h11.708c.271.01 5.801.166 10.897-6.024 7.594-9.226 13.83-32.066.414-88.479-18.039-75.855-2.993-142.87 4.312-168.16a8.41 8.41 0 00-1.361-7.378 8.393 8.393 0 00-6.708-3.344H83.786a8.417 8.417 0 00-6.794 3.462c-3.095 4.263-7.342 12.451-10 27.257l-1.693-.304C68.015 17.929 72.4 9.5 75.601 5.092A10.153 10.153 0 0183.786.92H258.01a10.098 10.098 0 018.083 4.03 10.124 10.124 0 011.639 8.891c-7.268 25.16-22.236 91.827-4.291 167.284 13.604 57.207 7.064 80.541-.818 90.043-5.199 6.266-10.927 6.584-12.029 6.584z" fill="#E6E6E6"/><path d="M219.323 309.022c-.098 0-.159-.003-.18-.004l-11.666.001v-1.722h11.708c.272.009 5.801.166 10.897-6.024 7.594-9.226 13.83-32.066.414-88.479-18.039-75.855-2.994-142.87 4.312-168.16a8.41 8.41 0 00-1.361-7.378 8.393 8.393 0 00-6.708-3.344H52.516a8.417 8.417 0 00-6.794 3.462c-3.095 4.263-7.342 12.451-10 27.257l-1.693-.304c2.716-15.128 7.101-23.557 10.302-27.965a10.152 10.152 0 018.185-4.172H226.74a10.098 10.098 0 018.083 4.03 10.124 10.124 0 011.639 8.891c-7.268 25.16-22.236 91.827-4.291 167.285 13.604 57.206 7.064 80.54-.818 90.042-5.199 6.266-10.927 6.584-12.029 6.584z" fill="#CCC"/><path d="M188.022 340.292c-.098 0-.159-.003-.181-.004l-171.793.001a10.125 10.125 0 01-8.386-4.435 10.12 10.12 0 01-1.027-9.429c6.233-15.569 14.626-52.92.802-128.16-16.323-88.844-1.71-120.952 5.331-130.633a10.164 10.164 0 018.198-4.172h174.483a10.126 10.126 0 018.095 4.03 10.125 10.125 0 011.641 8.892c-7.279 25.16-22.269 91.826-4.297 167.284 13.624 57.206 7.075 80.54-.819 90.042-5.207 6.267-10.943 6.584-12.047 6.584zM20.966 65.182a8.439 8.439 0 00-6.804 3.462c-6.91 9.502-21.233 41.122-5.03 129.31 13.205 71.876 6.8 109.883-.898 129.111a8.252 8.252 0 00.842 7.805 8.415 8.415 0 006.972 3.697h171.835c.272.013 5.811.167 10.914-6.024 7.605-9.226 13.851-32.066.415-88.479-18.067-75.855-2.998-142.869 4.318-168.16a8.397 8.397 0 00-8.081-10.722H20.966z" fill="#3F3D56"/><path d="M165.132 141.635H28.926a6.833 6.833 0 01-4.846-2.02 6.922 6.922 0 01-2.007-4.878 6.92 6.92 0 012.007-4.877 6.83 6.83 0 014.846-2.021h136.206c1.818 0 3.561.727 4.846 2.021a6.92 6.92 0 012.007 4.877c0 1.83-.722 3.584-2.007 4.878a6.832 6.832 0 01-4.846 2.02z" fill="#CFCCE0"/><path d="M165.132 170.146H28.926a6.833 6.833 0 01-4.846-2.02 6.922 6.922 0 01-2.007-4.878 6.92 6.92 0 012.007-4.877 6.83 6.83 0 014.846-2.021h136.206c1.818 0 3.561.727 4.846 2.021a6.92 6.92 0 012.007 4.877c0 1.83-.722 3.584-2.007 4.878a6.832 6.832 0 01-4.846 2.02zM165.132 199.577H28.926a6.83 6.83 0 01-4.846-2.021 6.92 6.92 0 01-2.007-4.877c0-1.83.722-3.584 2.007-4.878a6.833 6.833 0 014.846-2.02h136.206c1.818 0 3.561.727 4.846 2.02a6.922 6.922 0 012.007 4.878 6.92 6.92 0 01-2.007 4.877 6.829 6.829 0 01-4.846 2.021zM176.127 229.007H39.085a6.892 6.892 0 01-6.895-6.898 6.9 6.9 0 016.895-6.897h137.042a6.9 6.9 0 014.875 11.775 6.891 6.891 0 01-4.875 2.02zM176.127 258.438H39.085a6.896 6.896 0 01-4.876-11.775 6.893 6.893 0 014.876-2.021h137.042a6.899 6.899 0 010 13.796zM144.883 304.423H99.759c-.602 0-1.18-.242-1.605-.673a2.314 2.314 0 01-.665-1.626c0-.61.24-1.195.665-1.626a2.256 2.256 0 011.605-.673h45.124c.602 0 1.179.242 1.605.673.426.431.665 1.016.665 1.626 0 .61-.239 1.195-.665 1.626a2.256 2.256 0 01-1.605.673z" fill="#CCC"/><path d="M93.376 112.204h-64.43a6.858 6.858 0 01-4.86-2.02 6.912 6.912 0 010-9.755 6.86 6.86 0 014.86-2.02h64.43a6.86 6.86 0 014.86 2.02 6.912 6.912 0 012.012 4.878 6.911 6.911 0 01-2.013 4.877 6.858 6.858 0 01-4.86 2.02z" fill="#CFCCE0"/><path d="M173.671 306.514a2.134 2.134 0 01-.671-2.271 2.134 2.134 0 011.83-1.496 35.01 35.01 0 0113.781 1.418l45.374 14.064a4.672 4.672 0 011.606.873c.474.393.865.877 1.152 1.422a4.713 4.713 0 01-1.953 6.348 4.67 4.67 0 01-3.567.335l-45.374-14.065a35.106 35.106 0 01-12.178-6.628z" fill="#3F3D56"/><path d="M361.462 365.296a9.177 9.177 0 01-3.249-2.315 9.3 9.3 0 01-2.296-7.478 9.286 9.286 0 011.384-3.759l-7.812-41.158 19.91-1.564 1.202 40.258a9.315 9.315 0 013.528 5.572 9.366 9.366 0 01-1.036 6.526 9.256 9.256 0 01-5.076 4.186 9.169 9.169 0 01-6.555-.268z" fill="#B48481"/><path d="M348.29 343.683l-20.536-94.69a14.873 14.873 0 012.089-11.291 15.155 15.155 0 019.542-6.521 15.274 15.274 0 0111.405 2.069 14.996 14.996 0 016.587 9.447l20.537 94.688c.216 1 .022 2.044-.539 2.903a3.9 3.9 0 01-2.452 1.678l-22.006 4.678a3.91 3.91 0 01-4.024-1.58 3.825 3.825 0 01-.603-1.381z" fill="#CFCCE0"/><path d="M314.537 493.883h-10.592l-5.04-41.387 15.635.001-.003 41.386z" fill="#B48481"/><path d="M296.982 490.204h20.317v12.876H284.19c0-1.691.331-3.365.973-4.927a12.892 12.892 0 012.773-4.177 12.804 12.804 0 014.151-2.792 12.72 12.72 0 014.895-.98z" fill="#2F2E41"/><path d="M350.406 492.964h-10.592l-5.04-41.387 15.635.001-.003 41.386z" fill="#B48481"/><path d="M331.931 489.285h20.317v12.876h-33.109a12.903 12.903 0 013.746-9.105 12.785 12.785 0 014.151-2.791 12.72 12.72 0 014.895-.98zM302.405 485.642a3.847 3.847 0 01-1.385-2.625l-12.216-134.382a3.854 3.854 0 01.945-2.896 3.867 3.867 0 012.752-1.307l61.264-2.298a3.852 3.852 0 012.87 1.126 3.848 3.848 0 011.129 2.87l-4.897 133.865a3.866 3.866 0 01-3.506 3.7l-12.353 1.123a3.87 3.87 0 01-2.854-.908 3.86 3.86 0 01-1.343-2.677l-5.669-85.042a1.23 1.23 0 00-1.282-1.2h-.005a1.231 1.231 0 00-1.28 1.21l-5.073 85.615a3.839 3.839 0 01-3.466 3.61l-10.791 1.079a3.82 3.82 0 01-2.84-.863z" fill="#2F2E41"/><path d="M325.577 210.613c11.682 0 21.153-9.47 21.153-21.153 0-11.683-9.471-21.153-21.153-21.153-11.683 0-21.154 9.47-21.154 21.153 0 11.683 9.471 21.153 21.154 21.153z" fill="#B48481"/><path d="M285.186 349.089a3.852 3.852 0 01-.903-3.17c3.889-23.744 1.697-58.645-.827-83.743a38.224 38.224 0 013.188-19.468 38.033 38.033 0 0112.459-15.252l11.003-9.472a3.912 3.912 0 012.623-.932l27.335.784a3.839 3.839 0 012.619 1.135l4.224 9.394.044.032a37.934 37.934 0 0111.753 14.293 38.103 38.103 0 013.615 18.177l-4.024 83.511a3.902 3.902 0 01-1.152 2.57 3.877 3.877 0 01-2.577 1.118l-66.349 2.341a3.83 3.83 0 01-1.722-.343 3.842 3.842 0 01-1.309-.975z" fill="#CFCCE0"/><path d="M205.098 314.454a9.594 9.594 0 01.767-3.998 9.402 9.402 0 012.349-3.291 9.136 9.136 0 013.489-1.965 9 9 0 013.975-.271l34.106-24.418 9.574 17.95-35.999 17.869a9.473 9.473 0 01-3.606 5.613 9.085 9.085 0 01-6.339 1.747 9.169 9.169 0 01-5.874-3.001 9.577 9.577 0 01-2.442-6.235z" fill="#B48481"/><path d="M233.717 318.174a3.904 3.904 0 01-2.556-1.537l-13.355-18.046a3.86 3.86 0 01.838-5.417l79.074-57.567a15.284 15.284 0 0116.863-.739 15.148 15.148 0 014.372 3.97 15.015 15.015 0 012.508 5.327 14.94 14.94 0 01.261 5.873 14.988 14.988 0 01-2.024 5.526 15.107 15.107 0 01-4.003 4.336l-79.074 57.567a3.901 3.901 0 01-2.904.707z" fill="#CFCCE0"/><path d="M326.777 208.52c2.799-3.439 2.492-8.677.246-12.501s-6.059-6.458-9.982-8.515c-3.923-2.057-8.09-3.675-11.782-6.124-3.692-2.45-3.531-12.819-4.514-17.146l2.344.783c-.901-1.155-1.19-4.569-2.091-5.725 2.649.262 4.687 2.783 7.336 3.046l-1.529-4.113c9.085-.561 14.733 5.766 23.819 5.204 4.501-.278 9.389-.454 13.09 2.13 3.215 2.245 4.843 6.131 5.911 9.91 2.293 8.114 2.65 17.203-1.311 24.643-3.961 7.44-13.091 12.454-21.067 9.767l-.47-1.359z" fill="#2F2E41"/></svg>