<svg width="474" height="385" fill="none" xmlns="http://www.w3.org/2000/svg"><path d="M9.16 290.064H3.592c.043.864.256 1.504.64 1.92.395.405.976.608 1.744.608.885 0 1.707-.288 2.464-.864l.576 1.376c-.384.309-.859.56-1.424.752a5.435 5.435 0 01-1.696.272c-1.323 0-2.363-.373-3.12-1.12-.757-.747-1.136-1.771-1.136-3.072 0-.821.165-1.552.496-2.192.33-.64.795-1.136 1.392-1.488.597-.363 1.275-.544 2.032-.544 1.11 0 1.984.363 2.624 1.088.65.715.976 1.701.976 2.96v.304zm-3.552-2.912c-.533 0-.97.16-1.312.48-.33.309-.544.763-.64 1.36h3.76c-.064-.608-.25-1.067-.56-1.376-.299-.309-.715-.464-1.248-.464zm8.206 6.976c-1.462 0-2.624-.341-3.488-1.024l.56-1.408c.864.64 1.85.96 2.96.96.48 0 .848-.08 1.104-.24.266-.16.4-.384.4-.672a.685.685 0 00-.272-.576c-.182-.149-.491-.277-.928-.384l-1.344-.304c-1.472-.32-2.208-1.072-2.208-2.256 0-.491.138-.923.416-1.296.277-.384.666-.683 1.168-.896.501-.213 1.082-.32 1.744-.32.576 0 1.13.091 1.664.272a4.252 4.252 0 011.408.752l-.592 1.36c-.811-.597-1.643-.896-2.496-.896-.459 0-.816.085-1.072.256a.803.803 0 00-.384.704c0 .235.074.421.224.56.16.139.426.256.8.352l1.376.304c.8.181 1.381.464 1.744.848.373.373.56.864.56 1.472 0 .747-.299 1.339-.896 1.776-.598.437-1.414.656-2.448.656zm8.72 0c-.843 0-1.574-.171-2.193-.512a3.49 3.49 0 01-1.424-1.44c-.33-.629-.496-1.365-.496-2.208 0-.843.17-1.584.512-2.224a3.728 3.728 0 011.472-1.488c.64-.363 1.376-.544 2.208-.544.576 0 1.13.091 1.664.272.544.181.976.432 1.296.752l-.56 1.408a3.747 3.747 0 00-1.088-.624 3.126 3.126 0 00-1.136-.224c-.725 0-1.29.229-1.696.688-.405.448-.608 1.099-.608 1.952s.198 1.504.592 1.952c.406.448.976.672 1.712.672.374 0 .752-.075 1.136-.224a4.05 4.05 0 001.088-.64l.56 1.408c-.341.32-.784.571-1.328.752a5.387 5.387 0 01-1.712.272zm8.046 0c-.821 0-1.546-.171-2.176-.512a3.573 3.573 0 01-1.44-1.456c-.33-.64-.496-1.387-.496-2.24 0-.853.166-1.595.496-2.224a3.547 3.547 0 011.44-1.472c.63-.341 1.355-.512 2.176-.512.81 0 1.526.171 2.144.512a3.447 3.447 0 011.424 1.472c.341.629.512 1.371.512 2.224 0 .853-.17 1.6-.512 2.24a3.47 3.47 0 01-1.424 1.456c-.618.341-1.333.512-2.144.512zm-.016-1.568c.683 0 1.2-.219 1.552-.656.363-.448.544-1.109.544-1.984 0-.864-.181-1.52-.544-1.968-.363-.459-.875-.688-1.536-.688-.672 0-1.19.229-1.552.688-.362.448-.544 1.104-.544 1.968 0 .875.176 1.536.528 1.984.363.437.88.656 1.552.656zm5.82-10.336h1.985V294h-1.984v-11.776zm8.797 3.488c1.93 0 2.896 1.109 2.896 3.328V294h-2v-4.864c0-.64-.123-1.104-.368-1.392-.246-.299-.624-.448-1.136-.448-.608 0-1.099.197-1.472.592-.374.384-.56.896-.56 1.536V294h-1.984v-11.776h1.984v4.864a2.795 2.795 0 011.104-1.008c.458-.245.97-.368 1.536-.368zm12.744.208V294h-1.968v-1.296c-.245.448-.597.8-1.056 1.056-.458.245-.981.368-1.568.368-.704 0-1.328-.171-1.872-.512-.544-.341-.965-.827-1.264-1.456-.298-.629-.448-1.36-.448-2.192 0-.832.15-1.568.448-2.208.31-.651.736-1.152 1.28-1.504a3.267 3.267 0 011.856-.544c.587 0 1.11.128 1.568.384.459.245.811.592 1.056 1.04v-1.216h1.968zm-4.048 6.64c.662 0 1.174-.229 1.536-.688.363-.459.544-1.104.544-1.936 0-.853-.181-1.509-.544-1.968-.362-.459-.88-.688-1.552-.688-.661 0-1.178.24-1.552.72-.362.469-.544 1.125-.544 1.968 0 .832.182 1.472.544 1.92.374.448.896.672 1.568.672zm18.345-6.64V294h-1.968v-1.296c-.245.448-.597.8-1.056 1.056-.458.245-.981.368-1.568.368-.704 0-1.328-.171-1.872-.512-.544-.341-.965-.827-1.264-1.456-.298-.629-.448-1.36-.448-2.192 0-.832.15-1.568.448-2.208.31-.651.736-1.152 1.28-1.504a3.266 3.266 0 011.856-.544c.587 0 1.11.128 1.568.384.459.245.81.592 1.056 1.04v-1.216h1.968zm-4.048 6.64c.662 0 1.174-.229 1.536-.688.363-.459.544-1.104.544-1.936 0-.853-.181-1.509-.544-1.968-.362-.459-.88-.688-1.552-.688-.661 0-1.178.24-1.552.72-.362.469-.544 1.125-.544 1.968 0 .832.182 1.472.544 1.92.374.448.896.672 1.568.672zm18.345-6.64V294h-1.968v-1.296c-.245.448-.597.8-1.056 1.056-.459.245-.981.368-1.568.368-.704 0-1.328-.171-1.872-.512-.544-.341-.965-.827-1.264-1.456-.298-.629-.448-1.36-.448-2.192 0-.832.15-1.568.448-2.208.31-.651.736-1.152 1.28-1.504a3.267 3.267 0 011.856-.544c.587 0 1.11.128 1.568.384.459.245.81.592 1.056 1.04v-1.216h1.968zm-4.048 6.64c.661 0 1.173-.229 1.536-.688.363-.459.544-1.104.544-1.936 0-.853-.181-1.509-.544-1.968-.363-.459-.88-.688-1.552-.688-.661 0-1.178.24-1.552.72-.363.469-.544 1.125-.544 1.968 0 .832.181 1.472.544 1.92.373.448.896.672 1.568.672zm9.186 1.568c-1.461 0-2.624-.341-3.488-1.024l.56-1.408c.864.64 1.851.96 2.96.96.48 0 .848-.08 1.104-.24.267-.16.4-.384.4-.672a.685.685 0 00-.272-.576c-.181-.149-.49-.277-.928-.384l-1.344-.304c-1.472-.32-2.208-1.072-2.208-2.256 0-.491.139-.923.416-1.296.278-.384.667-.683 1.168-.896.502-.213 1.083-.32 1.744-.32.576 0 1.131.091 1.664.272a4.254 4.254 0 011.408.752l-.592 1.36c-.81-.597-1.642-.896-2.496-.896-.458 0-.816.085-1.072.256a.803.803 0 00-.384.704c0 .235.075.421.224.56.16.139.427.256.8.352l1.376.304c.8.181 1.382.464 1.744.848.374.373.56.864.56 1.472 0 .747-.298 1.339-.896 1.776-.597.437-1.413.656-2.448.656zm8.016 0c-1.461 0-2.624-.341-3.488-1.024l.56-1.408c.864.64 1.85.96 2.96.96.48 0 .848-.08 1.104-.24.267-.16.4-.384.4-.672a.686.686 0 00-.272-.576c-.181-.149-.491-.277-.928-.384l-1.344-.304c-1.472-.32-2.208-1.072-2.208-2.256 0-.491.139-.923.416-1.296.277-.384.667-.683 1.168-.896.501-.213 1.083-.32 1.744-.32.576 0 1.131.091 1.664.272a4.253 4.253 0 011.408.752l-.592 1.36c-.811-.597-1.643-.896-2.496-.896-.459 0-.816.085-1.072.256a.803.803 0 00-.384.704c0 .235.075.421.224.56.16.139.427.256.8.352l1.376.304c.8.181 1.381.464 1.744.848.373.373.56.864.56 1.472 0 .747-.299 1.339-.896 1.776-.597.437-1.413.656-2.448.656zm5.056-8.208h1.984V294h-1.984v-8.08zm2.096-3.664v1.968h-2.224v-1.968h2.224zm6.7 3.456c1.93 0 2.896 1.109 2.896 3.328V294h-2v-4.864c0-.64-.123-1.104-.368-1.392-.246-.299-.624-.448-1.136-.448-.608 0-1.099.197-1.472.592-.374.384-.56.896-.56 1.536V294h-1.984v-5.792c0-.853-.043-1.616-.128-2.288h1.872l.144 1.328c.277-.491.65-.869 1.12-1.136.48-.267 1.018-.4 1.616-.4zm12.744.208V294h-1.968v-1.296c-.245.448-.597.8-1.056 1.056-.459.245-.981.368-1.568.368-.704 0-1.328-.171-1.872-.512-.544-.341-.965-.827-1.264-1.456-.299-.629-.448-1.36-.448-2.192 0-.832.149-1.568.448-2.208.309-.651.736-1.152 1.28-1.504a3.267 3.267 0 011.856-.544c.587 0 1.109.128 1.568.384a2.54 2.54 0 011.056 1.04v-1.216h1.968zm-4.048 6.64c.661 0 1.173-.229 1.536-.688.363-.459.544-1.104.544-1.936 0-.853-.181-1.509-.544-1.968-.363-.459-.88-.688-1.552-.688-.661 0-1.179.24-1.552.72-.363.469-.544 1.125-.544 1.968 0 .832.181 1.472.544 1.92.373.448.896.672 1.568.672zm8.77-5.136v3.616c0 .949.443 1.424 1.328 1.424.246 0 .512-.043.8-.128v1.584c-.352.128-.778.192-1.28.192-.917 0-1.621-.256-2.112-.768-.49-.512-.736-1.248-.736-2.208v-3.712h-1.552v-1.504h1.552v-1.968l2-.672v2.64h2.144v1.504h-2.144zm10.879-1.504V294h-1.952v-1.248a2.625 2.625 0 01-1.024 1.024c-.427.235-.917.352-1.472.352-1.973 0-2.96-1.109-2.96-3.328v-4.88h1.984v4.896c0 .587.117 1.019.352 1.296.245.277.619.416 1.12.416.587 0 1.056-.192 1.408-.576.352-.384.528-.896.528-1.536v-4.496h2.016zm6.523-.192c.309 0 .576.043.8.128l-.016 1.824a2.772 2.772 0 00-1.056-.208c-.683 0-1.205.197-1.568.592-.352.395-.528.917-.528 1.568V294h-1.984v-5.792c0-.853-.043-1.616-.128-2.288h1.872l.16 1.424c.203-.523.523-.923.96-1.2a2.72 2.72 0 011.488-.416zm9.485.192V294h-1.967v-1.296c-.246.448-.598.8-1.056 1.056-.459.245-.982.368-1.569.368-.703 0-1.327-.171-1.872-.512-.543-.341-.965-.827-1.263-1.456-.299-.629-.448-1.36-.448-2.192 0-.832.149-1.568.448-2.208.309-.651.736-1.152 1.28-1.504a3.264 3.264 0 011.855-.544c.587 0 1.11.128 1.569.384.458.245.81.592 1.056 1.04v-1.216h1.967zm-4.047 6.64c.661 0 1.173-.229 1.536-.688.362-.459.544-1.104.544-1.936 0-.853-.182-1.509-.544-1.968-.363-.459-.88-.688-1.552-.688-.662 0-1.179.24-1.552.72-.363.469-.544 1.125-.544 1.968 0 .832.181 1.472.544 1.92.373.448.896.672 1.568.672zm18.488-6.64c-.096.64-.144 1.403-.144 2.288v9.248h-2v-4.688a2.472 2.472 0 01-1.056 1.008c-.448.235-.96.352-1.536.352-.704 0-1.328-.171-1.872-.512-.544-.341-.965-.827-1.264-1.456-.298-.629-.448-1.36-.448-2.192 0-.832.15-1.568.448-2.208.31-.651.736-1.152 1.28-1.504a3.267 3.267 0 011.856-.544c.619 0 1.168.139 1.648.416.48.277.832.667 1.056 1.168l.144-1.376h1.888zm-4.192 6.64c.662 0 1.174-.229 1.536-.688.363-.459.544-1.104.544-1.936 0-.853-.181-1.509-.544-1.968-.362-.459-.88-.688-1.552-.688-.661 0-1.178.24-1.552.72-.362.469-.544 1.125-.544 1.968 0 .832.182 1.472.544 1.92.374.448.896.672 1.568.672zm13.587-6.64V294h-1.952v-1.248a2.631 2.631 0 01-1.024 1.024c-.427.235-.918.352-1.472.352-1.974 0-2.96-1.109-2.96-3.328v-4.88h1.984v4.896c0 .587.117 1.019.352 1.296.245.277.618.416 1.12.416.586 0 1.056-.192 1.408-.576.352-.384.528-.896.528-1.536v-4.496h2.016zm9.243 4.144h-5.568c.043.864.256 1.504.64 1.92.395.405.976.608 1.744.608.885 0 1.707-.288 2.464-.864l.576 1.376c-.384.309-.859.56-1.424.752a5.436 5.436 0 01-1.696.272c-1.323 0-2.363-.373-3.12-1.12-.757-.747-1.136-1.771-1.136-3.072 0-.821.165-1.552.496-2.192a3.612 3.612 0 011.392-1.488c.597-.363 1.275-.544 2.032-.544 1.109 0 1.984.363 2.624 1.088.651.715.976 1.701.976 2.96v.304zm-3.552-2.912c-.533 0-.971.16-1.312.48-.331.309-.544.763-.64 1.36h3.76c-.064-.608-.251-1.067-.56-1.376-.299-.309-.715-.464-1.248-.464zm19.172-1.44c.917 0 1.6.277 2.048.832.448.544.672 1.376.672 2.496V294h-2v-4.896c0-.64-.107-1.099-.32-1.376-.203-.288-.544-.432-1.024-.432-.555 0-.992.197-1.312.592-.309.384-.464.917-.464 1.6V294h-2v-4.896c0-.629-.112-1.088-.336-1.376-.213-.288-.555-.432-1.024-.432-.555 0-.992.197-1.312.592-.32.384-.48.917-.48 1.6V294h-1.984v-5.792c0-.853-.043-1.616-.128-2.288h1.872l.144 1.28c.235-.48.571-.848 1.008-1.104.448-.256.96-.384 1.536-.384 1.237 0 2.043.512 2.416 1.536.256-.48.619-.853 1.088-1.12a3.143 3.143 0 011.6-.416zm12.583.208V294h-1.968v-1.296c-.246.448-.598.8-1.056 1.056-.459.245-.982.368-1.568.368-.704 0-1.328-.171-1.872-.512-.544-.341-.966-.827-1.264-1.456-.299-.629-.448-1.36-.448-2.192 0-.832.149-1.568.448-2.208.309-.651.736-1.152 1.28-1.504a3.265 3.265 0 011.856-.544c.586 0 1.109.128 1.568.384.458.245.81.592 1.056 1.04v-1.216h1.968zm-4.048 6.64c.661 0 1.173-.229 1.536-.688.362-.459.544-1.104.544-1.936 0-.853-.182-1.509-.544-1.968-.363-.459-.88-.688-1.552-.688-.662 0-1.179.24-1.552.72-.363.469-.544 1.125-.544 1.968 0 .832.181 1.472.544 1.92.373.448.896.672 1.568.672zm6.226-6.64h1.984V294h-1.984v-8.08zm2.096-3.664v1.968h-2.224v-1.968h2.224zm5.036 11.872c-1.461 0-2.624-.341-3.488-1.024l.56-1.408c.864.64 1.851.96 2.96.96.48 0 .848-.08 1.104-.24.267-.16.4-.384.4-.672a.686.686 0 00-.272-.576c-.181-.149-.491-.277-.928-.384l-1.344-.304c-1.472-.32-2.208-1.072-2.208-2.256 0-.491.139-.923.416-1.296.277-.384.667-.683 1.168-.896.501-.213 1.083-.32 1.744-.32.576 0 1.131.091 1.664.272a4.253 4.253 0 011.408.752l-.592 1.36c-.811-.597-1.643-.896-2.496-.896-.459 0-.816.085-1.072.256a.803.803 0 00-.384.704c0 .235.075.421.224.56.16.139.427.256.8.352l1.376.304c.8.181 1.381.464 1.744.848.373.373.56.864.56 1.472 0 .747-.299 1.339-.896 1.776-.597.437-1.413.656-2.448.656zm12.406 0c-1.461 0-2.624-.341-3.488-1.024l.56-1.408c.864.64 1.851.96 2.96.96.48 0 .848-.08 1.104-.24.267-.16.4-.384.4-.672a.686.686 0 00-.272-.576c-.181-.149-.491-.277-.928-.384l-1.344-.304c-1.472-.32-2.208-1.072-2.208-2.256 0-.491.139-.923.416-1.296.277-.384.667-.683 1.168-.896.501-.213 1.083-.32 1.744-.32.576 0 1.131.091 1.664.272a4.253 4.253 0 011.408.752l-.592 1.36c-.811-.597-1.643-.896-2.496-.896-.459 0-.816.085-1.072.256a.803.803 0 00-.384.704c0 .235.075.421.224.56.16.139.427.256.8.352l1.376.304c.8.181 1.381.464 1.744.848.373.373.56.864.56 1.472 0 .747-.299 1.339-.896 1.776-.597.437-1.413.656-2.448.656zm12.128-4.064h-5.568c.042.864.256 1.504.64 1.92.394.405.976.608 1.744.608.885 0 1.706-.288 2.464-.864l.576 1.376c-.384.309-.859.56-1.424.752a5.436 5.436 0 01-1.696.272c-1.323 0-2.363-.373-3.12-1.12-.758-.747-1.136-1.771-1.136-3.072 0-.821.165-1.552.496-2.192a3.6 3.6 0 011.392-1.488c.597-.363 1.274-.544 2.032-.544 1.109 0 1.984.363 2.624 1.088.65.715.976 1.701.976 2.96v.304zm-3.552-2.912c-.534 0-.971.16-1.312.48-.331.309-.544.763-.64 1.36h3.76c-.064-.608-.251-1.067-.56-1.376-.299-.309-.715-.464-1.248-.464zM9.816 304.92V313H7.848v-1.296c-.245.448-.597.8-1.056 1.056-.459.245-.981.368-1.568.368-.704 0-1.328-.171-1.872-.512-.544-.341-.965-.827-1.264-1.456-.299-.629-.448-1.36-.448-2.192 0-.832.15-1.568.448-2.208.31-.651.736-1.152 1.28-1.504a3.267 3.267 0 011.856-.544c.587 0 1.11.128 1.568.384.459.245.81.592 1.056 1.04v-1.216h1.968zm-4.048 6.64c.661 0 1.173-.229 1.536-.688.363-.459.544-1.104.544-1.936 0-.853-.181-1.509-.544-1.968-.363-.459-.88-.688-1.552-.688-.661 0-1.179.24-1.552.72-.363.469-.544 1.125-.544 1.968 0 .832.181 1.472.544 1.92.373.448.896.672 1.568.672zm13.954-10.336V313h-1.968v-1.296c-.245.448-.597.8-1.056 1.056-.458.245-.981.368-1.568.368a3.341 3.341 0 01-1.856-.528c-.544-.352-.97-.848-1.28-1.488-.298-.651-.448-1.392-.448-2.224 0-.832.15-1.563.448-2.192.299-.629.72-1.115 1.264-1.456.544-.352 1.168-.528 1.872-.528.576 0 1.088.123 1.536.368.459.235.81.571 1.056 1.008v-4.864h2zm-4.064 10.336c.662 0 1.174-.229 1.536-.688.374-.459.56-1.109.56-1.952s-.181-1.493-.544-1.952c-.362-.459-.874-.688-1.536-.688-.672 0-1.194.229-1.568.688-.362.448-.544 1.088-.544 1.92 0 .843.182 1.499.544 1.968.374.469.89.704 1.552.704zm13.315-2.496h-5.569c.043.864.256 1.504.64 1.92.395.405.976.608 1.744.608.886 0 1.707-.288 2.465-.864l.575 1.376c-.383.309-.858.56-1.424.752a5.435 5.435 0 01-1.695.272c-1.323 0-2.363-.373-3.12-1.12-.758-.747-1.136-1.771-1.136-3.072 0-.821.165-1.552.495-2.192.331-.64.795-1.136 1.392-1.488.598-.363 1.275-.544 2.032-.544 1.11 0 1.985.363 2.625 1.088.65.715.976 1.701.976 2.96v.304zm-3.552-2.912c-.534 0-.971.16-1.313.48-.33.309-.544.763-.64 1.36h3.76c-.064-.608-.25-1.067-.56-1.376-.298-.309-.714-.464-1.247-.464zm13.117-1.232c-.096.64-.144 1.403-.144 2.288v9.248h-2v-4.688a2.476 2.476 0 01-1.056 1.008c-.448.235-.96.352-1.536.352-.704 0-1.328-.171-1.872-.512-.544-.341-.965-.827-1.264-1.456-.299-.629-.448-1.36-.448-2.192 0-.832.15-1.568.448-2.208.31-.651.736-1.152 1.28-1.504a3.267 3.267 0 011.856-.544c.619 0 1.168.139 1.648.416.48.277.832.667 1.056 1.168l.144-1.376h1.888zm-4.192 6.64c.662 0 1.174-.229 1.536-.688.363-.459.544-1.104.544-1.936 0-.853-.181-1.509-.544-1.968-.362-.459-.88-.688-1.552-.688-.661 0-1.178.24-1.552.72-.362.469-.544 1.125-.544 1.968 0 .832.181 1.472.544 1.92.373.448.896.672 1.568.672zm13.586-6.64V313H45.98v-1.248a2.627 2.627 0 01-1.024 1.024c-.426.235-.917.352-1.472.352-1.973 0-2.96-1.109-2.96-3.328v-4.88h1.984v4.896c0 .587.118 1.019.352 1.296.246.277.619.416 1.12.416.587 0 1.056-.192 1.408-.576.352-.384.528-.896.528-1.536v-4.496h2.016zm9.9 0V313h-1.968v-1.296c-.246.448-.598.8-1.056 1.056-.459.245-.982.368-1.568.368-.704 0-1.328-.171-1.872-.512-.544-.341-.966-.827-1.264-1.456-.299-.629-.448-1.36-.448-2.192 0-.832.149-1.568.448-2.208.309-.651.736-1.152 1.28-1.504a3.267 3.267 0 011.856-.544c.586 0 1.109.128 1.568.384.458.245.81.592 1.056 1.04v-1.216h1.968zm-4.048 6.64c.661 0 1.173-.229 1.536-.688.362-.459.544-1.104.544-1.936 0-.853-.182-1.509-.544-1.968-.363-.459-.88-.688-1.552-.688-.662 0-1.179.24-1.552.72-.363.469-.544 1.125-.544 1.968 0 .832.181 1.472.544 1.92.373.448.896.672 1.568.672zm18.345-6.64V313H70.16v-1.296c-.245.448-.597.8-1.055 1.056-.46.245-.982.368-1.569.368-.704 0-1.328-.171-1.871-.512-.544-.341-.966-.827-1.265-1.456-.298-.629-.448-1.36-.448-2.192 0-.832.15-1.568.448-2.208.31-.651.736-1.152 1.28-1.504a3.267 3.267 0 011.856-.544c.587 0 1.11.128 1.569.384.458.245.81.592 1.055 1.04v-1.216h1.969zm-4.049 6.64c.662 0 1.174-.229 1.537-.688.362-.459.543-1.104.543-1.936 0-.853-.18-1.509-.543-1.968-.363-.459-.88-.688-1.553-.688-.66 0-1.178.24-1.551.72-.363.469-.544 1.125-.544 1.968 0 .832.18 1.472.544 1.92.373.448.895.672 1.567.672zm9.89 1.568c-.82 0-1.546-.171-2.175-.512a3.572 3.572 0 01-1.44-1.456c-.33-.64-.496-1.387-.496-2.24 0-.853.165-1.595.496-2.224a3.546 3.546 0 011.44-1.472c.63-.341 1.354-.512 2.176-.512.81 0 1.525.171 2.144.512a3.448 3.448 0 011.424 1.472c.341.629.512 1.371.512 2.224 0 .853-.17 1.6-.512 2.24a3.472 3.472 0 01-1.424 1.456c-.619.341-1.334.512-2.144.512zm-.015-1.568c.682 0 1.2-.219 1.552-.656.362-.448.544-1.109.544-1.984 0-.864-.182-1.52-.544-1.968-.363-.459-.875-.688-1.536-.688-.672 0-1.19.229-1.552.688-.363.448-.544 1.104-.544 1.968 0 .875.176 1.536.528 1.984.362.437.88.656 1.552.656zm13.171 1.568c-1.461 0-2.624-.341-3.488-1.024l.56-1.408c.864.64 1.85.96 2.96.96.48 0 .848-.08 1.104-.24.267-.16.4-.384.4-.672a.685.685 0 00-.272-.576c-.181-.149-.49-.277-.928-.384l-1.344-.304c-1.472-.32-2.208-1.072-2.208-2.256 0-.491.139-.923.416-1.296.278-.384.667-.683 1.168-.896.502-.213 1.083-.32 1.744-.32.576 0 1.13.091 1.664.272a4.252 4.252 0 011.408.752l-.592 1.36c-.81-.597-1.642-.896-2.496-.896-.459 0-.816.085-1.072.256a.803.803 0 00-.384.704c0 .235.075.421.224.56.16.139.427.256.8.352l1.376.304c.8.181 1.382.464 1.744.848.374.373.56.864.56 1.472 0 .747-.299 1.339-.896 1.776-.597.437-1.413.656-2.448.656zm12.128-4.064h-5.568c.042.864.256 1.504.64 1.92.394.405.976.608 1.744.608.885 0 1.706-.288 2.464-.864l.576 1.376c-.384.309-.859.56-1.424.752a5.437 5.437 0 01-1.696.272c-1.323 0-2.363-.373-3.12-1.12-.758-.747-1.136-1.771-1.136-3.072 0-.821.165-1.552.496-2.192.33-.64.794-1.136 1.392-1.488.597-.363 1.274-.544 2.032-.544 1.109 0 1.984.363 2.624 1.088.65.715.976 1.701.976 2.96v.304zm-3.552-2.912c-.534 0-.97.16-1.312.48-.33.309-.544.763-.64 1.36h3.76c-.064-.608-.251-1.067-.56-1.376-.299-.309-.715-.464-1.248-.464zm12.605-1.232V313h-1.952v-1.248a2.625 2.625 0 01-1.024 1.024c-.426.235-.917.352-1.472.352-1.973 0-2.96-1.109-2.96-3.328v-4.88h1.984v4.896c0 .587.118 1.019.352 1.296.246.277.619.416 1.12.416.587 0 1.056-.192 1.408-.576.352-.384.528-.896.528-1.536v-4.496h2.016zm14.29-3.696V313h-1.968v-1.296c-.245.448-.597.8-1.056 1.056-.458.245-.981.368-1.568.368a3.342 3.342 0 01-1.856-.528c-.544-.352-.97-.848-1.28-1.488-.298-.651-.448-1.392-.448-2.224 0-.832.15-1.563.448-2.192.299-.629.72-1.115 1.264-1.456.544-.352 1.168-.528 1.872-.528.576 0 1.088.123 1.536.368.459.235.811.571 1.056 1.008v-4.864h2zm-4.064 10.336c.662 0 1.174-.229 1.536-.688.374-.459.56-1.109.56-1.952s-.181-1.493-.544-1.952c-.362-.459-.874-.688-1.536-.688-.672 0-1.194.229-1.568.688-.362.448-.544 1.088-.544 1.92 0 .843.182 1.499.544 1.968.374.469.891.704 1.552.704zm6.243-6.64h1.984V313h-1.984v-8.08zm2.096-3.664v1.968h-2.224v-1.968h2.224zm9.803 3.664V313h-1.968v-1.296c-.245.448-.597.8-1.056 1.056-.458.245-.981.368-1.568.368-.704 0-1.328-.171-1.872-.512-.544-.341-.965-.827-1.264-1.456-.298-.629-.448-1.36-.448-2.192 0-.832.15-1.568.448-2.208.31-.651.736-1.152 1.28-1.504a3.267 3.267 0 011.856-.544c.587 0 1.11.128 1.568.384a2.54 2.54 0 011.056 1.04v-1.216h1.968zm-4.048 6.64c.662 0 1.174-.229 1.536-.688.363-.459.544-1.104.544-1.936 0-.853-.181-1.509-.544-1.968-.362-.459-.88-.688-1.552-.688-.661 0-1.178.24-1.552.72-.362.469-.544 1.125-.544 1.968 0 .832.182 1.472.544 1.92.374.448.896.672 1.568.672zm6.243-3.68h4.816v1.6h-4.816v-1.6zm14.962-2.96V313h-1.968v-1.296c-.246.448-.598.8-1.056 1.056-.459.245-.982.368-1.568.368-.704 0-1.328-.171-1.872-.512-.544-.341-.966-.827-1.264-1.456-.299-.629-.448-1.36-.448-2.192 0-.832.149-1.568.448-2.208.309-.651.736-1.152 1.28-1.504a3.265 3.265 0 011.856-.544c.586 0 1.109.128 1.568.384.458.245.81.592 1.056 1.04v-1.216h1.968zm-4.048 6.64c.661 0 1.173-.229 1.536-.688.362-.459.544-1.104.544-1.936 0-.853-.182-1.509-.544-1.968-.363-.459-.88-.688-1.552-.688-.662 0-1.179.24-1.552.72-.363.469-.544 1.125-.544 1.968 0 .832.181 1.472.544 1.92.373.448.896.672 1.568.672zm6.242-3.68h4.816v1.6h-4.816v-1.6zm14.962-6.656V313h-1.968v-1.296c-.245.448-.597.8-1.056 1.056-.459.245-.981.368-1.568.368a3.342 3.342 0 01-1.856-.528c-.544-.352-.971-.848-1.28-1.488-.299-.651-.448-1.392-.448-2.224 0-.832.149-1.563.448-2.192.299-.629.72-1.115 1.264-1.456.544-.352 1.168-.528 1.872-.528.576 0 1.088.123 1.536.368.459.235.811.571 1.056 1.008v-4.864h2zm-4.064 10.336c.661 0 1.173-.229 1.536-.688.373-.459.56-1.109.56-1.952s-.181-1.493-.544-1.952c-.363-.459-.875-.688-1.536-.688-.672 0-1.195.229-1.568.688-.363.448-.544 1.088-.544 1.92 0 .843.181 1.499.544 1.968.373.469.891.704 1.552.704zm6.242-6.64h1.984V313h-1.984v-8.08zm2.096-3.664v1.968h-2.224v-1.968h2.224zm9.804 3.664V313h-1.968v-1.296c-.245.448-.597.8-1.056 1.056-.459.245-.981.368-1.568.368-.704 0-1.328-.171-1.872-.512-.544-.341-.965-.827-1.264-1.456-.299-.629-.448-1.36-.448-2.192 0-.832.149-1.568.448-2.208.309-.651.736-1.152 1.28-1.504a3.267 3.267 0 011.856-.544c.587 0 1.109.128 1.568.384a2.54 2.54 0 011.056 1.04v-1.216h1.968zm-4.048 6.64c.661 0 1.173-.229 1.536-.688.363-.459.544-1.104.544-1.936 0-.853-.181-1.509-.544-1.968-.363-.459-.88-.688-1.552-.688-.661 0-1.179.24-1.552.72-.363.469-.544 1.125-.544 1.968 0 .832.181 1.472.544 1.92.373.448.896.672 1.568.672zM53.416 195.576v1h1v-1h-1zm-19.392 0v-1h-1v1h1zm0 19.392v1h1v-1h-1zm-8.448 0h-1v1h1v-1zm0-19.392h1v-1h-1v1zm-19.392 0h-1v1h1v-1zm0-8.544v-1h-1v1h1zm19.392 0v1h1v-1h-1zm0-19.392v-1h-1v1h1zm8.448 0h1v-1h-1v1zm0 19.392h-1v1h1v-1zm19.392 0h1v-1h-1v1zm0 7.544H34.024v2h19.392v-2zm-20.392 1v19.392h2v-19.392h-2zm1 18.392h-8.448v2h8.448v-2zm-7.448 1v-19.392h-2v19.392h2zm-1-20.392H6.184v2h19.392v-2zm-18.392 1v-8.544h-2v8.544h2zm-1-7.544h19.392v-2H6.184v2zm20.392-1V167.64h-2v19.392h2zm-1-18.392h8.448v-2h-8.448v2zm7.448-1v19.392h2V167.64h-2zm1 20.392h19.392v-2H34.024v2zm18.392-1v8.544h2v-8.544h-2zm-40.52 55.24v-1h-1v1h1zm6.384 14.736h1v-1.339l-1.284.38.284.959zm0 4.752l.342.94.658-.24v-.7h-1zm-10.176-1.728l-.722.692.722-.692zm-2.208-17.76h1v-1h-1v1zm-4.656 0h-1v1h1v-1zm0-4.512v-1h-1v1h1zm4.656 0v1h1v-1h-1zm0-5.904l-.319-.948-.681.229v.719h1zm6-2.016h1v-1.391l-1.319.443.319.948zm0 7.92h-1v1h1v-1zm6.432 0h1v-1h-1v1zm0 4.512v1h1v-1h-1zm-7.432 0v10.848h2v-10.848h-2zm0 10.848c0 1.561.363 2.919 1.265 3.886.914.98 2.218 1.386 3.719 1.386v-2c-1.155 0-1.843-.306-2.257-.75-.426-.457-.727-1.235-.727-2.522h-2zm4.984 5.272c.85 0 1.748-.148 2.684-.425l-.568-1.918c-.792.235-1.495.343-2.116.343v2zm1.4-1.384v4.752h2v-4.752h-2zm.658 3.812c-.916.333-2.073.516-3.498.516v2c1.583 0 2.986-.201 4.182-.636l-.684-1.88zm-3.498.516c-2.563 0-4.382-.71-5.614-1.996l-1.444 1.384c1.712 1.786 4.117 2.612 7.058 2.612v-2zm-5.614-1.996c-1.238-1.292-1.93-3.217-1.93-5.932h-2c0 3.045.78 5.536 2.486 7.316l1.444-1.384zm-1.93-5.932v-11.136h-2v11.136h2zm-1-12.136H1.24v2h4.656v-2zm-3.656 1v-4.512h-2v4.512h2zm-1-3.512h4.656v-2H1.24v2zm5.656-1v-5.904h-2v5.904h2zm-.681-4.956l6-2.016-.637-1.896-6 2.016.636 1.896zm4.681-2.964v7.92h2v-7.92h-2zm1 8.92h6.432v-2h-6.432v2zm5.432-1v4.512h2v-4.512h-2zm1 3.512h-6.432v2h6.432v-2zm19.58-3.704l1 .009.006-.696-.65-.247-.357.934zm-.049 5.472l-.376.926 1.364.554.012-1.471-1-.009zm-7.872 1.152l-.736-.677-.005.006-.005.005.747.666zM28.405 262v1h1v-1h-1zm-5.953 0h-1v1h1v-1zm-.384-24.24v-1h-1.134l.143 1.126.991-.126zm5.616 0l.994-.112-.1-.888h-.894v1zm.48 4.272l-.993.112 1.926.25-.933-.362zm2.88-3.6l-.535-.845.536.845zm4.465-.248c.84 0 1.513.116 2.043.318l.712-1.868c-.813-.31-1.74-.45-2.755-.45v2zm1.4-.625l-.049 5.472 2 .018.048-5.472-2-.018zm1.328 4.555a9.339 9.339 0 00-3.544-.698v2c.956 0 1.885.182 2.791.55l.753-1.852zm-3.544-.698c-2.247 0-4.115.656-5.44 2.099l1.472 1.354c.85-.925 2.118-1.453 3.967-1.453v-2zm-5.45 2.11c-1.256 1.407-1.838 3.232-1.838 5.37h2c0-1.766.473-3.077 1.33-4.038l-1.493-1.332zm-1.838 5.37V262h2v-13.104h-2zm1 12.104H22.45v2h5.953v-2zm-4.953 1v-17.376h-2V262h2zm0-17.376c0-2.592-.129-4.923-.392-6.99l-1.983.252c.249 1.965.375 4.21.375 6.738h2zm-1.384-5.864h5.616v-2h-5.616v2zm4.623-.888l.48 4.272 1.987-.224-.48-4.272-1.987.224zm2.406 4.522c.537-1.387 1.367-2.41 2.483-3.117l-1.071-1.69c-1.508.957-2.598 2.334-3.277 4.083l1.865.724zm2.483-3.117c1.14-.724 2.44-1.093 3.928-1.093v-2c-1.84 0-3.515.463-4.999 1.403l1.071 1.69zm32.385-1.517h1v-1h-1v1zm0 24.24v1h1v-1h-1zm-5.904 0h-1v1h1v-1zm0-3.888h1l-1.878-.48.878.48zm-3.168 3.168l.471.882.008-.004.008-.005-.487-.873zm-10.32-.432l-.532.847.532-.847zm-3.792-4.368l.903-.429-.903.429zm0-13.2l-.904-.429-.003.006.907.423zm3.84-4.512l.543.84.011-.008-.554-.832zm10.272-.48l-.488.873.008.005.008.004.472-.882zm3.168 3.12l-.878.48 1.878-.48h-1zm0-3.648v-1h-1v1h1zm-1.632 17.856l.784.62-.784-.62zm0-11.712l-.785.62.785-.62zm-9.312.096l-.79-.614-.002.003.792.611zm0 11.664l-.778.629.005.006.004.005.769-.64zm15.848-17.904V262h2v-24.24h-2zm1 23.24H58.06v2h5.904v-2zm-4.904 1v-3.888h-2V262h2zm-1.878-4.368c-.642 1.174-1.561 2.096-2.778 2.775l.975 1.746c1.535-.857 2.729-2.047 3.558-3.561l-1.755-.96zm-2.762 2.766c-1.213.649-2.616.986-4.232.986v2c1.903 0 3.636-.399 5.175-1.222l-.943-1.764zm-4.232.986c-1.943 0-3.627-.469-5.085-1.383l-1.063 1.694c1.807 1.134 3.866 1.689 6.148 1.689v-2zm-5.085-1.383c-1.457-.914-2.598-2.219-3.42-3.95l-1.807.858c.97 2.045 2.357 3.652 4.164 4.786l1.063-1.694zm-3.42-3.95c-.821-1.73-1.247-3.771-1.247-6.147h-2c0 2.616.47 4.959 1.44 7.005l1.807-.858zm-1.247-6.147c0-2.376.426-4.435 1.25-6.201l-1.813-.846c-.967 2.074-1.437 4.431-1.437 7.047h2zm1.247-6.195c.857-1.803 2.02-3.157 3.48-4.101l-1.087-1.68c-1.804 1.168-3.201 2.822-4.2 4.923l1.807.858zm3.491-4.109c1.458-.972 3.118-1.464 5.014-1.464v-2c-2.265 0-4.317.596-6.123 1.8l1.11 1.664zm5.014-1.464c1.61 0 3.006.35 4.216 1.025l.975-1.746c-1.542-.861-3.281-1.279-5.191-1.279v2zm4.232 1.034c1.208.646 2.122 1.548 2.762 2.718l1.755-.96c-.831-1.518-2.03-2.696-3.574-3.522l-.943 1.764zm4.64 2.238v-3.648h-2v3.648h2zm-1-2.648h5.904v-2H58.06v2zm-6.24 19.92c2.244 0 4.088-.794 5.392-2.444l-1.569-1.24c-.872 1.102-2.1 1.684-3.823 1.684v2zm5.392-2.444c1.276-1.614 1.848-3.8 1.848-6.428h-2c0 2.364-.517 4.05-1.417 5.188l1.569 1.24zm1.848-6.428c0-2.685-.569-4.907-1.848-6.524l-1.569 1.24c.897 1.135 1.417 2.849 1.417 5.284h2zm-1.848-6.524c-1.307-1.654-3.17-2.444-5.44-2.444v2c1.761 0 3.003.586 3.871 1.684l1.569-1.24zm-5.44-2.444c-2.262 0-4.118.839-5.446 2.546l1.579 1.228c.912-1.173 2.16-1.774 3.867-1.774v-2zm-5.448 2.549c-1.27 1.643-1.84 3.856-1.84 6.515h2c0-2.397.517-4.12 1.423-5.293l-1.583-1.222zm-1.84 6.515c0 2.626.57 4.803 1.854 6.389l1.555-1.258c-.892-1.102-1.41-2.765-1.41-5.131h-2zm1.863 6.4c1.34 1.608 3.21 2.376 5.473 2.376v-2c-1.77 0-3.036-.576-3.936-1.656l-1.537 1.28zM93.058 262v1h1v-1h-1zm-6 0h-1v1h1v-1zm-1.104-18.768l-.772.635.005.007.006.006.761-.648zm-7.824.432l.717.697.01-.01-.727-.687zM76.45 262v1h1v-1h-1zm-5.952 0h-1v1h1v-1zm-.384-24.24v-1H68.98l.143 1.126.992-.126zm5.616 0l.995-.108-.097-.892h-.898v1zm.432 3.984l-.994.108.335 3.09 1.53-2.706-.87-.492zm3.36-3.408l-.485-.874-.009.005.494.869zm4.848-.2c2.703 0 4.56.77 5.762 2.152 1.226 1.409 1.926 3.627 1.926 6.832h2c0-3.451-.747-6.225-2.417-8.144-1.693-1.946-4.181-2.84-7.27-2.84v2zm7.688 8.984V262h2v-14.88h-2zm1 13.88h-6v2h6v-2zm-5 1v-14.592h-2V262h2zm0-14.592c0-2.007-.377-3.691-1.342-4.824l-1.523 1.296c.506.595.865 1.695.865 3.528h2zm-1.33-4.811c-.984-1.197-2.45-1.709-4.182-1.709v2c1.341 0 2.147.384 2.636.979l1.545-1.27zm-4.182-1.709c-2.062 0-3.81.68-5.142 2.089l1.453 1.374c.907-.959 2.104-1.463 3.69-1.463v-2zm-5.133 2.079c-1.336 1.374-1.963 3.179-1.963 5.305h2c0-1.714.493-2.981 1.397-3.911l-1.434-1.394zm-1.963 5.305V262h2v-13.728h-2zm1 12.728h-5.952v2h5.952v-2zm-4.952 1v-17.376h-2V262h2zm0-17.376c0-2.592-.13-4.923-.392-6.99l-1.984.252c.25 1.965.376 4.21.376 6.738h2zm-1.384-5.864h5.616v-2h-5.616v2zm4.622-.892l.432 3.984 1.988-.216-.431-3.984-1.989.216zm2.297 4.368c.747-1.322 1.74-2.324 2.983-3.031l-.988-1.738c-1.572.893-2.82 2.163-3.736 3.785l1.74.984zm2.975-3.026c1.279-.71 2.725-1.074 4.362-1.074v-2c-1.946 0-3.732.436-5.333 1.326l.971 1.748zm43.028-1.45l.989.148.172-1.148h-1.161v1zm-.432 34.608v1h1v-1h-1zm-6 0h-1v1h1v-1zm0-14.064h1v-3.827l-1.872 3.338.872.489zm-3.168 3.024l-.455-.89-.009.004.464.886zm-10.224-.48l-.531.847.531-.847zm-3.792-4.368l.904-.429-.904.429zm0-13.2l-.903-.429-.003.006.906.423zm3.84-4.512l.544.84.011-.008-.555-.832zm10.512-.384l-.5.866.5-.866zm3.168 3.504l-.913.408 1.52 3.401.388-3.705-.995-.104zm.432-4.128v-1h-.901l-.093.896.994.104zm-2.304 17.856l.785.62-.785-.62zm0-11.712l-.784.62.784-.62zm-9.312.096l-.789-.614-.002.003.791.611zm0 11.664l-.777.629.004.006.005.005.768-.64zm16.291-18.052c-.297 1.983-.443 4.323-.443 7.012h2c0-2.623.143-4.859.421-6.716l-1.978-.296zm-.443 7.012v27.744h2v-27.744h-2zm1 26.744h-6v2h6v-2zm-5 1v-14.064h-2v14.064h2zm-1.872-14.553c-.637 1.135-1.545 2.006-2.751 2.623l.911 1.78c1.546-.791 2.749-1.936 3.584-3.425l-1.744-.978zm-2.76 2.627c-1.182.619-2.555.942-4.144.942v2c1.867 0 3.566-.381 5.072-1.17l-.928-1.772zm-4.144.942c-1.942 0-3.627-.469-5.084-1.383l-1.063 1.694c1.806 1.134 3.866 1.689 6.147 1.689v-2zm-5.084-1.383c-1.457-.914-2.599-2.219-3.42-3.95l-1.807.858c.97 2.045 2.357 3.652 4.164 4.786l1.063-1.694zm-3.42-3.95c-.822-1.73-1.248-3.771-1.248-6.147h-2c0 2.616.47 4.959 1.44 7.005l1.808-.858zm-1.248-6.147c0-2.376.426-4.435 1.25-6.201l-1.812-.846c-.968 2.074-1.438 4.431-1.438 7.047h2zm1.247-6.195c.858-1.803 2.021-3.157 3.481-4.101l-1.087-1.68c-1.805 1.168-3.201 2.822-4.2 4.923l1.806.858zm3.492-4.109c1.458-.972 3.118-1.464 5.013-1.464v-2c-2.265 0-4.316.596-6.122 1.8l1.109 1.664zm5.013-1.464c1.701 0 3.173.38 4.444 1.114l1.001-1.732c-1.61-.93-3.434-1.382-5.445-1.382v2zm4.444 1.114c1.259.728 2.17 1.736 2.755 3.046l1.826-.816a8.483 8.483 0 00-3.58-3.962l-1.001 1.732zm4.663 2.742l.432-4.128-1.989-.208-.432 4.128 1.989.208zm-.563-3.232h5.664v-2h-5.664v2zm-6.912 19.92c2.245 0 4.089-.794 5.393-2.444l-1.569-1.24c-.872 1.102-2.1 1.684-3.824 1.684v2zm5.393-2.444c1.276-1.614 1.847-3.8 1.847-6.428h-2c0 2.364-.516 4.05-1.416 5.188l1.569 1.24zm1.847-6.428c0-2.685-.568-4.907-1.847-6.524l-1.569 1.24c.897 1.135 1.416 2.849 1.416 5.284h2zm-1.847-6.524c-1.308-1.654-3.17-2.444-5.441-2.444v2c1.762 0 3.003.586 3.872 1.684l1.569-1.24zm-5.441-2.444c-2.261 0-4.117.839-5.445 2.546l1.579 1.228c.912-1.173 2.16-1.774 3.866-1.774v-2zm-5.447 2.549c-1.27 1.643-1.841 3.856-1.841 6.515h2c0-2.397.517-4.12 1.424-5.293l-1.583-1.222zm-1.841 6.515c0 2.626.571 4.803 1.855 6.389l1.554-1.258c-.891-1.102-1.409-2.765-1.409-5.131h-2zm1.864 6.4c1.34 1.608 3.21 2.376 5.472 2.376v-2c-1.769 0-3.036-.576-3.936-1.656l-1.536 1.28zm46.231-18.544h1v-1h-1v1zm0 24.24v1h1v-1h-1zm-5.856 0h-1v1h1v-1zm0-3.744h1v-3.766l-1.868 3.27.868.496zm-3.072 3.072l-.482-.876.482.876zm-13.296-23.568v-1h-1v1h1zm5.952 0h1v-1h-1v1zm1.056 18.576l-.763.646.007.008.007.009.749-.663zm9.168-18.576v-1h-1v1h1zm5.048 0V262h2v-24.24h-2zm1 23.24h-5.856v2h5.856v-2zm-4.856 1v-3.744h-2V262h2zm-1.868-4.24c-.683 1.194-1.577 2.082-2.686 2.692l.964 1.752c1.451-.798 2.605-1.958 3.458-3.452l-1.736-.992zm-2.686 2.692c-1.113.612-2.415.932-3.934.932v2c1.809 0 3.451-.384 4.898-1.18l-.964-1.752zm-3.934.932c-2.774 0-4.68-.774-5.913-2.161-1.253-1.408-1.967-3.622-1.967-6.823h-2c0 3.455.766 6.233 2.473 8.153 1.727 1.941 4.261 2.831 7.407 2.831v-2zm-7.88-8.984v-14.64h-2v14.64h2zm-1-13.64h5.952v-2h-5.952v2zm4.952-1v14.688h2V237.76h-2zm0 14.688c0 1.86.366 3.439 1.293 4.534l1.526-1.292c-.481-.569-.819-1.582-.819-3.242h-2zm1.307 4.551c.986 1.115 2.425 1.585 4.109 1.585v-2c-1.324 0-2.125-.362-2.611-.911l-1.498 1.326zm4.109 1.585c2.001 0 3.691-.666 4.961-2.052l-1.474-1.352c-.842.918-1.968 1.404-3.487 1.404v2zm4.961-2.052c1.262-1.377 1.847-3.174 1.847-5.284h-2c0 1.73-.471 3.005-1.321 3.932l1.474 1.352zm1.847-5.284V237.76h-2v13.488h2zm-1-12.488h6.048v-2h-6.048v2zm12.562-1v-1h-1v1h1zm5.952 0h1v-1h-1v1zm0 24.24v1h1v-1h-1zm-5.952 0h-1v1h1v-1zm6.288-35.232h1v-1h-1v1zm0 5.904v1h1v-1h-1zm-6.672 0h-1v1h1v-1zm0-5.904v-1h-1v1h1zm.384 11.992h5.952v-2h-5.952v2zm4.952-1V262h2v-24.24h-2zm1 23.24h-5.952v2h5.952v-2zm-4.952 1v-24.24h-2V262h2zm4.288-35.232v5.904h2v-5.904h-2zm1 4.904h-6.672v2h6.672v-2zm-5.672 1v-5.904h-2v5.904h2zm-1-4.904h6.672v-2h-6.672v2zm12.899-1.096v-1h-1v1h1zm5.952 0h1v-1h-1v1zm0 35.328v1h1v-1h-1zm-5.952 0h-1v1h1v-1zm0-34.328h5.952v-2h-5.952v2zm4.952-1V262h2v-35.328h-2zm1 34.328h-5.952v2h5.952v-2zm-4.952 1v-35.328h-2V262h2zm11.516-24.24v-1h-1v1h1zm5.952 0h1v-1h-1v1zm0 24.24v1h1v-1h-1zm-5.952 0h-1v1h1v-1zm6.288-35.232h1v-1h-1v1zm0 5.904v1h1v-1h-1zm-6.672 0h-1v1h1v-1zm0-5.904v-1h-1v1h1zm.384 11.992h5.952v-2h-5.952v2zm4.952-1V262h2v-24.24h-2zm1 23.24h-5.952v2h5.952v-2zm-4.952 1v-24.24h-2V262h2zm4.288-35.232v5.904h2v-5.904h-2zm1 4.904h-6.672v2h6.672v-2zm-5.672 1v-5.904h-2v5.904h2zm-1-4.904h6.672v-2h-6.672v2zm36.084-1.096h1v-1h-1v1zm0 35.328v1h1v-1h-1zm-5.904 0h-1v1h1v-1zm0-3.888h1l-1.877-.48.877.48zm-3.168 3.168l.471.882.008-.004.008-.005-.487-.873zm-10.272-.48l-.544.84.544-.84zm-3.84-4.464l-.909.417.004.009.004.009.901-.435zm0-13.248l-.904-.429.904.429zm3.792-4.368l.531.847.012-.007-.543-.84zm10.224-.48l-.481.877.013.007.012.006.456-.89zm3.168 3.024l-.873.489 1.873 3.338v-3.827h-1zm0-14.592v-1h-1v1h1zm-1.584 28.944l-.776-.631-.004.005-.005.006.785.62zm.048-11.712l-.785.62.785-.62zm-9.312 0l-.776-.631-.002.002.778.629zm0 11.664l-.792.612.009.011.783-.623zm15.848-28.896V262h2v-35.328h-2zm1 34.328h-5.904v2h5.904v-2zm-4.904 1v-3.888h-2V262h2zm-1.877-4.368c-.643 1.174-1.562 2.096-2.779 2.775l.975 1.746c1.535-.857 2.729-2.047 3.558-3.561l-1.754-.96zm-2.763 2.766c-1.213.649-2.616.986-4.232.986v2c1.903 0 3.636-.399 5.175-1.222l-.943-1.764zm-4.232.986c-1.902 0-3.566-.48-5.025-1.424l-1.087 1.68c1.806 1.168 3.853 1.744 6.112 1.744v-2zm-5.025-1.424c-1.464-.947-2.627-2.288-3.483-4.059l-1.801.87c1 2.069 2.397 3.704 4.197 4.869l1.087-1.68zm-3.475-4.041c-.826-1.802-1.252-3.88-1.252-6.255h-2c0 2.617.47 4.987 1.435 7.089l1.817-.834zm-1.252-6.255c0-2.376.426-4.417 1.247-6.147l-1.807-.858c-.971 2.046-1.44 4.389-1.44 7.005h2zm1.247-6.147c.822-1.731 1.963-3.036 3.42-3.95l-1.063-1.694c-1.807 1.134-3.193 2.741-4.164 4.786l1.807.858zm3.432-3.957c1.456-.943 3.136-1.424 5.073-1.424v-2c-2.288 0-4.352.575-6.16 1.744l1.087 1.68zm5.073-1.424c1.582 0 2.949.336 4.127.981l.961-1.754c-1.509-.827-3.214-1.227-5.088-1.227v2zm4.152.994c1.206.617 2.115 1.488 2.751 2.623l1.745-.978c-.835-1.489-2.039-2.634-3.585-3.425l-.911 1.78zm4.624 2.134v-14.592h-2v14.592h2zm-1-13.592h6v-2h-6v2zm-6.192 31.008c2.244 0 4.088-.794 5.392-2.444l-1.569-1.24c-.872 1.102-2.1 1.684-3.823 1.684v2zm5.383-2.433c1.316-1.616 1.905-3.825 1.905-6.487h-2c0 2.394-.532 4.089-1.456 5.225l1.551 1.262zm1.905-6.487c0-2.657-.57-4.861-1.848-6.476l-1.569 1.24c.899 1.136 1.417 2.837 1.417 5.236h2zm-1.848-6.476c-1.304-1.65-3.148-2.444-5.392-2.444v2c1.723 0 2.951.582 3.823 1.684l1.569-1.24zm-5.392-2.444c-2.271 0-4.143.79-5.48 2.433l1.551 1.262c.903-1.109 2.167-1.695 3.929-1.695v-2zm-5.482 2.435c-1.284 1.586-1.854 3.763-1.854 6.389h2c0-2.366.517-4.029 1.409-5.131l-1.555-1.258zm-1.854 6.389c0 2.659.57 4.872 1.84 6.515l1.583-1.222c-.906-1.173-1.423-2.896-1.423-5.293h-2zm1.849 6.527c1.331 1.673 3.186 2.489 5.439 2.489v-2c-1.715 0-2.965-.592-3.874-1.735l-1.565 1.246zm47.349-18.431h1v-1h-1v1zm0 24.24v1h1v-1h-1zm-5.904 0h-1v1h1v-1zm0-3.888h1l-1.877-.48.877.48zm-3.168 3.168l.472.882.008-.004.008-.005-.488-.873zm-10.32-.432l-.531.847.531-.847zm-3.792-4.368l.904-.429-.904.429zm0-13.2l-.903-.429-.003.006.906.423zm3.84-4.512l.544.84.011-.008-.555-.832zm10.272-.48l-.487.873.008.005.008.004.471-.882zm3.168 3.12l-.877.48 1.877-.48h-1zm0-3.648v-1h-1v1h1zm-1.632 17.856l.785.62-.785-.62zm0-11.712l-.784.62.784-.62zm-9.312.096l-.789-.614-.002.003.791.611zm0 11.664l-.777.629.005.006.004.005.768-.64zm15.848-17.904V262h2v-24.24h-2zm1 23.24h-5.904v2h5.904v-2zm-4.904 1v-3.888h-2V262h2zm-1.877-4.368c-.643 1.174-1.561 2.096-2.778 2.775l.975 1.746c1.535-.857 2.728-2.047 3.557-3.561l-1.754-.96zm-2.762 2.766c-1.213.649-2.616.986-4.233.986v2c1.904 0 3.637-.399 5.176-1.222l-.943-1.764zm-4.233.986c-1.942 0-3.627-.469-5.084-1.383l-1.063 1.694c1.806 1.134 3.866 1.689 6.147 1.689v-2zm-5.084-1.383c-1.457-.914-2.599-2.219-3.42-3.95l-1.807.858c.97 2.045 2.357 3.652 4.164 4.786l1.063-1.694zm-3.42-3.95c-.821-1.73-1.248-3.771-1.248-6.147h-2c0 2.616.47 4.959 1.441 7.005l1.807-.858zm-1.248-6.147c0-2.376.426-4.435 1.251-6.201l-1.813-.846c-.968 2.074-1.438 4.431-1.438 7.047h2zm1.248-6.195c.857-1.803 2.02-3.157 3.48-4.101l-1.087-1.68c-1.805 1.168-3.201 2.822-4.2 4.923l1.807.858zm3.491-4.109c1.458-.972 3.118-1.464 5.013-1.464v-2c-2.264 0-4.316.596-6.122 1.8l1.109 1.664zm5.013-1.464c1.61 0 3.007.35 4.217 1.025l.975-1.746c-1.542-.861-3.281-1.279-5.192-1.279v2zm4.233 1.034c1.208.646 2.121 1.548 2.762 2.718l1.754-.96c-.831-1.518-2.029-2.696-3.573-3.522l-.943 1.764zm4.639 2.238v-3.648h-2v3.648h2zm-1-2.648h5.904v-2h-5.904v2zm-6.24 19.92c2.245 0 4.089-.794 5.393-2.444l-1.569-1.24c-.872 1.102-2.1 1.684-3.824 1.684v2zm5.393-2.444c1.276-1.614 1.847-3.8 1.847-6.428h-2c0 2.364-.516 4.05-1.416 5.188l1.569 1.24zm1.847-6.428c0-2.685-.568-4.907-1.847-6.524l-1.569 1.24c.897 1.135 1.416 2.849 1.416 5.284h2zm-1.847-6.524c-1.308-1.654-3.17-2.444-5.441-2.444v2c1.762 0 3.003.586 3.872 1.684l1.569-1.24zm-5.441-2.444c-2.261 0-4.117.839-5.445 2.546l1.579 1.228c.912-1.173 2.16-1.774 3.866-1.774v-2zm-5.447 2.549c-1.27 1.643-1.841 3.856-1.841 6.515h2c0-2.397.518-4.12 1.424-5.293l-1.583-1.222zm-1.841 6.515c0 2.626.571 4.803 1.855 6.389l1.555-1.258c-.892-1.102-1.41-2.765-1.41-5.131h-2zm1.864 6.4c1.34 1.608 3.21 2.376 5.472 2.376v-2c-1.769 0-3.036-.576-3.935-1.656l-1.537 1.28zm47.335-29.632h1v-1h-1v1zm0 35.328v1h1v-1h-1zm-5.904 0h-1v1h1v-1zm0-3.888h1l-1.877-.48.877.48zm-3.168 3.168l.472.882.008-.004.007-.005-.487-.873zm-10.272-.48l-.543.84.543-.84zm-3.84-4.464l-.909.417.004.009.005.009.9-.435zm0-13.248l-.903-.429.903.429zm3.792-4.368l.532.847.011-.007-.543-.84zm10.224-.48l-.48.877.012.007.013.006.455-.89zm3.168 3.024l-.872.489 1.872 3.338v-3.827h-1zm0-14.592v-1h-1v1h1zm-1.584 28.944l-.775-.631-.005.005-.004.006.784.62zm.048-11.712l-.784.62.784-.62zm-9.312 0l-.775-.631-.002.002.777.629zm0 11.664l-.791.612.009.011.782-.623zm15.848-28.896V262h2v-35.328h-2zm1 34.328h-5.904v2h5.904v-2zm-4.904 1v-3.888h-2V262h2zm-1.877-4.368c-.643 1.174-1.562 2.096-2.778 2.775l.974 1.746c1.536-.857 2.729-2.047 3.558-3.561l-1.754-.96zm-2.763 2.766c-1.213.649-2.615.986-4.232.986v2c1.903 0 3.637-.399 5.176-1.222l-.944-1.764zm-4.232.986c-1.901 0-3.566-.48-5.025-1.424l-1.086 1.68c1.805 1.168 3.852 1.744 6.111 1.744v-2zm-5.025-1.424c-1.463-.947-2.626-2.288-3.483-4.059l-1.8.87c1 2.069 2.396 3.704 4.197 4.869l1.086-1.68zm-3.474-4.041c-.827-1.802-1.253-3.88-1.253-6.255h-2c0 2.617.47 4.987 1.435 7.089l1.818-.834zm-1.253-6.255c0-2.376.426-4.417 1.248-6.147l-1.807-.858c-.971 2.046-1.441 4.389-1.441 7.005h2zm1.248-6.147c.821-1.731 1.963-3.036 3.42-3.95l-1.063-1.694c-1.807 1.134-3.194 2.741-4.164 4.786l1.807.858zm3.431-3.957c1.457-.943 3.137-1.424 5.073-1.424v-2c-2.287 0-4.351.575-6.159 1.744l1.086 1.68zm5.073-1.424c1.582 0 2.949.336 4.128.981l.96-1.754c-1.509-.827-3.214-1.227-5.088-1.227v2zm4.153.994c1.205.617 2.114 1.488 2.751 2.623l1.744-.978c-.835-1.489-2.038-2.634-3.584-3.425l-.911 1.78zm4.623 2.134v-14.592h-2v14.592h2zm-1-13.592h6v-2h-6v2zm-6.192 31.008c2.244 0 4.088-.794 5.393-2.444l-1.569-1.24c-.872 1.102-2.1 1.684-3.824 1.684v2zm5.384-2.433c1.316-1.616 1.904-3.825 1.904-6.487h-2c0 2.394-.531 4.089-1.455 5.225l1.551 1.262zm1.904-6.487c0-2.657-.57-4.861-1.847-6.476l-1.569 1.24c.898 1.136 1.416 2.837 1.416 5.236h2zm-1.847-6.476c-1.305-1.65-3.149-2.444-5.393-2.444v2c1.724 0 2.952.582 3.824 1.684l1.569-1.24zm-5.393-2.444c-2.271 0-4.142.79-5.479 2.433l1.551 1.262c.902-1.109 2.167-1.695 3.928-1.695v-2zm-5.481 2.435c-1.284 1.586-1.855 3.763-1.855 6.389h2c0-2.366.517-4.029 1.409-5.131l-1.554-1.258zm-1.855 6.389c0 2.659.571 4.872 1.841 6.515l1.582-1.222c-.906-1.173-1.423-2.896-1.423-5.293h-2zm1.85 6.527c1.33 1.673 3.185 2.489 5.438 2.489v-2c-1.715 0-2.964-.592-3.873-1.735l-1.565 1.246zm45.381-5.999v1h1v-1h-1zm-16.704 0v-1h-1.051l.052 1.049.999-.049zm1.92 5.76l-.735.678.009.01.009.01.717-.698zm12.624-.768l.922-.386-.499-1.192-1.028.782.605.796zm1.728 4.128l.627.779.586-.472-.291-.693-.922.386zm-4.272 2.256l.311.951.01-.004-.321-.947zm-14.448-2.544l.702-.712-.702.712zm-1.92-15.792l-.889-.459.889.459zm4.176-4.464l.508.862.011-.007-.519-.855zm13.968 1.632l-.75.662.005.005.005.006.74-.673zm-11.664 2.496l.683.73h.001l-.684-.73zm-1.92 4.08l-.987-.159-.187 1.159h1.174v-1zm11.28 0v1h1.111l-.117-1.105-.994.105zm-1.68-4.128l-.72.695.007.006.006.006.707-.707zm6.912 6.344h-16.704v2h16.704v-2zm-17.703 1.049c.134 2.708.808 4.899 2.184 6.389l1.47-1.356c-.928-1.006-1.534-2.655-1.656-5.131l-1.998.098zm2.202 6.409c1.432 1.47 3.474 2.126 5.949 2.126v-2c-2.134 0-3.579-.56-4.516-1.522l-1.433 1.396zm5.949 2.126c2.891 0 5.565-.946 7.997-2.796l-1.21-1.592c-2.112 1.606-4.367 2.388-6.787 2.388v2zm6.469-3.206l1.728 4.128 1.845-.772-1.728-4.128-1.845.772zm2.024 2.963c-1.044.841-2.359 1.542-3.967 2.088l.643 1.894c1.785-.606 3.318-1.409 4.578-2.424l-1.254-1.558zm-3.956 2.085a15.292 15.292 0 01-4.777.766v2a17.26 17.26 0 005.399-.866l-.622-1.9zm-4.777.766c-3.773 0-6.616-1.059-8.658-3.072l-1.404 1.424c2.502 2.467 5.899 3.648 10.062 3.648v-2zm-8.658-3.072c-2.04-2.012-3.11-4.804-3.11-8.504h-2c0 4.108 1.202 7.46 3.706 9.928l1.404-1.424zm-3.11-8.504c0-2.327.467-4.358 1.376-6.117l-1.777-.918c-1.075 2.081-1.599 4.434-1.599 7.035h2zm1.376-6.117c.909-1.759 2.172-3.105 3.796-4.061l-1.016-1.724c-1.961 1.156-3.482 2.786-4.557 4.867l1.777.918zm3.807-4.068c1.622-.985 3.472-1.487 5.577-1.487v-2c-2.439 0-4.654.586-6.615 1.777l1.038 1.71zm5.577-1.487c3.088 0 5.421.997 7.122 2.926l1.5-1.324c-2.139-2.423-5.054-3.602-8.622-3.602v2zm7.132 2.937c1.739 1.91 2.668 4.603 2.668 8.207h2c0-3.948-1.023-7.175-3.189-9.553l-1.479 1.346zm2.668 8.207v.912h2v-.912h-2zm-9.656-8.824c-1.816 0-3.385.552-4.62 1.71l1.368 1.46c.812-.762 1.868-1.17 3.252-1.17v-2zm-4.619 1.71c-1.201 1.123-1.913 2.714-2.224 4.651l1.974.318c.265-1.647.833-2.776 1.616-3.509l-1.366-1.46zm-1.237 5.81h11.28v-2h-11.28v2zm12.274-1.105c-.206-1.962-.823-3.586-1.967-4.73l-1.414 1.414c.712.712 1.215 1.84 1.392 3.526l1.989-.21zm-1.955-4.718c-1.127-1.168-2.661-1.697-4.463-1.697v2c1.398 0 2.36.399 3.024 1.087l1.439-1.39z" fill="#58C4CB"/><path d="M186.995 41.618H1v104.937h185.995V41.618z" fill="#F5F5F5"/><path d="M200.726 137.185H13.483V31h187.243v106.185zm-185.995-1.249h184.746V32.249H14.731v103.687z" fill="#3F3D56"/><path opacity=".32" d="M419.995 10.618H234v104.937h185.995V10.618z" fill="#58C4CB"/><path d="M433.726 106.185H246.483V0h187.243v106.185zm-185.995-1.249h184.746V1.249H247.731v103.687z" fill="#3F3D56"/><path d="M419.012 228.196c.059-1.214.39-2.4.97-3.475a8.367 8.367 0 012.386-2.748 8.63 8.63 0 013.354-1.506 8.72 8.72 0 013.692.02L440.681 205 452 209.383l-16.226 21.652a8.386 8.386 0 01-3.699 4.714 8.75 8.75 0 01-5.975 1.128 8.611 8.611 0 01-5.235-3.027 8.224 8.224 0 01-1.853-5.654z" fill="#A0616A"/><path d="M431 214.723l19.715-33.147-8.032-21.412L453.623 131l.403.173c.265.113 6.481 2.886 7.402 12.816L474 183.487 440.447 227 431 214.723z" fill="#CFCCE0"/><path d="M324.466 93.073a8.272 8.272 0 013.398 1.226 8.365 8.365 0 012.565 2.562 8.471 8.471 0 01.952 7.049L346 116.206 340.767 127l-20.403-17.658a8.396 8.396 0 01-4.43-4.008 8.53 8.53 0 01-.675-5.967 8.454 8.454 0 013.419-4.914 8.307 8.307 0 015.788-1.38z" fill="#B48481"/><path d="M337.012 106l31.626 22.079 22.04-6.312L419 134.846l-.204.387c-.134.253-3.39 6.198-13.394 6.348L364.921 151 324 114.416 337.012 106z" fill="#CFCCE0"/><path d="M394.998 375H383.48L378 333l17 .001-.002 41.999z" fill="#B48481"/><path d="M372.95 372H397v13h-34v-3.154a9.793 9.793 0 012.914-6.962A10.002 10.002 0 01372.95 372z" fill="#242332"/><path d="M437.999 375h-10.842L422 333l16 .001-.001 41.999z" fill="#B48481"/><path d="M416.242 372H441v13h-35v-3.154c0-2.611 1.079-5.116 3-6.962 1.921-1.847 4.526-2.884 7.242-2.884z" fill="#242332"/><path d="M442 222l-.892 62.222-.891 81.778-19.623-1.778-9.81-112.889-12.487 112.889H378.04L376 250.445l7.135-24.89L442 222z" fill="#2F2E41"/><path d="M380.98 225.561l-2.98-.13 13.841-76.557-5.667-23.139a5.08 5.08 0 01.437-3.571 5.05 5.05 0 012.689-2.378l10.197-3.839 3.602-9.947 28.423 3.075.699 7.774c3.079.992 28.443 9.472 26.693 19.136-1.728 9.538-11.926 39.546-12.444 41.067l-1.786 43.035-.22.11c-.264.133-19.855 9.805-41.138 9.803-7.495 0-15.203-1.2-22.346-4.439z" fill="#CFCCE0"/><path d="M434.588 90.64c5.424-9.93 1.777-22.382-8.146-27.81-9.923-5.43-22.365-1.78-27.79 8.151-5.424 9.931-1.778 22.383 8.146 27.811 9.923 5.429 22.365 1.779 27.79-8.151z" fill="#B48481"/><path d="M432.985 100.851c-3.911 4.168-11.175 1.93-11.684-3.764a6.937 6.937 0 01.008-1.328c.263-2.523 1.72-4.813 1.371-7.476a3.924 3.924 0 00-.717-1.835c-3.117-4.175-10.433 1.868-13.374-1.912-1.804-2.318.316-5.967-1.068-8.558-1.827-3.418-7.237-1.732-10.631-3.604-3.775-2.084-3.549-7.878-1.064-11.403 3.031-4.299 8.345-6.592 13.592-6.923 5.248-.33 10.459 1.089 15.358 2.999 5.567 2.17 11.087 5.17 14.512 10.066 4.166 5.955 4.567 13.96 2.483 20.924-1.267 4.236-5.592 9.41-8.786 12.814z" fill="#2F2E41"/><path d="M409.5 107l1-7 9.5-2 3.5 10.5-14-1.5z" fill="#B48481"/></svg>