<svg xmlns="http://www.w3.org/2000/svg" viewBox="0 0 2330 642.33"><defs><style>.cls-1{fill:#3b6472}.cls-2{fill:#58c4cb}</style></defs><g id="Camada_2" data-name="Camada 2"><g id="Layer_1" data-name="Layer 1"><path class="cls-1" d="M1799.56 234.77a52.7 52.7 0 10-52.7-52.69 52.75 52.75 0 0052.7 52.69zM2255.45 234.77a52.7 52.7 0 10-52.69-52.69 52.76 52.76 0 0052.69 52.69zM1977.94 582.92a52.7 52.7 0 1052.69-52.7 52.75 52.75 0 00-52.69 52.7zM1891.29 164.87l1.08 5.77 5.82-.75a115.7 115.7 0 0115.06-1.08c36 0 70.56 15.74 92.53 42.11a32.27 32.27 0 0024.93 11.37v.43h.06v-.43a31.85 31.85 0 0024.62-11.29c22-26.44 56.66-42.22 92.6-42.22 2.82 0 5.84.12 9.21.38l5.56.46 1.06-5.46a92.93 92.93 0 0123.78-46.07l7.7-8.17-11-2.2a183.62 183.62 0 00-35.84-3.49c-41.72 0-83.76 14.13-115.35 38.77l-2.48 1.95-2.49-1.94c-31.8-24.7-73.66-38.88-114.86-38.88a184.39 184.39 0 00-41.69 4.81l-10.35 2.4 7.17 7.83a93.05 93.05 0 0122.88 45.7zM1740.36 342.67c12.07 52.46 58.71 113.57 138.63 181.64 15.57 13.27 32.73 27 51 40.86l7.62 5.75 2.18-9.3a93.25 93.25 0 0124.13-43.92l4.86-5-5.47-4.27c-43.61-34.08-146.54-120.13-160.45-183.13l-.43-1.44a114.88 114.88 0 01-6.19-37.24c0-1.39.07-2.77.13-4.18l.29-6.89-5.89-.57a92.78 92.78 0 01-47.64-18.7l-8.39-6.4-1.52 10.44a181 181 0 00-1.94 26.12 174.87 174.87 0 008.9 55.56zM2321 342.49a178.47 178.47 0 009-56 180.28 180.28 0 00-2.66-30.83l-1.88-11-8.34 7.36a92.87 92.87 0 01-47.07 22.17l-5.51.87.31 6.19c.1 2 .19 3.71.19 5.39 0 12.66-2.09 24.9-6.58 38.52l-.41 1.68c-9.57 43.43-67.93 109.68-160.07 181.63l-5.46 4.27 4.84 5a93.41 93.41 0 0124.06 43.67l2.21 9.29 7.59-5.77c15.91-12.08 31.19-24.28 45.41-36.23 83.8-70.48 132.31-132.9 144.17-185.53zM242.4 334.8c0 17.41-11.6 28.6-31.08 40.2-15.74 8.29-36.87 14.5-63.81 14.5C73.76 389.5 0 329 0 241.57S74.59 93.65 146.27 93.65c28.18 0 49.72 6.63 65.47 14.91 18.23 11.19 30.66 22.79 30.66 39.78 0 19.89-15.74 30.66-31.49 30.66-12.85 0-21.55-6.21-25.69-8.7-2.9-1.24-14.92-12-37.71-12-41.85 0-76.24 37.29-76.24 83.28s33.56 83.29 77.07 83.29c21.55 0 34-10.77 36.88-12 4.14-2.48 12.43-8.7 25.69-8.7 15.75-.03 31.49 10.74 31.49 30.63zM546.13 358c0 16.57-14.92 30.66-32.74 30.66-16.16 0-27.76-8.7-33.15-21.55L464.08 329H357.59l-16.16 38.12c-5.8 12.85-17 21.55-33.15 21.55-17.82 0-32.73-14.09-32.73-30.66 0-7.05 2.07-14.09 4.56-19.89l97.78-218.37c7.05-17.4 18.24-25.28 32.74-25.28 14.92 0 25.69 7.88 33.15 25.28l97.79 218.37c2.48 5.8 4.56 12.88 4.56 19.88zm-104.42-82.45l-31.08-73.76-31.08 73.76zM813.38 355.94c0 17.4-13.26 31.9-31.07 31.9a30 30 0 01-24.86-12.43l-68.79-87.84h-31.08v68.37a33.77 33.77 0 01-33.56 34 34.22 34.22 0 01-34.39-34V134.25c0-22 15.74-37.7 37.71-37.7h75.82c64.64 0 106.49 43.92 106.49 96.13 0 36-20.3 67.54-53.86 83.7l49.31 58.84c4.14 5.78 8.28 12.43 8.28 20.72zm-155.8-126.38h41.85c23.62 0 44.34-6.22 44.34-36.88 0-31.08-20.72-38.12-44.34-38.12h-41.85zM1068.63 126.8a30 30 0 01-29.83 29.83h-51.38v197.65c0 19.47-15.75 35.63-33.56 35.63-18.65 0-34.4-16.16-34.4-35.63V156.63h-51c-16.16 0-30.25-13.26-30.25-29.83a30.42 30.42 0 0130.29-30.25h170.3a30.06 30.06 0 0129.83 30.25zM1324.71 358c0 16.57-14.91 30.66-32.73 30.66-16.16 0-27.76-8.7-33.15-21.55L1242.67 329h-106.49L1120 367.12c-5.8 12.85-17 21.55-33.15 21.55-17.82 0-32.74-14.09-32.74-30.66 0-7.05 2.08-14.09 4.56-19.89l97.79-218.37c7-17.4 18.23-25.28 32.74-25.28 14.91 0 25.69 7.88 33.15 25.28l97.78 218.37c2.51 5.8 4.58 12.88 4.58 19.88zM1098.47 41c7-23.2 26.93-41 57.18-41 29 0 56.77 29 77.9 29 2.9 0 10-.42 14.92-5a20.55 20.55 0 0113.67-5.38c11.61 0 19.48 9.94 16.16 20.71C1270 62.15 1251.37 80 1226.51 80c-33.15 0-62.16-33.56-84.12-33.56-3.31 0-9.11 0-13.67 6.63-2.9 4.56-9.12 7.87-14.92 7.87-9.53-.03-18.23-8.32-15.33-19.94zm121.82 234.53l-31.07-73.76-31.08 73.76zM1638.8 241.57c0 87.43-70.45 147.93-145.86 147.93-75 0-145.44-60.5-145.44-147.93s70.44-147.92 145.44-147.92c75.41 0 145.86 60.49 145.86 147.92zm-220 0c0 50.56 32.32 83.29 74.17 83.29 42.27 0 74.59-32.73 74.59-83.29s-31.5-83.28-74.59-83.28c-41.88 0-74.2 32.71-74.2 83.28z"/><path class="cls-2" d="M182.14 536.55c0 68.38-49.67 103.74-105.78 103.74H34c-15.49 0-26.6-11.11-26.6-26.59V462.32c0-15.48 11.11-26.59 26.6-26.59h42.36c56.11 0 105.78 35.36 105.78 100.82zm-48.21 0c0-43-21-60.49-57.57-60.49h-21V600h21c36.53 0 57.57-17.57 57.57-63.45zM386.12 620.12c0 11.69-10.52 21.63-23.08 21.63-11.4 0-19.58-6.14-23.38-15.2l-11.4-26.88h-75.1l-11.4 26.88c-4.09 9.06-12 15.2-23.37 15.2-12.57 0-23.09-9.94-23.09-21.63a36.63 36.63 0 013.21-14l69-154c5-12.28 12.86-17.83 23.08-17.83 10.52 0 18.12 5.55 23.38 17.83l69 154a36.63 36.63 0 013.15 14zM312.48 562l-21.92-52-21.91 52zM666.07 603.76c0 12.27-8.18 20.16-21.91 28.35-11.11 5.84-26 10.22-45 10.22-52 0-104-42.66-104-104.32s52.6-104.32 103.16-104.32c19.87 0 35.07 4.67 46.17 10.52 12.86 7.89 21.62 16.07 21.62 28.05 0 14-11.1 21.62-22.2 21.62-9.06 0-15.2-4.38-18.12-6.13-2-.88-10.52-8.48-26.59-8.48-29.52 0-53.77 26.3-53.77 58.74s23.67 58.74 54.35 58.74c15.2 0 24-7.6 26-8.48 2.92-1.75 8.76-6.13 18.12-6.13 11.1 0 22.17 7.59 22.17 21.62zM811.61 597.92a21.19 21.19 0 010 42.37h-88.25c-15.49 0-26.6-11.11-26.6-26.59V459.4A24.45 24.45 0 01721 434.86c13.15 0 23.67 11.1 23.67 24.54v138.52zM912.43 458.82V617.2c0 13.15-11.4 24.55-24.55 24.55a24.9 24.9 0 01-24.55-24.55V458.82a24.9 24.9 0 0124.55-24.55c13.12 0 24.55 11.4 24.55 24.55zm6.13-73.93a22.5 22.5 0 01-5.56 15.48l-18.1 16.95a16.36 16.36 0 01-12.9 6.43c-11.4 0-21-9.35-15.78-22.5l5.55-23.67c3.51-9.64 12.27-16.36 22.79-16.36a23.82 23.82 0 0124 23.67zM1123.71 459.4v159.26c0 15.49-9.94 23.67-22.8 23.67-10.52 0-19-5.84-24.84-14l-76.56-105.81v95.27c0 13.15-10.81 24.54-24.25 24.54a24.94 24.94 0 01-24.84-24.54V458.23c0-15.19 9.93-23.37 23.08-23.37 10.23 0 18.71 5.55 24.55 14l76.56 105.49v-95c0-13.15 10.82-24.54 24.26-24.54a24.76 24.76 0 0124.84 24.59zM1210.79 458.82V617.2c0 13.15-11.39 24.55-24.54 24.55a24.9 24.9 0 01-24.55-24.55V458.82a24.9 24.9 0 0124.55-24.55c13.15 0 24.54 11.4 24.54 24.55zM1416.81 603.76c0 12.27-8.18 20.16-21.91 28.35-11.11 5.84-26 10.22-45 10.22-52 0-104-42.66-104-104.32s52.6-104.32 103.16-104.32c19.87 0 35.06 4.67 46.17 10.52 12.86 7.89 21.62 16.07 21.62 28.05 0 14-11.1 21.62-22.21 21.62-9 0-15.19-4.38-18.11-6.13-2-.88-10.52-8.48-26.6-8.48-29.51 0-53.76 26.3-53.76 58.74s23.67 58.74 54.35 58.74c15.19 0 24-7.6 26-8.48 2.92-1.75 8.76-6.13 18.11-6.13 11.08 0 22.18 7.59 22.18 21.62zM1631 620.12c0 11.69-10.52 21.63-23.09 21.63-11.4 0-19.58-6.14-23.38-15.2l-11.39-26.88h-75.1l-11.4 26.88c-4.09 9.06-12 15.2-23.38 15.2-12.56 0-23.08-9.94-23.08-21.63a36.63 36.63 0 013.21-14l69-154c5-12.28 12.86-17.83 23.09-17.83 10.52 0 18.12 5.55 23.38 17.83l69 154a36.45 36.45 0 013.14 14zM1557.38 562l-21.92-52-21.92 52z"/></g></g></svg>