<svg width="1400" height="758" fill="none" xmlns="http://www.w3.org/2000/svg"><g clip-path="url(#clip0)"><path opacity=".1" d="M841.318 534.372c26.989-1.542 60.474-19.886 86.51-27.999a4084.184 4084.184 0 0192.812-27.645 4028.829 4028.829 0 01327.86-78.81 3194.17 3194.17 0 0130.97-5.948 219.605 219.605 0 00-72.37-87.095c.8-7.635 1.21-15.306 1.22-22.982 0-121.324-96.76-219.678-216.15-219.678a212.367 212.367 0 00-104.906 27.596C902.757 36.105 792.458 2.39 671.778 2.39c-171.481 0-322.019 68.078-407.321 170.592l400.898 67.87 245.877 41.608c-280.303 8.383-561.473 16.716-840.97-2.962-36.896 35.774-60.248 83.278-66.066 134.393a222.382 222.382 0 0034.167 145.849c0 4.393.184 8.75.513 13.07 7.12 2.043 13.995 4.026 20.162 5.323a4417.575 4417.575 0 00298.927 52.622c-73.895 45.658-163.886 52.12-249.126 71.455 41.277 34.143 97.33 55.07 159.099 55.07h919.712c99.59 0 180.31-69.473 180.31-155.186a220.6 220.6 0 0029.31-80.633c-184.28 17.83-370.85 2.349-555.952 12.91z" fill="#58C4CB"/><path opacity=".1" d="M1398.53 484.956c.1-35.325-8.28-70.156-24.43-101.554a220.24 220.24 0 00-68.38-78.853c.79-7.631 1.2-15.298 1.22-22.97 0-121.324-96.81-219.641-216.15-219.641a212.474 212.474 0 00-104.917 27.584C901.365 33.792 791.054.064 670.374.064c-196.296 0-365.262 89.274-440.195 217.292-4.165-.245-8.354-.38-12.579-.38-119.36 0-216.153 98.354-216.153 219.678a221.263 221.263 0 0035.561 120.749c0 109.159 102.814 197.649 229.587 197.649h919.735c99.58 0 180.3-69.485 180.3-155.197a221.202 221.202 0 0031.9-114.899z" fill="#58C4CB" fill-opacity=".5"/><path d="M1142.42 350.366a13.597 13.597 0 00-5.96-2.619c-2.28-.526-4.62-.857-6.94-1.224l-30.06-4.344a35.375 35.375 0 00-9.21-.49c-1.55.127-3.05.56-4.42 1.275-1.38.714-2.6 1.695-3.59 2.886a6.209 6.209 0 00-1.39 3.916c.16 1.435.63 2.819 1.36 4.063.29.581.54 1.182.75 1.799a41.34 41.34 0 001.07 4.099c.14.292.31.564.52.808v.208c-.33 1.689.73 3.451.25 5.079-.41 1.395-1.77 2.239-2.62 3.402a5.113 5.113 0 00-.91 2.802 5.164 5.164 0 00.78 2.839c.92 1.42 2.58 2.387 3.06 4.014.62 2.142-1.06 4.21-2.57 5.862a91.465 91.465 0 00-7.64 9.656 5.876 5.876 0 00-1.22 2.875c-.14 2.13 1.9 4.002 1.55 6.119-.28 1.665-1.91 2.68-3.31 3.672-5.19 3.426-9.36 8.933-9.77 15.162a53.15 53.15 0 00-11.82-26.923c-1.75-2.105-3.67-4.222-4.39-6.89-.27-1.064-.31-2.202-.68-3.23-1.22-3.243-5.11-4.638-6.8-7.624-1.22-2.105-1.22-4.81-2.74-6.658-1.51-1.848-3.89-2.264-5.2-4.05a25.963 25.963 0 01-1.66-3.769 8.265 8.265 0 00-2.26-2.717 7.205 7.205 0 00-.56-.404c.2-.182.36-.404.47-.653.12-.249.17-.518.18-.791 0-1.432-1.42-2.374-2.65-3.084a77.55 77.55 0 01-4.66-2.9 10.906 10.906 0 004.17-3.415 11.258 11.258 0 001.58-7.342 9.267 9.267 0 00-2.18-5.617c-.77-.82-1.74-1.408-2.54-2.179-2.09-2.043-2.8-5.066-3.67-7.856-1.14-3.671-2.94-7.526-6.28-9.472-1.62-.942-3.5-1.383-5.07-2.374-1.58-.991-2.9-2.864-2.35-4.663.37-1.223 1.5-2.068 2.27-3.108a6.197 6.197 0 00.98-4.602 6.195 6.195 0 00-2.53-3.964c-.9-.576-2.01-1.077-2.2-2.13a3.916 3.916 0 01-1.844-1.096 3.899 3.899 0 01-.984-1.914 11.608 11.608 0 010-4.357c.317-2.276.631-4.544.94-6.804a4.43 4.43 0 003.398 0 29.476 29.476 0 003.66 4.797 47.871 47.871 0 018.55 14.869c.7 1.958 1.4 4.149 3.21 5.189.62.355 1.33.538 1.94.918.76.526 1.4 1.19 1.91 1.958 1.46 1.945 2.93 3.879 4.38 5.825l.07.293c.04.173.11.338.2.49.27.305.65.497 1.05.538 4.49 1.041 9.54 1.995 13.43-.465 3.52-2.202 5.06-6.559 8.04-9.472 2.11-2.068 5.1-3.671 5.7-6.583a22.41 22.41 0 01-2.1-.771c.61-.612 1.22-1.322 2.05-2.13a25.51 25.51 0 003.25-3.879 24.994 24.994 0 002.44-5.483c2.36-6.722 4.72-13.449 7.09-20.179 1.12-3.182 2.24-6.388 3.66-9.485 1.47-3.353 3.2-6.571 4.8-9.863a131.249 131.249 0 009.5-26.8c.39-1.263.52-2.591.38-3.904-.34-2.117-1.94-3.782-3.47-5.287a25.28 25.28 0 00-5.2-4.32 8.546 8.546 0 00-6.52-1.052c-3.13.918-5.09 4.124-5.81 7.342-.73 3.219-.46 6.535-.76 9.79-.44 4.712-2.05 9.264-2.44 13.988-.21 2.729 0 5.495-.33 8.224a30.282 30.282 0 01-3.67 10.132 65.53 65.53 0 01-15.79 19.507c-.74.624-1.51 1.224-2.24 1.897 0-.526.08-1.065.15-1.591-.53.139-1.05.323-1.55.551.06-.618 0-1.242-.18-1.836-.98-2.925-5.32-3.671-6.11-6.645-.13-.735-.2-1.48-.2-2.227-.26-2.607-2.03-4.809-2.64-7.343-.56-2.337-.14-4.895-1.22-7.061a19.93 19.93 0 00-3.25-3.671 14.331 14.331 0 01-3.09-5.837c-.16-.6-.31-1.224-.48-1.824a8.24 8.24 0 00-.44-4.026c-1.11-2.766-3.98-4.54-5.02-7.343-.8-2.178-.45-4.895-1.97-6.583a7.225 7.225 0 00-2.9-1.75 64.228 64.228 0 00-17.425-4.124c-3.346-.306-7.034-.478-9.428-2.84-2.797-2.741-2.931-7.673-6.204-9.79-2.882-1.872-6.961-.489-9.195 2.142a11.76 11.76 0 00-.929 1.224 13.15 13.15 0 01-.256-5.018c0-.416.086-.844.122-1.223a24.436 24.436 0 0013.238-10.476v.074l.147.379c.354.893.916 1.75 1.746 1.848a2.44 2.44 0 001.514-.551 12.553 12.553 0 002.027-1.762c.31-.343.603-.698.88-1.065a13.944 13.944 0 001.441-2.447 14.587 14.587 0 001.221-4.1c.22-1.42.244-2.876.488-4.295a26.55 26.55 0 01.892-3.243c.122-.355.244-.71.354-1.065.11-.355.269-.832.391-1.224a28.422 28.422 0 001.221-7.758v-1.322a12.919 12.919 0 00-4.103-9.117c-2.101-1.726-4.885-2.448-6.424-4.785-1.001-1.566-1.221-3.586-1.807-5.421a12.247 12.247 0 00-3.565-5.701 12.194 12.194 0 00-6.034-2.951 10.67 10.67 0 00-7.596 2.092l-.171.135a12.216 12.216 0 00-3.028 3.378 10.076 10.076 0 01-4.299-2.448c-1.221-1.138-2.161-2.57-3.395-3.671a8.723 8.723 0 00-8.695-1.836 10.396 10.396 0 00-6.216 7.135c-.671 2.521-.549 5.421-1.954 7.526-1.087 1.64-2.87 2.447-4.115 3.94a7.422 7.422 0 00-1.539 3.268 8.881 8.881 0 00-.208 2.043c0 .306 0 .612.074.906v.147c.043.335.112.667.207.991a8.584 8.584 0 001.82 3.353 8.038 8.038 0 002.943 2.13c.462.18.936.331 1.417.452l1.453.331.513.122a24.442 24.442 0 00-.684 21.551c0 .342-.086.685-.122 1.028a84.759 84.759 0 00.635 14.428c.171 1.897.268 3.989-.892 5.494a10.374 10.374 0 01-1.77 1.579c.659-.857 1.331-1.701 2.015-2.545-1.722-1.738-4.446-1.958-6.888-1.787a31.854 31.854 0 00-13.433 4.112c-2.736 1.578-5.545 3.671-8.671 3.304-1.844-.208-3.663-1.224-5.459-.734a11.023 11.023 0 00-2.796 1.664 3.785 3.785 0 01-2.296.71c-1.917-2.362-4.885-3.965-7.181-5.886a56.664 56.664 0 01-7.144-7.674 1308.564 1308.564 0 01-11.784-14.415c-3.273-4.063-6.632-8.457-7.206-13.658a13.439 13.439 0 01-.085-1.554c.08-2.471.39-4.929.928-7.342a3.676 3.676 0 000-1.775c-.366-1.224-1.771-1.676-2.98-1.946.159-.942.269-1.909.33-2.826.684-10.525-.061-21.221 2.162-31.525.842-3.965 2.222-7.979 5.068-10.854 4.457-4.516 11.919-5.605 15.338-10.953 2.858-4.454 1.722-10.757-1.868-14.685-3.591-3.928-9.123-5.532-14.386-5.336a7.413 7.413 0 00-4.189 1.126 8.915 8.915 0 00-2.54 3.867l-5.239 12.764a77.371 77.371 0 00-3.835 10.255c-1.465 5.36-1.795 11.014-2.955 16.423 0 4.161-2.674 9.35-4.14 13.18-1.636 4.308-3.407 8.566-4.885 12.96-.366 1.101-1.648 4.368-2.442 7.342-.3.175-.579.385-.831.624a22.299 22.299 0 00-1.734 2.582c-1.111 1.469-2.918 2.252-4.14 3.672-1.221 1.419-1.477 4.026.22 4.736.345.116.701.194 1.063.232.222.019.443.056.659.11 1.832.514 2.553 2.827 2.284 4.736-.269 1.909-1.221 3.672-1.38 5.581-.33 3.377 1.649 6.522 3.554 9.361a80.605 80.605 0 006.521 8.799c1.722 1.934 3.663 3.672 5.398 5.532 6.606 6.804 11.857 14.758 17.793 22.15a49.12 49.12 0 007.241 7.612 54.56 54.56 0 005.483 3.781l10.21 6.486a11.174 11.174 0 003.859 1.823c.454.062.914.062 1.368 0 .061.306.109.6.183.906.794 3.206 2.54 6.119 2.735 9.386.196 3.268-.097 6.608.135 9.913.219 3.047.891 6.118 1.062 9.117.342 5.776-1.075 11.479-2.442 17.132-2.064 8.273-3.31 16.717-7.328 24.219-1.123 2.068-2.442 4.173-2.442 6.535 0 .281 0 .575.073.856l-1.832 1.04c-.537.306-1.074.612-1.563.93-2.32 1.518-4.799 3.194-5.752 5.813-.769 2.117-.415 4.54-1.343 6.596a2.822 2.822 0 01-.147.27c-.976 1.909-2.918 3.328-3.358 5.421-.33 1.603.305 3.304 0 4.895v.061a17.685 17.685 0 00-.659 2.448 2.92 2.92 0 00.073.807 4.664 4.664 0 001.465 2.387c.44.423.919.804 1.429 1.138.521.342 1.059.661 1.612.954l.318.172c.464.244.928.477 1.404.697l.318.135c.549.244 1.111.465 1.673.661l.39.122c.44.147.892.281 1.344.392l.305.097.281.062 1.221.257.452.085c.537.09 1.087.163 1.649.221h.488c.415 0 .818.061 1.221.073h2.235c.574 0 1.148-.086 1.722-.159h.183a22.95 22.95 0 001.539-.269l.391-.086c.476-.11.952-.22 1.429-.367l.256-.074a21.192 21.192 0 001.71-.575 44.803 44.803 0 005.642-2.802c1.221-.673 2.442-1.358 3.663-1.983a28.487 28.487 0 012.785-1.223 15.677 15.677 0 017.327-1.224c1.236.169 2.46.418 3.664.746v.404c.993 5.874 1.974 11.748 2.943 17.622a35.811 35.811 0 015.055-3.047c-.33.887-.547 1.812-.647 2.754a10.977 10.977 0 000 2.19c.11 1.163.354 2.448-.342 3.366-.427.563-1.221.881-1.453 1.517a5.18 5.18 0 00-.122 1.995 3.181 3.181 0 01-2.907 2.961 4.65 4.65 0 01-1.844 5.458 6.463 6.463 0 00-1.416.93 4.227 4.227 0 00-.818 1.848 32.713 32.713 0 01-9.562 15.75 30.727 30.727 0 00-4.727 4.626 21.086 21.086 0 00-2.137 4.222 2559.996 2559.996 0 01-9.916 23.949c-1.856 4.467-3.663 9.007-4.25 13.816-1.465 13.192-13.189 24.378-10.99 37.472a18.366 18.366 0 003.81 8.945c2.442 2.95 6.106 4.638 9.769 6.009 9.416 3.671 19.344 5.678 29.236 7.698l15.534 3.194a67.815 67.815 0 009.256 1.468c3.75.257 7.596-.098 11.248.857 2.259.587 4.42 1.676 6.753 1.799 2.003.11 4.47-.318 5.654 1.321 1.185 1.64.269 3.806 1.392 5.263 1.808 2.312 6.216 0 8.182 2.178.538.836.949 1.748 1.222 2.704a4.882 4.882 0 001.221 1.542c.119.691.168 1.392.146 2.093a36.13 36.13 0 01-1.758 8.346 7213.19 7213.19 0 00-4.384 14.918 32.957 32.957 0 00-1.221 5.384 12.93 12.93 0 000 2.668c.256 2.705 1.807 5.495 4.384 6.376a8.027 8.027 0 005.935-.734 26.246 26.246 0 004.885-3.305 33.417 33.417 0 007.046-7.269c6.105-9.154 4.125-21.538 8.415-31.659 2.84-6.755 8.39-12.237 10.23-19.359.43-1.356.48-2.804.15-4.186-.77-2.447-3.37-3.842-5.8-4.723h-.11c-2-.713-4.04-1.297-6.11-1.75-.51-.111-1.04-.196-1.56-.282a9.598 9.598 0 01-2.7-3.524 8.166 8.166 0 00-.573-2.117 2.209 2.209 0 00-.761-.703 2.185 2.185 0 00-.998-.276c-1.221-.123-2.858.318-4.189.22-2.723-.196-4.53-2.876-6.973-4.112-2.442-1.236-5.092-.93-7.693-.746a7.108 7.108 0 01-2.785-.172 10.46 10.46 0 01-2.931-2.019 12.263 12.263 0 00-10.758-2.166 11.698 11.698 0 01-3.664.832c-2.381-.135-4.067-2.264-5.825-3.879-4.812-4.418-11.663-5.581-17.5-8.481a3.996 3.996 0 01-2.101-1.811c-.671-1.664.843-3.329 2.211-4.467l10.038-8.358c10.991-9.154 24.73-16.044 29.834-29.468.532-1.8 1.358-3.5 2.443-5.03a6.824 6.824 0 011.355-1.224 10.239 10.239 0 017.511-1.468 25.334 25.334 0 018.841 3.867 166.282 166.282 0 0112.758 8.566c4.1 2.934 8 6.139 11.67 9.594 6.41 6.119 11.74 13.376 17.72 19.972 5.97 6.596 12.79 12.752 21.09 15.909 8.29 3.158 18.31 3.023 25.43-2.276 8.22-6.119 10.86-17.059 12.94-27.094 4.58-4.43 5.96-11.173 8.19-17.133 1.41-3.781 3.2-7.342 4.71-11.112 1.81-4.43 3.23-9.006 4.65-13.571a65.467 65.467 0 003.24-14.159c.59-7.624-1.45-15.738.69-22.897 2.82-.624 5.38-2.215 8.15-3.145 4.13-1.358 8.55-1.138 12.93-1.113h.28c1.5.16 3.02-.198 4.29-1.016 1.47-1.224 1.7-3.316 1.78-5.213.17-4.687-.13-9.949-3.63-12.984zm-176.942-208.75a9.05 9.05 0 01-3.089.221l3.089-.221z" fill="url(#paint0_linear)"/><path d="M970.289 219.031a13.42 13.42 0 01-5.08 2.705l-8.659 3.108c-4.701 1.689-9.611 3.39-14.569 2.778-2.772-.342-14.654-2.092-16.449-4.258-2.736-3.354 6.851-8.285 10.123-11.112a13.857 13.857 0 002.052-1.811c1.221-1.493 1.063-3.586.892-5.471a84.564 84.564 0 01-.635-14.403c.095-1.147.258-2.287.488-3.415 1.221-5.629 6.448-3.573 10.576-2.08a82.581 82.581 0 0114.349 6.229 10.3 10.3 0 013.541 3.01c1.808 2.742 1.087 6.34.794 9.791-.256 2.68-.244 5.25 1.429 7.195a18.497 18.497 0 012.308 2.448 4.597 4.597 0 01-1.16 5.286zM850.684 130.836c1.221-5.421 1.49-11.014 2.955-16.386a76.896 76.896 0 013.835-10.219l5.385-12.592a8.892 8.892 0 012.541-3.855 7.507 7.507 0 014.188-1.126c5.264-.196 10.796 1.444 14.386 5.324 3.591 3.879 4.726 10.157 1.869 14.599-3.42 5.348-10.881 6.425-15.339 10.928-2.845 2.876-4.225 6.878-5.068 10.831-2.222 10.279-1.477 20.938-2.161 31.438-.22 3.267-.855 7-3.664 8.689a10.663 10.663 0 01-5.471 1.064l-8.011.135c-1.343 0-6.216.844-7.108-.171-1.563-1.775 2.003-10.61 2.651-12.581 1.441-4.368 3.211-8.627 4.884-12.923 1.454-3.83 4.128-9.006 4.128-13.155z" fill="#BE6F72"/><path d="M1016.1 515.293c-1.85 7.074-7.39 12.581-10.24 19.324-4.28 10.096-2.35 22.443-8.411 31.573a33.337 33.337 0 01-7.046 7.281 26.214 26.214 0 01-4.885 3.292 8.018 8.018 0 01-5.935.734c-2.577-.881-4.128-3.671-4.384-6.363a12.814 12.814 0 010-2.656 32.921 32.921 0 011.221-5.372c1.465-4.952 2.927-9.913 4.384-14.881a36.143 36.143 0 001.759-8.322c.158-3.084-1.796-7.098-.965-9.973.378-1.298 1.795-2.448 2.442-3.537a20.532 20.532 0 002.101-5.005c1.001-3.415 1.685-7.061 3.785-9.937a23.312 23.312 0 014.763-4.467 12.62 12.62 0 014.543-2.558 11.116 11.116 0 014.888.233c2.07.443 4.11 1.024 6.1 1.738h.11c2.45.881 5.03 2.239 5.8 4.711a7.726 7.726 0 01-.03 4.185zM1146.03 364.844c-.07 1.896-.3 4.014-1.77 5.201a6.644 6.644 0 01-4.3 1.015h-.33c-4.36 0-8.79-.244-12.92 1.114-3.13 1.04-6.02 2.949-9.29 3.329-4.51.514-8.74-1.958-12.74-4.112-3.76-2.03-7.62-3.868-11.56-5.507-2.59-1.065-7.88-1.75-9.12-4.589a41.254 41.254 0 01-1.08-4.088c-.2-.616-.45-1.218-.74-1.799-.74-1.24-1.2-2.619-1.37-4.05 0-1.427.49-2.808 1.39-3.916 1-1.182 2.22-2.155 3.59-2.863a11.68 11.68 0 014.41-1.261c3.08-.24 6.17-.075 9.21.489l30.06 4.332c2.32.331 4.66.661 6.94 1.224 2.17.377 4.21 1.276 5.96 2.619 3.55 2.986 3.85 8.236 3.66 12.862z" fill="#3F3D56"/><path d="M1119.61 372.676c-3.67 7.746-1.03 16.912-1.69 25.479a64.57 64.57 0 01-3.25 14.122c-1.41 4.552-2.83 9.117-4.64 13.535-1.51 3.671-3.31 7.342-4.71 11.087-2.24 5.972-3.67 12.69-8.2 17.133-2.07 10.01-4.71 20.95-12.93 27.02-7.14 5.287-17.1 5.471-25.44 2.277s-15.12-9.313-21.09-15.909c-5.97-6.596-11.31-13.78-17.72-19.923a111.475 111.475 0 00-11.68-9.582 183.061 183.061 0 00-12.765-8.493 25.521 25.521 0 00-8.842-3.855c-2.599-.5-5.289.027-7.51 1.468a6.833 6.833 0 00-1.356 1.224 16.864 16.864 0 00-2.442 5.018c-5.129 13.388-18.892 20.265-29.883 29.394l-10.038 8.334c-1.368 1.138-2.882 2.803-2.211 4.455a3.997 3.997 0 002.101 1.811c5.837 2.888 12.688 4.051 17.5 8.456 1.758 1.615 3.443 3.745 5.825 3.867a11.682 11.682 0 003.663-.82 12.296 12.296 0 0110.759 2.154 10.446 10.446 0 002.931 2.019 7.104 7.104 0 002.784.172c2.602-.184 5.362-.416 7.694.746 2.333 1.163 4.25 3.904 6.973 4.1 1.331.098 2.919-.343 4.189-.221a2.198 2.198 0 011.758.979c.285.673.478 1.381.574 2.105.506 1.726 2.186 2.778 3.286 4.198 1.68 2.178 1.93 5.14 1.76 7.893a33.721 33.721 0 01-10.7 22.542 13.229 13.229 0 01-6.582 3.671 6.094 6.094 0 01-6.521-2.9 10.055 10.055 0 00-1.222-2.692c-1.966-2.167-6.374.134-8.182-2.179-1.123-1.444-.317-3.757-1.392-5.25-1.074-1.493-3.663-1.223-5.654-1.309-2.333-.123-4.494-1.224-6.753-1.799-3.664-.955-7.498-.6-11.248-.857a67.815 67.815 0 01-9.256-1.468l-15.534-3.182c-9.892-2.019-19.82-4.063-29.236-7.673-3.602-1.371-7.229-3.059-9.769-5.996a18.37 18.37 0 01-3.81-8.934c-2.211-13.057 9.513-24.218 10.99-37.374.525-4.797 2.443-9.325 4.25-13.779 3.314-7.963 6.619-15.929 9.916-23.9a21.369 21.369 0 012.076-4.234 30.733 30.733 0 014.726-4.614 32.604 32.604 0 009.563-15.713c.119-.673.4-1.307.818-1.848a6.871 6.871 0 011.416-.918 4.654 4.654 0 001.844-5.446 3.169 3.169 0 002.002-.939 3.183 3.183 0 00.905-2.022 5.119 5.119 0 01.122-1.983c.293-.636 1.026-.954 1.453-1.517.696-.918.452-2.203.342-3.353a10.987 10.987 0 010-2.191 11.255 11.255 0 013.273-6.841c2.919-2.875 7.071-2.129 11.101-2.814a63.534 63.534 0 0011.723-3.757 114.972 114.972 0 0133.107-7.673 72.114 72.114 0 0133.432 5.335c1.54.624 2.99 1.447 4.32 2.448a8.055 8.055 0 012.25 2.705 25.674 25.674 0 001.67 3.756c1.3 1.787 3.77 2.362 5.2 4.051 1.43 1.689 1.55 4.54 2.73 6.633 1.7 2.986 5.63 4.369 6.81 7.612.36 1.028.41 2.154.68 3.218.66 2.668 2.64 4.773 4.38 6.878a52.861 52.861 0 0111.82 26.923c.4-6.205 4.56-11.7 9.77-15.126 1.41-.918 3.03-1.934 3.31-3.598.36-2.105-1.68-3.977-1.55-6.119a6.03 6.03 0 011.22-2.863 91.163 91.163 0 017.65-9.631c1.5-1.653 3.19-3.672 2.56-5.85-.47-1.628-2.13-2.582-3.05-4.002a5.153 5.153 0 01-.79-2.833c.03-1.001.34-1.974.91-2.796.86-1.163 2.21-2.007 2.63-3.39.47-1.627-.59-3.39-.26-5.066a6.256 6.256 0 012.52-3.268 20.883 20.883 0 015.46-3.598c3.22-1.223 6.81-.771 10.23-.293 5.72.795 12.13 2.019 15.35 6.816 2.06 2.998 3.11 7.551 1.58 10.757z" fill="#65617D"/><path opacity=".1" d="M1146.03 364.844c-.07 1.896-.3 4.014-1.77 5.201a6.644 6.644 0 01-4.3 1.015h-.33c.5-2.545 3.59-4.001 4.13-6.584a5.89 5.89 0 00-.21-2.361 5.9 5.9 0 00-1.13-2.081c-2.62-3.536-6.82-5.494-10.99-6.926a72.668 72.668 0 00-36.71-2.754 36.946 36.946 0 00-9.65 2.974 31.481 31.481 0 00-2.93 2.08 10.41 10.41 0 01-1.37-4.05c.01-1.427.5-2.808 1.39-3.916 1-1.182 2.22-2.155 3.59-2.863a11.68 11.68 0 014.41-1.261c3.08-.24 6.18-.075 9.21.489l30.07 4.332c2.32.331 4.65.661 6.93 1.224 2.17.377 4.22 1.276 5.96 2.619 3.59 2.986 3.89 8.236 3.7 12.862zM1016.1 515.294c-1.85 7.073-7.39 12.58-10.24 19.323-4.28 10.096-2.35 22.444-8.411 31.573a33.337 33.337 0 01-7.046 7.281 26.214 26.214 0 01-4.885 3.292 8.018 8.018 0 01-5.935.734c-2.577-.881-4.128-3.671-4.384-6.363a12.814 12.814 0 010-2.656l.073.196c1.062 2.57 2.796 5.262 5.532 5.715a7.472 7.472 0 005.642-1.995c4.03-3.243 6.375-8.076 8.609-12.739a53.062 53.062 0 004.128-10.561c.489-2.08.721-4.21 1.217-6.29 2.32-10.108 10.23-18.357 11.97-28.599.14-.705.18-1.427.1-2.142-.23-.932-.58-1.829-1.05-2.668-.42-.947-.74-1.941-.93-2.961 2.44.881 5.03 2.239 5.8 4.711a7.7 7.7 0 01-.19 4.149zM997.656 497.743a17.735 17.735 0 01-5.507 7.539 26.84 26.84 0 01-11.858 5.139 11.774 11.774 0 01-6.106-.073c-2.711-.942-4.665-3.488-7.437-4.222-1.979-.539-4.104-.061-6.106-.355-3.603-.502-6.399-3.255-9.306-5.458-8.903-6.706-20.59-8.872-29.492-15.578a2.739 2.739 0 01-.953-.992 2.963 2.963 0 01-.183-1.383 28.2 28.2 0 012.675-11.76 40.985 40.985 0 015.031-7.183c7.974-9.79 15.986-19.654 25.535-27.914 4.006-3.464 8.378-6.694 13.434-8.261 2.809-.869 8.353-1.689 11.772-.22-.504.345-.96.757-1.355 1.224a16.85 16.85 0 00-2.443 5.017c-5.141 13.4-18.904 20.278-29.895 29.407l-10.038 8.334c-1.368 1.138-2.882 2.802-2.211 4.454a3.998 3.998 0 002.101 1.812c5.837 2.888 12.688 4.05 17.5 8.456 1.758 1.615 3.444 3.745 5.825 3.867a11.682 11.682 0 003.663-.82 12.296 12.296 0 0110.759 2.154 10.488 10.488 0 002.931 2.019 7.089 7.089 0 002.785.171c2.601-.183 5.361-.416 7.693.747 2.333 1.162 4.25 3.904 6.973 4.099 1.356.098 2.943-.367 4.213-.22z" fill="#000"/><path d="M885.342 331.654c-2.32 1.493-4.787 3.182-5.739 5.776-.782 2.117-.415 4.54-1.356 6.596-.94 2.056-3.053 3.488-3.517 5.691-.33 1.603.318 3.292 0 4.895a21.273 21.273 0 00-.672 2.545c-.122 1.824 1.441 3.304 2.968 4.32a24.757 24.757 0 0022.189 2.448c3.261-1.224 6.204-3.219 9.33-4.785a18.417 18.417 0 0110.051-2.448c2.015.221 3.944.955 5.959 1.224a6.241 6.241 0 005.581-1.664 6.985 6.985 0 001.222-2.901c1.697-6.718.928-13.84-.684-20.596-1.612-6.755-4.055-13.253-5.777-19.971-1.221-4.981-2.161-10.084-4.201-14.796-2.039-4.711-5.471-9.092-10.27-10.891a1.914 1.914 0 00-1.221-.159c-.308.129-.58.33-.794.587a37.649 37.649 0 00-8.377 14.122c-1.918 5.862-2.443 12.079-4.201 17.965-.758 2.448-1.735 5.727-3.664 7.6-1.93 1.872-4.641 3.035-6.827 4.442z" fill="#3F3D56"/><path opacity=".1" d="M931.394 353.316a7.149 7.149 0 01-1.282 2.901 6.18 6.18 0 01-5.581 1.652c-2.003-.245-3.932-.992-5.947-1.224a18.38 18.38 0 00-10.051 2.448c-3.126 1.566-6.106 3.512-9.342 4.772a24.608 24.608 0 01-14.813.845 23.89 23.89 0 01-7.328-3.231c-1.538-1.004-3.089-2.448-2.967-4.32.171-.858.395-1.704.672-2.533.317-1.603-.318-3.292 0-4.895.464-2.203 2.589-3.672 3.517-5.703.928-2.031.574-4.467 1.343-6.584.953-2.606 3.432-4.283 5.752-5.788 2.32-1.506 5.08-2.656 6.936-4.479a6.88 6.88 0 00.648-.906 22.055 22.055 0 002.906-6.743c1.795-5.898 2.284-12.103 4.189-17.977a37.73 37.73 0 018.389-14.11 1.86 1.86 0 01.782-.587 1.946 1.946 0 011.221.147c4.787 1.811 8.219 6.192 10.271 10.903 2.051 4.712 2.918 9.79 4.201 14.783 1.709 6.719 4.164 13.242 5.776 19.984 1.612 6.743 2.406 13.915.708 20.645zM967.712 204.065a24.37 24.37 0 01-17.447-1.019 24.447 24.447 0 01-12.301-12.442c.095-1.147.258-2.287.488-3.414 1.222-5.63 6.448-3.574 10.576-2.081a82.624 82.624 0 0114.349 6.229c1.394.72 2.605 1.75 3.541 3.011 1.808 2.704 1.087 6.302.794 9.716z" fill="#000"/><path d="M960.337 203.991c13.489 0 24.424-10.957 24.424-24.475 0-13.517-10.935-24.475-24.424-24.475-13.489 0-24.424 10.958-24.424 24.475 0 13.518 10.935 24.475 24.424 24.475z" fill="#BE6F72"/><path opacity=".1" d="M1026.61 362.42c0 2.032-2.75 2.68-4.79 2.57-7.32-.428-14.49-2.447-21.75-1.835-9.166.832-17.593 5.91-26.788 6.375-3.542.184-7.144-.342-10.637.306-4.519.845-8.549 3.598-13.152 3.99-3.994.342-7.938-1.163-11.932-1.004a19.14 19.14 0 00-7.974 2.277 11.25 11.25 0 013.273-6.841c2.918-2.876 7.071-2.13 11.101-2.815a63.483 63.483 0 0011.723-3.757 114.957 114.957 0 0133.107-7.673 72.176 72.176 0 0133.429 5.299c1.53.624 2.98 1.447 4.31 2.448.06.213.09.437.08.66z" fill="#000"/><path d="M949.04 224.208l-9.892-3.671-4.177-1.542a20.134 20.134 0 00-5.324-1.42c-4.787-.367-9.293 2.827-11.846 6.902-2.552 4.075-3.517 8.934-4.335 13.67a376.118 376.118 0 00-2.858 19.506 127.795 127.795 0 00-1.282 17.794c.281 15.15 3.481 30.092 6.998 44.839a157.957 157.957 0 013.895 19.886c.293 2.765.428 5.543.721 8.321.317 3.121.83 6.205 1.343 9.301l2.943 17.585c3.664-2.606 7.828-4.895 12.335-5.029 3.993-.147 7.95 1.346 11.931 1.003 4.579-.379 8.634-3.133 13.152-3.977 3.493-.649 7.095-.135 10.649-.306 9.183-.465 17.622-5.556 26.777-6.376 7.27-.661 14.49 1.395 21.77 1.824 2.02.122 4.77-.527 4.77-2.57 0-1.42-1.42-2.362-2.65-3.072a130.864 130.864 0 01-16.55-11.834c-4.81-3.818-9.693-7.734-13.002-12.898-7.975-12.421-5.239-29.224-12.042-42.33-5.532-10.647 0-24.598 0-36.603 0-5.984.001-12.042-1.404-17.855a75.77 75.77 0 00-3.273-9.545l-4.75-12.054a1.975 1.975 0 00-.562-.918 1.865 1.865 0 00-1.087-.33 11.436 11.436 0 00-7.889 2.533c-2.235 1.823-3.663 4.442-5.862 6.339-2.405 2.093-5.507 3.928-8.499 2.827z" fill="#E3E8F4"/><path d="M965.002 217.257c.781-3.353 1.624-6.84 3.859-9.459 2.235-2.619 6.313-4.002 9.195-2.13 3.273 2.13 3.408 7.049 6.204 9.79 2.443 2.35 6.106 2.534 9.428 2.84a63.696 63.696 0 0117.422 4.111c1.09.339 2.09.935 2.9 1.738 1.53 1.738 1.22 4.406 1.98 6.572 1.04 2.79 3.91 4.564 5.02 7.342 1.22 3.084 0 6.535-1.03 9.705-1.84 5.69-3 11.601-4.8 17.316-1.79 5.715-4.35 11.344-8.55 15.652-1.85 1.909-4.61 3.671-7.056 2.533l-.94 6.792a11.54 11.54 0 000 4.344 3.894 3.894 0 002.836 3.011c.18 1.052 1.29 1.554 2.2 2.129a6.197 6.197 0 011.67 1.722c.44.68.74 1.44.89 2.237.14.796.13 1.614-.05 2.405a6.12 6.12 0 01-.96 2.202c-.77 1.041-1.91 1.861-2.28 3.097-.54 1.786.76 3.671 2.35 4.65 1.59.979 3.46 1.432 5.07 2.374 3.34 1.934 5.14 5.739 6.29 9.435.85 2.79 1.56 5.813 3.66 7.845.81.77 1.77 1.358 2.54 2.166a9.342 9.342 0 012.19 5.617c.33 2.558-.23 5.153-1.59 7.342-2.44 3.5-7 4.54-10.99 6.119-6.49 2.668-11.82 7.441-17.539 11.503a18.681 18.681 0 01-7.999 3.77c-3.956.526-7.852-1.224-11.833-1.383a29.3 29.3 0 00-7.059.93l-7.327 1.591c.391-5.691-2.735-11.394-4.482-16.815-3.297-10.206-3.908-21.122-3.126-31.818.782-10.695 2.955-21.244 5.105-31.744 1.502-7.343 1.355-15.016 3.663-22.15 2.162-6.865 5.251-13.462 6.387-20.608 1.856-11.565-5.862-21.367-3.248-32.773z" fill="#3F3D56"/><path d="M1020.55 239.884a13.42 13.42 0 011.41 3.977c.56 2.156 1.62 4.15 3.09 5.825a20.034 20.034 0 013.25 3.672c1.12 2.129.69 4.723 1.22 7.049.61 2.533 2.38 4.736 2.64 7.342 0 .747.07 1.492.2 2.227.8 2.962 5.14 3.672 6.11 6.633.65 1.922-.47 4.014-.26 6.033.15.625.19 1.272.11 1.909a3.837 3.837 0 01-1.39 1.787 28.212 28.212 0 00-8.04 14.33 82.299 82.299 0 00-1.84 16.558l-4.77-6.327a7.382 7.382 0 00-1.91-1.958c-.61-.367-1.32-.551-1.94-.918-1.81-1.028-2.52-3.206-3.21-5.164a47.857 47.857 0 00-8.55-14.832c-1.94-2.289-4.2-4.589-4.63-7.563-.13-1.366-.05-2.743.22-4.087 1.22-8.016 2.53-16.227 6.42-23.337 1.82-3.329 4.18-6.34 5.93-9.717 1.17-2.24 2.82-8.065 5.94-3.439zM900.082 247.583a5.592 5.592 0 01-.757 2.937 3.86 3.86 0 01-3.859 1.224 11.165 11.165 0 01-3.859-1.811 7210.129 7210.129 0 01-10.209-6.474 56.583 56.583 0 01-5.483-3.769 48.956 48.956 0 01-7.242-7.6c-5.935-7.342-11.186-15.309-17.793-22.028-1.795-1.835-3.664-3.597-5.398-5.519a80.548 80.548 0 01-6.521-8.786c-1.905-2.827-3.884-5.96-3.554-9.338.196-1.909 1.112-3.671 1.38-5.568.269-1.897-.452-4.209-2.283-4.723a4.116 4.116 0 00-.66-.111 4.936 4.936 0 01-1.062-.232c-1.698-.71-1.441-3.341-.22-4.724s3.028-2.154 4.14-3.671a22.088 22.088 0 011.734-2.582 6.6 6.6 0 012.845-1.432 43.955 43.955 0 0121.677-.82c1.221.269 2.613.759 2.979 1.946a3.575 3.575 0 010 1.762 39.545 39.545 0 00-.928 7.343c-.002.515.027 1.03.086 1.542.574 5.188 3.932 9.582 7.205 13.632 3.883 4.822 7.828 9.607 11.784 14.379a56.415 56.415 0 007.145 7.649c2.442 2.031 5.605 3.671 7.51 6.278 1.551 2.105 1.05 4.981 1.221 7.514a167.08 167.08 0 01.122 22.982z" fill="#3F3D56"/><path d="M1055.17 298.638a25.231 25.231 0 003.25-3.855 25.516 25.516 0 002.45-5.47l7.08-20.131c1.12-3.182 2.25-6.376 3.66-9.472 1.47-3.341 3.2-6.559 4.8-9.79 4.12-8.502 7.3-17.427 9.49-26.617.39-1.263.51-2.59.38-3.904-.34-2.117-1.94-3.769-3.47-5.274a25.19 25.19 0 00-5.2-4.308 8.546 8.546 0 00-6.52-1.052c-3.13.918-5.1 4.124-5.82 7.342-.72 3.219-.45 6.511-.75 9.79-.44 4.7-2.05 9.24-2.45 13.951-.2 2.729 0 5.483-.33 8.2a29.985 29.985 0 01-3.66 10.12 65.73 65.73 0 01-15.79 19.458 25.553 25.553 0 00-4.74 4.565 14.92 14.92 0 00-2.28 5.702c-.81 3.106-.46 6.401.99 9.264 1.99 3.402 5.81 4.895 9.46 5.654 4.94 1.028 6.07-.661 9.45-4.173z" fill="#BE6F72"/><path d="M960.483 144.052a11.402 11.402 0 014.629-4.674 11.37 11.37 0 016.435-1.335 12.21 12.21 0 016.031 2.946 12.238 12.238 0 013.567 5.694c.574 1.823.806 3.843 1.808 5.409 1.514 2.362 4.323 3.047 6.423 4.76a12.909 12.909 0 014.104 9.105 27.596 27.596 0 01-1.625 10.292 32.98 32.98 0 00-1.221 4.308c-.244 1.419-.268 2.863-.488 4.283a13.966 13.966 0 01-5.606 9.264c-.428.35-.961.544-1.514.551-.952-.111-1.539-1.224-1.893-2.228-1.941-5.617-1.477-12.482-5.056-16.961a18.485 18.485 0 00-5.788-4.32 7.462 7.462 0 00-2.955-1.114 7.77 7.77 0 00-4.275 1.567 26.593 26.593 0 01-8.45 3.745 10.369 10.369 0 01-8.732-1.885c-1.685-1.395-2.919-3.488-4.787-4.577-1.869-1.089-3.822-1.028-5.666-1.774a8.376 8.376 0 01-3.057-2.232 8.416 8.416 0 01-.338-10.593c1.221-1.469 3.028-2.301 4.115-3.929 1.404-2.105 1.282-4.993 1.954-7.514a10.338 10.338 0 016.216-7.11 8.716 8.716 0 018.695 1.824c1.221 1.101 2.198 2.521 3.395 3.671a9.753 9.753 0 009.037 2.448" fill="#3F3D56"/><path opacity=".1" d="M980.56 324.179a4.75 4.75 0 00-1.295 5.189c.269.575 12.872-1.86 14.203-2.044 3.322-.477 9.142-.245 11.382-3.292 3.98-5.397-8.354-4.198-10.613-4.002-4.298.367-10.404.955-13.677 4.149z" fill="#000"/><path d="M865.912 166.313a39.545 39.545 0 00-.928 7.343c-3.663.746-7.473-.478-10.991-1.702l-10.099-3.451a2.867 2.867 0 00-3.859.723c-1.624 1.688-3.859 4.895-6.106 6.791a4.936 4.936 0 01-1.062-.232c-1.698-.71-1.441-3.341-.22-4.724s3.028-2.154 4.14-3.671a22.088 22.088 0 011.734-2.582 6.6 6.6 0 012.845-1.432 43.955 43.955 0 0121.677-.82c1.221.269 2.613.759 2.979 1.946a3.591 3.591 0 01-.11 1.811z" fill="#3F3D56"/><path opacity=".1" d="M865.912 166.313a39.545 39.545 0 00-.928 7.343c-3.663.746-7.473-.478-10.991-1.702l-10.099-3.451a2.867 2.867 0 00-3.859.723c-1.624 1.688-3.859 4.895-6.106 6.791a4.936 4.936 0 01-1.062-.232c-1.698-.71-1.441-3.341-.22-4.724s3.028-2.154 4.14-3.671a22.088 22.088 0 011.734-2.582 6.6 6.6 0 012.845-1.432 43.955 43.955 0 0121.677-.82c1.221.269 2.613.759 2.979 1.946a3.591 3.591 0 01-.11 1.811zM958.297 398.643c1.759.588 3.664 1.444 4.262 3.206l-14.141-3.597-7.328-1.873c-1.294-.33-5.935-.71-6.79-1.725-1.221-1.493 3.114-.465 3.896-.355 2.369.355 4.738.722 7.095 1.15 4.445.796 8.72 2.105 13.006 3.194zM963.78 411.188c-1.221-.82-4.726-.722-6.228-1.077-2.198-.526-4.36-1.224-6.521-1.897-4.385-1.431-8.732-3.059-13.238-4.111-.831-.184-3.664-.233-3.53-1.285.135-1.053 2.834-1.42 3.505-1.469 3.994-.294 8.976 1.579 12.689 2.913a55.878 55.878 0 0113.323 6.926zM954.817 387.458c-4.482-1.224-8.549-4.014-13.165-4.553a5.336 5.336 0 01-3.358-1.028 3.963 3.963 0 01-1.087-1.958c3.09-.159 6.68 1.151 9.489 2.387a29.711 29.711 0 014.445 2.374c1.026.624 2.564 2.423 3.676 2.778z" fill="#000"/><path d="M1040.25 277.883a21.425 21.425 0 003.09 14.623 21.377 21.377 0 0011.88 9.032c-.59 2.9-3.59 4.504-5.7 6.572-2.98 2.9-4.52 7.244-8.03 9.447-3.92 2.448-8.97 1.493-13.44.465-.4-.045-.78-.242-1.05-.55a1.393 1.393 0 01-.19-.478c-1.48-5.421-2.45-11.209-.93-16.643 1.22-4.626 4.15-8.566 6.5-12.654 2.34-4.087 2.56-8.468 7.87-9.814zM931.064 207.712a31.706 31.706 0 00-13.433 4.1c-2.736 1.566-5.545 3.671-8.671 3.292-1.844-.208-3.664-1.224-5.459-.735-1.011.409-1.954.97-2.796 1.665a3.147 3.147 0 01-1.475.65 3.15 3.15 0 01-1.603-.161l-1.221 16.937c-.464 6.437-.916 13.009.623 19.287.794 3.206 2.54 6.118 2.735 9.374.196 3.255-.097 6.596.135 9.888.22 3.047.891 6.045 1.062 9.092.342 5.752-1.075 11.454-2.442 17.047-2.064 8.248-3.31 16.68-7.327 24.145-1.124 2.068-2.443 4.173-2.443 6.523 0 .293 0 .575.073.856-1.221.673-2.357 1.31-3.395 1.97-2.32 1.506-4.799 3.182-5.751 5.789-.77 2.117-.416 4.54-1.344 6.584-.928 2.043-3.053 3.5-3.517 5.702-.33 1.604.306 3.292 0 4.895-.276.83-.501 1.676-.672 2.534-.122 1.835 1.429 3.316 2.968 4.32a23.868 23.868 0 007.327 3.23l7.291-29.003a234.13 234.13 0 0016.523-38.512 82.857 82.857 0 014.775-12.678 59.622 59.622 0 003.663-7.196c1.112-3.083 1.221-6.424 1.759-9.68a67.847 67.847 0 012.87-11.172c1.318-3.929 2.845-7.845 3.114-11.969.403-5.898-1.734-12.127.537-17.585a23.374 23.374 0 013.725-5.617c3.15-3.868 6.02-7.918 9.171-11.785-1.636-1.75-4.36-1.934-6.802-1.787z" fill="#3F3D56"/><path opacity=".1" d="M965.477 140.025l-1.527.111-.171.122a8.92 8.92 0 001.698-.233zM993.419 165.431a33.046 33.046 0 01-1.564 7.147 32.98 32.98 0 00-1.221 4.308c-.244 1.419-.268 2.863-.488 4.283a13.96 13.96 0 01-5.606 9.264 2.44 2.44 0 01-1.514.551c-.953-.111-1.539-1.224-1.893-2.228-1.942-5.617-1.478-12.482-5.056-16.961a18.485 18.485 0 00-5.788-4.32 7.46 7.46 0 00-2.956-1.114 7.77 7.77 0 00-4.274 1.567 26.593 26.593 0 01-8.45 3.745 10.362 10.362 0 01-8.732-1.885c-1.685-1.395-2.919-3.488-4.787-4.577-1.869-1.089-3.823-1.028-5.667-1.774a8.362 8.362 0 01-4.762-5.458 3.526 3.526 0 01-.098-.465 8.577 8.577 0 00.098 4.136 8.348 8.348 0 004.762 5.458c1.844.746 3.92.759 5.667 1.774 1.746 1.016 3.102 3.182 4.787 4.577a10.364 10.364 0 008.732 1.885 26.57 26.57 0 008.45-3.745 7.77 7.77 0 014.274-1.566 7.444 7.444 0 012.956 1.113 18.514 18.514 0 015.703 4.357c3.578 4.479 3.114 11.344 5.056 16.961.354 1.016.94 2.117 1.893 2.228a2.437 2.437 0 001.599-.588 13.938 13.938 0 003.75-4.079 13.98 13.98 0 001.868-5.221c.22-1.42.244-2.864.488-4.284a32.814 32.814 0 011.222-4.307 27.615 27.615 0 001.624-10.292 17.484 17.484 0 01-.073-.49z" fill="#000"/><path d="M916.154 263.625l-.831 11.173c-.122 1.517-3.016 37.643-24.363 79.863-18.318 36.211-53.965 83.374-121.266 109.881a253.602 253.602 0 01-16.352 5.825l-6.301-19.825a231.035 231.035 0 0045.453-19.923c34.304-19.849 60.975-48.179 79.574-84.635a227.661 227.661 0 0020.883-61.555h-76.57v-20.804h99.773z" fill="#58C4CB"/><path opacity=".1" d="M761.451 464.556c67.288-26.507 102.947-73.659 121.253-109.87 21.347-42.22 24.254-78.321 24.363-79.863l.831-11.173h8.548l-.83 11.173c-.11 1.518-3.017 37.643-24.363 79.863-18.318 36.211-53.965 83.363-121.254 109.87a257.957 257.957 0 01-16.364 5.837l-.83-2.607a310.68 310.68 0 008.646-3.23z" fill="#fff"/><path d="M626.728 450.542l-6.302 19.825a257.957 257.957 0 01-16.364-5.837c-67.288-26.507-102.947-73.658-121.253-109.869-21.347-42.22-24.253-78.321-24.363-79.863l-.831-11.173h99.724v20.804h-76.582a227.762 227.762 0 0020.944 61.555c18.599 36.456 45.258 64.786 79.561 84.623a230.557 230.557 0 0045.466 19.935z" fill="#58C4CB"/><path opacity=".1" d="M612.293 464.556c-67.288-26.507-102.947-73.659-121.253-109.87-21.347-42.22-24.253-78.321-24.363-79.863l-.831-11.173h-8.548l.83 11.173c.11 1.518 3.017 37.643 24.363 79.863 18.318 36.211 53.965 83.363 121.254 109.87a257.957 257.957 0 0016.364 5.837l.83-2.607a330.96 330.96 0 01-8.646-3.23z" fill="#fff"/><path d="M802.081 642.185v112.183H571.676V642.185l7.327-9.79c74.665-26.556 89.795-95.808 92.812-123.208.449-3.787.705-7.593.769-11.406h28.491c.063 3.813.32 7.619.769 11.406 3.065 27.4 18.196 96.677 92.812 123.208l7.425 9.79z" fill="#58C4CB"/><path opacity=".1" d="M802.081 642.184H571.676v14.073h230.405v-14.073z" fill="#000"/><path opacity=".1" d="M591.215 632.395c74.665-26.556 89.795-95.808 92.812-123.208.449-3.787.705-7.593.769-11.406h-12.212c-.064 3.813-.32 7.619-.769 11.406-3.066 27.4-18.196 96.677-92.812 123.208l-7.327 9.79v112.183h12.212V642.185l7.327-9.79z" fill="#fff"/><path opacity=".1" d="M536.676 263.625h20.663v20.804h-18.831a530.084 530.084 0 01-1.832-20.804zM626.728 450.544l-6.301 19.825a257.957 257.957 0 01-16.364-5.837 219.168 219.168 0 01-22.8-33.923 230.49 230.49 0 0045.465 19.935zM747.028 450.544a231.07 231.07 0 0045.454-19.923 220.23 220.23 0 01-22.8 33.935 254.422 254.422 0 01-16.352 5.825l-6.302-19.837zM837.069 263.625a532.016 532.016 0 01-1.832 20.804h-18.819v-20.804h20.651zM701.893 509.187a78.8 78.8 0 01-30.03 0c.449-3.787.706-7.593.77-11.406h28.49c.064 3.813.321 7.619.77 11.406z" fill="#000"/><path d="M539.118 229.164c.525 154.268 66.47 279.018 147.766 279.018 81.296 0 147.228-124.75 147.766-279.018H539.118z" fill="#58C4CB"/><path opacity=".1" d="M565.374 229.164h-26.256c.525 154.268 66.47 279.018 147.766 279.018a79.665 79.665 0 0013.128-1.114c-75.153-12.58-134.137-132.031-134.638-277.904z" fill="#fff"/><path d="M765.237 685.127H608.52v40.384h156.717v-40.384z" fill="#3F3D56"/><path opacity=".1" d="M615.847 690.634h149.39v-5.507H608.52v40.384h7.327v-34.877z" fill="#fff"/><path d="M455.54 378.108c-2.821-.942-19.43-14.11-20.688-20.07-1.257-5.96 8.781-61.482 8.781-61.482s-.928 0-2.442-.183v-.894l2.063-72.936s8.463-48.95-7.522-46.099c-15.986 2.851-5.96 46.099-5.96 46.099s-1.819 21.955-3.102 28.538c-1.221 6.352-6.814 32.222-3.004 40.262.14.286.295.564.464.832 0 0 .635 27.596-6.265 31.365-6.582 3.586-9.317 21.636-9.549 23.252l-.355-.147a19.148 19.148 0 01-5.092-4.663c-.146-.183-.256-.379-.391-.575a26.953 26.953 0 006.781-18.418 26.947 26.947 0 00-7.501-18.135 27.097 27.097 0 00-7.559-5.532 17.42 17.42 0 00-1.625-6.755c-3.175-6.804-20.76-15.701-33.253-15.909-5.764-.171-10.49 1.469-12.212 5.984-.879 2.289-.611 4.895-.977 7.269-.733 4.895-3.871 8.726-7.901 11.773a49.71 49.71 0 00-5.264-5.079c-4.079-3.132-12.212-13.461-12.212-13.461s-25.389-26.348-27.269-33.568c-1.881-7.22-27.245-50.578-32.887-43.027-5.642 7.55 19.429 40.457 19.429 40.457s4.763 11.956 8.426 15.995c3.664 4.038 31.752 44.912 31.752 44.912l1.343 2.79c-5.935 3.133-11.357 7.122-13.274 13.339-2.809 9.154 3.333 18.357 7.583 26.923 8.28 16.716 9.465 38.034-1.221 53.307-9.574 13.486-26.183 19.898-41.729 25.503a41.014 41.014 0 0026.378 8.775c-3.59 10.426-16.315 13.877-27.159 15.811 5.691 5.482 13.836 7.477 21.652 8.688 3.828.653 7.706.96 11.589.918h.953l.952-.073a33.13 33.13 0 003.945-.502c5.642-1.15 11.125-4.234 14.007-9.227 2.442-4.271 3.297-10.096 7.73-12.238a9.873 9.873 0 013.664-.869h-.135H339l18.477.184h2.357c5.214-.123 10.783-1.028 13.433-5.348a14.857 14.857 0 001.673-6.792c.391-5.862 0-11.895.159-17.806 1.575 10.757 3.224 27.523-.696 33.715a57.493 57.493 0 01-11.455 12.446 21.976 21.976 0 00-3.029 3.108c-.598.428-.952.661-.952.661l-.379 1.138a21.588 21.588 0 00-2.98 6.926 4.828 4.828 0 00-.232 1.971c.428.869-3.053 4.454-2.039 5.959-8.695 10.219-10.344 25.699-10.344 25.699l-15.875 24.158c-8.158 21.477-20.37 23.679-20.37 23.679s-28.686-19.286-29.468-20.228c-.781-.943-11.748-5.654-11.748-5.654a12.436 12.436 0 00-5.642-5.164c-3.761-1.567-4.078-7.343-4.078-7.343-.465-13.645-8.463-14.685-8.463-14.685-6.448-.551-11.37.599-15.156 2.704l-1.148.086c-5.544.453-12.212.955-19.539 1.444-20.382 1.346-25.23 14.575-25.23 14.575s-2.503 2.827.782 5.886c3.285 3.06 24.314 0 25.205-.073a13.612 13.612 0 01-4.787-.331c3.31-.122 7.865-.244 11.748-.244h.941a51.043 51.043 0 00-.355 6.216c0 3.916 10.808 6.425 10.808 6.425l32.912 29.37s20.687 9.264 33.851 22.591c13.165 13.327 24.803 1.824 24.803 1.824 13.934-3.451 54.026-52.023 54.063-52.072 0 1.42.842 48.657 2.442 58.141.064.482.183.954.354 1.408 1.881 4.075-.635 15.211-1.722 19.91a55.42 55.42 0 00-.793 11.92s-15.033 57.517-13.788 62.571c1.246 5.054-8.145 28.538-8.145 28.538v19.58l1.636-.086c-.213.316-.408.643-.586.979l-.11.208s10.026 2.191 16.767 1.567c6.741-.624 18.318 5.201 18.318 5.201s3.92 1.86 15.986 2.643c12.065.783 12.065-5.335 12.065-5.335-1.379-8.334-20.443-11.124-21.029-11.21-1.538-.967-2.979-2.019-4.164-2.925l-.244-.196c.08-.183.149-.371.207-.563 2.04-8.321-9.244-11.931-9.244-11.931v-2.032c7.327-3.769 8.78-29.639 8.78-29.639s10.991-31.989 12.53-37.325c1.539-5.336 0-13.327 0-13.327l1.099-6.902s2.357-4.699 2.357-5.641a13.949 13.949 0 012.662-6.584c1.722-2.044-1.881-6.902-1.881-6.902l3.139-8.15v-8.946l7.327-32.454s7.682-37.802 5.019-50.175c-2.662-12.372 3.139-18.662 3.139-18.662-.523.275-1.061.521-1.612.734a46.937 46.937 0 001.893-5.213l16.486 2.044v.244h5.947s-1.88-23.251-1.88-32.625c0-9.374 6.338-43.015 6.338-43.015s2.821-32.883 0-33.825zm-73.187-27.143c0 .918-.086 1.872-.147 2.851l-.329.502-.611-.514-.745 1.163-.22.11c-1.612-.832-2.442-5.593-3.602-4.565l-.159.135c-.257-.294-.513-.38-.782-.135l-.244.208v-1.089c2.234.576 4.532.868 6.839.869.012.159 0 .318 0 .465zm54.832 108.278h.354l-.586 1.542c.073-.514.146-1.015.232-1.542zm-60.193 277.513l-2.247-.563 1.221-.208 1.136.747.134.097-.244-.073zm22.958-3.292a32.14 32.14 0 01-2.234-1.309c.244.134 1.209.636 2.234 1.309z" fill="url(#paint1_linear)"/><path d="M445.293 436.127l-14.789 38.622h3.59l-13.909 11.112 25.108 3.132v-52.866z" fill="#F86D70"/><path opacity=".1" d="M445.293 436.127l-14.789 38.622-3.725-1.004-6.594 12.116 25.108 3.132v-52.866z" fill="#000"/><path d="M422.103 460.835h23.19l8.512-70.183h-31.702v70.183z" fill="#F86D70"/><path opacity=".1" d="M422.103 460.835h23.19l8.512-70.183h-31.702v70.183z" fill="#000"/><path d="M376.808 407.272l5.007-.845 11.504-1.958s34.548-7.807 41.68-8.444a44.445 44.445 0 0012.505-3.573c1.868-.808 3.053-1.42 3.053-1.42l-12.444-22.774-19.308-14.342s-12.212-2.607-17.377-9.729a11.477 11.477 0 01-1.6-10.867c3.151-9.79-18.819 9.361-18.819 9.361s.208 4.59 0 10.439c0 1.151-.11 2.35-.195 3.574 0 .807-.11 1.615-.196 2.447-.537 5.813-1.636 11.797-3.81 15.371-5.312 8.737 0 32.76 0 32.76z" fill="#FBBEBE"/><path opacity=".1" d="M381.009 353.61h.488c.88 0 1.588-1.873 2.443-1.958 6.875-.661 13.152-2.105 17.512-6.988a11.497 11.497 0 01-1.6-10.855c3.151-9.79-18.819 9.35-18.819 9.35s.232 4.601-.024 10.451z" fill="#000"/><path d="M354.265 325.854a26.854 26.854 0 007.836 18.972 26.745 26.745 0 0018.932 7.853c.88 0 1.747 0 2.614-.122a26.74 26.74 0 0014.106-5.748 26.82 26.82 0 008.695-12.526 26.874 26.874 0 00.473-15.251 26.84 26.84 0 00-7.905-13.042 26.717 26.717 0 00-28.824-4.656 26.78 26.78 0 00-11.593 9.892 26.861 26.861 0 00-4.334 14.628z" fill="#FBBEBE"/><path d="M346.046 285.139c-.879 2.276-.61 4.821-.965 7.232-1.306 8.701-10.136 13.914-18.122 17.561-7.987 3.647-16.999 7.967-19.539 16.374-2.785 9.092 3.297 18.209 7.522 26.739 8.231 16.619 9.403 37.814-1.221 53.013-9.44 13.462-25.89 19.85-41.374 25.455a40.727 40.727 0 0026.194 8.737c-3.553 10.366-16.193 13.804-26.964 15.713 5.654 5.458 13.751 7.441 21.506 8.64 5.654.881 11.454 1.456 17.096.318 5.642-1.138 10.991-4.209 13.898-9.178 2.442-4.246 3.273-10.035 7.681-12.176a13.873 13.873 0 016.265-.918l18.318.196c5.703 0 12.456-.441 15.399-5.324a14.695 14.695 0 001.661-6.755c.794-12.042-1.514-24.769 3.432-35.758 1.49-3.317-8.072-8.566-7.071-12.079 3.444-12.078 4.311-21.587 4.274-34.155 0-9.729 6.314-18.112 11.528-26.323 5.215-8.211 9.575-18.577 5.459-27.388-4.64-9.827-39.494-24.108-44.977-9.924z" fill="#3F3D56"/><path d="M370.434 733.232l4.665 3.097.72.477.134.085 5.532 3.672 12.921 2.178 11.357-.783s3.273-6.853-1.868-6.694a10.688 10.688 0 01-4.69-1.359l-.708-.354a31.981 31.981 0 01-2.223-1.298 56.067 56.067 0 01-4.127-2.912c-1.71-1.322-2.846-2.325-2.846-2.325l-18.867 6.216z" fill="#FBBEBE"/><path opacity=".1" d="M375.159 736.329l.721.478.134.085 5.532 3.671 12.92 2.179 11.358-.784s3.272-6.852-1.869-6.693a10.684 10.684 0 01-4.689-1.359c.903.71 1.661 1.481 1.734 2.13.207 1.75-8.402 4.895-8.402 4.895l-12.139-3.219s-2.064-.587-4.885-1.322l-.268-.073-.147.012z" fill="#000"/><path d="M354.398 739.314s9.953 2.178 16.645 1.554c6.693-.624 18.221 5.152 18.221 5.152s3.895 1.835 15.876 2.619c11.98.783 11.98-5.311 11.98-5.311-1.368-8.285-20.297-11.014-20.883-11.137.232.123 1.221.625 2.223 1.298 1.343.881 2.796 2.031 2.906 2.961.208 1.738-8.402 4.895-8.402 4.895l-12.139-3.206s-2.063-.6-4.884-1.334h-.269a103.93 103.93 0 00-12.725-2.631c-5.227-.563-7.901 3.891-8.451 4.895a1.49 1.49 0 00-.098.245z" fill="#3F3D56"/><path d="M197.522 519.245l5.288 4.063s1.539-.073 3.835-.147h.733c3.285-.122 7.815-.244 11.662-.244a36.878 36.878 0 017.437.416c2.638.93 7.327-15.126 7.327-15.126l-5.3-1.224-1.758-.416-1.221-.293-4.311-1.016-13.067 1.493-9.184 5.923-1.441 6.571z" fill="#FBBEBE"/><path opacity=".1" d="M197.522 519.245l5.288 4.063s1.539-.073 3.835-.147a4.633 4.633 0 01-2.443-2.19c-3.419-9.509 13.544-13.572 13.544-13.572l7.901-.342 1.539-.074h1.221l-1.759-.416-1.221-.293-4.311-1.016-13.067 1.493-9.183 5.923-1.344 6.571z" fill="#000"/><path d="M187.094 523.542c3.199 2.962 24.155 0 25.034-.073-1.59.179-3.2.068-4.75-.331a5.225 5.225 0 01-3.664-2.631c-3.419-9.521 13.543-13.571 13.543-13.571l7.902-.343 1.526-.073 19.21-.832.928-5.299s-6.241.587-16.035 1.37c-5.507.453-12.212.955-19.453 1.432-20.236 1.346-25.047 14.502-25.047 14.502s-2.455 2.814.806 5.849z" fill="#3F3D56"/><path d="M422.115 293.84c.13.291.285.569.464.832l4.665 6.853 12.138 1.224.135-4.821 2.039-72.545s8.402-48.657-7.474-45.854c-15.875 2.802-5.91 45.854-5.91 45.854s-1.808 21.832-3.078 28.391c-1.233 6.339-6.765 32.112-2.979 40.066zM394.87 474.028l3.456 5.923 7.73 13.253s14.02 5.152 17.61 1.224c1.966-2.142 4.091-9.619 5.581-15.909 1.221-5.091 2.039-9.386 2.039-9.386l-36.416 4.895z" fill="#FBBEBE"/><path opacity=".1" d="M394.87 474.027l3.456 5.923c.217-.187.413-.396.586-.624 3.908-4.993 21.115-1.065 30.335-.746a227.705 227.705 0 002.039-9.387l-36.416 4.834zM219.04 522.894a36.95 36.95 0 017.437.416c2.638.93 7.327-15.126 7.327-15.126l-7.058-1.664 19.209-.832.929-5.299s-6.241.587-16.035 1.37a20.168 20.168 0 00-5.337 4.467l-.293.367c-4.091 5.03-5.605 11.516-6.179 16.301zM370.434 733.232l5.385 3.574c8.036-1.456 15.375-3.745 16.242-7.343a1.22 1.22 0 000-.171c-1.71-1.322-2.845-2.325-2.845-2.325l-18.782 6.265zM354.509 739.106a186.19 186.19 0 0021.175-2.276 103.748 103.748 0 00-12.737-2.656c-5.214-.563-7.889 3.892-8.438 4.932z" fill="#000"/><path d="M219.627 529.071c0 3.904 10.734 6.401 10.734 6.401l32.692 29.162s20.541 9.203 33.608 22.456c13.066 13.253 24.595 1.872 24.595 1.872 13.848-3.426 53.733-51.777 53.733-51.777s.928 55.216 2.796 59.267c1.869 4.051-.623 15.126-1.71 19.813a55.237 55.237 0 00-.781 11.846s-14.935 57.235-13.69 62.228c1.246 4.993-8.096 28.391-8.096 28.391v19.495s36.575-1.408 38.59-9.668c2.015-8.26-9.172-11.858-9.172-11.858v-2.032c7.328-3.744 8.708-29.468 8.708-29.468s10.905-31.818 12.456-37.117c1.551-5.299 0-13.265 0-13.265l1.087-6.853s2.332-4.687 2.332-5.617a13.893 13.893 0 012.65-6.547c1.71-2.032-1.868-6.866-1.868-6.866l3.114-8.113v-8.885l7.327-32.283s7.633-37.594 4.983-49.917c-2.65-12.323 3.114-18.552 3.114-18.552-12.493 6.559-18.795-8.04-20.858-14.318a38.192 38.192 0 01-.782-2.693s-17.158-6.339-33.131-4.821a38.047 38.047 0 00-9.513 2.019c-17.745 6.4-20.541 32.907-20.541 32.907l-15.717 24.023c-8.097 21.366-20.235 23.545-20.235 23.545s-28.479-19.177-29.309-20.119c-.831-.942-11.675-5.617-11.675-5.617a12.346 12.346 0 00-5.605-5.14c-3.737-1.566-4.043-7.342-4.043-7.342-.464-13.572-8.401-14.686-8.401-14.686-27.551-2.3-27.392 26.238-27.392 30.129z" fill="#3F3D56"/><path d="M378.066 452.82h16.804v-52.242h-16.804v52.242z" fill="#F86D70"/><path opacity=".1" d="M378.066 452.82h16.804v-52.242h-16.804v52.242zM422.103 293.73a.686.686 0 000 .111c.13.29.285.569.464.832l4.665 6.853 12.138 1.224.135-4.822c-3.786-.294-12.408-1.334-17.402-4.198z" fill="#000"/><path d="M422.578 294.672s.623 27.437-6.228 31.181c-6.851 3.745-9.513 23.252-9.513 23.252s20.76 13.682 25.389 19.702c4.628 6.021 15.253 20.364 13.067 23.79-2.186 3.427 5.3 19.03 5.3 19.03s-13.702 28.073-10.588 38.683c3.114 10.61 3.419 38.671 3.419 38.671h5.923s-1.868-23.08-1.868-32.442c0-9.362 6.216-42.734 6.216-42.734s2.808-32.748 0-33.678c-2.809-.93-19.296-14.036-20.541-19.972-1.246-5.935 8.719-61.188 8.719-61.188s-12.761-.55-19.295-4.295z" fill="#F86D70"/><path opacity=".1" d="M377.748 395.731a26.738 26.738 0 004.067 10.696l11.503-1.958s34.548-7.808 41.68-8.444a44.462 44.462 0 0012.505-3.574 55.283 55.283 0 00-15.448-25.393l-4.384-4.075a73.439 73.439 0 00-22.104-14.159c.513.429 36.758 31.439 28.821 37.521-7.938 6.082-29.309-8.726-29.309-8.726l-24.302-20.926-.88-.759-1.404 2.191c.715.294 1.412.629 2.088 1.003a35.817 35.817 0 0117.097 21.294c4.995 16.827-19.93 15.309-19.93 15.309z" fill="#000"/><path d="M370.274 473.71s23.032 12.788 28.625 5.617c1.222-1.579 3.798-2.264 7.01-2.448-.525-1.615-.781-2.692-.781-2.692s-17.158-6.339-33.132-4.821c-1.05 2.643-1.722 4.344-1.722 4.344z" fill="#444053"/><path d="M380.874 355.959l25.182 21.71s21.285 14.856 29.309 8.725c8.023-6.131-28.833-37.533-28.833-37.533a74.486 74.486 0 0122.092 14.123l4.384 4.075c11.528 10.708 14.129 10.708 14.52 26.445.098 3.88-1.221 9.448-2.235 10.451-3.737 3.671-6.35 30.337-5.776 33.458.574 3.12-6.961 30.055-4.519 37.545 2.443 7.489-30.53-3.745-36.111 3.439-5.581 7.183-28.613-5.617-28.613-5.617s12.762-32.761 15.876-34.939c3.114-2.178 6.851-19.029 0-26.825-6.851-7.795-7.461-15.285-7.461-15.285s24.912 1.542 19.917-15.284a35.342 35.342 0 00-7.147-13.242 35.255 35.255 0 00-12.001-9.055l1.416-2.191z" fill="#E8E8F0"/><path opacity=".1" d="M414.482 411.176s-9.659 18.246-22.152 22.982c-.403.147-.794.281-1.222.404-13.042 3.977 24.351-17.732 23.374-23.386z" fill="#000"/><path d="M279.393 249.748s4.665 11.858 8.401 15.909c3.737 4.051 31.434 44.606 31.434 44.606l2.345 4.895 2.015 4.173 17.744-1.872 1.221-7.171-.684-.832c-1.783-2.142-6.643-7.894-9.904-10.402-4.042-3.109-12.138-13.401-12.138-13.401s-25.206-26.213-27.074-33.384c-1.869-7.171-27.087-50.174-32.68-42.734-5.593 7.441 19.32 40.213 19.32 40.213z" fill="#FBBEBE"/><path opacity=".1" d="M330.878 442.649a13.897 13.897 0 00-6.265.906c-4.396 2.142-5.226 7.93-7.669 12.177-2.857 4.968-8.304 8.04-13.909 9.178-1.115.216-2.24.372-3.371.465 3.57.348 7.171.191 10.698-.465 5.605-1.138 11.052-4.21 13.909-9.178 2.443-4.247 3.273-10.035 7.67-12.177a9.762 9.762 0 013.663-.857l-4.726-.049zM374.255 348.776c0-9.729 6.314-18.112 11.516-26.323 5.202-8.212 9.574-18.577 5.459-27.388-3.517-7.526-24.717-17.622-36.954-15.628 11.98 1.555 26.745 9.46 29.627 15.628 4.115 8.811-.257 19.176-5.459 27.388-5.202 8.211-11.541 16.594-11.516 26.323 0 12.556-.843 22.027-4.287 34.155-.989 3.488 8.549 8.762 7.083 12.066-4.958 11.014-2.637 23.717-3.431 35.759a14.905 14.905 0 01-1.673 6.755c-2.443 4.026-7.45 5.066-12.322 5.286h4.262c5.691 0 12.444-.44 15.387-5.323a14.89 14.89 0 001.673-6.755c.794-12.042-1.526-24.757 3.432-35.759 1.49-3.304-8.072-8.566-7.083-12.066 3.443-12.042 4.311-21.562 4.286-34.118zM321.573 315.134l2.015 4.173 17.744-1.872 1.222-7.171-.684-.832c-1.893.93-16.071 7.771-20.297 5.702z" fill="#000"/><path opacity=".1" d="M387.09 362.041s-4.36-6.853-6.851-4.993c-2.491 1.86-3.456-5.617-4.885-4.369-1.429 1.248-5.593 4.724-7.327-.134-1.356-3.867-16.108-28.33-22.092-38.17-1.538-2.545-2.503-4.111-2.503-4.111s-16.804 8.419-20.846 5.617v5.923l3.419.318 18.318 34.265s5.764 9.191 5.374 12.397c-.391 3.206 7.388 17.243 8.634 18.173 1.245.93 14.654 16.533 14.654 16.533s6.851 33.69.928 43.052c-5.923 9.362-16.181 16.215-16.181 16.215s-3.089 9.043-2.638 9.986c.452.942-3.59 4.993-1.722 6.241 1.869 1.248 4.36 9.973 4.36 9.973s8.72-14.036 13.433-16.214c4.714-2.179 10.747-30.888 10.747-30.888s1.722-16.913 1.856-27.829c.135-10.915-.415-51.985 3.322-51.985z" fill="#000"/><path d="M386.151 362.041s-4.348-6.853-6.839-4.993c-2.491 1.86-3.468-5.617-4.885-4.369-1.417 1.248-5.581 4.724-7.327-.134-1.368-3.867-16.12-28.33-22.092-38.17l-2.503-4.111s-16.804 8.419-20.859 5.617v5.923l3.432.318 18.318 34.265s5.776 9.191 5.373 12.397c-.403 3.206 7.328 17.243 8.634 18.173 1.307.93 14.655 16.533 14.655 16.533s6.851 33.69.94 43.052a57.299 57.299 0 01-11.272 12.507 21.841 21.841 0 00-7.327 11.772 4.662 4.662 0 00-.22 1.958c.452.93-3.59 4.993-1.721 6.242 1.868 1.248 4.384 10.01 4.384 10.01s8.719-14.037 13.433-16.215c4.714-2.178 10.759-30.888 10.759-30.888s1.709-16.912 1.856-27.828c.146-10.916-.403-52.059 3.261-52.059z" fill="#F86D70"/><path opacity=".1" d="M343.506 503.973s13.079 2.447 18.318 6.229c5.239 3.781-19.918-5.923-19.918-5.923l1.6-.306zM374.951 537.186s13.641 11.393 11.199 21.685c-2.443 10.292-8.744 36.186-8.744 36.186l-2.455-57.871zM255.652 515.279s-19.221 2.105-17.976 4.602c1.246 2.496 17.976-2.301 17.976-2.301v-2.301zM403.247 610.025s1.222 1.554-5.91 0-1.869-6.351-1.869-6.351l7.779 6.351zM400.805 631.55s-9.77 1.554-15.009 0c-5.238-1.554 15.009 0 15.009 0zM380.703 715.768s-1.709-1.872-10.27 1.555c-8.561 3.426-11.98 3.585-14.471 2.447-2.491-1.138 24.741-4.002 24.741-4.002zM390.205 512.625l-12.139 16.925s6.534-14.82 12.139-16.925zM366.611 357.049s-.525 5.617-8.353 7.807c-7.828 2.191-9.318 3.965-9.318 3.965M346.266 316.334s-10.331 7.343-21.115 5.788zM354.13 473.551s3.016 1.897 10.258-6.401zM429.344 385.572c.293-1.517-.758-2.924-1.747-4.111l-2.027-2.448a9.428 9.428 0 00-1.331-1.371c-1.221-.942-2.784-1.223-4.054-2.068" fill="#000"/></g><defs><linearGradient id="paint0_linear" x1="988.828" y1="576.737" x2="988.828" y2="84.418" gradientUnits="userSpaceOnUse"><stop stop-color="gray" stop-opacity=".25"/><stop offset=".54" stop-color="gray" stop-opacity=".12"/><stop offset="1" stop-color="gray" stop-opacity=".1"/></linearGradient><linearGradient id="paint1_linear" x1="48668.2" y1="306615" x2="108985" y2="306615" gradientUnits="userSpaceOnUse"><stop stop-color="gray" stop-opacity=".25"/><stop offset=".54" stop-color="gray" stop-opacity=".12"/><stop offset="1" stop-color="gray" stop-opacity=".1"/></linearGradient><clipPath id="clip0"><path fill="#fff" d="M0 0h1400v757.353H0z"/></clipPath></defs></svg>